<?xml version="1.0" encoding="utf-8"?>
<!-- Generator: Adobe Illustrator 26.4.1, SVG Export Plug-In . SVG Version: 6.00 Build 0)  -->
<svg version="1.1" id="Layer_1" xmlns:ev="http://www.w3.org/2001/xml-events"
	 xmlns="http://www.w3.org/2000/svg" xmlns:xlink="http://www.w3.org/1999/xlink" width="1224pt" height="792pt" viewBox="0 0 1224 792"
	 style="enable-background:new 0 0 1224 792;" xml:space="preserve">
<style type="text/css">
	.st0{fill:none;stroke:#000000;stroke-width:6.000000e-02;stroke-linecap:round;stroke-linejoin:round;stroke-miterlimit:10;}
	.st1{fill:none;stroke:#000000;stroke-width:0.24;stroke-linecap:round;stroke-linejoin:round;stroke-miterlimit:10;}
	.st2{fill:none;stroke:#000000;stroke-width:0.12;stroke-linecap:round;stroke-miterlimit:10;}
	.st3{stroke:#000000;stroke-width:0.12;stroke-linecap:round;stroke-miterlimit:10;}
	.st4{stroke:#000000;stroke-width:0.12;stroke-miterlimit:10;}
</style>
<path d="M0.6,0v-3H3v3H0.6 M0.7-0.1h2.2v-2.8H0.7V-0.1"/>
<path d="M0.4-2v-0.5h0.5V-2H0.4 M0.4,0v-0.5h0.5V0H0.4"/>
<path d="M0.4,0v-3.4h1.2c0.3,0,0.5,0,0.6,0c0.2,0,0.4,0.1,0.5,0.2C2.8-2.9,2.9-2.7,3-2.5S3.2-2,3.2-1.7c0,0.2,0,0.5-0.1,0.7
	C3-0.8,2.9-0.7,2.8-0.5c0,0.1-0.2,0.2-0.3,0.3S2.3-0.1,2.1,0C2,0,1.8,0,1.6,0H0.4 M0.8-0.4h0.7c0.2,0,0.4,0,0.5,0
	c0.1,0,0.2-0.1,0.3-0.2S2.5-0.8,2.5-1c0.1-0.2,0.1-0.4,0.1-0.7c0-0.4-0.1-0.6-0.2-0.8c0-0.2-0.1-0.3-0.3-0.4C2-3,1.8-3,1.5-3H0.8
	V-0.4"/>
<path d="M0,0l1.3-3.4h0.5L3.2,0H2.6L2.2-1H0.8L0.5,0H0 M1-1.4h1.1L1.8-2.3C1.6-2.6,1.6-2.8,1.5-3c0,0.2-0.1,0.4-0.2,0.6L1-1.4"/>
<path d="M1.2,0v-3H0.1v-0.4h2.7V-3H1.7v3H1.2"/>
<path d="M0.4,0v-3.4h2.4V-3h-2v1h1.9v0.4H0.8v1.1h2.1V0H0.4"/>
<path d="M0.4,0v-3.4h1.5c0.3,0,0.5,0,0.7,0.1C2.7-3.2,2.8-3.1,2.9-3S3-2.7,3-2.5C3.1-2.2,3-2,2.8-1.8C2.7-1.7,2.4-1.6,2.1-1.5
	c0.1,0.1,0.2,0.1,0.3,0.2S2.6-1,2.8-0.8L3.3,0H2.8L2.3-0.7C2.2-0.9,2.1-1.1,2-1.2C1.9-1.3,1.9-1.3,1.8-1.4c-0.1,0-0.1-0.1-0.2-0.1
	c0,0-0.1,0-0.2,0H0.8V0H0.4 M0.8-1.9h1c0.2,0,0.4,0,0.5-0.1c0.1,0,0.2-0.1,0.3-0.2c0.1-0.1,0.1-0.2,0.1-0.3c0-0.2-0.1-0.3-0.2-0.4
	C2.3-2.9,2.1-3,1.9-3H0.8V-1.9"/>
<path d="M1,0L0.1-3.4h0.5L1-1.2C1.1-1,1.1-0.7,1.1-0.5C1.3-0.8,1.3-1,1.3-1.1L2-3.4h0.5L3-1.7c0.1,0.4,0.2,0.8,0.3,1.2
	c0-0.2,0.1-0.5,0.2-0.7L4-3.4h0.5L3.5,0H3L2.3-2.6c0-0.2-0.1-0.3-0.1-0.4c0,0.2-0.1,0.3-0.1,0.4L1.4,0H1"/>
<path d="M0.4,0v-3.4h0.5l1.8,2.7v-2.7H3V0H2.6L0.8-2.7V0H0.4"/>
<path d="M0.4,0v-3.4h1.3c0.2,0,0.4,0,0.5,0c0.2,0,0.3,0.1,0.4,0.2S2.8-3,2.8-2.9c0.1,0.1,0.1,0.3,0.1,0.5c0,0.3-0.1,0.5-0.3,0.7
	s-0.5,0.3-1,0.3H0.8V0H0.4 M0.8-1.8h0.9C2-1.8,2.2-1.9,2.3-2c0.1,0,0.2-0.2,0.2-0.4c0-0.1,0-0.3-0.1-0.4C2.3-2.9,2.2-2.9,2.1-3
	C2-3,1.9-3,1.7-3H0.8V-1.8"/>
<path d="M0.2-1.6c0-0.6,0.1-1,0.4-1.3C1-3.3,1.4-3.4,1.8-3.4c0.3,0,0.6,0.1,0.8,0.2C2.8-3.1,3-2.8,3.2-2.6C3.4-2.3,3.5-2,3.5-1.7
	S3.4-1,3.3-0.8C3.1-0.5,2.9-0.3,2.7-0.1C2.4,0,2.1,0.1,1.8,0.1S1.2,0,1-0.2S0.5-0.5,0.4-0.8S0.2-1.3,0.2-1.6 M0.7-1.6
	c0,0.4,0.1,0.7,0.3,1c0.2,0.2,0.5,0.3,0.8,0.3s0.6-0.1,0.8-0.3C2.9-0.9,3-1.2,3-1.7C3-2,3-2.2,2.9-2.4C2.8-2.6,2.6-2.8,2.5-2.9
	C2.3-3,2.1-3,1.8-3S1.3-2.9,1-2.7C0.8-2.5,0.7-2.1,0.7-1.6"/>
<path d="M0.1-1h0.4c0,0.3,0.1,0.4,0.1,0.5C0.8-0.4,0.9-0.3,1-0.3s0.2,0,0.3-0.1c0.1-0.1,0.1-0.1,0.2-0.2c0-0.1,0-0.2,0-0.4v-2.3H2
	V-1c0,0.3,0,0.5-0.1,0.7c-0.1,0-0.2,0.2-0.3,0.2C1.4,0,1.2,0.1,1,0.1C0.7,0.1,0.5,0,0.4-0.2C0.2-0.4,0.1-0.6,0.1-1"/>
<path d="M2.8-1.2l0.4,0.1C3.1-0.7,3-0.4,2.7-0.2C2.5,0,2.2,0.1,1.8,0.1C1.5,0.1,1.2,0,0.9-0.2C0.7-0.3,0.5-0.5,0.4-0.8
	S0.2-1.4,0.2-1.7s0.1-0.6,0.2-0.9C0.6-2.9,0.8-3.1,1-3.2c0.2-0.1,0.5-0.2,0.8-0.2s0.6,0.1,0.9,0.3C2.9-3,3.1-2.8,3.2-2.5L2.7-2.3
	C2.6-2.6,2.5-2.8,2.4-2.9C2.2-3,2-3,1.8-3S1.3-3,1.2-2.9C1-2.7,0.9-2.6,0.8-2.4C0.7-2.1,0.7-1.9,0.7-1.7c0,0.3,0,0.5,0.1,0.8
	C0.9-0.7,1-0.6,1.2-0.5s0.4,0.2,0.6,0.2s0.5-0.1,0.6-0.2C2.6-0.7,2.7-0.9,2.8-1.2"/>
<path d="M0.2-1.2c0-0.5,0.1-0.8,0.4-1C0.7-2.4,1-2.5,1.3-2.5s0.6,0.1,0.8,0.3s0.4,0.6,0.4,0.9s0,0.6-0.1,0.8
	C2.2-0.3,2.1-0.2,1.9-0.1S1.5,0.1,1.3,0.1C1,0.1,0.7,0,0.5-0.3C0.3-0.5,0.2-0.8,0.2-1.2 M0.6-1.2c0,0.3,0.1,0.5,0.2,0.7
	s0.3,0.2,0.5,0.2s0.4-0.1,0.5-0.2C1.9-0.7,2-0.9,2-1.2S1.9-1.7,1.8-1.9C1.7-2.1,1.5-2.2,1.3-2.2S0.9-2.1,0.8-2
	C0.6-1.8,0.6-1.5,0.6-1.2"/>
<path d="M0.4,0v-0.5h0.5V0H0.4"/>
<path d="M0.2-1.1h0.4c0,0.2,0.1,0.3,0.1,0.4C0.8-0.6,1-0.5,1.1-0.4c0.2,0.1,0.3,0.1,0.5,0.1s0.3,0,0.5-0.1c0.1-0.1,0.2-0.1,0.3-0.2
	s0.1-0.2,0.1-0.3s0-0.2-0.1-0.3C2.3-1.3,2.2-1.3,2.1-1.4C2-1.4,1.8-1.5,1.5-1.6c-0.3,0-0.6-0.1-0.7-0.2C0.7-1.8,0.5-2,0.5-2.1
	C0.4-2.2,0.3-2.3,0.3-2.5s0-0.3,0.1-0.5c0.1-0.1,0.2-0.3,0.4-0.3C1-3.4,1.2-3.4,1.4-3.4s0.5,0,0.7,0.1C2.4-3.2,2.5-3.1,2.6-3
	c0.1,0.2,0.2,0.3,0.2,0.5H2.4c0-0.2-0.1-0.4-0.2-0.5C2-3,1.8-3,1.5-3C1.3-3,1.1-3,1-2.9C0.8-2.8,0.8-2.7,0.8-2.5
	c0,0.1,0,0.2,0.1,0.3C1-2.2,1.2-2.1,1.6-2C2-1.9,2.2-1.8,2.4-1.8c0.2,0.1,0.3,0.2,0.4,0.4C2.9-1.3,2.9-1.1,2.9-1
	c0,0.2-0.1,0.4-0.2,0.5C2.6-0.3,2.5-0.2,2.3-0.1S1.9,0.1,1.7,0.1c-0.3,0-0.6,0-0.8-0.1C0.7-0.2,0.5-0.3,0.4-0.5S0.2-0.9,0.2-1.1"/>
<path d="M0.4,0v-3.4h0.5V0H0.4"/>
<path d="M1.3,0L0-3.4h0.5l0.9,2.5c0.1,0.2,0.1,0.4,0.2,0.5c0.1-0.2,0.1-0.4,0.2-0.5l0.9-2.5h0.5L1.8,0H1.3"/>
<path d="M0.3,0v-3.4h0.5v3h1.7V0H0.3"/>
<path d="M0.4,0v-3.4h0.5V-2h1.8v-1.4H3V0H2.6v-1.6H0.8V0H0.4"/>
<path d="M0.3,0v-3.4h0.5v1.7l1.7-1.7h0.6L1.7-2l1.5,2H2.5L1.3-1.7L0.8-1.2V0H0.3"/>
<path d="M1.5,0v-0.8H0.1v-0.4l1.5-2.2h0.3v2.2h0.5v0.4H1.9V0H1.5 M1.5-1.2v-1.5l-1,1.5H1.5"/>
<path d="M0,0.1l1-3.5h0.3l-1,3.5L0,0.1"/>
<path d="M2.4-0.4V0H0.1c0-0.1,0-0.2,0-0.3c0.1-0.2,0.2-0.3,0.3-0.5C0.6-0.9,0.8-1.1,1-1.2C1.4-1.6,1.6-1.8,1.8-2
	C1.9-2.2,2-2.3,2-2.5S1.9-2.8,1.8-2.9C1.6-3,1.5-3,1.3-3S1-3,0.8-2.9C0.7-2.7,0.6-2.6,0.6-2.4H0.2c0-0.3,0.1-0.6,0.3-0.7
	C0.7-3.3,1-3.4,1.3-3.4s0.6,0.1,0.8,0.3s0.3,0.4,0.3,0.7c0,0.1,0,0.3-0.1,0.4C2.2-1.9,2.1-1.8,2-1.6C1.9-1.5,1.7-1.3,1.4-1
	C1.1-0.8,1-0.7,0.9-0.6c-0.1,0-0.1,0.1-0.2,0.2H2.4"/>
<path d="M0.2-1.7c0-0.4,0-0.7,0.1-1c0.1-0.2,0.2-0.4,0.4-0.6c0.1,0,0.3-0.1,0.6-0.1c0.2,0,0.3,0,0.5,0.1C1.9-3.2,2-3.1,2.1-3
	s0.2,0.3,0.2,0.5C2.4-2.3,2.4-2,2.4-1.7c0,0.4,0,0.7-0.1,1C2.2-0.5,2.1-0.3,1.9-0.1C1.8,0,1.5,0.1,1.3,0.1C1,0.1,0.7-0.1,0.5-0.3
	C0.3-0.6,0.2-1,0.2-1.7 M0.6-1.7c0,0.6,0.1,0.9,0.2,1.1s0.3,0.3,0.5,0.3s0.3-0.1,0.5-0.3C1.9-0.8,2-1.1,2-1.7S1.9-2.6,1.8-2.8
	C1.6-3,1.5-3,1.3-3S0.9-3,0.8-2.8S0.6-2.2,0.6-1.7"/>
<path d="M1.8,0H1.3v-2.6C1.2-2.5,1.1-2.5,0.9-2.4C0.8-2.3,0.6-2.2,0.5-2.1v-0.4c0.2-0.1,0.4-0.2,0.6-0.4s0.3-0.3,0.4-0.5h0.3V0"/>
<path d="M0.3-0.8h0.4c0,0.2,0.1,0.3,0.2,0.4s0.2,0.1,0.4,0.1c0.1,0,0.2,0,0.3-0.1s0.2-0.1,0.2-0.2c0-0.1,0.1-0.2,0.1-0.4
	C2-1.2,2-1.3,2-1.5v-0.1C1.9-1.5,1.8-1.3,1.7-1.3C1.5-1.2,1.4-1.1,1.2-1.1c-0.3,0-0.5-0.1-0.7-0.3S0.2-1.9,0.2-2.2S0.3-2.8,0.5-3
	C0.7-3.3,1-3.4,1.3-3.4c0.2,0,0.4,0.1,0.6,0.2C2-3.1,2.2-2.9,2.3-2.7s0.1,0.5,0.1,0.9s0,0.8-0.1,1C2.2-0.5,2-0.3,1.9-0.1
	C1.7,0,1.5,0.1,1.2,0.1S0.7,0,0.6-0.2C0.4-0.3,0.3-0.5,0.3-0.8 M2-2.3c0-0.2-0.1-0.4-0.2-0.6C1.6-3,1.5-3,1.3-3S1-3,0.8-2.8
	C0.7-2.7,0.6-2.5,0.6-2.2c0,0.2,0.1,0.4,0.2,0.5s0.3,0.2,0.5,0.2s0.3-0.1,0.5-0.2C1.9-1.9,2-2,2-2.3"/>
<path d="M0.2-0.9L0.6-1c0.1,0.2,0.1,0.4,0.2,0.5C1-0.3,1.1-0.3,1.3-0.3s0.3-0.1,0.5-0.2C1.9-0.6,2-0.8,2-1S1.9-1.4,1.8-1.5
	C1.7-1.6,1.5-1.6,1.3-1.6c-0.1,0-0.2,0-0.3,0V-2h0.1c0.2,0,0.3,0,0.5-0.1c0.1-0.1,0.2-0.2,0.2-0.4S1.7-2.8,1.6-2.9
	C1.6-3,1.4-3,1.3-3C1.1-3,1-3,0.9-2.9C0.8-2.8,0.7-2.6,0.7-2.4L0.2-2.5C0.3-2.8,0.4-3,0.6-3.2C0.8-3.3,1-3.4,1.2-3.4s0.4,0,0.5,0.1
	C1.9-3.2,2-3.1,2.1-3s0.1,0.3,0.1,0.4c0,0.1,0,0.3-0.1,0.4c0,0.2-0.2,0.3-0.3,0.4c0.2,0,0.3,0.1,0.5,0.3c0,0.1,0.1,0.3,0.1,0.5
	c0,0.3-0.1,0.5-0.3,0.8C1.9,0,1.6,0.1,1.3,0.1S0.7,0,0.5-0.2S0.2-0.6,0.2-0.9"/>
<path d="M0.3-2.2L0.2-2.8v-0.5h0.5v0.5L0.6-2.2H0.3 M1.1-2.2L1-2.8v-0.5h0.5v0.5L1.3-2.2H1.1"/>
<path d="M2.5-2H0.3v-0.4h2.2V-2 M2.5-1H0.3v-0.4h2.2V-1"/>
<path d="M0.3-2.2L0.2-2.8v-0.6h0.5v0.6L0.6-2.2H0.3"/>
<path d="M0.2-1v-0.4h1.3V-1H0.2"/>
<path d="M0,0v-8.2h6.6V0H0 M0.2-0.2h6.2V-8H0.2V-0.2"/>
<path d="M1-9.5h4.3c0.9,0,1.5,0.1,2.1,0.4c0.5,0.2,1,0.6,1.3,1C9-7.7,9.3-7.2,9.5-6.6C9.6-6,9.7-5.4,9.7-4.8c0,1-0.1,1.8-0.3,2.3
	c-0.2,0.6-0.6,1-1,1.4C8-0.6,7.5-0.4,7.1-0.3C6.4-0.1,5.9,0,5.3,0H1V-9.5 M3.9-7.3v5.2h0.7c0.6,0,1-0.1,1.3-0.2
	C6.2-2.5,6.4-2.7,6.5-3s0.2-0.9,0.2-1.7c0-1-0.2-1.7-0.5-2C6-7.1,5.4-7.3,4.7-7.3H3.9"/>
<path d="M8.4-2.8H3.1c0,0.4,0.1,0.7,0.3,0.9c0.3,0.3,0.6,0.4,1,0.4c0.3,0,0.5-0.1,0.7-0.2c0.2,0,0.4-0.1,0.6-0.3l2.6,0.2
	C7.9-1.1,7.4-0.6,6.8-0.3S5.4,0.2,4.4,0.2C3.5,0.2,2.8,0,2.3-0.2C1.7-0.5,1.3-0.9,1-1.4C0.6-2,0.5-2.7,0.5-3.4c0-1.1,0.3-1.9,1-2.6
	s1.6-1,2.8-1c1,0,1.8,0.2,2.3,0.5c0.6,0.3,1,0.7,1.3,1.3C8.2-4.7,8.4-4,8.4-3.1V-2.8 M5.7-4c0-0.5-0.2-0.9-0.4-1.1S4.8-5.5,4.4-5.5
	S3.7-5.3,3.4-5C3.3-4.7,3.2-4.4,3.1-4H5.7"/>
<path d="M0.8,2.6v-9.5h2.5v1c0.3-0.4,0.6-0.7,0.9-0.9C4.6-6.9,5-7,5.5-7c0.9,0,1.6,0.4,2.1,1c0.5,0.7,0.8,1.6,0.8,2.6
	c0,1.1-0.3,2-0.8,2.6c-0.6,0.7-1.3,1-2.1,1C5,0.2,4.7,0.1,4.3,0C4-0.2,3.7-0.4,3.5-0.7v3.3H0.8 M3.4-3.4c0,0.5,0.1,0.9,0.3,1.2
	C4-1.9,4.3-1.8,4.6-1.8c0.3,0,0.6-0.1,0.8-0.4c0.2-0.2,0.3-0.7,0.3-1.3s-0.1-1-0.3-1.2C5.2-4.9,4.9-5.1,4.6-5.1
	C4.3-5.1,4-4.9,3.8-4.7C3.5-4.4,3.4-4,3.4-3.4"/>
<path d="M3.2-4.6L0.7-4.9c0.1-0.4,0.2-0.8,0.4-1c0.2-0.3,0.4-0.5,0.8-0.7c0.2-0.1,0.6-0.2,1-0.3C3.3-7,3.7-7,4.2-7
	C5-7,5.6-7,6.1-6.9S7-6.6,7.3-6.3c0.2,0.2,0.4,0.5,0.5,0.8C8-5.1,8-4.8,8-4.5v3c0,0.3,0,0.6,0.1,0.8c0,0.2,0.1,0.4,0.3,0.7H5.9
	C5.8-0.2,5.7-0.3,5.7-0.4S5.6-0.6,5.6-0.8c-0.3,0.3-0.7,0.6-1,0.7C4.1,0.1,3.6,0.2,3,0.2C2.1,0.2,1.5,0,1.1-0.4S0.5-1.3,0.5-1.8
	S0.6-2.7,1-3.1c0.3-0.3,0.9-0.6,1.7-0.8c1-0.2,1.6-0.3,1.9-0.4c0.3-0.1,0.6-0.2,0.9-0.3c0-0.3-0.1-0.5-0.2-0.7
	C5.1-5.4,4.9-5.4,4.6-5.4c-0.4,0-0.8,0.1-1,0.2C3.4-5.1,3.3-4.9,3.2-4.6 M5.5-3.2C5.1-3.1,4.7-3,4.3-2.9c-0.5,0.1-0.9,0.3-1,0.4
	C3.2-2.3,3.1-2.2,3.1-2s0.1,0.4,0.2,0.5C3.5-1.4,3.7-1.3,4-1.3s0.6-0.1,0.8-0.2C5-1.7,5.2-1.8,5.3-2c0.1-0.2,0.2-0.5,0.2-0.8V-3.2"
	/>
<path d="M0.8-6.8h2.5v1.1c0.2-0.5,0.5-0.8,0.7-1C4.3-6.9,4.6-7,4.9-7c0.4,0,0.8,0.1,1.3,0.4L5.4-4.8C5.1-4.9,4.8-5,4.7-5
	C4.3-5,4-4.8,3.9-4.5C3.6-4.1,3.5-3.4,3.5-2.3V0H0.8V-6.8"/>
<path d="M4-9.5v2.6h1.5V-5H4v2.4C4-2.2,4-2,4-1.9c0.1,0.1,0.2,0.2,0.5,0.2c0.2,0,0.5-0.1,0.8-0.2l0.2,1.8C4.9,0.1,4.2,0.2,3.7,0.2
	C3,0.2,2.5,0.1,2.2-0.1S1.7-0.5,1.5-0.9C1.4-1.2,1.3-1.8,1.3-2.5v-2.4h-1v-1.9h1v-1.3L4-9.5"/>
<path d="M0.8-6.8h2.5v1c0.3-0.5,0.7-0.8,1-0.9C4.7-6.9,5.1-7,5.6-7c0.6,0,1,0.1,1.3,0.3c0.3,0.2,0.6,0.5,0.8,0.9
	c0.4-0.4,0.8-0.8,1.1-0.9C9.2-6.9,9.6-7,10.1-7c0.7,0,1.3,0.2,1.7,0.7c0.4,0.4,0.6,1.1,0.6,2V0H9.8v-3.9c0-0.3-0.1-0.5-0.2-0.7
	C9.4-4.8,9.2-4.9,9-4.9c-0.3,0-0.6,0.1-0.8,0.3C8-4.4,7.9-4,7.9-3.5V0H5.3v-3.8c0-0.3,0-0.5,0-0.6C5.2-4.6,5.1-4.7,5-4.8
	C4.8-4.9,4.7-5,4.5-5C4.2-5,3.9-4.8,3.7-4.6C3.5-4.4,3.4-4,3.4-3.5V0H0.8V-6.8"/>
<path d="M0.8-6.8h2.4v1.1c0.4-0.5,0.7-0.8,1.1-1C4.7-6.9,5.2-7,5.7-7C6.4-7,7-6.8,7.4-6.3C7.8-5.9,8-5.3,8-4.4V0H5.4v-3.8
	c0-0.4-0.1-0.7-0.2-0.9C5-4.8,4.8-4.9,4.5-4.9S3.9-4.8,3.7-4.5C3.5-4.3,3.4-3.9,3.4-3.3V0H0.8V-6.8"/>
<path d="M0.5-3.4c0-1,0.3-1.9,1-2.6s1.7-1,2.9-1c1.4,0,2.4,0.4,3.1,1.2C8-5.2,8.3-4.4,8.3-3.4c0,1.1-0.4,1.9-1,2.6
	c-0.7,0.7-1.7,1-2.9,1c-1.1,0-2-0.3-2.7-0.8C0.9-1.4,0.5-2.3,0.5-3.4 M3.1-3.4c0,0.6,0.1,1.1,0.4,1.3C3.7-1.8,4-1.6,4.4-1.6
	S5.1-1.8,5.3-2c0.2-0.3,0.4-0.8,0.4-1.4s-0.1-1-0.4-1.3C5.1-5.1,4.8-5.2,4.4-5.2S3.7-5,3.4-4.7C3.2-4.5,3.1-4,3.1-3.4"/>
<path d="M3.7-6.8H5v1.9H3.7V0H1.1v-4.9h-1v-1.9h1v-0.3c0-0.3,0-0.6,0.1-0.9c0.1-0.3,0.2-0.6,0.3-0.8C1.7-9,1.9-9.2,2.2-9.3
	s0.7-0.2,1.3-0.2c0.5,0,1.1,0.1,2,0.2L5.2-7.9c-0.3,0-0.5,0-0.7,0S4.1-7.9,4-7.8C3.9-7.7,3.8-7.6,3.8-7.5C3.7-7.3,3.7-7.1,3.7-6.8"
	/>
<path d="M0.9,0v-3h3.5v3H0.9 M1-0.1h3.3v-2.8H1V-0.1"/>
<path d="M0.3-2.9v-0.4h3.3V-3C3.3-2.8,3-2.5,2.7-2.1C2.3-1.7,2.1-1.3,1.9-0.9C1.8-0.6,1.7-0.3,1.7,0H1c0-0.3,0.1-0.6,0.2-1
	c0.2-0.3,0.4-0.7,0.7-1c0.3-0.4,0.6-0.6,0.9-0.9H0.3"/>
<path d="M0.5,0v-3.4h1L2.7-1C2.8-0.8,2.9-0.6,3-0.5C3-0.6,3.1-0.8,3.2-1l1.2-2.3h0.9V0H4.7v-2.8L3.2,0H2.6L1.2-2.9V0H0.5"/>
<path d="M2.9-0.3C2.6-0.2,2.4-0.1,2.2,0C2,0,1.8,0.1,1.5,0.1C1.1,0.1,0.8,0,0.6-0.1C0.4-0.3,0.2-0.4,0.2-0.6c0-0.1,0-0.2,0.1-0.3
	s0.2-0.2,0.3-0.2C0.8-1.3,1-1.3,1.1-1.3s0.3,0,0.6-0.1c0.5,0,0.9-0.1,1.1-0.1c0-0.1,0-0.1,0-0.1c0-0.2,0-0.4-0.2-0.4
	C2.5-2.1,2.2-2.2,1.9-2.2s-0.5,0-0.6,0.1C1.1-2,1-1.9,1-1.7L0.4-1.8C0.5-2,0.6-2.1,0.7-2.2C0.8-2.3,1-2.4,1.2-2.4
	C1.4-2.5,1.7-2.5,2-2.5s0.6,0,0.8,0.1c0.2,0,0.3,0.1,0.4,0.2c0.1,0,0.2,0.1,0.2,0.2c0,0.1,0,0.2,0,0.4V-1c0,0.4,0,0.6,0,0.7
	S3.5-0.1,3.6,0H3C2.9-0.1,2.9-0.2,2.9-0.3 M2.8-1.2C2.6-1.1,2.2-1.1,1.8-1C1.5-1,1.4-1,1.2-1C1.1-1,1.1-0.9,1-0.8
	c-0.1,0-0.1,0.1-0.1,0.1c0,0.1,0.1,0.2,0.2,0.3s0.3,0.1,0.5,0.1s0.5,0,0.6-0.1c0.2-0.1,0.3-0.2,0.4-0.3c0.1-0.1,0.1-0.2,0.1-0.4
	L2.8-1.2"/>
<path d="M0.2-0.7l0.6-0.1c0,0.2,0.1,0.3,0.3,0.4s0.4,0.1,0.7,0.1s0.5,0,0.6-0.1c0.1-0.1,0.2-0.2,0.2-0.3S2.5-0.9,2.4-0.9
	c0,0-0.3-0.1-0.6-0.1C1.4-1.1,1-1.2,0.9-1.2C0.7-1.3,0.5-1.4,0.5-1.5C0.4-1.6,0.3-1.7,0.3-1.8c0-0.1,0-0.2,0.1-0.3s0.2-0.2,0.3-0.2
	C0.8-2.4,1-2.4,1.1-2.5c0.2,0,0.3,0,0.5,0c0.3,0,0.5,0,0.8,0.1c0.2,0.1,0.4,0.1,0.5,0.2S3.1-2,3.1-1.8H2.5C2.5-1.9,2.4-2,2.3-2
	C2.1-2.1,2-2.2,1.7-2.2s-0.5,0-0.6,0.1S0.9-1.9,0.9-1.8s0,0.1,0.1,0.1s0.1,0.1,0.2,0.1s0.2,0.1,0.5,0.1c0.4,0.1,0.8,0.2,0.9,0.2
	c0.2,0,0.3,0.1,0.4,0.2C3.2-1,3.3-0.9,3.3-0.7c0,0.1-0.1,0.3-0.2,0.4C3-0.2,2.8-0.1,2.6,0C2.3,0,2.1,0.1,1.8,0.1
	C1.3,0.1,1,0,0.7-0.1C0.5-0.3,0.3-0.5,0.2-0.7"/>
<path d="M2.9-0.9h0.6C3.4-0.6,3.2-0.3,3-0.2C2.7,0,2.3,0.1,2,0.1C1.4,0.1,1,0,0.7-0.3c-0.3-0.2-0.5-0.5-0.5-1c0-0.3,0.1-0.5,0.2-0.7
	S0.7-2.3,1-2.4c0.3,0,0.6-0.1,1-0.1s0.7,0.1,1,0.2C3.2-2.2,3.3-2,3.4-1.7H2.8c0-0.1-0.2-0.2-0.3-0.3C2.4-2.1,2.2-2.2,2-2.2
	C1.7-2.2,1.4-2.1,1.2-2C1-1.8,0.9-1.6,0.9-1.2c0,0.3,0.1,0.6,0.3,0.7s0.4,0.2,0.7,0.2c0.2,0,0.5,0,0.6-0.1C2.7-0.5,2.8-0.7,2.9-0.9"
	/>
<path d="M0.5,0v-3.4h0.6v1.2c0.3-0.2,0.7-0.3,1.1-0.3c0.3,0,0.5,0,0.7,0.1s0.4,0.2,0.4,0.3C3.4-2,3.5-1.8,3.5-1.5V0H2.8v-1.5
	c0-0.2-0.1-0.4-0.2-0.5C2.5-2.1,2.3-2.1,2.1-2.1S1.7-2.1,1.6-2C1.4-2,1.3-1.9,1.2-1.8C1.1-1.7,1.1-1.5,1.1-1.3V0H0.5"/>
<path d="M2.9,0v-0.4C2.6-0.1,2.2,0.1,1.7,0.1C1.5,0.1,1.3,0,1.1,0C0.9-0.1,0.8-0.1,0.7-0.2S0.5-0.4,0.5-0.5s0-0.2,0-0.4v-1.5h0.6V-1
	c0,0.2,0,0.4,0,0.4c0,0.1,0.1,0.2,0.2,0.3s0.3,0.1,0.5,0.1s0.4,0,0.5-0.1c0.2-0.1,0.3-0.2,0.3-0.3c0.1-0.1,0.1-0.3,0.1-0.5v-1.3h0.6
	V0H2.9"/>
<path d="M3-0.8h0.6C3.5-0.5,3.3-0.3,3-0.1C2.8,0,2.4,0.1,2,0.1C1.5,0.1,1,0,0.7-0.3C0.4-0.5,0.3-0.8,0.3-1.2s0.2-0.7,0.5-1
	C1.1-2.4,1.5-2.5,2-2.5s0.9,0.1,1.2,0.3s0.5,0.5,0.5,0.9v0.1H0.9c0,0.3,0.1,0.5,0.3,0.6C1.4-0.4,1.7-0.3,2-0.3c0.2,0,0.4,0,0.6-0.1
	C2.8-0.5,2.9-0.6,3-0.8 M0.9-1.5h2c0-0.2-0.1-0.4-0.2-0.5C2.6-2.1,2.3-2.2,2-2.2S1.4-2.1,1.2-2C1.1-1.8,1-1.7,0.9-1.5"/>
<path d="M1.8-0.4L1.9,0C1.7,0,1.6,0,1.4,0S1,0,0.9,0C0.8-0.1,0.7-0.1,0.7-0.2C0.6-0.3,0.6-0.5,0.6-0.7v-1.4H0.1v-0.3h0.5V-3l0.6-0.2
	v0.8h0.6v0.3H1.2v1.4c0,0.1,0,0.2,0,0.2l0.1,0.1c0.1,0,0.1,0,0.2,0C1.6-0.4,1.7-0.4,1.8-0.4"/>
<path d="M0,0l2-3.4h0.7l2,3.4H4L3.4-1H1.3L0.7,0H0 M1.5-1.4h1.7L2.6-2.3C2.5-2.6,2.4-2.8,2.3-3C2.2-2.8,2.1-2.6,2-2.4L1.5-1.4"/>
<path d="M1.5,0L0.1-2.5h0.7L1.5-1c0.1,0.2,0.2,0.3,0.2,0.5C1.8-0.6,1.9-0.8,2-1l0.8-1.5h0.6L2.1,0H1.5"/>
<path d="M0.5,0v-2.5H1v0.4c0.3-0.3,0.7-0.4,1.2-0.4c0.2,0,0.4,0,0.6,0.1c0.2,0,0.3,0.1,0.4,0.2C3.3-2.1,3.4-2,3.4-1.9s0,0.2,0,0.4V0
	H2.8v-1.5c0-0.2,0-0.3-0.1-0.4C2.7-2,2.6-2,2.5-2.1c-0.1,0-0.3,0-0.4,0c-0.3,0-0.5,0-0.7,0.1C1.2-1.9,1.1-1.7,1.1-1.3V0H0.5"/>
<path d="M0.6,0v-0.5h0.7V0c0,0.2,0,0.3-0.1,0.4C1.1,0.5,1,0.6,0.8,0.7L0.6,0.5c0.1,0,0.2-0.1,0.3-0.2C0.9,0.2,1,0.1,1,0H0.6"/>
<path d="M4.2-1.2l0.7,0.1C4.7-0.7,4.4-0.4,4.1-0.2C3.7,0,3.3,0.1,2.7,0.1c-0.5,0-1-0.1-1.3-0.2C1.1-0.3,0.8-0.5,0.6-0.8
	S0.4-1.4,0.4-1.7s0.1-0.6,0.3-0.9s0.5-0.5,0.9-0.6s0.8-0.2,1.2-0.2c0.5,0,0.9,0.1,1.3,0.3C4.4-3,4.6-2.8,4.8-2.5L4.1-2.3
	C4-2.6,3.8-2.8,3.6-2.9C3.3-3,3.1-3,2.7-3S2-3,1.8-2.9C1.5-2.7,1.3-2.6,1.2-2.4C1.1-2.1,1-1.9,1-1.7C1-1.4,1.1-1.2,1.2-1
	s0.3,0.4,0.6,0.5s0.6,0.2,0.9,0.2c0.4,0,0.7-0.1,1-0.2C3.9-0.7,4.1-0.9,4.2-1.2"/>
<path d="M0.5,0v-2.5H1v0.3c0.1-0.1,0.3-0.2,0.5-0.3s0.4-0.1,0.7-0.1s0.5,0,0.7,0.1C3-2.3,3.1-2.2,3.2-2.1c0.3-0.3,0.7-0.4,1.1-0.4
	s0.6,0.1,0.8,0.2C5.3-2.2,5.4-2,5.4-1.7V0H4.8v-1.5c0-0.2,0-0.3-0.1-0.4C4.7-2,4.6-2,4.5-2.1c-0.1,0-0.2-0.1-0.4-0.1
	C3.9-2.1,3.7-2.1,3.5-2C3.3-1.9,3.3-1.7,3.3-1.4V0H2.6v-1.6c0-0.2-0.1-0.3-0.2-0.4c0-0.1-0.2-0.1-0.4-0.1S1.7-2.1,1.5-2
	C1.4-2,1.3-1.9,1.2-1.8C1.1-1.7,1.1-1.5,1.1-1.3V0H0.5"/>
<path d="M1,0H0.5v-3.4h0.6v1.2c0.3-0.2,0.6-0.3,1-0.3c0.2,0,0.4,0,0.6,0.1c0.2,0.1,0.4,0.2,0.5,0.3C3.4-2,3.5-1.9,3.5-1.8
	c0.1,0.1,0.1,0.3,0.1,0.5c0,0.4-0.2,0.8-0.5,1c-0.2,0.2-0.6,0.4-1,0.4S1.3-0.1,1-0.3V0 M1-1.2c0,0.3,0.1,0.5,0.2,0.6
	C1.4-0.4,1.7-0.3,2-0.3s0.5-0.1,0.7-0.2C2.9-0.7,3-0.9,3-1.2S2.9-1.8,2.7-1.9C2.5-2.1,2.3-2.2,2-2.2S1.5-2.1,1.3-2
	C1.1-1.8,1-1.5,1-1.2"/>
<path d="M0.5,0v-2.5H1v0.4c0.1-0.2,0.3-0.3,0.4-0.3c0.1-0.1,0.3-0.1,0.4-0.1c0.2,0,0.4,0,0.6,0.1L2.2-2C2.1-2,1.9-2.1,1.8-2.1
	C1.6-2.1,1.5-2,1.4-2C1.3-1.9,1.2-1.9,1.2-1.8C1.1-1.6,1.1-1.5,1.1-1.3V0H0.5"/>
<path d="M0.5-2.9v-0.5h0.6v0.5H0.5 M0.5,0v-2.5h0.6V0H0.5"/>
<path d="M2.8,0v-0.3c-0.2,0.2-0.6,0.4-1,0.4C1.5,0.1,1.2,0,1-0.1S0.6-0.4,0.4-0.5C0.3-0.7,0.2-1,0.2-1.2s0.1-0.5,0.2-0.7
	C0.5-2.1,0.7-2.2,1-2.3c0.2-0.1,0.5-0.2,0.8-0.2c0.2,0,0.4,0,0.6,0.1s0.3,0.1,0.4,0.2v-1.2h0.6V0H2.8 M0.9-1.2
	c0,0.3,0.1,0.5,0.3,0.7s0.4,0.2,0.7,0.2s0.5-0.1,0.7-0.2c0.2-0.2,0.3-0.4,0.3-0.7S2.8-1.8,2.6-1.9C2.4-2.1,2.1-2.2,1.9-2.2
	S1.3-2.1,1.2-1.9C1-1.8,0.9-1.5,0.9-1.2"/>
<path d="M0.4,0.2L1,0.3c0,0.1,0.1,0.2,0.2,0.3c0.2,0.1,0.4,0.1,0.6,0.1c0.3,0,0.5,0,0.7-0.1c0.2-0.1,0.3-0.2,0.3-0.3s0-0.3,0-0.5
	C2.6-0.1,2.2,0,1.8,0C1.3,0,0.9-0.1,0.6-0.4C0.4-0.6,0.2-0.9,0.2-1.2c0-0.2,0.1-0.5,0.2-0.6C0.5-2.1,0.7-2.2,1-2.3
	c0.2-0.1,0.5-0.2,0.8-0.2c0.4,0,0.8,0.1,1.1,0.3v-0.3h0.6v2.1c0,0.4-0.1,0.6-0.2,0.8C3.2,0.6,3,0.8,2.7,0.9S2.2,1,1.8,1
	S1,0.9,0.7,0.8C0.5,0.7,0.3,0.5,0.4,0.2 M0.9-1.3C0.9-1,1-0.7,1.2-0.6s0.4,0.2,0.7,0.2s0.5-0.1,0.7-0.2S2.9-1,2.9-1.3S2.8-1.8,2.6-2
	C2.4-2.1,2.1-2.2,1.9-2.2C1.6-2.2,1.4-2.1,1.2-2C1-1.8,0.9-1.6,0.9-1.3"/>
<path d="M0.3-1.7c0-0.4,0.1-0.7,0.2-1C0.6-2.9,0.8-3.1,1-3.2c0.3-0.1,0.6-0.2,1-0.2c0.3,0,0.5,0,0.7,0.1C2.9-3.2,3-3.1,3.2-3
	c0.1,0.1,0.2,0.3,0.3,0.5S3.6-2,3.6-1.7c0,0.4-0.1,0.7-0.2,1C3.3-0.5,3.1-0.3,2.9-0.1C2.6,0,2.3,0.1,2,0.1C1.5,0.1,1.1,0,0.8-0.3
	S0.3-1,0.3-1.7 M0.9-1.7c0,0.6,0.1,0.9,0.3,1.1S1.7-0.3,2-0.3s0.5-0.1,0.7-0.3S3-1.1,3-1.7S2.9-2.6,2.7-2.8C2.5-3,2.2-3,1.9-3
	C1.7-3,1.4-3,1.2-2.8S0.9-2.2,0.9-1.7"/>
<path d="M3.6-0.4V0H0.2c0-0.1,0-0.2,0.1-0.3c0.1-0.2,0.2-0.3,0.4-0.5c0.2-0.1,0.5-0.3,0.8-0.5C2.1-1.6,2.4-1.8,2.6-2
	c0.2-0.2,0.3-0.3,0.3-0.5S2.8-2.8,2.7-2.9C2.5-3,2.2-3,2-3C1.7-3,1.4-3,1.2-2.9C1.1-2.7,1-2.6,1-2.4H0.4c0-0.3,0.2-0.6,0.5-0.7
	C1.1-3.3,1.5-3.4,2-3.4s0.9,0.1,1.1,0.3c0.3,0.2,0.4,0.4,0.4,0.7c0,0.1,0,0.3-0.1,0.4c0,0.1-0.2,0.2-0.4,0.4C2.8-1.5,2.5-1.3,2.1-1
	C1.7-0.8,1.4-0.7,1.3-0.6c-0.1,0-0.2,0.1-0.2,0.2H3.6"/>
<path d="M2.6,0H2v-2.6C1.9-2.5,1.7-2.5,1.4-2.4C1.2-2.3,1-2.2,0.8-2.1v-0.4c0.4-0.1,0.7-0.2,0.9-0.4C2-3.1,2.1-3.2,2.2-3.4h0.4
	L2.6,0"/>
<path d="M0.3-0.9L0.9-1C1-0.7,1.1-0.5,1.3-0.4s0.4,0.2,0.6,0.2c0.3,0,0.5-0.1,0.7-0.2C2.8-0.6,3-0.8,3-1S2.9-1.4,2.7-1.5
	S2.2-1.6,2-1.6c-0.1,0-0.3,0-0.4,0V-2h0.1C2-2,2.2-2,2.4-2.1s0.3-0.2,0.3-0.4S2.6-2.8,2.5-2.9C2.3-3,2.1-3,1.9-3
	C1.6-3,1.4-3,1.3-2.9C1.1-2.8,1-2.6,1-2.4L0.4-2.5c0-0.3,0.2-0.5,0.5-0.7s0.6-0.2,1-0.2c0.3,0,0.5,0,0.8,0.1C2.9-3.2,3.1-3.1,3.2-3
	c0.1,0.1,0.2,0.3,0.2,0.4c0,0.1-0.1,0.3-0.2,0.4C3.1-2,2.9-1.9,2.7-1.8c0.3,0,0.5,0.1,0.7,0.3C3.5-1.4,3.6-1.2,3.6-1
	c0,0.3-0.2,0.5-0.5,0.8C2.8,0,2.4,0.1,1.9,0.1C1.5,0.1,1.1,0,0.8-0.2S0.3-0.6,0.3-0.9"/>
<path d="M0.4-0.8H1c0,0.2,0.1,0.3,0.3,0.4c0.1,0.1,0.3,0.1,0.6,0.1c0.2,0,0.4,0,0.5-0.1c0.1-0.1,0.3-0.1,0.3-0.2
	C2.8-0.7,2.8-0.8,2.9-1C3-1.2,3-1.3,3-1.5v-0.1C2.9-1.5,2.7-1.3,2.5-1.3C2.3-1.2,2-1.1,1.8-1.1C1.4-1.1,1-1.2,0.7-1.4
	S0.3-1.9,0.3-2.2S0.4-2.8,0.8-3c0.3-0.2,0.7-0.3,1.1-0.3c0.3,0,0.6,0.1,0.9,0.2C3.1-3,3.3-2.8,3.4-2.6s0.2,0.5,0.2,0.9
	s-0.1,0.8-0.2,1S3.1-0.3,2.8-0.1C2.5,0,2.2,0.1,1.8,0.1S1.1,0,0.8-0.1C0.6-0.3,0.4-0.5,0.4-0.8 M2.9-2.3c0-0.2-0.1-0.4-0.3-0.6
	C2.5-3,2.2-3,2-3C1.7-3,1.4-3,1.2-2.8C1-2.7,0.9-2.5,0.9-2.2C0.9-2,1-1.9,1.2-1.7C1.4-1.6,1.7-1.5,2-1.5s0.5-0.1,0.7-0.2
	C2.8-1.9,2.9-2,2.9-2.3"/>
<path d="M0,0v-11.8h8.5V0H0 M0.3-0.3h8v-11.2h-8L0.3-0.3"/>
<path d="M1.3-13.5h9.3v2.9H5v2.4h4.7v2.7H5V0H1.3V-13.5"/>
<path d="M8.7-2.2H4.4L3.9,0H0l4.6-13.5h4.1L13.2,0H9.3L8.7-2.2 M7.9-5.1L6.6-10L5.2-5.1H7.9"/>
<path d="M9.3-5.5l3.3,1.1c-0.2,1-0.6,1.9-1.1,2.6s-1.1,1.2-1.8,1.6C9.1,0.1,8.2,0.2,7.1,0.2C5.8,0.2,4.7,0,3.9-0.4
	C3-0.8,2.3-1.6,1.7-2.7c-0.6-1-0.9-2.4-0.9-4.1c0-2.2,0.5-3.9,1.6-5.1s2.6-1.8,4.5-1.8c1.5,0,2.7,0.3,3.6,1s1.5,1.7,2,3.2L9.2-8.7
	C9.1-9.1,9-9.4,8.8-9.6C8.6-9.9,8.4-10.2,8-10.3c-0.3-0.2-0.6-0.3-1-0.3c-0.8,0-1.5,0.4-2,1.1C4.7-8.9,4.6-8,4.6-6.8
	c0,1.5,0.2,2.5,0.6,3.1s1,0.8,1.7,0.8s1.3-0.2,1.6-0.7C8.9-4,9.2-4.7,9.3-5.5"/>
<path d="M1.4-13.5h3.8V0H1.4V-13.5"/>
<path d="M1.2-13.5H5v10.2h5.9V0H1.2V-13.5"/>
<path d="M0.4-13.5h11.4v3.3H8V0H4.2v-10.2H0.4V-13.5"/>
<path d="M1.2-13.5h10.1v2.9H5v2.2h5.8v2.8H5v2.7h6.5V0H1.2V-13.5"/>
<path d="M0.6-4.5l3.6-0.2c0.1,0.6,0.2,1.1,0.5,1.5C5-2.7,5.6-2.4,6.3-2.4c0.5,0,1-0.1,1.2-0.4C7.8-3.1,8-3.4,8-3.8S7.9-4.5,7.6-4.7
	c-0.3-0.3-1-0.6-2-0.8C4-5.9,2.8-6.5,2.1-7.2S1-8.7,1-9.8c0-0.7,0.2-1.3,0.5-2c0.4-0.6,0.9-1.1,1.6-1.5s1.7-0.5,3-0.5
	c1.6,0,2.7,0.3,3.5,1c0.8,0.6,1.3,1.7,1.5,3.1L7.7-9.5c-0.1-0.6-0.3-1.1-0.6-1.3c-0.3-0.3-0.7-0.4-1.2-0.4c-0.4,0-0.8,0.1-1,0.3
	s-0.3,0.5-0.3,0.8c0,0.2,0.1,0.4,0.3,0.6C5-9.4,5.4-9.2,6-9.1c1.6,0.4,2.8,0.8,3.5,1.2C10.2-7.5,10.7-7,11-6.4s0.5,1.3,0.5,2
	c0,0.9-0.2,1.7-0.7,2.4c-0.4,0.7-1,1.3-1.8,1.7C8.4,0,7.4,0.2,6.2,0.2c-2.1,0-3.5-0.4-4.3-1.3S0.7-3.1,0.6-4.5"/>
<path d="M3.5,0v-23.6h14.1V0H3.5 M4-0.6h13.2V-23H4V-0.6"/>
<path d="M2,0v-27h6.1l3.7,18.4L15.4-27h6.1V0h-3.8v-21.2L13.7,0H9.8l-4-21.2V0H2"/>
<path d="M1.9,0v-27H6V0H1.9"/>
<path d="M6.6,0v-22.4h-6V-27h16.1v4.6h-6V0H6.6"/>
<path d="M1.2,0v-5.9h4.7V0H1.2 M1.3-0.1h4.4v-5.6H1.3V-0.1"/>
<path d="M0.7,0v-6.8h2.5c0.5,0,0.9,0.1,1.2,0.2C4.8-6.4,5-6.2,5.2-5.9C5.4-5.6,5.5-5.3,5.5-5S5.4-4.4,5.3-4.2C5.1-4,4.8-3.8,4.5-3.6
	c0.4,0.1,0.7,0.3,1,0.6c0.2,0.3,0.3,0.6,0.3,1c0,0.3-0.1,0.6-0.2,0.9C5.4-0.8,5.3-0.6,5.1-0.4C4.9-0.3,4.6-0.2,4.3-0.1
	C4.1,0,3.7,0,3.3,0H0.7 M1.6-3.9H3c0.4,0,0.7,0,0.8-0.1C4-4.1,4.2-4.2,4.3-4.3c0.1-0.2,0.2-0.3,0.2-0.6c0-0.2-0.1-0.4-0.2-0.6
	c0-0.2-0.2-0.3-0.3-0.4C3.8-5.9,3.4-6,2.9-6H1.6V-3.9 M1.6-0.8h1.7c0.3,0,0.5,0,0.6,0c0.2,0,0.4-0.1,0.5-0.2s0.3-0.2,0.3-0.4
	C4.8-1.6,4.9-1.7,4.9-2c0-0.2-0.1-0.5-0.2-0.7C4.5-2.8,4.4-2.9,4.1-3c-0.2-0.1-0.6-0.1-1-0.1H1.6V-0.8"/>
<path d="M5.2-6.8H6v3.9c0,0.7,0,1.3-0.2,1.7C5.7-0.8,5.4-0.5,5-0.3C4.6,0,4.1,0.1,3.4,0.1C2.8,0.1,2.3,0,1.9-0.2S1.2-0.7,1-1.2
	c-0.2-0.4-0.2-1-0.2-1.7v-3.9h0.9v3.9c0,0.6,0.1,1,0.2,1.3C2-1.3,2.2-1.1,2.4-1c0.3,0.1,0.6,0.2,1,0.2c0.7,0,1.1-0.1,1.4-0.4
	C5-1.4,5.2-2,5.2-2.9V-6.8"/>
<path d="M0.9,0v-6.8h0.9V0H0.9"/>
<path d="M0.7,0v-6.8h0.9v6h3.3V0H0.7"/>
<path d="M0.7,0v-6.8H3c0.5,0,0.9,0,1.2,0.1c0.4,0.1,0.7,0.2,1,0.5C5.6-5.9,5.9-5.5,6-5c0.2,0.5,0.3,1,0.3,1.6c0,0.5-0.1,1-0.2,1.4
	C6-1.6,5.8-1.3,5.7-1.1C5.5-0.8,5.3-0.6,5-0.5C4.8-0.3,4.6-0.2,4.2-0.1C3.9,0,3.6,0,3.2,0H0.7 M1.6-0.8H3c0.4,0,0.8,0,1-0.1
	C4.4-1,4.6-1.1,4.7-1.3c0.2-0.2,0.4-0.5,0.5-0.9S5.4-3,5.4-3.5C5.4-4.1,5.3-4.7,5-5C4.8-5.4,4.5-5.7,4.2-5.8C3.9-5.9,3.6-6,3-6H1.6
	V-0.8"/>
<path d="M0.7,0v-6.8h0.9l3.5,5.3v-5.3H6V0H5.1L1.6-5.3V0H0.7"/>
<path d="M3.9-2.6v-0.8h2.8v2.5C6.3-0.6,5.8-0.3,5.4-0.1C4.9,0,4.4,0.1,4,0.1C3.3,0.1,2.7,0,2.1-0.3C1.6-0.6,1.2-1,0.9-1.5
	C0.6-2.1,0.5-2.7,0.5-3.3c0-0.7,0.1-1.3,0.4-1.8c0.3-0.6,0.7-1,1.2-1.3c0.5-0.3,1.1-0.4,1.8-0.4c0.5,0,0.9,0.1,1.3,0.2
	S5.9-6.2,6.1-6c0.2,0.3,0.4,0.6,0.5,1.1L5.8-4.6C5.7-5,5.6-5.2,5.5-5.4C5.3-5.6,5.1-5.8,4.8-5.9C4.5-6,4.2-6.1,3.9-6.1
	C3.5-6.1,3.1-6,2.8-5.9S2.3-5.6,2.1-5.4C1.9-5.2,1.8-5,1.7-4.8C1.5-4.3,1.4-3.9,1.4-3.4c0,0.6,0.1,1.1,0.3,1.5S2.2-1.2,2.6-1
	s0.9,0.3,1.3,0.3S4.7-0.8,5-0.9c0.4-0.2,0.7-0.3,0.8-0.5v-1.2H3.9"/>
<path d="M0.4-1.8l0.8-0.1c0.1,0.5,0.3,0.8,0.5,1s0.5,0.3,0.8,0.3c0.4,0,0.7-0.1,1-0.4s0.4-0.6,0.4-1S3.8-2.7,3.5-2.9
	C3.3-3.2,3-3.3,2.6-3.3c-0.2,0-0.4,0-0.6,0.1l0.1-0.7c0.1,0,0.1,0,0.1,0c0.4,0,0.7-0.1,1-0.3S3.6-4.7,3.6-5S3.5-5.6,3.3-5.8
	C3.1-6,2.9-6.1,2.5-6.1C2.2-6.1,1.9-6,1.7-5.8C1.5-5.6,1.4-5.3,1.3-4.9L0.5-5c0.1-0.6,0.3-1,0.7-1.3C1.5-6.6,2-6.8,2.5-6.8
	c0.4,0,0.7,0.1,1,0.2C3.8-6.4,4.1-6.2,4.2-6c0.2,0.4,0.3,0.7,0.3,1S4.4-4.4,4.3-4.2C4.1-4,3.9-3.8,3.5-3.7c0.5,0.1,0.8,0.3,1,0.6
	S4.8-2.4,4.8-2c0,0.6-0.2,1.1-0.6,1.5s-1,0.6-1.6,0.6C2,0.1,1.5-0.1,1.1-0.4C0.7-0.8,0.5-1.2,0.4-1.8"/>
<path d="M3.5,0H2.7v-5.3C2.5-5.1,2.2-4.9,1.9-4.7C1.6-4.5,1.3-4.4,1-4.3v-0.8c0.5-0.2,0.9-0.5,1.2-0.8C2.6-6.2,2.8-6.5,3-6.8h0.5V0"
	/>
<path d="M0.3-2v-0.8h2.5V-2H0.3"/>
<path d="M0,0l2.6-6.8h1L6.3,0h-1L4.5-2H1.7L0.9,0H0 M1.9-2.8h2.3L3.5-4.6C3.3-5.2,3.1-5.7,3-6C2.9-5.6,2.8-5.2,2.7-4.8L1.9-2.8"/>
<path d="M0.4-2.2l0.8-0.1c0,0.3,0.1,0.6,0.3,0.8C1.7-1.2,1.9-1,2.2-0.9s0.7,0.2,1,0.2s0.6,0,0.9-0.1C4.4-0.9,4.6-1,4.7-1.2
	s0.2-0.4,0.2-0.6S4.8-2.2,4.7-2.4S4.4-2.7,4.1-2.8C4-2.9,3.6-3,2.9-3.1c-0.6-0.1-1-0.3-1.3-0.4C1.3-3.7,1.1-3.9,0.9-4.2
	S0.7-4.7,0.7-5S0.8-5.7,1-6s0.5-0.5,0.8-0.7C2.2-6.9,2.6-6.9,3-6.9c0.5,0,0.9,0.1,1.3,0.2C4.7-6.5,5-6.3,5.2-6
	c0.2,0.3,0.3,0.7,0.3,1.1L4.7-4.8c0-0.4-0.2-0.8-0.5-1C4-6,3.6-6.1,3.1-6.1S2.2-6,1.9-5.8C1.7-5.6,1.5-5.3,1.5-5.1
	c0,0.2,0.1,0.4,0.2,0.6C2-4.3,2.4-4.1,3.1-4c0.7,0.2,1.2,0.3,1.5,0.4C5-3.4,5.3-3.1,5.5-2.9c0.2,0.3,0.3,0.6,0.3,1s-0.1,0.7-0.3,1
	C5.3-0.6,5-0.3,4.6-0.1C4.2,0,3.8,0.1,3.3,0.1C2.7,0.1,2.2,0,1.8-0.2C1.3-0.3,1-0.6,0.8-1C0.6-1.3,0.4-1.7,0.4-2.2"/>
<path d="M0.8,0v-6.8h4.9V-6h-4v2.1h3.7v0.8H1.6v2.3h4.1V0H0.8"/>
<path d="M0.7,0v-6.8H2L3.6-2C3.8-1.5,3.9-1.2,4-1c0-0.2,0.2-0.6,0.3-1l1.6-4.7h1.2V0H6.3v-5.6L4.3,0H3.5l-2-5.7V0H0.7"/>
<path d="M2.4,0v-6H0.2v-0.8h5.3V-6H3.3v6H2.4"/>
<path d="M0.5-3.3c0-1.1,0.3-2,0.9-2.6s1.4-1,2.3-1c0.6,0,1.2,0.2,1.7,0.5s0.9,0.7,1.1,1.2C6.8-4.6,6.9-4,6.9-3.4
	c0,0.7-0.1,1.3-0.4,1.8C6.2-1,5.8-0.6,5.3-0.3s-1,0.4-1.6,0.4S2.5,0,2-0.3C1.5-0.7,1.1-1.1,0.8-1.6C0.6-2.1,0.5-2.7,0.5-3.3
	 M1.4-3.3c0,0.8,0.2,1.5,0.7,1.9c0.4,0.5,1,0.7,1.6,0.7c0.7,0,1.2-0.2,1.7-0.7C5.8-1.8,6-2.5,6-3.4c0-0.5-0.1-1-0.3-1.4
	c-0.2-0.4-0.5-0.7-0.8-1C4.5-6,4.1-6.1,3.7-6.1C3.1-6.1,2.5-5.9,2-5.4C1.6-5,1.4-4.3,1.4-3.3"/>
<path d="M0.7,0v-6.8h3c0.6,0,1,0.1,1.4,0.2c0.3,0.1,0.6,0.3,0.8,0.7c0.2,0.3,0.3,0.6,0.3,1C6.1-4.4,6-4,5.7-3.7
	C5.4-3.4,4.9-3.2,4.2-3.1C4.4-3,4.6-2.9,4.7-2.8c0.3,0.3,0.6,0.6,0.8,1L6.7,0H5.6L4.7-1.4C4.4-1.8,4.2-2.1,4-2.3
	C3.8-2.5,3.7-2.7,3.6-2.8C3.4-2.9,3.3-2.9,3.2-3C3.1-3,2.9-3,2.7-3h-1v3H0.7 M1.6-3.8h1.9c0.4,0,0.7,0,1-0.1C4.7-4,4.9-4.1,5-4.3
	c0.1-0.2,0.2-0.4,0.2-0.6c0-0.3-0.1-0.6-0.4-0.8C4.6-5.9,4.3-6,3.8-6H1.6V-3.8"/>
<path d="M0.7,0v-6.8h2.5c0.4,0,0.8,0,1,0.1C4.5-6.6,4.8-6.5,5-6.4C5.4-6.2,5.5-6,5.7-5.7c0.1,0.3,0.2,0.6,0.2,0.9
	c0,0.6-0.2,1.1-0.5,1.5c-0.4,0.4-1,0.6-2,0.6H1.6V0H0.7 M1.6-3.5h1.7c0.6,0,1-0.1,1.2-0.3C4.8-4.1,5-4.4,5-4.8C5-5,4.9-5.3,4.7-5.5
	C4.6-5.7,4.4-5.8,4.2-5.9C4-5.9,3.8-6,3.3-6H1.6V-3.5"/>
<path d="M5.5-2.4l0.9,0.2c-0.2,0.7-0.5,1.3-1,1.7S4.3,0.1,3.6,0.1S2.3,0,1.9-0.3C1.4-0.6,1.1-1,0.8-1.6C0.6-2.2,0.5-2.8,0.5-3.4
	c0-0.7,0.1-1.3,0.4-1.8c0.2-0.6,0.6-1,1.1-1.3s1-0.4,1.6-0.4c0.7,0,1.2,0.2,1.7,0.5s0.8,0.8,1,1.5L5.4-4.7C5.3-5.2,5.1-5.5,4.8-5.8
	C4.5-6,4.1-6.1,3.6-6.1S2.6-6,2.3-5.7C2-5.5,1.7-5.1,1.6-4.7C1.5-4.3,1.4-3.9,1.4-3.4c0,0.6,0.1,1.1,0.2,1.5c0.2,0.4,0.4,0.7,0.8,1
	c0.4,0.2,0.7,0.3,1.1,0.3C4-0.6,4.4-0.7,4.8-1C5.2-1.4,5.4-1.8,5.5-2.4"/>
<path d="M0.8,0v-6.8h4.6V-6H1.7v2.1h3.2v0.8H1.7V0H0.8"/>
<path d="M0.5-8.2h5.2V0H0.5V-8.2 M0.7-7.9v7.7h4.7v-7.7H0.7"/>
<path d="M3.4-5.3c0.4,0,0.7-0.1,0.9-0.3c0.3-0.2,0.4-0.5,0.4-0.9c0-0.3-0.1-0.6-0.3-0.8C4.2-7.6,3.9-7.7,3.5-7.7
	c-0.2,0-0.4,0-0.6,0.1C2.8-7.5,2.6-7.4,2.5-7.3c0,0.1-0.1,0.2-0.2,0.4C2.2-6.7,2.1-6.5,2.1-6.4C2-6.3,2-6.2,1.9-6.2S1.7-6.1,1.5-6.1
	S1.2-6.2,1-6.3C0.9-6.4,0.9-6.6,0.9-6.8c0-0.2,0-0.5,0.1-0.7s0.3-0.4,0.5-0.6C1.7-8.3,2-8.5,2.4-8.6s0.8-0.2,1.2-0.2s0.7,0.1,1,0.2
	c0.3,0.1,0.6,0.3,0.8,0.5C5.8-8,6-7.8,6.1-7.5S6.3-7,6.3-6.7c0,0.4-0.1,0.7-0.3,1C5.9-5.3,5.6-5.1,5.3-4.8c0.3,0.2,0.6,0.4,0.8,0.6
	C6.3-4,6.5-3.8,6.6-3.5S6.7-3,6.7-2.7c0,0.4-0.1,0.7-0.2,1.1C6.4-1.3,6.1-1,5.9-0.7c-0.3,0.3-0.6,0.5-1,0.6C4.5,0.1,4,0.2,3.6,0.2
	C3.1,0.2,2.7,0.1,2.3,0c-0.4-0.3-0.7-0.5-1-0.8C1.1-1,0.9-1.3,0.8-1.5C0.7-1.8,0.6-2.1,0.6-2.2c0-0.2,0.1-0.4,0.2-0.5
	C1-2.9,1.2-3,1.4-3c0.1,0,0.2,0,0.3,0.1s0.2,0.1,0.2,0.2c0.2,0.6,0.4,1,0.7,1.2C2.8-1.2,3.1-1,3.6-1c0.2,0,0.5-0.1,0.7-0.2
	s0.4-0.3,0.6-0.5C5-2,5.1-2.3,5.1-2.6c0-0.5-0.1-0.8-0.4-1.1C4.5-3.9,4.1-4.1,3.6-4.1c-0.1,0-0.2,0-0.4,0C3.1-4,3-4,3-4
	C2.7-4,2.6-4.1,2.4-4.2C2.3-4.3,2.3-4.5,2.3-4.7s0.1-0.4,0.2-0.5c0.1-0.1,0.4-0.2,0.6-0.2L3.4-5.3"/>
<path d="M3.5-0.8v-5.4C2.5-5.4,1.8-5,1.4-5C1.2-5.1,1.1-5.2,1-5.3C0.8-5.4,0.8-5.6,0.8-5.8c0-0.2,0-0.3,0.2-0.4
	c0.1-0.1,0.4-0.2,0.7-0.4C2.1-6.8,2.5-7,2.8-7.3s0.5-0.5,0.8-0.9C3.8-8.5,3.9-8.7,4-8.7c0.1-0.1,0.2-0.1,0.4-0.1
	c0.2,0,0.4,0.1,0.5,0.2C5-8.4,5.1-8.2,5.1-7.9V-1c0,0.8-0.3,1.2-0.8,1.2C4,0.2,3.8,0.1,3.7-0.1C3.5-0.3,3.5-0.5,3.5-0.8"/>
<path d="M1.9,0.2C1.7,0.2,1.4,0.1,1.3,0C1.1-0.2,1-0.5,1-0.8C1-1,1.1-1.2,1.3-1.4s0.4-0.3,0.6-0.3s0.5,0.1,0.6,0.3
	C2.7-1.2,2.8-1,2.8-0.8c0,0.3-0.1,0.5-0.3,0.7C2.4,0.1,2.2,0.2,1.9,0.2"/>
<path d="M6.7-4.3c0,0.7,0,1.2-0.1,1.7S6.4-1.7,6.1-1.3c-0.2,0.4-0.6,0.8-1,1.1C4.6,0,4.2,0.1,3.7,0.1C3.1,0.1,2.5,0,2-0.4
	C1.5-0.7,1.2-1.2,0.9-1.8C0.8-2.1,0.7-2.5,0.7-2.9C0.6-3.3,0.6-3.7,0.6-4.2c0-0.6,0-1.1,0.1-1.6c0-0.5,0.1-0.9,0.3-1.3
	c0.2-0.6,0.6-1,1-1.3c0.4-0.3,1-0.5,1.6-0.5c0.4,0,0.8,0.1,1.1,0.2C5.1-8.5,5.4-8.3,5.6-8c0.2,0.2,0.5,0.6,0.6,0.9
	C6.6-6.4,6.7-5.5,6.7-4.3 M5.1-4.4c0-0.7,0-1.3-0.1-1.8C4.8-6.7,4.7-7,4.5-7.3C4.3-7.5,4-7.6,3.6-7.6c-0.5,0-0.9,0.3-1.1,0.8
	C2.3-6.3,2.2-5.5,2.2-4.4c0,0.8,0,1.4,0.1,1.8c0.1,0.5,0.2,0.8,0.5,1.1C3-1.2,3.3-1.1,3.6-1.1c0.4,0,0.6-0.1,0.9-0.4
	c0.2-0.3,0.4-0.6,0.4-1.1C5-3,5.1-3.6,5.1-4.4"/>
<path d="M0.8,0v-3.9h3.1V0H0.8 M0.9-0.1h2.9v-3.7H0.9V-0.1"/>
<path d="M0.5,0v-4.5h0.6L3.5-1v-3.5H4V0H3.4L1-3.5V0H0.5"/>
<path d="M0.3-2.2C0.3-3,0.5-3.5,0.9-4c0.4-0.4,0.9-0.6,1.6-0.6c0.4,0,0.8,0.1,1.1,0.3c0.3,0.2,0.6,0.5,0.8,0.8
	c0.2,0.4,0.3,0.8,0.3,1.2S4.6-1.4,4.4-1.1C4.1-0.7,3.9-0.4,3.5-0.2C3.2,0,2.8,0.1,2.5,0.1C2,0.1,1.6,0,1.3-0.2S0.7-0.7,0.5-1.1
	C0.4-1.4,0.3-1.8,0.3-2.2 M0.9-2.2c0,0.5,0.1,1,0.4,1.3S2-0.4,2.5-0.4c0.4,0,0.8-0.2,1.1-0.5C3.8-1.2,4-1.7,4-2.2
	c0-0.4-0.1-0.7-0.2-1C3.7-3.5,3.5-3.7,3.3-3.8C3-4,2.8-4.1,2.5-4.1C2-4.1,1.7-3.9,1.4-3.6S0.9-2.9,0.9-2.2"/>
<path d="M0.5,0v-4.5h2c0.4,0,0.7,0,0.9,0.1S3.8-4.2,3.9-4C4-3.7,4.1-3.5,4.1-3.3C4.1-3,4-2.7,3.8-2.5C3.6-2.2,3.3-2.1,2.8-2
	C3-2,3.1-1.9,3.2-1.8c0.2,0.2,0.3,0.4,0.5,0.6L4.5,0H3.7L3.1-0.9C2.9-1.2,2.8-1.4,2.7-1.5C2.6-1.7,2.5-1.8,2.4-1.8
	C2.3-1.9,2.2-1.9,2.1-2C2-2,1.9-2,1.8-2H1.1v2H0.5 M1.1-2.5h1.3c0.3,0,0.5,0,0.6-0.1c0.2-0.1,0.3-0.1,0.3-0.3C3.4-3,3.5-3.1,3.5-3.3
	S3.4-3.7,3.3-3.8C3.1-3.9,2.8-4,2.5-4H1.1V-2.5"/>
<path d="M1.6,0v-4H0.1v-0.5h3.6V-4H2.2v4H1.6"/>
<path d="M0.5,0v-4.5h0.6v1.8h2.3v-1.8H4V0H3.4v-2.1H1.1V0H0.5"/>
<path d="M0.1,0v-3.9h1.2V0H0.1 M0.3-0.2h0.9v-3.6H0.3V-0.2"/>
<path d="M0.2-2.2c0-0.8,0.1-1.3,0.3-1.7S1-4.5,1.4-4.5S2-4.4,2.2-4s0.4,1,0.4,1.8S2.5-0.9,2.3-0.5C2.1-0.1,1.8,0.1,1.4,0.1
	S0.8-0.1,0.5-0.4C0.3-0.8,0.2-1.4,0.2-2.2 M0.7-2.2c0,0.7,0.1,1.2,0.2,1.5C1-0.5,1.2-0.4,1.4-0.4s0.4-0.1,0.5-0.4
	C2.1-1,2.1-1.5,2.1-2.2S2-3.4,1.9-3.7C1.8-3.9,1.6-4.1,1.4-4.1S1-3.9,0.9-3.7C0.7-3.4,0.7-2.9,0.7-2.2"/>
<path d="M1.9,0H1.5v-3.5C1.3-3.4,1.2-3.3,1-3.1C0.9-3,0.7-2.9,0.5-2.9v-0.5C0.8-3.5,1-3.7,1.2-3.9c0.2-0.2,0.3-0.4,0.4-0.6h0.3
	L1.9,0"/>
<path d="M2.6-3.4H2.1c0-0.2-0.1-0.4-0.2-0.5C1.8-4,1.6-4.1,1.5-4.1C1.2-4.1,1-3.9,0.8-3.6C0.7-3.3,0.6-2.9,0.6-2.3
	C0.7-2.5,0.9-2.7,1-2.8C1.2-2.9,1.3-3,1.5-3C1.8-3,2-2.9,2.3-2.6C2.5-2.3,2.6-2,2.6-1.5c0,0.3-0.1,0.6-0.2,0.8
	C2.3-0.4,2.2-0.2,2-0.1C1.9,0,1.7,0.1,1.5,0.1c-0.4,0-0.7-0.2-0.9-0.5C0.3-0.8,0.2-1.3,0.2-2.1C0.2-3,0.3-3.6,0.5-4s0.6-0.6,1-0.6
	c0.3,0,0.5,0.1,0.7,0.3C2.4-4,2.5-3.8,2.6-3.4 M0.7-1.5c0,0.3,0.1,0.6,0.2,0.8c0.2,0.2,0.3,0.3,0.5,0.3s0.3-0.1,0.5-0.3
	C2-0.9,2.1-1.1,2.1-1.5c0-0.3-0.1-0.6-0.2-0.7C1.8-2.3,1.6-2.4,1.4-2.4S1-2.3,0.9-2.1C0.8-2,0.7-1.8,0.7-1.5"/>
<path d="M0.2-1.2l0.5-0.1C0.8-0.7,1-0.4,1.4-0.4c0.2,0,0.4-0.1,0.5-0.3C2.1-0.8,2.1-1,2.1-1.3S2-1.8,1.9-1.9
	C1.8-2.1,1.6-2.2,1.4-2.2c-0.1,0-0.2,0-0.3,0.1l0.1-0.5h0.1c0.2,0,0.4-0.1,0.5-0.2C1.9-2.9,2-3.1,2-3.4c0-0.2-0.1-0.4-0.2-0.5
	C1.7-4,1.5-4.1,1.4-4.1C1.2-4.1,1-4,0.9-3.9C0.8-3.7,0.7-3.5,0.7-3.2L0.2-3.3C0.3-3.7,0.4-4,0.6-4.2S1-4.5,1.3-4.5s0.5,0.1,0.8,0.3
	C2.3-4,2.4-3.7,2.4-3.3c0,0.2,0,0.4-0.1,0.5C2.2-2.6,2.1-2.5,1.9-2.4c0.1,0,0.3,0.1,0.4,0.2S2.5-2,2.5-1.9s0.1,0.3,0.1,0.5
	c0,0.4-0.1,0.8-0.4,1C2-0.1,1.7,0.1,1.4,0.1S0.8,0,0.6-0.3C0.4-0.5,0.2-0.8,0.2-1.2"/>
<path d="M2.6-0.5V0H0.2c0-0.2,0.1-0.5,0.2-0.7c0.1-0.3,0.3-0.6,0.7-1s0.7-0.8,0.8-1C2-2.9,2.1-3.1,2.1-3.3S2-3.7,1.9-3.9
	C1.8-4,1.6-4.1,1.4-4.1S1-4,0.9-3.8C0.8-3.7,0.7-3.4,0.7-3.2H0.2c0-0.4,0.1-0.8,0.4-1c0.2-0.2,0.5-0.3,0.8-0.3
	c0.4,0,0.7,0.1,0.8,0.4c0.2,0.2,0.3,0.5,0.3,0.9c0,0.3-0.1,0.6-0.2,0.8c-0.1,0.3-0.4,0.6-0.8,1C1.2-1.1,1.1-0.9,1-0.8
	S0.8-0.6,0.8-0.5H2.6"/>
<path d="M1.7,0v-1.1H0.1v-0.5l1.7-2.9h0.4v2.9h0.5v0.5H2.1V0H1.7 M1.7-1.6v-2l-1.2,2L1.7-1.6"/>
<path d="M0.9-2.4C0.7-2.5,0.6-2.6,0.5-2.8C0.4-2.9,0.3-3.1,0.3-3.4S0.4-4,0.6-4.2c0.2-0.2,0.5-0.3,0.8-0.3S2-4.4,2.2-4.2
	s0.3,0.5,0.3,0.9c0,0.2,0,0.4-0.1,0.6C2.3-2.6,2.1-2.5,1.9-2.4c0.3,0,0.4,0.2,0.5,0.4c0.1,0.2,0.2,0.4,0.2,0.7c0,0.4-0.1,0.7-0.3,1
	C2.1,0,1.8,0.1,1.4,0.1S0.8,0,0.5-0.3c-0.2-0.3-0.3-0.6-0.3-1c0-0.3,0.1-0.5,0.2-0.7S0.7-2.4,0.9-2.4 M0.8-3.4C0.8-3.2,0.9-3,1-2.8
	c0.1,0.1,0.3,0.2,0.4,0.2c0.2,0,0.3-0.1,0.4-0.2C2-3,2-3.1,2-3.3c0-0.3,0-0.4-0.2-0.6C1.7-4,1.6-4.1,1.4-4.1S1.1-4,1-3.9
	C0.9-3.7,0.8-3.6,0.8-3.4 M0.7-1.3c0,0.3,0.1,0.5,0.2,0.7C1-0.5,1.2-0.4,1.4-0.4s0.4-0.1,0.5-0.2C2.1-0.8,2.2-1,2.2-1.3S2.1-1.8,2-2
	C1.8-2.1,1.6-2.2,1.4-2.2S1-2.1,0.9-2C0.7-1.8,0.7-1.6,0.7-1.3"/>
<path d="M2.1-1.8v-0.5h1.6v1.7C3.5-0.4,3.2-0.2,3-0.1C2.7,0,2.4,0.1,2.2,0.1c-0.4,0-0.7-0.1-1-0.3S0.7-0.6,0.5-1
	C0.4-1.3,0.3-1.7,0.3-2.2s0.1-0.9,0.2-1.3c0.2-0.4,0.4-0.6,0.6-0.8c0.3-0.2,0.6-0.3,1-0.3c0.3,0,0.5,0.1,0.7,0.2
	C3-4.3,3.2-4.2,3.3-4c0.1,0.2,0.2,0.4,0.3,0.8L3.2-3.1C3.1-3.3,3.1-3.5,3-3.7C2.9-3.8,2.8-3.9,2.6-4C2.5-4,2.3-4.1,2.1-4.1
	S1.6-4,1.4-3.9C1.2-3.7,1.1-3.5,1-3.3C0.8-3,0.8-2.7,0.8-2.3c0,0.6,0.1,1.1,0.4,1.4s0.6,0.5,1,0.5c0.2,0,0.4,0,0.6-0.1
	s0.4-0.2,0.5-0.3v-0.8H2.1"/>
<path d="M0.4,0v-4.5H2c0.3,0,0.6,0,0.8,0.1C2.9-4.3,3.1-4.1,3.2-4c0.1,0.2,0.2,0.4,0.2,0.7S3.3-2.7,3.1-2.5C2.9-2.2,2.6-2.1,2.3-2
	c0.1,0,0.3,0.1,0.3,0.2C2.8-1.6,2.9-1.4,3-1.2L3.6,0H3L2.5-0.9C2.3-1.3,2.2-1.5,2.1-1.7S1.9-1.9,1.8-1.9C1.7-2,1.6-2,1.5-2H0.9v2
	H0.4 M0.9-2.5h1c0.2,0,0.4,0,0.5-0.1c0.1-0.1,0.2-0.1,0.3-0.2C2.8-3,2.8-3.1,2.8-3.3S2.7-3.7,2.6-3.8C2.5-3.9,2.3-4,2-4H0.9V-2.5"/>
<path d="M0,0l1.4-4.5h0.5L3.4,0H2.9L2.5-1.4H0.9L0.5,0H0 M1.1-1.8h1.2L1.9-3.1C1.8-3.5,1.7-3.8,1.7-4c0,0.3-0.1,0.6-0.2,0.9L1.1-1.8
	"/>
<path d="M0.4,0v-4.5h1.4c0.3,0,0.6,0,0.7,0.1C2.7-4.3,2.9-4.2,3-4c0.1,0.2,0.2,0.5,0.2,0.8c0,0.4-0.1,0.7-0.3,1
	C2.7-2,2.3-1.8,1.8-1.8H0.9V0H0.4 M0.9-2.4h1c0.3,0,0.5-0.1,0.7-0.2c0.1-0.1,0.2-0.3,0.2-0.6c0-0.2,0-0.3-0.1-0.5
	C2.5-3.8,2.5-3.8,2.4-3.9C2.3-3.9,2.1-4,1.8-4H0.9V-2.4"/>
<path d="M0.4,0v-4.5h0.5v1.8h1.9v-1.8h0.5V0H2.8v-2.1H0.9V0H0.4"/>
<path d="M0.5,0v-4.5H1V0H0.5"/>
<path d="M3-1.6l0.5,0.2C3.4-0.9,3.2-0.5,2.9-0.3C2.7,0,2.3,0.1,2,0.1C1.6,0.1,1.3,0,1.1-0.2C0.8-0.3,0.6-0.6,0.5-1
	C0.3-1.3,0.2-1.8,0.2-2.3s0.1-0.9,0.2-1.2C0.6-3.8,0.8-4.1,1-4.3c0.4-0.2,0.7-0.3,1-0.3c0.4,0,0.7,0.1,0.9,0.3
	c0.3,0.2,0.4,0.5,0.5,1L3-3.1c-0.2-0.7-0.5-1-1-1C1.7-4.1,1.5-4,1.3-3.9C1.2-3.8,1-3.6,0.9-3.3s-0.1,0.6-0.1,1
	c0,0.6,0.1,1.1,0.3,1.4S1.6-0.4,2-0.4c0.3,0,0.5-0.1,0.7-0.3C2.8-0.9,3-1.2,3-1.6"/>
<path d="M0.2-1.4l0.5-0.1c0,0.2,0.1,0.4,0.2,0.6C1-0.8,1.1-0.7,1.3-0.6s0.4,0.1,0.6,0.1c0.3,0,0.5-0.1,0.7-0.2
	c0-0.1,0.1-0.3,0.1-0.5c0-0.1,0-0.2-0.1-0.3C2.5-1.7,2.5-1.8,2.3-1.8C2.2-1.9,2-2,1.6-2.1C1.2-2.2,1-2.3,0.8-2.4
	C0.7-2.5,0.6-2.6,0.5-2.8C0.4-2.9,0.4-3.1,0.4-3.3c0-0.4,0.1-0.7,0.3-0.9s0.6-0.4,1-0.4c0.3,0,0.5,0.1,0.7,0.2s0.4,0.3,0.5,0.5
	C3-3.7,3.1-3.5,3.1-3.2H2.6c0-0.3-0.1-0.5-0.3-0.6C2.2-4,2-4,1.7-4S1.2-4,1.1-3.9C0.9-3.7,0.8-3.6,0.8-3.4S0.9-3.1,1-3
	s0.3,0.2,0.7,0.3s0.6,0.2,0.8,0.3C2.7-2.3,2.9-2.1,3-1.9s0.2,0.4,0.2,0.7C3.2-1,3.1-0.8,3-0.6S2.7-0.2,2.5-0.1S2,0.1,1.8,0.1
	C1.3,0.1,1,0,0.7-0.3S0.2-1,0.2-1.4"/>
<path d="M0.4,0v-4.5h0.5v4h1.8V0H0.4"/>
<path d="M0.4,0v-4.5h2.7V-4H0.9v1.4h2v0.5h-2v1.5h2.3V0H0.4"/>
<path d="M0.4,0v-4.5h2.5V-4h-2v1.4h1.7V-2H0.9v2H0.4"/>
<path d="M1.3,0v-4H0.1v-0.5H3V-4H1.8v4H1.3"/>
<path d="M52,765h2v4.1h-2V765"/>
<path d="M55,767h2v2.1h-2V767"/>
<path d="M62,765h3v4.1h-3V765"/>
<path d="M210,765h3v4.1h-3V765"/>
<path d="M212,767h3v2.1h-3V767"/>
<path d="M238,765h3v4.1h-3V765"/>
<path d="M340,765h1v4.1h-1V765"/>
<path d="M383,765h2v4.1h-2V765"/>
<path d="M389,765h1v4.1h-1V765"/>
<path d="M398,765h1v4.1h-1V765"/>
<path d="M424,767h3v2.1h-3V767"/>
<path d="M491,765h3v4.1h-3V765"/>
<path class="st0" d="M609.1,506l-5.6-5.6h5.6V506h-5.6v-5.6"/>
<path class="st0" d="M603.5,506l5.6-5.6"/>
<path class="st0" d="M608.4,504.5h0.5"/>
<path class="st0" d="M608.4,501.9h0.5"/>
<path class="st0" d="M608.7,504.5v-2.6"/>
<path class="st0" d="M415.9,542V320h-0.8V184.7h130.7v1.5h181.1v-1.5h85V459h-18.2v82.9h-66.5v-1.5H544.7v1.7H415.9"/>
<path class="st0" d="M417.1,410.5h126.8v131H417.1V410.5"/>
<path class="st0" d="M419.4,412.8h122.3v38.5h-1.3v3.9h1.3v41.1h-1.3v3.9h1.3v37.3h-1.3v1.7h-40.5v-1.7h-4v1.7h-22.3v-1.7h-4v1.7
	h-49.5v-1.7h-0.8v-37.3h0.8v-3.9h-0.8v-41.1h0.8v-3.9h-0.8L419.4,412.8"/>
<path class="st0" d="M420.2,453.5h21.6v2.3h-1.1v-0.7h-20.5"/>
<path class="st0" d="M420.2,496.4h20.5v-33h1.1v34.1h-21.6"/>
<path class="st0" d="M444.3,539.2v-9.9h3.9v0.9h-3v9"/>
<path class="st0" d="M458.7,539.2v-9h-3v-0.9h3.9v9.9"/>
<path class="st0" d="M513.8,519.5H496v-9.8h1v8.9h16.9"/>
<path class="st0" d="M513.8,498.5h-13.9"/>
<path class="st0" d="M499.9,499.4h13.9"/>
<path class="st0" d="M495.9,500.2v0.8h1v-0.8"/>
<path class="st0" d="M495.9,496.3h4v3.9h-4V496.3"/>
<path class="st0" d="M513.8,498.5H532v9.9"/>
<path class="st0" d="M530.4,508.4V500h-15.2v8.4"/>
<path class="st0" d="M531.9,508.4v11.1h-18.2v-21"/>
<path class="st0" d="M530.4,508.4v9.6h-15.2v-9.6"/>
<path class="st0" d="M515.3,500l15.2,18"/>
<path class="st0" d="M515.3,518l15.2-18"/>
<path class="st0" d="M499.2,519.5v18.1"/>
<path class="st0" d="M531.9,518h9.7"/>
<path class="st0" d="M531.9,519.5v4.9h6.7V518"/>
<path class="st0" d="M531.9,520.2h6.7"/>
<path class="st0" d="M538.7,522.3H532"/>
<path class="st0" d="M536.4,522.9l-1.1,1.4V518"/>
<path class="st0" d="M535.3,524.3l-1.2-1.4"/>
<path class="st0" d="M524.5,537.9l-6.7-6.8h6.7V537.9h-6.7v-6.8"/>
<path class="st0" d="M524.5,531.2l-6.7,6.8"/>
<path class="st0" d="M541.7,480.5h-4.5v3.4h2.3v3.4h2.2"/>
<path class="st0" d="M469.7,451.3h4v3.9h-4V451.3"/>
<path class="st0" d="M495.9,451.3h4v3.9h-4V451.3"/>
<path class="st0" d="M469.7,496.3h4v3.9h-4V496.3"/>
<path class="st0" d="M498.6,412.8v21.1h2.2v-21.1"/>
<path class="st0" d="M541.7,450.3h-36.3l-4.5-4.5v-2.9h-2.2v8.4"/>
<path class="st0" d="M500.9,447.5l2.9,2.9h-2.9V447.5"/>
<path class="st0" d="M540.4,452.6h-40.5"/>
<path class="st0" d="M448.2,530.2h0.4v-0.9h-0.4"/>
<path class="st0" d="M455.7,530.2h-0.4v-0.9h0.4"/>
<path class="st0" d="M448.5,529.3v-6.7h0.3v6.7H448.5"/>
<path class="st0" d="M496.9,501v0.4h-1V501"/>
<path class="st0" d="M495.9,501.3H488v0.3h7.9V501.3"/>
<path class="st0" d="M496.9,509.6v-0.4h-1v0.4"/>
<path class="st0" d="M500.9,433.9v0.4h-2.2v-0.4"/>
<path class="st0" d="M498.6,442.9v-0.4h2.2v0.4"/>
<path class="st0" d="M440.7,455.9v0.4h1.1v-0.4"/>
<path class="st0" d="M441.8,456.3h6.7v0.2h-6.7V456.3"/>
<path class="st0" d="M440.7,463.4V463h1.1v0.4"/>
<path class="st0" d="M419.4,479h10.5v6.2h1.5V479l9.4-4.1"/>
<path class="st0" d="M419.4,481h10.5"/>
<path class="st0" d="M429.9,483.1h-10.5"/>
<path class="st0" d="M429.9,485.1h-10.5"/>
<path class="st0" d="M431.4,479h9.4"/>
<path class="st0" d="M431.4,481h9.4"/>
<path class="st0" d="M440.7,483.1h-9.4"/>
<path class="st0" d="M436.1,476.9h4.7"/>
<path class="st0" d="M424.6,479v12.4h11.5V479l-1.8,1.7"/>
<path class="st0" d="M436.1,479l1.8,1.7"/>
<path class="st0" d="M672.3,229.8V186h57.8v43.8H672.3"/>
<path class="st0" d="M675.3,226.8v-37.6h51.8v37.6L675.3,226.8"/>
<path class="st0" d="M597.3,548.6V228.2H412.8V226h186.8v322.6H597.3"/>
<path class="st0" d="M613.1,548.6V177.8h2.2v370.8H613.1"/>
<path class="st0" d="M412.8,215.8h184.5v-38h2.3V218H412.8V215.8"/>
<path class="st0" d="M423.8,477.5v0.8l0.1,0.2l0.2,0.1h0.1l0.2-0.1v-1"/>
<path class="st0" d="M424.9,478.5v-1.1h0.4l0.1,0.1h0.1l0.1,0.1v0.2l-0.1,0.1l-0.1,0.1h-0.5"/>
<path class="st0" d="M534.5,517.5v-1.1h0.4l0.1,0.1l0.1,0.1v0.1l0.1,0.2v0.2l-0.1,0.2v0.1l-0.1,0.1L534.5,517.5"/>
<path class="st0" d="M535.5,517.5v-1.1l0.7,1.1v-1.1"/>
<path class="st0" d="M500.9,450.3l1.5-1.4"/>
<path class="st0" d="M500.9,448.9l1.5,1.4"/>
<path class="st1" d="M519.4,427.5l-0.2,0.1l-0.2,0.2l-0.1,0.5v0.2l0.1,0.5l0.2,0.2l0.2,0.1h0.2l0.3-0.1l0.1-0.2l0.1-0.5v-0.2
	l-0.1-0.5l-0.1-0.2l-0.3-0.1H519.4"/>
<path class="st1" d="M521.2,427.5l-0.3,0.1l-0.2,0.2l-0.1,0.5v0.2l0.1,0.5l0.2,0.2l0.3,0.1h0.2l0.2-0.1l0.2-0.2l0.1-0.5v-0.2
	l-0.1-0.5l-0.2-0.2l-0.2-0.1H521.2"/>
<path class="st1" d="M523.6,427.8l-0.1-0.2l-0.3-0.1H523l-0.2,0.1l-0.2,0.2l-0.1,0.5v0.4l0.1,0.4l0.2,0.2l0.2,0.1h0.1l0.2-0.1
	l0.2-0.2l0.1-0.2v-0.1l-0.1-0.2l-0.2-0.2l-0.2-0.1H523l-0.2,0.1l-0.2,0.2l-0.1,0.2"/>
<path class="st1" d="M516.3,430.6v1.9h1.1"/>
<path class="st1" d="M517.6,432.5l0.7-1.9l0.7,1.9"/>
<path class="st1" d="M517.9,431.9h0.9"/>
<path class="st1" d="M520.3,431.5l0.2,0.1l0.1,0.1l0.1,0.2v0.3l-0.1,0.2l-0.1,0.1l-0.2,0.1h-0.8v-1.9h0.8l0.2,0.1l0.1,0.1l0.1,0.2
	v0.2l-0.1,0.2l-0.1,0.1L520.3,431.5h-0.8"/>
<path class="st1" d="M524.4,430.9l-0.2-0.2l-0.2-0.1h-0.4l-0.2,0.1l-0.2,0.2v0.2l0.1,0.2l0.1,0.1l0.2,0.1l0.5,0.2l0.2,0.1l0.1,0.1
	l0.1,0.2v0.2l-0.2,0.2l-0.2,0.1h-0.4l-0.2-0.1l-0.2-0.2"/>
<path class="st1" d="M524.7,430.6l0.7,1.9l0.7-1.9"/>
<path class="st1" d="M517.9,435.6l0.7-1.9l0.7,1.9"/>
<path class="st1" d="M518.1,435h0.9"/>
<path class="st1" d="M519.8,435.6v-1.9h1.1"/>
<path class="st1" d="M519.8,434.6h0.7"/>
<path class="st1" d="M519.8,435.6h1.1"/>
<path class="st1" d="M521.4,435.6v-1.9h0.8l0.2,0.1l0.1,0.1l0.1,0.2v0.2l-0.1,0.2l-0.1,0.1l-0.2,0.1h-0.8"/>
<path class="st1" d="M522.1,434.6l0.6,1"/>
<path class="st1" d="M523.8,433.7l-0.2,0.1l-0.2,0.2l-0.1,0.2l-0.1,0.2v0.5l0.1,0.2l0.1,0.2l0.2,0.2l0.2,0.1h0.4l0.2-0.1l0.2-0.2
	l0.1-0.2l0.1-0.2v-0.5l-0.1-0.2l-0.1-0.2l-0.2-0.2l-0.2-0.1H523.8"/>
<path class="st1" d="M489.8,471.6l-0.3,0.1l-0.2,0.3l-0.1,0.4v0.3l0.1,0.4l0.2,0.3l0.3,0.1h0.2l0.2-0.1l0.2-0.3l0.1-0.4v-0.3
	l-0.1-0.4l-0.2-0.3l-0.2-0.1H489.8"/>
<path class="st1" d="M491.6,471.6l-0.3,0.1l-0.2,0.3l-0.1,0.4v0.3l0.1,0.4l0.2,0.3l0.3,0.1h0.2l0.2-0.1l0.2-0.3l0.1-0.4v-0.3
	l-0.1-0.4l-0.2-0.3l-0.2-0.1H491.6"/>
<path class="st1" d="M493.7,473.4v-1.9l-0.8,1.3h1.3"/>
<path class="st1" d="M489,475.1v1.3l0.1,0.3l0.2,0.2l0.2,0.1h0.2l0.3-0.1l0.2-0.2l0.1-0.3v-1.3"/>
<path class="st1" d="M492.5,474.7l-1.6,2.9"/>
<path class="st1" d="M493,476.9V475l0.7,1.9l0.7-1.9v1.9"/>
<path class="st1" d="M489.2,480v-1.9h0.7l0.2,0.1l0.2,0.2l0.1,0.2l0.1,0.2v0.4l-0.1,0.3l-0.1,0.2l-0.2,0.2l-0.2,0.1L489.2,480"/>
<path class="st1" d="M491.6,478.2l-0.2,0.1l-0.2,0.2l-0.1,0.2l-0.1,0.2v0.4l0.1,0.3l0.1,0.2l0.2,0.2l0.2,0.1h0.4l0.2-0.1l0.2-0.2
	l0.1-0.2l0.1-0.3v-0.4l-0.1-0.2l-0.1-0.2l-0.2-0.2l-0.2-0.1H491.6"/>
<path class="st1" d="M493.1,480v-1.9h1.2"/>
<path class="st1" d="M493.1,479.1h0.7"/>
<path class="st1" d="M443.7,428.7l-0.2,0.1l-0.2,0.2l-0.1,0.5v0.2l0.1,0.4l0.2,0.3l0.2,0.1h0.2l0.3-0.1l0.2-0.3l0.1-0.4v-0.2
	l-0.1-0.5l-0.2-0.2l-0.3-0.1H443.7"/>
<path class="st1" d="M445.5,428.7l-0.2,0.1l-0.2,0.2l-0.1,0.5v0.2l0.1,0.4l0.2,0.3l0.2,0.1h0.2l0.3-0.1l0.2-0.3l0.1-0.4v-0.2
	l-0.1-0.5l-0.2-0.2l-0.3-0.1H445.5"/>
<path class="st1" d="M447.6,430.6v-1.9l-0.9,1.3h1.3"/>
<path class="st1" d="M449.9,429.2l-0.1-0.2l-0.2-0.2l-0.2-0.1H449l-0.2,0.1l-0.2,0.2l-0.1,0.2l-0.1,0.2v0.4l0.1,0.3l0.1,0.2l0.2,0.2
	l0.2,0.1h0.4l0.2-0.1l0.2-0.2l0.1-0.2"/>
<path class="st1" d="M443.9,432.2v1.3l0.1,0.3l0.2,0.2l0.3,0.1h0.1l0.3-0.1l0.2-0.2l0.1-0.3v-1.3"/>
<path class="st1" d="M447.2,431.9l-1.6,2.9"/>
<path class="st1" d="M447.8,434.1v-1.9l0.7,1.9l0.7-1.9v1.9"/>
<path class="st1" d="M444,437.2v-1.9h0.6l0.2,0.1l0.2,0.2l0.1,0.2l0.1,0.2v0.5l-0.1,0.2l-0.1,0.2l-0.2,0.2l-0.2,0.1L444,437.2"/>
<path class="st1" d="M446.3,435.3l-0.2,0.1l-0.2,0.2l-0.1,0.2l-0.1,0.2v0.5l0.1,0.2l0.1,0.2l0.2,0.2l0.2,0.1h0.4l0.2-0.1l0.2-0.2
	l0.1-0.2l0.1-0.2V436l-0.1-0.2l-0.1-0.2l-0.2-0.2l-0.2-0.1H446.3"/>
<path class="st1" d="M447.9,437.2v-1.9h1.1"/>
<path class="st1" d="M447.9,436.2h0.7"/>
<path class="st1" d="M426.4,471.7l-0.2,0.1L426,472l-0.1,0.5v0.2l0.1,0.5l0.2,0.2l0.2,0.1h0.2l0.2-0.1l0.2-0.2l0.1-0.5v-0.2L427,472
	l-0.2-0.2l-0.2-0.1H426.4"/>
<path class="st1" d="M428.2,471.7l-0.3,0.1l-0.2,0.2l-0.1,0.5v0.2l0.1,0.5l0.2,0.2l0.3,0.1h0.2l0.2-0.1l0.2-0.2l0.1-0.5v-0.2
	l-0.1-0.5l-0.2-0.2l-0.2-0.1H428.2"/>
<path class="st1" d="M430,471.7l-0.3,0.1l-0.2,0.2l-0.1,0.5v0.2l0.1,0.5l0.2,0.2l0.3,0.1h0.1l0.3-0.1l0.2-0.2l0.1-0.5v-0.2l-0.1-0.5
	l-0.2-0.2l-0.3-0.1H430"/>
<path class="st1" d="M432.5,472l-0.2-0.2l-0.2-0.1h-0.4l-0.3,0.1l-0.2,0.2v0.2l0.1,0.2l0.1,0.1l0.2,0.1l0.5,0.2l0.2,0.1l0.1,0.1
	l0.1,0.2v0.2l-0.2,0.2l-0.2,0.1h-0.4l-0.3-0.1l-0.2-0.2"/>
<path class="st1" d="M432.8,473.6l0.7-1.9l0.7,1.9"/>
<path class="st1" d="M433.1,473h0.8"/>
<path class="st1" d="M427.9,475.1l-0.2-0.2l-0.3-0.1H427l-0.2,0.1l-0.2,0.2v0.2l0.1,0.2l0.1,0.1l0.2,0.1l0.5,0.2l0.2,0.1l0.1,0.1
	l0.1,0.2v0.2l-0.2,0.2l-0.3,0.1H427l-0.2-0.1l-0.2-0.2"/>
<path class="st1" d="M428.9,474.8v1.9"/>
<path class="st1" d="M428.2,474.8h1.3"/>
<path class="st1" d="M429.6,476.7l0.7-1.9l0.7,1.9"/>
<path class="st1" d="M429.9,476.1h0.9"/>
<path class="st1" d="M431.6,474.8v1.9"/>
<path class="st1" d="M432.2,476.7v-1.9h0.8l0.2,0.1l0.1,0.1l0.1,0.2v0.2l-0.1,0.2l-0.1,0.1l-0.2,0.1h-0.8"/>
<path class="st1" d="M432.9,475.7l0.6,1"/>
<path class="st1" d="M427.5,479.9V478h0.7l0.2,0.1l0.2,0.2l0.1,0.2l0.1,0.2v0.5l-0.1,0.2l-0.1,0.2l-0.2,0.2l-0.2,0.1L427.5,479.9"/>
<path class="st1" d="M429.9,477.9l-0.2,0.1l-0.2,0.2l-0.1,0.2l-0.1,0.2v0.5l0.1,0.2l0.1,0.2l0.2,0.2l0.2,0.1h0.4l0.2-0.1l0.2-0.2
	l0.1-0.2l0.1-0.2v-0.5l-0.1-0.2l-0.1-0.2l-0.2-0.2l-0.2-0.1H429.9"/>
<path class="st1" d="M431.4,479.9V478h1.2"/>
<path class="st1" d="M431.4,478.8h0.7"/>
<path class="st1" d="M443.7,513.9l-0.2,0.1l-0.2,0.3l-0.1,0.4v0.2l0.1,0.5l0.2,0.2l0.2,0.1h0.2l0.3-0.1l0.2-0.2l0.1-0.5v-0.2
	l-0.1-0.4l-0.2-0.3l-0.3-0.1H443.7"/>
<path class="st1" d="M445.5,513.9l-0.3,0.1l-0.2,0.3l-0.1,0.4v0.2l0.1,0.5l0.2,0.2l0.3,0.1h0.2l0.2-0.1l0.2-0.2l0.1-0.5v-0.2
	l-0.1-0.4L446,514l-0.2-0.1H445.5"/>
<path class="st1" d="M447.7,515.8v-1.9l-0.9,1.2h1.3"/>
<path class="st1" d="M448.4,515.8l0.7-1.9l0.7,1.9"/>
<path class="st1" d="M448.7,515.1h0.9"/>
<path class="st1" d="M443.9,517.4v1.3l0.1,0.2l0.2,0.2l0.3,0.1h0.1l0.3-0.1l0.2-0.2l0.1-0.2v-1.3"/>
<path class="st1" d="M447.2,517.1l-1.6,2.8"/>
<path class="st1" d="M447.8,519.3v-1.9l0.7,1.9l0.7-1.9v1.9"/>
<path class="st1" d="M444,522.4v-1.9h0.6l0.2,0.1l0.2,0.2l0.1,0.2l0.1,0.3v0.4l-0.1,0.3l-0.1,0.2l-0.2,0.2l-0.2,0.1L444,522.4"/>
<path class="st1" d="M446.3,520.5l-0.2,0.1l-0.2,0.2l-0.1,0.2l-0.1,0.3v0.4l0.1,0.3l0.1,0.2l0.2,0.2l0.2,0.1h0.4l0.2-0.1l0.2-0.2
	l0.1-0.2l0.1-0.3v-0.4l-0.1-0.3l-0.1-0.2l-0.2-0.2l-0.2-0.1H446.3"/>
<path class="st1" d="M447.9,522.4v-1.9h1.1"/>
<path class="st1" d="M447.9,521.4h0.7"/>
<path class="st1" d="M449.3,530.7l-0.3,0.1l-0.2,0.3l-0.1,0.4v0.3l0.1,0.4l0.2,0.3l0.3,0.1h0.2l0.2-0.1l0.2-0.3l0.1-0.4v-0.3
	l-0.1-0.4l-0.2-0.3l-0.2-0.1H449.3"/>
<path class="st1" d="M451.1,530.7l-0.3,0.1l-0.2,0.3l-0.1,0.4v0.3l0.1,0.4l0.2,0.3l0.3,0.1h0.2l0.2-0.1l0.2-0.3l0.1-0.4v-0.3
	l-0.1-0.4l-0.2-0.3l-0.2-0.1H451.1"/>
<path class="st1" d="M452.6,531l0.2-0.1l0.2-0.2v1.9"/>
<path class="st1" d="M454.5,530.7v1.9"/>
<path class="st1" d="M453.9,530.7h1.3"/>
<path class="st1" d="M449.5,533.8v1.9"/>
<path class="st1" d="M448.9,533.8h1.3"/>
<path class="st1" d="M450.6,535.7v-1.9h1.1"/>
<path class="st1" d="M450.6,534.7h0.7"/>
<path class="st1" d="M450.6,535.7h1.1"/>
<path class="st1" d="M452.3,533.8v1.9h1.1"/>
<path class="st1" d="M453.8,535.7v-1.9h1.1"/>
<path class="st1" d="M453.8,534.7h0.7"/>
<path class="st1" d="M453.8,535.7h1.1"/>
<path class="st1" d="M449.4,538.8v-1.9h0.6l0.3,0.1l0.2,0.2l0.1,0.2l0.1,0.3v0.4l-0.1,0.3l-0.1,0.2l-0.2,0.2l-0.3,0.1L449.4,538.8"
	/>
<path class="st1" d="M451.7,536.9l-0.1,0.1l-0.2,0.2l-0.1,0.2l-0.1,0.3v0.4l0.1,0.3l0.1,0.2l0.2,0.2l0.1,0.1h0.4l0.2-0.1l0.2-0.2
	l0.1-0.2l0.1-0.3v-0.4l-0.1-0.3l-0.1-0.2l-0.2-0.2l-0.2-0.1H451.7"/>
<path class="st1" d="M453.3,538.8v-1.9h1.1"/>
<path class="st1" d="M453.3,537.8h0.7"/>
<path class="st1" d="M503.4,504.5l-0.2,0.1l-0.2,0.2l-0.1,0.5v0.2l0.1,0.4l0.2,0.3l0.2,0.1h0.2l0.3-0.1l0.2-0.3l0.1-0.4v-0.2
	l-0.1-0.5l-0.2-0.2l-0.3-0.1H503.4"/>
<path class="st1" d="M505.2,504.5l-0.2,0.1l-0.2,0.2l-0.1,0.5v0.2l0.1,0.4l0.2,0.3l0.2,0.1h0.2l0.2-0.1l0.2-0.3l0.1-0.4v-0.2
	l-0.1-0.5l-0.2-0.2l-0.2-0.1H505.2"/>
<path class="st1" d="M507.6,504.5h-0.9l-0.1,0.8l0.1-0.1l0.2-0.1h0.3l0.2,0.1l0.2,0.2l0.1,0.3v0.2l-0.1,0.2l-0.2,0.2l-0.2,0.1h-0.3
	l-0.2-0.1l-0.1-0.1l-0.1-0.2"/>
<path class="st1" d="M502.7,508v1.4l0.1,0.2l0.2,0.2l0.3,0.1h0.2l0.2-0.1l0.2-0.2l0.1-0.2V508"/>
<path class="st1" d="M506,507.6l-1.6,2.9"/>
<path class="st1" d="M506.6,509.9V508l0.7,1.9l0.7-1.9v1.9"/>
<path class="st1" d="M502.8,513v-1.9h0.6l0.3,0.1l0.2,0.2l0.1,0.2l0.1,0.2v0.5l-0.1,0.2l-0.1,0.2l-0.2,0.2l-0.3,0.1L502.8,513"/>
<path class="st1" d="M505.2,511.1l-0.2,0.1l-0.2,0.2l-0.1,0.2l-0.1,0.2v0.5l0.1,0.2l0.1,0.2l0.2,0.2l0.2,0.1h0.3l0.2-0.1l0.2-0.2
	l0.1-0.2l0.1-0.2v-0.5l-0.1-0.2l-0.1-0.2l-0.2-0.2l-0.2-0.1H505.2"/>
<path class="st1" d="M506.7,513v-1.9h1.1"/>
<path class="st1" d="M506.7,512h0.7"/>
<path class="st1" d="M517.6,524.2l-0.2,0.1l-0.2,0.2l-0.1,0.5v0.2l0.1,0.5l0.2,0.2l0.2,0.1h0.2l0.2-0.1l0.2-0.2l0.1-0.5V525
	l-0.1-0.5l-0.2-0.2l-0.2-0.1H517.6"/>
<path class="st1" d="M519.4,524.2l-0.3,0.1l-0.2,0.2l-0.1,0.5v0.2l0.1,0.5l0.2,0.2l0.3,0.1h0.2l0.2-0.1l0.2-0.2l0.1-0.5V525
	l-0.1-0.5l-0.2-0.2l-0.2-0.1H519.4"/>
<path class="st1" d="M521.5,526.1v-1.9l-0.8,1.2h1.3"/>
<path class="st1" d="M523.3,525l0.3,0.1l0.1,0.1l0.1,0.2v0.3l-0.1,0.2l-0.1,0.1l-0.3,0.1h-0.8v-1.9h0.8l0.3,0.1l0.1,0.1l0.1,0.1v0.2
	l-0.1,0.2l-0.1,0.1L523.3,525h-0.8"/>
<path class="st1" d="M517.7,527.7v1.3l0.1,0.2l0.2,0.2l0.2,0.1h0.2l0.3-0.1l0.2-0.2l0.1-0.2v-1.3"/>
<path class="st1" d="M521.1,527.3l-1.6,2.8"/>
<path class="st1" d="M521.7,529.5v-1.9l0.7,1.9l0.7-1.9v1.9"/>
<path class="st1" d="M517.9,532.7v-1.9h0.7l0.2,0.1l0.2,0.2l0.1,0.2l0.1,0.3v0.4l-0.1,0.2l-0.1,0.2l-0.2,0.2l-0.2,0.1H517.9"/>
<path class="st1" d="M520.2,530.8l-0.2,0.1l-0.2,0.2l-0.1,0.2l-0.1,0.3v0.4l0.1,0.2l0.1,0.2l0.2,0.2l0.2,0.1h0.4l0.2-0.1l0.2-0.2
	l0.1-0.2l0.1-0.2v-0.4l-0.1-0.3L521,531l-0.2-0.2l-0.2-0.1L520.2,530.8"/>
<path class="st1" d="M521.7,532.7v-1.9h1.2"/>
<path class="st1" d="M521.7,531.7h0.7"/>
<path class="st1" d="M690.5,203.6l-0.2,0.1L690,204l-0.1,0.4v0.2l0.1,0.5l0.2,0.2l0.2,0.1h0.2l0.2-0.1l0.2-0.2l0.1-0.5v-0.2L691,204
	l-0.2-0.3l-0.2-0.1L690.5,203.6"/>
<path class="st1" d="M692.9,203.9l-0.1-0.2l-0.3-0.1h-0.2l-0.2,0.1l-0.2,0.3l-0.1,0.4v0.4l0.1,0.4l0.2,0.2l0.2,0.1h0.1l0.2-0.1
	l0.2-0.2l0.1-0.2v-0.1l-0.1-0.2l-0.2-0.2l-0.2-0.1h-0.1l-0.2,0.1l-0.2,0.2l-0.1,0.2"/>
<path class="st1" d="M694.7,204.2l-0.1,0.2l-0.1,0.2l-0.3,0.1h-0.1l-0.3-0.1l-0.2-0.2l-0.1-0.2v-0.1l0.1-0.3l0.2-0.2l0.3-0.1h0.1
	l0.3,0.1l0.1,0.2L694.7,204.2v0.4l-0.1,0.5l-0.1,0.2l-0.3,0.1H694l-0.2-0.1l-0.1-0.2"/>
<path class="st1" d="M689.6,207.1v1.3l0.1,0.2l0.2,0.2l0.3,0.1h0.2l0.2-0.1l0.2-0.2l0.1-0.2v-1.3"/>
<path class="st1" d="M693,206.7l-1.6,2.8"/>
<path class="st1" d="M693.5,209v-1.9l0.7,1.9l0.7-1.9v1.9"/>
<path class="st1" d="M689.8,212.1v-1.9h0.6l0.3,0.1l0.2,0.2l0.1,0.2l0.1,0.3v0.4l-0.1,0.3l-0.1,0.1l-0.2,0.2l-0.3,0.1L689.8,212.1"
	/>
<path class="st1" d="M692.1,210.2l-0.2,0.1l-0.2,0.2l-0.1,0.2l-0.1,0.3v0.4l0.1,0.3l0.3,0.3l0.2,0.1h0.4l0.1-0.1l0.3-0.3l0.1-0.3
	V211l-0.1-0.3l-0.1-0.2l-0.2-0.2l-0.1-0.1H692.1"/>
<path class="st1" d="M693.6,212.1v-1.9h1.1"/>
<path class="st1" d="M693.6,211.1h0.7"/>
<path class="st0" d="M421.5,494.2l-0.1-0.1h-0.5l-0.1,0.1v0.2l0.1,0.1l0.1,0.1l0.2,0.1l0.1,0.1l0.1,0.1l0.1,0.1v0.2l-0.1,0.1
	l-0.1,0.1h-0.2l-0.2-0.1l-0.1-0.1"/>
<path class="st0" d="M422,494.1v1.1"/>
<path class="st0" d="M421.7,494.1h0.7"/>
<path class="st0" d="M422.4,495.2l0.4-1.1l0.4,1.1"/>
<path class="st0" d="M423.4,494.1v1.1"/>
<path class="st0" d="M423.8,495.2v-1.1h0.5l0.1,0.1l0.1,0.1v0.1l-0.1,0.1l-0.1,0.1h-0.5"/>
<path class="st0" d="M424.1,494.6l0.4,0.6"/>
<path class="st0" d="M425.8,494.3l0.1-0.1l0.1-0.1v1.1"/>
<path class="st0" d="M712.5,211.1H708v-4.5h4.5V211.1"/>
<path class="st0" d="M704.5,204.2v1.7"/>
<path class="st0" d="M705.6,204.2v1.7"/>
<path class="st0" d="M704.5,204.9h1.1"/>
<path class="st0" d="M706.1,205.8l0.7-1.7l0.6,1.7"/>
<path class="st0" d="M706.3,205.3h0.8"/>
<path class="st0" d="M708,204.2v1.7"/>
<path class="st0" d="M707.5,204.2h1.1"/>
<path class="st0" d="M710.1,204.6l-0.1-0.2l-0.2-0.2l-0.2-0.1h-0.3l-0.2,0.1l-0.1,0.2l-0.1,0.2l-0.1,0.2v0.4l0.1,0.2l0.1,0.2
	l0.1,0.2l0.2,0.1h0.3l0.2-0.1l0.2-0.2l0.1-0.2"/>
<path class="st0" d="M710.7,204.2v1.7"/>
<path class="st0" d="M711.8,204.2v1.7"/>
<path class="st0" d="M710.7,204.9h1.1"/>
<path class="st0" d="M714.2,204.2v1.2l0.1,0.2l0.2,0.2l0.2,0.1h0.2l0.2-0.1l0.2-0.2l0.1-0.2v-1.2"/>
<path class="st0" d="M716,205.8v-1.7h0.7l0.2,0.1l0.1,0.2v0.2l-0.1,0.2l-0.1,0.1l-0.2,0.1H716"/>
<path class="st1" d="M31.1,757.1v1"/>
<path class="st1" d="M31.3,757.1v1"/>
<path class="st1" d="M31.2,758.1v-1"/>
<path class="st1" d="M31.2,757.1v1"/>
<path class="st1" d="M31.5,756.9h-0.6"/>
<path class="st1" d="M29.7,756.4v2.5"/>
<path class="st1" d="M29.7,756.4v2.3"/>
<path class="st1" d="M29.8,758.2h3"/>
<path class="st1" d="M32.8,758.3h-3"/>
<path class="st1" d="M29.8,758.4h3"/>
<path class="st1" d="M32.8,758.4h-3"/>
<path class="st1" d="M29.8,758.5h3"/>
<path class="st1" d="M32.8,758.6h-3"/>
<path class="st1" d="M29.8,758.6h3h-0.1"/>
<path class="st1" d="M29.8,758.3h3"/>
<path class="st1" d="M32.9,758v0.9"/>
<path class="st1" d="M32.9,758.1v0.7"/>
<path class="st1" d="M31.3,758.1h1.4l0.1-0.1h0.1v-0.4"/>
<path class="st1" d="M29.6,759.1L29.6,759.1l0.1-0.2l0.2-0.2H30"/>
<path class="st1" d="M32.9,758.8L32.9,758.8L32.9,758.8l-2.9-0.1"/>
<path class="st1" d="M32.9,759.1L32.9,759.1l0.1-1.4"/>
<path class="st1" d="M29.6,756.4v2.7"/>
<path class="st1" d="M31.1,757L31.1,757l-0.1-0.1l-0.2-0.1h-0.2v-0.1h1.3"/>
<path class="st1" d="M31.1,757.3v0.8"/>
<path class="st1" d="M31.8,756.8L31.8,756.8l-0.2,0.1l-0.2,0.1l-0.1,0.1l-0.1,0.1l-0.1,0.2v0.8"/>
<path class="st1" d="M29.8,758.1h1.3"/>
<path class="st1" d="M29.6,756.4l0.8-0.1v0.1l-0.2,0.1l-0.1,0.1l-0.1,0.1l-0.1,0.1l-0.1,0.1v1.3"/>
<path class="st1" d="M30,755.4h2.6"/>
<path class="st1" d="M30,755.4l-0.1-0.1h-0.1l-0.1-0.1l-0.1-0.1V755"/>
<path class="st1" d="M29.7,756.3L29.7,756.3l-0.1-1.3"/>
<path class="st1" d="M32.9,755v1.3h-0.1"/>
<path class="st1" d="M30,755.9h2.6"/>
<path class="st1" d="M32.6,755.9L32.6,755.9l0.2,0.1v0.3"/>
<path class="st1" d="M29.7,755.3v0.7"/>
<path class="st1" d="M29.7,755.1v0.9"/>
<path class="st1" d="M29.7,755.4h3.1"/>
<path class="st1" d="M32.8,755.5h-3.1"/>
<path class="st1" d="M29.7,755.6h3.1"/>
<path class="st1" d="M32.8,755.6h-3.1"/>
<path class="st1" d="M29.7,755.7h3.1"/>
<path class="st1" d="M32.8,755.7h-3.1"/>
<path class="st1" d="M29.7,755.8h3.1h-0.1"/>
<path class="st1" d="M29.7,755.4h3.1"/>
<path class="st1" d="M32.9,755.1v0.9"/>
<path class="st1" d="M32.9,755.3v0.7"/>
<path class="st1" d="M32.5,753.9L32.5,753.9l0.2-0.1l0.1-0.1V753l-0.1-0.2l-0.1-0.2l-0.1-0.2l-0.2-0.1l-0.2-0.1v-0.1l0.8,0.3"/>
<path class="st1" d="M29.6,753.5v1.4"/>
<path class="st1" d="M32.9,752.4v2.5h-0.1"/>
<path class="st1" d="M30,754.4h2.6"/>
<path class="st1" d="M32.6,754.4L32.6,754.4l0.2,0.1h0.1v0.4"/>
<path class="st1" d="M30,754.4h-0.1l-0.1,0.1h-0.1l-0.1,0.1v0.3h-0.1"/>
<path class="st1" d="M29.6,753.5L29.6,753.5l0.1,0.2l0.1,0.1l0.1,0.1L30,754h2.6"/>
<path class="st1" d="M29.9,754.4l-0.1,0.1V754l0.1,0.1"/>
<path class="st1" d="M29.7,753.8v0.7"/>
<path class="st1" d="M29.7,753.6v1"/>
<path class="st1" d="M29.8,754.4h2.9"/>
<path class="st1" d="M29.8,754.3h2.9"/>
<path class="st1" d="M29.8,754.2h2.9"/>
<path class="st1" d="M29.8,754.2h2.9"/>
<path class="st1" d="M29.8,754.1h2.9"/>
<path class="st1" d="M29.8,754.1h2.9"/>
<path class="st1" d="M29.8,754h2.9"/>
<path class="st1" d="M29.8,753.9h2.9"/>
<path class="st1" d="M32.7,753.8v0.7"/>
<path class="st1" d="M32.8,752.3v2.1"/>
<path class="st1" d="M32.9,754.6v-2.2v2.1"/>
<path class="st1" d="M31.1,750h0.3H31.1"/>
<path class="st1" d="M31.5,749.9h-0.6"/>
<path class="st1" d="M32.7,751.1v0.5"/>
<path class="st1" d="M32.8,751.7V751"/>
<path class="st1" d="M32.9,751.7v-2.2V751.7"/>
<path class="st1" d="M29.8,751.5h2.8"/>
<path class="st1" d="M32.6,751.5h-2.8"/>
<path class="st1" d="M29.8,751.4h2.8"/>
<path class="st1" d="M32.6,751.4h-2.8H32.6"/>
<path class="st1" d="M32.6,751.3h-2.8"/>
<path class="st1" d="M29.8,751.2h2.8"/>
<path class="st1" d="M29.8,751.2h2.8"/>
<path class="st1" d="M29.7,749.6v2.2"/>
<path class="st1" d="M29.7,749.6v2.2"/>
<path class="st1" d="M31.2,750v1.1"/>
<path class="st1" d="M31.2,751.1V750"/>
<path class="st1" d="M31.3,750v1.1"/>
<path class="st1" d="M31.1,750v1.1"/>
<path class="st1" d="M31.1,751.1h-1.3V750l0.1-0.2l0.2-0.2l0.1-0.1h0.2v-0.1l-0.8,0.1"/>
<path class="st1" d="M31.8,749.8L31.8,749.8l-0.4,0.1v0.1l-0.1,0.1l-0.1,0.1l-0.1,0.2v0.9"/>
<path class="st1" d="M32.6,751.1L32.6,751.1l0.2-0.2l0.1-0.1V750l-0.1-0.2l-0.1-0.2l-0.1-0.1l-0.2-0.1"/>
<path class="st1" d="M31.1,750.2v0.9"/>
<path class="st1" d="M32.9,749.5l-0.8-0.3v0.1l0.2,0.1"/>
<path class="st1" d="M31.8,749.8h-1.3v0.1h0.4L31,750l0.1,0.1"/>
<path class="st1" d="M29.6,749.6v2.5"/>
<path class="st1" d="M32.9,749.5v2.5h-0.1"/>
<path class="st1" d="M30,751.6h2.6"/>
<path class="st1" d="M32.6,751.6L32.6,751.6l0.2,0.1l0.1,0.1v0.3"/>
<path class="st1" d="M30,751.6l-0.1,0.1h-0.1l-0.1,0.1l-0.1,0.1v0.2h-0.1"/>
<path class="st1" d="M31.3,751.1h1.3"/>
<path class="st1" d="M33.2,749v-2.2V749H33v-2.2"/>
<path class="st1" d="M33.2,746.8v2.2"/>
<path class="st1" d="M33.1,749v-2.2"/>
<path class="st1" d="M33,746.8v2.2"/>
<path class="st1" d="M30,745.6h2.6"/>
<path class="st1" d="M30,745.6h-0.1l-0.1-0.1l-0.1-0.1h-0.1v-0.3"/>
<path class="st1" d="M29.7,746.6L29.7,746.6l-0.1-1.4"/>
<path class="st1" d="M32.9,745.2v1.4h-0.1"/>
<path class="st1" d="M30,746.1h2.6"/>
<path class="st1" d="M32.6,746.1L32.6,746.1l0.2,0.1l0.1,0.1v0.3"/>
<path class="st1" d="M29.7,745.5v0.7"/>
<path class="st1" d="M29.7,745.4v0.9"/>
<path class="st1" d="M29.7,745.7h3.1"/>
<path class="st1" d="M32.8,745.8h-3.1"/>
<path class="st1" d="M29.7,745.8h3.1"/>
<path class="st1" d="M32.8,745.9h-3.1"/>
<path class="st1" d="M29.7,746h3.1"/>
<path class="st1" d="M32.8,746h-3.1"/>
<path class="st1" d="M29.7,746.1h3.1h-0.1"/>
<path class="st1" d="M29.7,745.7h3.1"/>
<path class="st1" d="M32.9,745.4v0.9"/>
<path class="st1" d="M32.9,745.5v0.7"/>
<path class="st1" d="M32.5,742.4H32"/>
<path class="st1" d="M31.8,742.3h0.7"/>
<path class="st1" d="M30.8,742.3h-0.6"/>
<path class="st1" d="M31.7,741.8h-0.8"/>
<path class="st1" d="M30.8,741.8H32"/>
<path class="st1" d="M32,741.9h-1.4"/>
<path class="st1" d="M30.5,741.9h1.7"/>
<path class="st1" d="M32.2,741.9h-1.8"/>
<path class="st1" d="M30.3,742h2"/>
<path class="st1" d="M32.4,742.1h-2.2"/>
<path class="st1" d="M30.2,742.1h2.3"/>
<path class="st1" d="M32.5,742.2h-2.3"/>
<path class="st1" d="M32.5,742.2h-2.3"/>
<path class="st1" d="M32.7,744.6h-2.8H32.7"/>
<path class="st1" d="M29.9,744.5h2.8"/>
<path class="st1" d="M29.9,744.5h2.8"/>
<path class="st1" d="M29.9,744.4h2.8"/>
<path class="st1" d="M29.9,744.3h2.8"/>
<path class="st1" d="M29.9,744.3h2.8"/>
<path class="st1" d="M29.9,744.2h2.8"/>
<path class="st1" d="M29.8,742.8v1.9"/>
<path class="st1" d="M29.7,742.9v1.9"/>
<path class="st1" d="M29.7,743.1v1.7"/>
<path class="st1" d="M29.9,742.6v0.7"/>
<path class="st1" d="M29.9,744.6v-0.5"/>
<path class="st1" d="M29.9,742.5v0.7"/>
<path class="st1" d="M30,742.4v0.5"/>
<path class="st1" d="M30,742.4v0.5"/>
<path class="st1" d="M30.1,742.2v0.5"/>
<path class="st1" d="M32.6,742.2v0.5"/>
<path class="st1" d="M32.6,742.9v-0.6"/>
<path class="st1" d="M32.7,743v-0.7"/>
<path class="st1" d="M32.7,743.1v-0.7"/>
<path class="st1" d="M32.8,743.4v-0.8"/>
<path class="st1" d="M32.9,744.8v-2"/>
<path class="st1" d="M32.9,744.8v-1.9"/>
<path class="st1" d="M32.8,744.7v-0.8"/>
<path class="st1" d="M32.7,744.2l0.1-0.2l0.1-0.2v-0.4l-0.1-0.2"/>
<path class="st1" d="M32.9,743.3V743l-0.1-0.2v-0.1"/>
<path class="st1" d="M32.7,743.3l-0.1-0.2l-0.1-0.1l-0.1-0.1l-0.1-0.1l-0.1-0.2l-0.2-0.1l-0.1-0.1l-0.1-0.1"/>
<path class="st1" d="M32.9,742.7l-0.1-0.2l-0.1-0.1l-0.5-0.5"/>
<path class="st1" d="M32,741.8l-0.2-0.1l-0.2-0.1H31"/>
<path class="st1" d="M32,742.4l-0.2-0.1h-0.7"/>
<path class="st1" d="M31.1,742.3h-0.2l-0.2,0.1l-0.2,0.1"/>
<path class="st1" d="M30,742.3l-0.1,0.1l-0.1,0.1l-0.1,0.2l-0.1,0.1l-0.1,0.2"/>
<path class="st1" d="M29.9,743.1l-0.1,0.2l-0.1,0.2v0.3l0.1,0.2v0.1"/>
<path class="st1" d="M29.7,743v0.3l-0.1,0.3v0.1l0.1,0.5"/>
<path class="st1" d="M29.9,744.2h2.8"/>
<path class="st1" d="M29.6,745.1L29.6,745.1l0.1-0.2l0.1-0.1h0.1l0.1-0.1"/>
<path class="st1" d="M32.9,744.8L32.9,744.8L32.9,744.8l-0.2-0.2H30"/>
<path class="st1" d="M29.7,744.2v0.3l-0.1,0.6"/>
<path class="st1" d="M32.9,745.1L32.9,745.1l0.1-1.8"/>
<path class="st1" d="M32,738.5c0-0.1-0.1-0.3-0.3-0.3c-0.2,0-0.3,0.1-0.3,0.3"/>
<path class="st1" d="M31.4,738.5c0,0.2,0.1,0.3,0.3,0.3c0.1,0,0.3-0.1,0.3-0.3"/>
<path class="st1" d="M30.7,738.5c0-0.1-0.1-0.3-0.3-0.3c-0.1,0-0.3,0.1-0.3,0.3"/>
<path class="st1" d="M30.2,738.5c0,0.2,0.1,0.3,0.3,0.3c0.1,0,0.3-0.1,0.3-0.3"/>
<path class="st1" d="M27.3,702.9h1169.9V23.4H27.3V702.9"/>
<path d="M339.2,761.7l-0.5-0.5L27,761.7H339.2 M338.7,761.1L27,761.7l0.6-0.5h311.1 M27,761.7l0.6-0.5l-0.6-54V761.7 M27.6,761.1
	l-0.6-54l0.6,0.5V761.1 M27,707.1l0.6,0.5l311.6-0.5H27 M27.6,707.7l311.6-0.5l-0.5,0.5H27.6 M339.2,707.1l-0.5,0.5l0.5,54V707.1
	 M338.7,707.7l0.5,54l-0.5-0.5V707.7"/>
<path class="st2" d="M339.2,761.7l-0.5-0.5L27,761.7H339.2 M338.7,761.1L27,761.7l0.6-0.5h311.1 M27,761.7l0.6-0.5l-0.6-54V761.7
	 M27.6,761.1l-0.6-54l0.6,0.5V761.1 M27,707.1l0.6,0.5l311.6-0.5H27 M27.6,707.7l311.6-0.5l-0.5,0.5H27.6 M339.2,707.1l-0.5,0.5
	l0.5,54V707.1 M338.7,707.7l0.5,54l-0.5-0.5V707.7"/>
<path class="st3" d="M1139.1,761.7l-0.6-0.5l-215.9,0.5H1139.1 M1138.5,761.1l-215.9,0.5l0.5-0.5H1138.5 M922.5,761.7l0.5-0.5
	l-0.5-54V761.7 M923.1,761.1l-0.5-54l0.5,0.5V761.1 M922.5,707.1l0.5,0.5l216-0.5H922.5 M923.1,707.7l216-0.5l-0.6,0.5H923.1
	 M1139.1,707.1l-0.6,0.5l0.6,54V707.1 M1138.5,707.7l0.6,54l-0.6-0.5V707.7"/>
<path d="M1143.6,761.1l-0.6,0.5l54-0.5H1143.6 M1143,761.7l54-0.5l0.6,0.5H1143 M1197,761.1l0.6,0.5l-0.6-54V761.1 M1197.6,761.7
	l-0.6-54l0.6-0.5V761.7 M1197,707.7l0.6-0.5l-54,0.5H1197 M1197.6,707.1l-54,0.5l-0.6-0.5H1197.6 M1143.6,707.7l-0.6-0.5l0.6,54
	V707.7 M1143,707.1l0.6,54l-0.6,0.5V707.1"/>
<path class="st2" d="M1143.6,761.1l-0.6,0.5l54-0.5H1143.6 M1143,761.7l54-0.5l0.6,0.5H1143 M1197,761.1l0.6,0.5l-0.6-54V761.1
	 M1197.6,761.7l-0.6-54l0.6-0.5V761.7 M1197,707.7l0.6-0.5l-54,0.5H1197 M1197.6,707.1l-54,0.5l-0.6-0.5H1197.6 M1143.6,707.7
	l-0.6-0.5l0.6,54V707.7 M1143,707.1l0.6,54l-0.6,0.5V707.1"/>
<path class="st4" d="M752.1,761.1l-0.5,0.5l108-0.5H752.1 M751.5,761.7l108-0.5l0.5,0.5H751.5 M859.5,761.1l0.5,0.5l-0.5-54V761.1
	 M860.1,761.7l-0.5-54l0.5-0.5V761.7 M859.5,707.7l0.5-0.5l-108,0.5H859.5 M860.1,707.1l-108,0.5l-0.5-0.5H860.1 M752.1,707.7
	l-0.5-0.5l0.5,54V707.7 M751.5,707.1l0.5,54l-0.5,0.5V707.1"/>
<path class="st1" d="M720.3,714.2v47.2"/>
<path class="st1" d="M634.3,714.2v47.2"/>
<path class="st3" d="M564.2,761.1l-0.5,0.5l54-0.5H564.2 M563.7,761.7l54-0.5l0.5,0.5H563.7 M617.7,761.1l0.5,0.5l-0.5-54V761.1
	 M618.2,761.7l-0.5-54l0.5-0.5V761.7 M617.7,707.7l0.5-0.5l-54,0.5H617.7 M618.2,707.1l-54,0.5l-0.5-0.5H618.2 M564.2,707.7
	l-0.5-0.5l0.5,54V707.7 M563.7,707.1l0.5,54l-0.5,0.5V707.1"/>
<path class="st1" d="M622.8,714.2h124.5"/>
<path class="st1" d="M622.8,720.9h124.5"/>
<path class="st1" d="M622.8,727.7h124.5"/>
<path class="st1" d="M622.8,734.4h124.5"/>
<path class="st1" d="M622.8,741.2h124.5"/>
<path class="st1" d="M622.8,747.9h124.5"/>
<path class="st1" d="M622.8,754.7h124.5"/>
<path class="st3" d="M622.7,761.1l-0.5,0.5l124.9-0.5H622.7 M622.2,761.7l124.9-0.5l0.5,0.5H622.2 M747,761.1l0.5,0.5l-0.5-54V761.1
	 M747.6,761.7l-0.5-54l0.5-0.5V761.7 M747,707.7l0.5-0.5l-124.9,0.5H747 M747.6,707.1l-124.9,0.5l-0.5-0.5H747.6 M622.7,707.7
	l-0.5-0.5l0.5,54V707.7 M622.2,707.1l0.5,54l-0.5,0.5V707.1"/>
<path class="st3" d="M864.6,761.1l-0.5,0.5l54-0.5H864.6 M864,761.7l54-0.5l0.5,0.5H864 M918,761.1l0.5,0.5l-0.5-54V761.1
	 M918.6,761.7l-0.5-54l0.5-0.5V761.7 M918,707.7l0.5-0.5l-54,0.5H918 M918.6,707.1l-54,0.5l-0.5-0.5H918.6 M864.6,707.7l-0.5-0.5
	l0.5,54V707.7 M864,707.1l0.5,54l-0.5,0.5V707.1"/>
<path class="st4" d="M559.7,761.7l-0.5-0.5l-216,0.5H559.7 M559.2,761.1l-216,0.5l0.5-0.5H559.2 M343.2,761.7l0.5-0.5l-0.5-54V761.7
	 M343.7,761.1l-0.5-54l0.5,0.5V761.1 M343.2,707.1l0.5,0.5l216-0.5H343.2 M343.7,707.7l216-0.5l-0.5,0.5H343.7 M559.7,707.1
	l-0.5,0.5l0.5,54V707.1 M559.2,707.7l0.5,54l-0.5-0.5V707.7"/>
<path class="st1" d="M27.3,702.9h1169.9V23.4H27.3V702.9"/>
<path class="st3" d="M890.6,729.6l1.5,0.7l4.1-13L890.6,729.6 M892.1,730.2l4.1-13l1.5,0.7L892.1,730.2"/>
<path class="st1" d="M903.5,735.4c3.1-6.8,0.1-14.8-6.7-17.8s-14.8-0.1-17.8,6.7s-0.1,14.8,6.7,17.8
	C892.4,745.2,900.4,742.2,903.5,735.4"/>
<path class="st1" d="M896.9,717.6l-11.2,24.5"/>
<path class="st1" d="M879,724.3l24.5,11.2"/>
<path class="st1" d="M398.6,738.9h108v-9h-108V738.9"/>
<path class="st1" d="M398.6,734.4h108"/>
<path class="st3" d="M506.6,734.4h-36l36,4.5V734.4 M470.6,734.4l36,4.5h-36V734.4"/>
<path class="st3" d="M470.6,729.9h-36l36,4.5V729.9 M434.6,729.9l36,4.5h-36V729.9"/>
<path class="st3" d="M434.6,734.4h-18l18,4.5V734.4 M416.6,734.4l18,4.5h-18V734.4"/>
<path class="st3" d="M416.6,729.9h-18l18,4.5V729.9 M398.6,729.9l18,4.5h-18V729.9"/>
<path class="st1" d="M398.6,738.9v2.3"/>
<path class="st1" d="M416.6,738.9v-9"/>
<path class="st1" d="M434.6,741.2v-11.3"/>
<path class="st1" d="M470.6,741.2v-11.3"/>
<path class="st1" d="M506.6,738.9v2.3"/>
<path class="st1" d="M48.5,765.2l-0.2-0.4l-0.4-0.4l-0.4-0.2h-0.7l-0.4,0.2l-0.4,0.4l-0.1,0.4l-0.2,0.5v0.8l0.3,0.9l0.4,0.3l0.4,0.2
	h0.7l0.4-0.2l0.4-0.3l0.2-0.4"/>
<path class="st1" d="M50.3,765.5l-0.4,0.2l-0.3,0.4l-0.2,0.5v0.4l0.2,0.5l0.3,0.3l0.4,0.2h0.5l0.3-0.2l0.4-0.3l0.2-0.5v-0.4
	l-0.2-0.5l-0.4-0.4l-0.3-0.2H50.3"/>
<path class="st1" d="M52.9,765.5v3.6"/>
<path class="st1" d="M52.9,766.1l0.4-0.4l0.3-0.2h0.5l0.4,0.2l0.3,0.4l0.2,0.5v0.4l-0.2,0.5l-0.3,0.3l-0.4,0.2h-0.5l-0.3-0.2
	l-0.4-0.3"/>
<path class="st1" d="M55.8,765.5l1.1,2.4l1-2.4"/>
<path class="st1" d="M56.9,767.9l-0.4,0.7l-0.4,0.3l-0.4,0.2h-0.1"/>
<path class="st1" d="M58.9,765.5v2.4"/>
<path class="st1" d="M58.9,766.5l0.2-0.5l0.3-0.4l0.4-0.2h0.5"/>
<path class="st1" d="M60.9,764.5l0.2,0.2l0.2-0.2l-0.2-0.2L60.9,764.5"/>
<path class="st1" d="M61.1,765.7v2.2"/>
<path class="st1" d="M64.4,765.5v2.8l-0.2,0.5l-0.2,0.1l-0.3,0.2h-0.5l-0.3-0.2"/>
<path class="st1" d="M64.4,766.1l-0.4-0.4l-0.3-0.2h-0.5l-0.3,0.2l-0.4,0.4l-0.2,0.5v0.4l0.2,0.5l0.4,0.3l0.3,0.2h0.5l0.3-0.2
	l0.4-0.3"/>
<path class="st1" d="M65.7,764.3v3.6"/>
<path class="st1" d="M65.7,766.2l0.5-0.5l0.3-0.2H67l0.4,0.2l0.1,0.5v1.7"/>
<path class="st1" d="M69.2,764.3v2.9l0.2,0.5l0.4,0.2H70"/>
<path class="st1" d="M68.7,765.5h1.2"/>
<path class="st1" d="M74.7,765.2V765l0.1-0.4l0.2-0.2l0.4-0.2H76l0.4,0.2l0.2,0.2l0.2,0.4v0.3l-0.2,0.4l-0.4,0.5l-1.7,1.7h2.4"/>
<path class="st1" d="M78.9,764.3l-0.5,0.2l-0.3,0.5l-0.2,0.8v0.5l0.2,0.8l0.3,0.5l0.5,0.2h0.4l0.5-0.2l0.4-0.5l0.2-0.8v-0.5
	l-0.2-0.8l-0.4-0.5l-0.5-0.2H78.9"/>
<path class="st1" d="M82.4,764.3l-0.5,0.2l-0.4,0.5l-0.2,0.8v0.5l0.2,0.8l0.4,0.5l0.5,0.2h0.4l0.5-0.2l0.4-0.5l0.2-0.8v-0.5
	l-0.2-0.8l-0.4-0.5l-0.5-0.2H82.4"/>
<path class="st1" d="M85.8,764.3l-0.5,0.2l-0.4,0.5l-0.2,0.8v0.5l0.2,0.8l0.4,0.5l0.5,0.2h0.4l0.5-0.2l0.3-0.5l0.2-0.8v-0.5L87,765
	l-0.3-0.5l-0.5-0.2H85.8"/>
<path class="st1" d="M88.4,766.4h3.1"/>
<path class="st1" d="M92.8,765.2V765l0.2-0.4l0.2-0.2l0.4-0.2h0.7l0.4,0.2l0.2,0.2l0.2,0.4v0.3l-0.2,0.4l-0.4,0.5l-1.7,1.7h2.4"/>
<path class="st1" d="M97.1,764.3l-0.5,0.2l-0.3,0.5l-0.2,0.8v0.5l0.2,0.8l0.3,0.5l0.5,0.2h0.4l0.5-0.2l0.4-0.5l0.2-0.8v-0.5
	l-0.2-0.8l-0.4-0.5l-0.5-0.2H97.1"/>
<path class="st1" d="M100,765l0.4-0.2l0.5-0.5v3.6"/>
<path class="st1" d="M103.5,765l0.3-0.2l0.5-0.5v3.6"/>
<path class="st1" d="M110.1,767.9v-3.6l1.4,3.6l1.4-3.6v3.6"/>
<path class="st1" d="M116.1,765.5v2.4"/>
<path class="st1" d="M116.1,766.1l-0.4-0.4l-0.3-0.2h-0.5l-0.4,0.2l-0.3,0.4l-0.2,0.5v0.4l0.2,0.5l0.3,0.3l0.4,0.2h0.5l0.3-0.2
	l0.4-0.3"/>
<path class="st1" d="M119.2,766.1l-0.1-0.4l-0.5-0.2H118l-0.5,0.2l-0.2,0.4l0.2,0.4l0.4,0.1l0.8,0.2l0.4,0.2l0.1,0.4v0.2l-0.1,0.3
	l-0.5,0.2H118l-0.5-0.2l-0.2-0.3"/>
<path class="st1" d="M122.1,766.1l-0.2-0.4l-0.5-0.2h-0.5l-0.5,0.2l-0.1,0.4l0.1,0.4l0.4,0.1l0.8,0.2l0.4,0.2l0.2,0.4v0.2l-0.2,0.3
	l-0.5,0.2H121l-0.5-0.2l-0.1-0.3"/>
<path class="st1" d="M125.2,765.5v2.4"/>
<path class="st1" d="M125.2,766.1l-0.3-0.4l-0.4-0.2H124l-0.3,0.2l-0.4,0.4l-0.2,0.5v0.4l0.2,0.5l0.4,0.3l0.3,0.2h0.5l0.4-0.2
	l0.3-0.3"/>
<path class="st1" d="M128.5,766.1l-0.4-0.4l-0.4-0.2h-0.5l-0.4,0.2l-0.4,0.4l-0.2,0.5v0.4l0.2,0.5l0.4,0.3l0.4,0.2h0.5l0.4-0.2
	l0.4-0.3"/>
<path class="st1" d="M129.7,764.3v3.6"/>
<path class="st1" d="M129.7,766.2l0.5-0.5l0.4-0.2h0.5l0.3,0.2l0.2,0.5v1.7"/>
<path class="st1" d="M132.9,765.5v1.7l0.2,0.5l0.4,0.2h0.5l0.4-0.2l0.5-0.5"/>
<path class="st1" d="M134.8,765.5v2.4"/>
<path class="st1" d="M137.9,766.1l-0.2-0.4l-0.5-0.2h-0.5l-0.5,0.2l-0.2,0.4l0.2,0.4l0.4,0.1l0.8,0.2l0.4,0.2l0.2,0.4v0.2l-0.2,0.3
	l-0.5,0.2h-0.5l-0.5-0.2l-0.2-0.3"/>
<path class="st1" d="M138.9,766.5h2v-0.3l-0.2-0.4l-0.1-0.2l-0.4-0.2h-0.5l-0.3,0.2L139,766L138.9,766.5v0.4l0.2,0.5l0.4,0.3
	l0.3,0.2h0.5l0.4-0.2l0.3-0.3"/>
<path class="st1" d="M142.4,764.3v2.9l0.2,0.5l0.4,0.2h0.3"/>
<path class="st1" d="M141.9,765.5h1.2"/>
<path class="st1" d="M144.4,764.3v2.9l0.2,0.5l0.4,0.2h0.4"/>
<path class="st1" d="M143.9,765.5h1.2"/>
<path class="st1" d="M148,766.1l-0.1-0.4l-0.5-0.2h-0.5l-0.5,0.2l-0.2,0.4l0.2,0.4l0.4,0.1l0.8,0.2l0.4,0.2l0.1,0.4v0.2l-0.1,0.3
	l-0.5,0.2H147l-0.5-0.2l-0.2-0.3"/>
<path class="st1" d="M152.8,764.3v3.6"/>
<path class="st1" d="M154.2,765.5v2.4"/>
<path class="st1" d="M154.2,766.2l0.5-0.5l0.4-0.2h0.5l0.4,0.2l0.2,0.5v1.7"/>
<path class="st1" d="M159.2,766.1l-0.2-0.4l-0.5-0.2H158l-0.5,0.2l-0.2,0.4l0.2,0.4l0.3,0.1l0.9,0.2l0.3,0.2l0.2,0.4v0.2l-0.2,0.3
	l-0.5,0.2H158l-0.5-0.2l-0.2-0.3"/>
<path class="st1" d="M160.5,764.3v2.9l0.2,0.5l0.4,0.2h0.3"/>
<path class="st1" d="M160,765.5h1.2"/>
<path class="st1" d="M162.3,764.5l0.1,0.2l0.2-0.2l-0.2-0.2L162.3,764.5"/>
<path class="st1" d="M162.4,765.7v2.2"/>
<path class="st1" d="M164,764.3v2.9l0.2,0.5l0.4,0.2h0.3"/>
<path class="st1" d="M163.5,765.5h1.2"/>
<path class="st1" d="M165.9,765.5v1.7l0.1,0.5l0.4,0.2h0.5l0.3-0.2l0.5-0.5"/>
<path class="st1" d="M167.7,765.5v2.4"/>
<path class="st1" d="M169.3,764.3v2.9l0.2,0.5l0.3,0.2h0.4"/>
<path class="st1" d="M168.8,765.5h1.2"/>
<path class="st1" d="M171,766.5h2.1v-0.3l-0.2-0.4l-0.2-0.2l-0.4-0.2h-0.5l-0.4,0.2L171,766L171,766.5v0.4l0.2,0.5l0.4,0.3l0.4,0.2
	h0.5l0.4-0.2l0.4-0.3"/>
<path class="st1" d="M178.5,765.5l-0.4,0.2l-0.3,0.4l-0.2,0.5v0.4l0.2,0.5l0.3,0.3l0.4,0.2h0.5l0.3-0.2l0.4-0.3l0.2-0.5v-0.4
	l-0.2-0.5l-0.4-0.4l-0.3-0.2H178.5"/>
<path class="st1" d="M182.1,764.3h-0.4l-0.3,0.2l-0.2,0.5v2.9"/>
<path class="st1" d="M180.8,765.5h1.2"/>
<path class="st1" d="M187.5,764.3v3.6"/>
<path class="st1" d="M186.3,764.3h2.4"/>
<path class="st1" d="M189.3,766.5h2v-0.3l-0.2-0.4l-0.1-0.2l-0.4-0.2h-0.5l-0.3,0.2l-0.4,0.4L189.3,766.5v0.4l0.2,0.5l0.4,0.3
	l0.3,0.2h0.5l0.4-0.2l0.3-0.3"/>
<path class="st1" d="M194.5,766.1l-0.4-0.4l-0.4-0.2h-0.5l-0.4,0.2l-0.4,0.4l-0.2,0.5v0.4l0.2,0.5l0.4,0.3l0.4,0.2h0.5l0.4-0.2
	l0.4-0.3"/>
<path class="st1" d="M195.7,764.3v3.6"/>
<path class="st1" d="M195.7,766.2l0.5-0.5l0.4-0.2h0.5l0.3,0.2l0.2,0.5v1.7"/>
<path class="st1" d="M198.9,765.5v2.4"/>
<path class="st1" d="M198.9,766.2l0.5-0.5l0.3-0.2h0.5l0.4,0.2l0.1,0.5v1.7"/>
<path class="st1" d="M202.9,765.5l-0.4,0.2l-0.4,0.4l-0.2,0.5v0.4l0.2,0.5l0.4,0.3l0.4,0.2h0.5l0.4-0.2l0.4-0.3l0.2-0.5v-0.4
	l-0.2-0.5l-0.4-0.4l-0.4-0.2H202.9"/>
<path class="st1" d="M205.5,764.3v3.6"/>
<path class="st1" d="M207.5,765.5l-0.4,0.2l-0.4,0.4l-0.1,0.5v0.4l0.1,0.5l0.4,0.3l0.4,0.2h0.5l0.4-0.2l0.4-0.3l0.2-0.5v-0.4
	l-0.2-0.5l-0.4-0.4l-0.4-0.2H207.5"/>
<path class="st1" d="M212,765.5v2.8l-0.2,0.5l-0.2,0.1l-0.3,0.2h-0.5l-0.4-0.2"/>
<path class="st1" d="M212,766.1l-0.4-0.4l-0.3-0.2h-0.5l-0.4,0.2l-0.3,0.4l-0.2,0.5v0.4l0.2,0.5l0.3,0.3l0.4,0.2h0.5l0.3-0.2
	l0.4-0.3"/>
<path class="st1" d="M213,765.5l1,2.4l1.1-2.4"/>
<path class="st1" d="M214,767.9l-0.3,0.7l-0.4,0.3l-0.4,0.2h-0.2"/>
<path class="st1" d="M216.3,767.6l-0.2,0.1l0.2,0.2l0.1-0.2L216.3,767.6"/>
<path class="st1" d="M224.5,767.9l1.4-3.6l1.3,3.6"/>
<path class="st1" d="M225,766.7h1.7"/>
<path class="st1" d="M228.1,764.3v3.6"/>
<path class="st1" d="M229.5,764.3v3.6"/>
<path class="st1" d="M234.4,765.5v2.4"/>
<path class="st1" d="M234.4,766.5l0.2-0.5l0.4-0.4l0.4-0.2h0.5"/>
<path class="st1" d="M236.5,764.5l0.1,0.2l0.2-0.2l-0.2-0.2L236.5,764.5"/>
<path class="st1" d="M236.6,765.7v2.2"/>
<path class="st1" d="M239.9,765.5v2.8l-0.2,0.5l-0.2,0.1l-0.4,0.2h-0.5l-0.4-0.2"/>
<path class="st1" d="M239.9,766.1l-0.4-0.4l-0.4-0.2h-0.5l-0.4,0.2l-0.4,0.4l-0.2,0.5v0.4l0.2,0.5l0.4,0.3l0.4,0.2h0.5l0.4-0.2
	l0.4-0.3"/>
<path class="st1" d="M241.3,764.3v3.6"/>
<path class="st1" d="M241.3,766.2l0.5-0.5l0.4-0.2h0.5l0.4,0.2l0.2,0.5v1.7"/>
<path class="st1" d="M244.7,764.3v2.9l0.2,0.5l0.3,0.2h0.4"/>
<path class="st1" d="M244.2,765.5h1.2"/>
<path class="st1" d="M248.3,766.1l-0.2-0.4l-0.5-0.2h-0.5l-0.5,0.2l-0.2,0.4l0.2,0.4l0.4,0.1l0.8,0.2l0.4,0.2l0.2,0.4v0.2l-0.2,0.3
	l-0.5,0.2h-0.5l-0.5-0.2l-0.2-0.3"/>
<path class="st1" d="M253.1,765.5v2.4"/>
<path class="st1" d="M253.1,766.5l0.2-0.5l0.3-0.4l0.4-0.2h0.5"/>
<path class="st1" d="M255.2,766.5h2v-0.3l-0.2-0.4l-0.1-0.2l-0.4-0.2H256l-0.3,0.2l-0.4,0.4L255.2,766.5v0.4l0.2,0.5l0.4,0.3
	l0.3,0.2h0.5l0.4-0.2l0.3-0.3"/>
<path class="st1" d="M260.1,766.1l-0.2-0.4l-0.5-0.2h-0.5l-0.5,0.2l-0.2,0.4l0.2,0.4l0.4,0.1l0.8,0.2l0.4,0.2l0.2,0.4v0.2l-0.2,0.3
	l-0.5,0.2H259l-0.5-0.2l-0.2-0.3"/>
<path class="st1" d="M261.2,766.5h2v-0.3l-0.2-0.4l-0.1-0.2l-0.4-0.2H262l-0.3,0.2l-0.4,0.4L261.2,766.5v0.4l0.2,0.5l0.4,0.3
	l0.3,0.2h0.5l0.4-0.2l0.3-0.3"/>
<path class="st1" d="M264.4,765.5v2.4"/>
<path class="st1" d="M264.4,766.5l0.2-0.5l0.4-0.4l0.4-0.2h0.5"/>
<path class="st1" d="M266.3,765.5l1,2.4l1-2.4"/>
<path class="st1" d="M269.2,766.5h2.1v-0.3l-0.2-0.4l-0.2-0.2l-0.4-0.2H270l-0.4,0.2l-0.4,0.4V766.5v0.4l0.2,0.5l0.4,0.3l0.4,0.2
	h0.5l0.4-0.2l0.4-0.3"/>
<path class="st1" d="M274.4,764.3v3.6"/>
<path class="st1" d="M274.4,766.1l-0.4-0.4l-0.3-0.2h-0.5l-0.4,0.2l-0.3,0.4l-0.2,0.5v0.4l0.2,0.5l0.3,0.3l0.4,0.2h0.5l0.3-0.2
	l0.4-0.3"/>
<path class="st1" d="M275.9,767.6l-0.2,0.1l0.2,0.2l0.2-0.2L275.9,767.6"/>
<path class="st1" d="M284.6,767.9v-3.6h1.6l0.5,0.2l0.2,0.2l0.1,0.4v0.5l-0.1,0.4l-0.2,0.2l-0.5,0.2h-1.6"/>
<path class="st1" d="M288.2,764.3v3.6"/>
<path class="st1" d="M291.5,765.5v2.4"/>
<path class="st1" d="M291.5,766.1l-0.4-0.4l-0.4-0.2h-0.5l-0.4,0.2l-0.4,0.4l-0.2,0.5v0.4l0.2,0.5l0.4,0.3l0.4,0.2h0.5l0.4-0.2
	l0.4-0.3"/>
<path class="st1" d="M292.9,765.5v2.4"/>
<path class="st1" d="M292.9,766.2l0.5-0.5l0.4-0.2h0.5l0.4,0.2l0.2,0.5v1.7"/>
<path class="st1" d="M297.8,766.1l-0.1-0.4l-0.5-0.2h-0.5l-0.5,0.2l-0.2,0.4l0.2,0.4l0.4,0.1l0.8,0.2l0.4,0.2l0.1,0.4v0.2l-0.1,0.3
	l-0.5,0.2h-0.5l-0.5-0.2l-0.2-0.3"/>
<path class="st1" d="M304.5,765.5v2.4"/>
<path class="st1" d="M304.5,766.1l-0.4-0.4l-0.4-0.2h-0.5l-0.4,0.2l-0.4,0.4l-0.1,0.5v0.4l0.1,0.5l0.4,0.3l0.4,0.2h0.5l0.4-0.2
	l0.4-0.3"/>
<path class="st1" d="M305.9,765.5v2.4"/>
<path class="st1" d="M305.9,766.5l0.2-0.5l0.3-0.4l0.4-0.2h0.5"/>
<path class="st1" d="M308,766.5h2v-0.3l-0.2-0.4l-0.1-0.2l-0.4-0.2h-0.5l-0.3,0.2l-0.4,0.4L308,766.5v0.4l0.2,0.5l0.4,0.3l0.3,0.2
	h0.5l0.4-0.2l0.3-0.3"/>
<path class="st1" d="M315.8,764.3h-0.3l-0.4,0.2L315,765v2.9"/>
<path class="st1" d="M314.5,765.5h1.2"/>
<path class="st1" d="M317.6,765.5l-0.4,0.2l-0.3,0.4l-0.2,0.5v0.4l0.2,0.5l0.3,0.3l0.4,0.2h0.5l0.3-0.2l0.4-0.3l0.2-0.5v-0.4
	l-0.2-0.5l-0.4-0.4l-0.3-0.2H317.6"/>
<path class="st1" d="M320.1,765.5v2.4"/>
<path class="st1" d="M320.1,766.5l0.2-0.5l0.3-0.4l0.4-0.2h0.5"/>
<path class="st1" d="M326,767.9v-3.6l1.4,3.6l1.4-3.6v3.6"/>
<path class="st1" d="M330.1,764.3v3.6"/>
<path class="st1" d="M332.1,764.3v3.6"/>
<path class="st1" d="M330.9,764.3h2.4"/>
<path class="st1" d="M339.5,766.1l-0.2-0.4l-0.5-0.2h-0.5l-0.5,0.2l-0.2,0.4l0.2,0.4l0.4,0.1l0.8,0.2l0.4,0.2l0.2,0.4v0.2l-0.2,0.3
	l-0.5,0.2h-0.5l-0.5-0.2l-0.2-0.3"/>
<path class="st1" d="M340.7,765.5v3.6"/>
<path class="st1" d="M340.7,766.1l0.3-0.4l0.4-0.2h0.5l0.3,0.2l0.4,0.4l0.2,0.5v0.4l-0.2,0.5l-0.4,0.3l-0.3,0.2h-0.5l-0.4-0.2
	l-0.3-0.3"/>
<path class="st1" d="M345.8,765.5v2.4"/>
<path class="st1" d="M345.8,766.1l-0.3-0.4l-0.4-0.2h-0.5l-0.3,0.2l-0.4,0.4l-0.2,0.5v0.4l0.2,0.5l0.4,0.3l0.3,0.2h0.5l0.4-0.2
	l0.3-0.3"/>
<path class="st1" d="M349.1,766.1l-0.4-0.4l-0.4-0.2h-0.5l-0.4,0.2l-0.4,0.4l-0.2,0.5v0.4l0.2,0.5l0.4,0.3l0.4,0.2h0.5l0.4-0.2
	l0.4-0.3"/>
<path class="st1" d="M350.1,766.5h2v-0.3l-0.2-0.4l-0.2-0.2l-0.3-0.2H351l-0.4,0.2l-0.3,0.4L350.1,766.5v0.4l0.2,0.5l0.3,0.3
	l0.4,0.2h0.5l0.3-0.2l0.4-0.3"/>
<path class="st1" d="M358.9,765.5v2.4"/>
<path class="st1" d="M358.9,766.1l-0.4-0.4l-0.4-0.2h-0.5l-0.4,0.2l-0.4,0.4l-0.2,0.5v0.4l0.2,0.5l0.4,0.3l0.4,0.2h0.5l0.4-0.2
	l0.4-0.3"/>
<path class="st1" d="M362.1,766.1l-0.4-0.4l-0.4-0.2h-0.5l-0.4,0.2l-0.4,0.4l-0.1,0.5v0.4l0.1,0.5l0.4,0.3l0.4,0.2h0.5l0.4-0.2
	l0.4-0.3"/>
<path class="st1" d="M365.2,766.1l-0.3-0.4l-0.4-0.2H364l-0.3,0.2l-0.4,0.4l-0.2,0.5v0.4l0.2,0.5l0.4,0.3l0.3,0.2h0.5l0.4-0.2
	l0.3-0.3"/>
<path class="st1" d="M367.1,765.5l-0.4,0.2l-0.4,0.4l-0.2,0.5v0.4l0.2,0.5l0.4,0.3l0.4,0.2h0.5l0.4-0.2l0.4-0.3l0.2-0.5v-0.4
	l-0.2-0.5l-0.4-0.4l-0.4-0.2H367.1"/>
<path class="st1" d="M369.7,765.5v1.7l0.1,0.5l0.4,0.2h0.5l0.3-0.2l0.5-0.5"/>
<path class="st1" d="M371.6,765.5v2.4"/>
<path class="st1" d="M372.9,765.5v2.4"/>
<path class="st1" d="M372.9,766.2l0.5-0.5l0.4-0.2h0.5l0.3,0.2l0.2,0.5v1.7"/>
<path class="st1" d="M376.4,764.3v2.9l0.2,0.5l0.4,0.2h0.3"/>
<path class="st1" d="M375.8,765.5h1.2"/>
<path class="st1" d="M378.1,764.5l0.1,0.2l0.2-0.2l-0.2-0.2L378.1,764.5"/>
<path class="st1" d="M378.2,765.7v2.2"/>
<path class="st1" d="M379.6,765.5v2.4"/>
<path class="st1" d="M379.6,766.2l0.5-0.5l0.4-0.2h0.5l0.4,0.2l0.2,0.5v1.7"/>
<path class="st1" d="M384.8,765.5v2.8l-0.2,0.5l-0.2,0.1l-0.3,0.2h-0.5l-0.4-0.2"/>
<path class="st1" d="M384.8,766.1l-0.4-0.4l-0.3-0.2h-0.5l-0.4,0.2l-0.3,0.4l-0.2,0.5v0.4l0.2,0.5l0.3,0.3l0.4,0.2h0.5l0.3-0.2
	l0.4-0.3"/>
<path class="st1" d="M389.7,765.5v3.6"/>
<path class="st1" d="M389.7,766.1l0.4-0.4l0.3-0.2h0.5l0.4,0.2l0.3,0.4l0.2,0.5v0.4l-0.2,0.5l-0.3,0.3l-0.4,0.2h-0.5l-0.3-0.2
	l-0.4-0.3"/>
<path class="st1" d="M393,765.5v1.7l0.2,0.5l0.4,0.2h0.5l0.4-0.2l0.5-0.5"/>
<path class="st1" d="M394.9,765.5v2.4"/>
<path class="st1" d="M396.2,765.5v2.4"/>
<path class="st1" d="M396.2,766.5l0.2-0.5l0.4-0.4l0.4-0.2h0.5"/>
<path class="st1" d="M398.5,765.5v3.6"/>
<path class="st1" d="M398.5,766.1l0.3-0.4l0.4-0.2h0.5l0.3,0.2l0.4,0.4l0.2,0.5v0.4l-0.2,0.5l-0.4,0.3l-0.3,0.2h-0.5l-0.4-0.2
	l-0.3-0.3"/>
<path class="st1" d="M402.4,765.5l-0.3,0.2l-0.4,0.4l-0.2,0.5v0.4l0.2,0.5l0.4,0.3l0.3,0.2h0.5l0.4-0.2l0.3-0.3l0.2-0.5v-0.4
	l-0.2-0.5l-0.3-0.4l-0.4-0.2H402.4"/>
<path class="st1" d="M406.7,766.1l-0.2-0.4l-0.5-0.2h-0.5l-0.5,0.2l-0.2,0.4l0.2,0.4l0.4,0.1l0.8,0.2l0.4,0.2l0.2,0.4v0.2l-0.2,0.3
	l-0.5,0.2h-0.5l-0.5-0.2l-0.2-0.3"/>
<path class="st1" d="M407.7,766.5h2v-0.3l-0.2-0.4l-0.2-0.2l-0.3-0.2h-0.5l-0.4,0.2l-0.3,0.4L407.7,766.5v0.4l0.2,0.5l0.3,0.3
	l0.4,0.2h0.5l0.3-0.2l0.4-0.3"/>
<path class="st1" d="M412.7,766.1l-0.2-0.4l-0.5-0.2h-0.5l-0.5,0.2l-0.2,0.4l0.2,0.4l0.4,0.1l0.8,0.2l0.4,0.2l0.2,0.4v0.2l-0.2,0.3
	l-0.5,0.2h-0.5l-0.5-0.2l-0.2-0.3"/>
<path class="st1" d="M418.2,765.5l-0.4,0.2l-0.3,0.4l-0.2,0.5v0.4l0.2,0.5l0.3,0.3l0.4,0.2h0.5l0.3-0.2l0.4-0.3l0.2-0.5v-0.4
	l-0.2-0.5l-0.4-0.4l-0.3-0.2H418.2"/>
<path class="st1" d="M420.8,765.5v2.4"/>
<path class="st1" d="M420.8,766.2l0.5-0.5l0.4-0.2h0.5l0.3,0.2l0.2,0.5v1.7"/>
<path class="st1" d="M424,764.3v3.6"/>
<path class="st1" d="M425,765.5l1,2.4l1.1-2.4"/>
<path class="st1" d="M426,767.9l-0.3,0.7l-0.4,0.3l-0.4,0.2h-0.2"/>
<path class="st1" d="M433.6,765.5v2.4"/>
<path class="st1" d="M433.6,766.1l-0.4-0.4l-0.3-0.2h-0.5l-0.4,0.2l-0.3,0.4l-0.2,0.5v0.4l0.2,0.5l0.3,0.3l0.4,0.2h0.5l0.3-0.2
	l0.4-0.3"/>
<path class="st1" d="M435,765.5v2.4"/>
<path class="st1" d="M435,766.2l0.5-0.5l0.3-0.2h0.5l0.4,0.2l0.1,0.5v1.7"/>
<path class="st1" d="M440.1,764.3v3.6"/>
<path class="st1" d="M440.1,766.1l-0.4-0.4l-0.4-0.2h-0.5l-0.4,0.2l-0.4,0.4l-0.2,0.5v0.4l0.2,0.5l0.4,0.3l0.4,0.2h0.5l0.4-0.2
	l0.4-0.3"/>
<path class="st1" d="M447,765.5v2.4"/>
<path class="st1" d="M447,766.1l-0.4-0.4l-0.3-0.2h-0.5l-0.4,0.2l-0.3,0.4l-0.2,0.5v0.4l0.2,0.5l0.3,0.3l0.4,0.2h0.5l0.3-0.2
	l0.4-0.3"/>
<path class="st1" d="M448.4,765.5v2.4"/>
<path class="st1" d="M448.4,766.5l0.2-0.5l0.3-0.4l0.4-0.2h0.5"/>
<path class="st1" d="M450.4,766.5h2v-0.3l-0.1-0.4l-0.2-0.2l-0.4-0.2h-0.5l-0.3,0.2l-0.4,0.4L450.4,766.5v0.4l0.2,0.5l0.4,0.3
	l0.3,0.2h0.5l0.4-0.2l0.3-0.3"/>
<path class="st1" d="M457.2,765.5v2.4"/>
<path class="st1" d="M457.2,766.2l0.5-0.5l0.4-0.2h0.5l0.4,0.2l0.2,0.5v1.7"/>
<path class="st1" d="M461.2,765.5l-0.4,0.2l-0.3,0.4l-0.2,0.5v0.4l0.2,0.5l0.3,0.3l0.4,0.2h0.5l0.3-0.2l0.4-0.3l0.2-0.5v-0.4
	l-0.2-0.5l-0.4-0.4l-0.3-0.2H461.2"/>
<path class="st1" d="M464,764.3v2.9l0.2,0.5l0.3,0.2h0.4"/>
<path class="st1" d="M463.4,765.5h1.2"/>
<path class="st1" d="M470.4,764.3h-0.3l-0.4,0.2l-0.2,0.5v2.9"/>
<path class="st1" d="M469.1,765.5h1.2"/>
<path class="st1" d="M472.2,765.5l-0.4,0.2l-0.3,0.4l-0.2,0.5v0.4l0.2,0.5l0.3,0.3l0.4,0.2h0.5l0.3-0.2l0.4-0.3l0.2-0.5v-0.4
	l-0.2-0.5l-0.4-0.4l-0.3-0.2H472.2"/>
<path class="st1" d="M474.8,765.5v2.4"/>
<path class="st1" d="M474.8,766.5l0.2-0.5l0.3-0.4l0.4-0.2h0.5"/>
<path class="st1" d="M482.4,764.3v3.6"/>
<path class="st1" d="M482.4,766.1l-0.3-0.4l-0.4-0.2h-0.5l-0.3,0.2l-0.4,0.4l-0.2,0.5v0.4l0.2,0.5l0.4,0.3l0.3,0.2h0.5l0.4-0.2
	l0.3-0.3"/>
<path class="st1" d="M483.6,766.5h2.1v-0.3l-0.2-0.4l-0.2-0.2l-0.4-0.2h-0.5l-0.4,0.2l-0.4,0.4V766.5v0.4l0.2,0.5l0.4,0.3l0.4,0.2
	h0.5l0.4-0.2l0.4-0.3"/>
<path class="st1" d="M488.6,766.1l-0.2-0.4l-0.5-0.2h-0.5l-0.5,0.2l-0.2,0.4l0.2,0.4l0.3,0.1l0.9,0.2l0.3,0.2l0.2,0.4v0.2l-0.2,0.3
	l-0.5,0.2h-0.5l-0.5-0.2l-0.2-0.3"/>
<path class="st1" d="M489.6,764.5l0.2,0.2l0.2-0.2l-0.2-0.2L489.6,764.5"/>
<path class="st1" d="M489.8,765.7v2.2"/>
<path class="st1" d="M493.1,765.5v2.8l-0.2,0.5l-0.2,0.1l-0.4,0.2h-0.5l-0.4-0.2"/>
<path class="st1" d="M493.1,766.1l-0.4-0.4l-0.4-0.2h-0.5l-0.4,0.2l-0.4,0.4l-0.2,0.5v0.4l0.2,0.5l0.4,0.3l0.4,0.2h0.5l0.4-0.2
	l0.4-0.3"/>
<path class="st1" d="M494.4,765.5v2.4"/>
<path class="st1" d="M494.4,766.2l0.5-0.5l0.4-0.2h0.5l0.4,0.2l0.2,0.5v1.7"/>
<path class="st1" d="M501.3,765.5v1.7l0.2,0.5l0.3,0.2h0.5l0.4-0.2l0.5-0.5"/>
<path class="st1" d="M503.2,765.5v2.4"/>
<path class="st1" d="M506.3,766.1l-0.2-0.4l-0.5-0.2h-0.5l-0.5,0.2l-0.2,0.4l0.2,0.4l0.4,0.1l0.8,0.2l0.4,0.2l0.2,0.4v0.2l-0.2,0.3
	l-0.5,0.2h-0.5l-0.5-0.2l-0.2-0.3"/>
<path class="st1" d="M507.3,766.5h2v-0.3l-0.2-0.4l-0.2-0.2l-0.3-0.2h-0.5l-0.4,0.2l-0.3,0.4L507.3,766.5v0.4l0.2,0.5l0.3,0.3
	l0.4,0.2h0.5l0.3-0.2l0.4-0.3"/>
<path class="st1" d="M510.8,767.6l-0.2,0.1l0.2,0.2l0.2-0.2L510.8,767.6"/>
</svg>
