<?xml version="1.0" encoding="utf-8"?>
<!-- Generator: Adobe Illustrator 26.4.1, SVG Export Plug-In . SVG Version: 6.00 Build 0)  -->
<svg version="1.1" id="Layer_1" xmlns:ev="http://www.w3.org/2001/xml-events"
	 xmlns="http://www.w3.org/2000/svg" xmlns:xlink="http://www.w3.org/1999/xlink" width="1224pt" height="792pt" viewBox="0 0 1224 792"
	 style="enable-background:new 0 0 1224 792;" xml:space="preserve">
<style type="text/css">
	.st0{fill:none;stroke:#000000;stroke-width:6.000000e-02;stroke-linecap:round;stroke-linejoin:round;stroke-miterlimit:10;}
	.st1{fill:none;stroke:#808080;stroke-width:0.72;stroke-linecap:round;stroke-linejoin:round;stroke-miterlimit:10;}
	.st2{fill:none;stroke:#000000;stroke-width:0.24;stroke-linecap:round;stroke-linejoin:round;stroke-miterlimit:10;}
	.st3{fill:none;stroke:#000000;stroke-width:0.12;stroke-linecap:round;stroke-miterlimit:10;}
	.st4{stroke:#000000;stroke-width:0.12;stroke-linecap:round;stroke-miterlimit:10;}
	.st5{stroke:#000000;stroke-width:0.12;stroke-miterlimit:10;}
</style>
<path d="M0.6,0v-3H3v3H0.6 M0.7-0.1h2.2v-2.8H0.7V-0.1"/>
<path d="M0.4-2v-0.5h0.5V-2H0.4 M0.4,0v-0.5h0.5V0H0.4"/>
<path d="M0.4,0v-3.4h1.2c0.3,0,0.5,0,0.6,0c0.2,0,0.4,0.1,0.5,0.2C2.8-2.9,2.9-2.7,3-2.5C3.1-2.3,3.2-2,3.2-1.7c0,0.2,0,0.5-0.1,0.7
	C3-0.8,2.9-0.7,2.8-0.5C2.8-0.4,2.6-0.3,2.5-0.2C2.4-0.1,2.3-0.1,2.1,0C2,0,1.8,0,1.6,0H0.4 M0.8-0.4h0.7c0.2,0,0.4,0,0.5,0
	c0.1,0,0.2-0.1,0.3-0.2c0.1-0.1,0.2-0.2,0.2-0.4c0.1-0.2,0.1-0.4,0.1-0.7c0-0.4-0.1-0.6-0.2-0.8C2.4-2.7,2.3-2.8,2.1-2.9
	C2-3,1.8-3,1.5-3H0.8V-0.4"/>
<path d="M0,0l1.3-3.4h0.5L3.2,0H2.6L2.2-1H0.8L0.5,0H0 M1-1.4h1.1L1.8-2.3C1.6-2.6,1.6-2.8,1.5-3c0,0.2-0.1,0.4-0.2,0.6L1-1.4"/>
<path d="M1.2,0v-3H0.1v-0.4h2.7V-3H1.7v3H1.2"/>
<path d="M0.4,0v-3.4h2.4V-3h-2v1h1.9v0.4H0.8v1.1h2.1V0H0.4"/>
<path d="M0.4,0v-3.4h1.5c0.3,0,0.5,0,0.7,0.1C2.7-3.2,2.8-3.1,2.9-3s0.1,0.3,0.1,0.5C3.1-2.2,3-2,2.8-1.8C2.7-1.7,2.4-1.6,2.1-1.5
	c0.1,0.1,0.2,0.1,0.3,0.2c0.1,0.1,0.2,0.3,0.4,0.5L3.3,0H2.8L2.3-0.7C2.2-0.9,2.1-1.1,2-1.2C1.9-1.3,1.9-1.3,1.8-1.4
	c-0.1,0-0.1-0.1-0.2-0.1c0,0-0.1,0-0.2,0H0.8V0H0.4 M0.8-1.9h1c0.2,0,0.4,0,0.5-0.1c0.1,0,0.2-0.1,0.3-0.2c0.1-0.1,0.1-0.2,0.1-0.3
	c0-0.2-0.1-0.3-0.2-0.4C2.3-2.9,2.1-3,1.9-3H0.8V-1.9"/>
<path d="M1,0L0.1-3.4h0.5L1-1.2c0.1,0.2,0.1,0.5,0.1,0.7C1.3-0.8,1.3-1,1.3-1.1L2-3.4h0.5L3-1.7c0.1,0.4,0.2,0.8,0.3,1.2
	c0-0.2,0.1-0.5,0.2-0.7L4-3.4h0.5L3.5,0H3L2.3-2.6C2.3-2.8,2.2-2.9,2.2-3c0,0.2-0.1,0.3-0.1,0.4L1.4,0H1"/>
<path d="M0.4,0v-3.4h0.5l1.8,2.7v-2.7H3V0H2.6L0.8-2.7V0H0.4"/>
<path d="M0.4,0v-3.4h1.3c0.2,0,0.4,0,0.5,0c0.2,0,0.3,0.1,0.4,0.2C2.7-3.1,2.8-3,2.8-2.9c0.1,0.1,0.1,0.3,0.1,0.5
	c0,0.3-0.1,0.5-0.3,0.7c-0.2,0.2-0.5,0.3-1,0.3H0.8V0H0.4 M0.8-1.8h0.9c0.3,0,0.5-0.1,0.6-0.2C2.4-2,2.5-2.2,2.5-2.4
	c0-0.1,0-0.3-0.1-0.4C2.3-2.9,2.2-2.9,2.1-3C2-3,1.9-3,1.7-3H0.8V-1.8"/>
<path d="M0.2-1.6c0-0.6,0.1-1,0.4-1.3C1-3.3,1.4-3.4,1.8-3.4c0.3,0,0.6,0.1,0.8,0.2c0.2,0.1,0.4,0.4,0.6,0.6C3.4-2.3,3.5-2,3.5-1.7
	c0,0.3-0.1,0.7-0.2,0.9C3.1-0.5,2.9-0.3,2.7-0.1C2.4,0,2.1,0.1,1.8,0.1C1.5,0.1,1.2,0,1-0.2S0.5-0.5,0.4-0.8
	C0.3-1.1,0.2-1.3,0.2-1.6 M0.7-1.6c0,0.4,0.1,0.7,0.3,1c0.2,0.2,0.5,0.3,0.8,0.3c0.3,0,0.6-0.1,0.8-0.3C2.9-0.9,3-1.2,3-1.7
	C3-2,3-2.2,2.9-2.4C2.8-2.6,2.6-2.8,2.5-2.9C2.3-3,2.1-3,1.8-3C1.5-3,1.3-2.9,1-2.7C0.8-2.5,0.7-2.1,0.7-1.6"/>
<path d="M0.1-1L0.5-1c0,0.3,0.1,0.4,0.1,0.5C0.8-0.4,0.9-0.3,1-0.3c0.1,0,0.2,0,0.3-0.1c0.1-0.1,0.1-0.1,0.2-0.2c0-0.1,0-0.2,0-0.4
	v-2.3H2v2.3c0,0.3,0,0.5-0.1,0.7C1.8-0.3,1.7-0.1,1.6-0.1C1.4,0,1.2,0.1,1,0.1C0.7,0.1,0.5,0,0.4-0.2C0.2-0.4,0.1-0.6,0.1-1"/>
<path d="M2.8-1.2l0.4,0.1C3.1-0.7,3-0.4,2.7-0.2C2.5,0,2.2,0.1,1.8,0.1C1.5,0.1,1.2,0,0.9-0.2C0.7-0.3,0.5-0.5,0.4-0.8
	C0.3-1.1,0.2-1.4,0.2-1.7c0-0.3,0.1-0.6,0.2-0.9C0.6-2.9,0.8-3.1,1-3.2c0.2-0.1,0.5-0.2,0.8-0.2c0.3,0,0.6,0.1,0.9,0.3
	C2.9-3,3.1-2.8,3.2-2.5L2.7-2.3C2.6-2.6,2.5-2.8,2.4-2.9C2.2-3,2-3,1.8-3C1.6-3,1.3-3,1.2-2.9C1-2.7,0.9-2.6,0.8-2.4
	C0.7-2.1,0.7-1.9,0.7-1.7c0,0.3,0,0.5,0.1,0.8C0.9-0.7,1-0.6,1.2-0.5c0.2,0.1,0.4,0.2,0.6,0.2c0.2,0,0.5-0.1,0.6-0.2
	C2.6-0.7,2.7-0.9,2.8-1.2"/>
<path d="M0.2-1.2c0-0.5,0.1-0.8,0.4-1C0.7-2.4,1-2.5,1.3-2.5c0.3,0,0.6,0.1,0.8,0.3C2.3-2,2.5-1.6,2.5-1.3c0,0.3,0,0.6-0.1,0.8
	C2.2-0.3,2.1-0.2,1.9-0.1C1.7,0,1.5,0.1,1.3,0.1C1,0.1,0.7,0,0.5-0.3C0.3-0.5,0.2-0.8,0.2-1.2 M0.6-1.2c0,0.3,0.1,0.5,0.2,0.7
	c0.1,0.2,0.3,0.2,0.5,0.2c0.2,0,0.4-0.1,0.5-0.2C1.9-0.7,2-0.9,2-1.2c0-0.3-0.1-0.5-0.2-0.7C1.7-2.1,1.5-2.2,1.3-2.2
	c-0.2,0-0.4,0.1-0.5,0.2C0.6-1.8,0.6-1.5,0.6-1.2"/>
<path d="M0.4,0v-0.5h0.5V0H0.4"/>
<path d="M0.2-1.1l0.4,0c0,0.2,0.1,0.3,0.1,0.4C0.8-0.6,1-0.5,1.1-0.4c0.2,0.1,0.3,0.1,0.5,0.1c0.2,0,0.3,0,0.5-0.1
	c0.1-0.1,0.2-0.1,0.3-0.2c0.1-0.1,0.1-0.2,0.1-0.3c0-0.1,0-0.2-0.1-0.3C2.3-1.3,2.2-1.3,2.1-1.4C2-1.4,1.8-1.5,1.5-1.6
	C1.2-1.6,0.9-1.7,0.8-1.8C0.7-1.8,0.5-2,0.5-2.1C0.4-2.2,0.3-2.3,0.3-2.5c0-0.2,0-0.3,0.1-0.5c0.1-0.1,0.2-0.3,0.4-0.3
	c0.2-0.1,0.4-0.1,0.6-0.1c0.2,0,0.5,0,0.7,0.1C2.4-3.2,2.5-3.1,2.6-3c0.1,0.2,0.2,0.3,0.2,0.5l-0.4,0c0-0.2-0.1-0.4-0.2-0.5
	C2-3,1.8-3,1.5-3C1.3-3,1.1-3,1-2.9C0.8-2.8,0.8-2.7,0.8-2.5c0,0.1,0,0.2,0.1,0.3C1-2.2,1.2-2.1,1.6-2c0.4,0.1,0.6,0.2,0.8,0.2
	c0.2,0.1,0.3,0.2,0.4,0.4C2.9-1.3,2.9-1.1,2.9-1c0,0.2-0.1,0.4-0.2,0.5C2.6-0.3,2.5-0.2,2.3-0.1C2.1,0,1.9,0.1,1.7,0.1
	c-0.3,0-0.6,0-0.8-0.1C0.7-0.2,0.5-0.3,0.4-0.5C0.3-0.7,0.2-0.9,0.2-1.1"/>
<path d="M0.4,0v-3.4h0.5V0H0.4"/>
<path d="M1.3,0L0-3.4h0.5l0.9,2.5c0.1,0.2,0.1,0.4,0.2,0.5c0.1-0.2,0.1-0.4,0.2-0.5l0.9-2.5h0.5L1.8,0H1.3"/>
<path d="M0.3,0v-3.4h0.5v3h1.7V0H0.3"/>
<path d="M0.4,0v-3.4h0.5V-2h1.8v-1.4H3V0H2.6v-1.6H0.8V0H0.4"/>
<path d="M0.3,0v-3.4h0.5v1.7l1.7-1.7h0.6L1.7-2l1.5,2H2.5L1.3-1.7L0.8-1.2V0H0.3"/>
<path d="M1.5,0v-0.8H0.1v-0.4l1.5-2.2h0.3v2.2h0.5v0.4H1.9V0H1.5 M1.5-1.2v-1.5L0.5-1.2H1.5"/>
<path d="M0,0.1l1-3.5h0.3l-1,3.5H0"/>
<path d="M2.4-0.4V0H0.1c0-0.1,0-0.2,0-0.3c0.1-0.2,0.2-0.3,0.3-0.5C0.6-0.9,0.8-1.1,1-1.2C1.4-1.6,1.6-1.8,1.8-2
	c0.1-0.2,0.2-0.3,0.2-0.5S1.9-2.8,1.8-2.9C1.6-3,1.5-3,1.3-3C1.1-3,1-3,0.8-2.9C0.7-2.7,0.6-2.6,0.6-2.4l-0.4,0
	c0-0.3,0.1-0.6,0.3-0.7C0.7-3.3,1-3.4,1.3-3.4c0.3,0,0.6,0.1,0.8,0.3c0.2,0.2,0.3,0.4,0.3,0.7c0,0.1,0,0.3-0.1,0.4
	C2.2-1.9,2.1-1.8,2-1.6C1.9-1.5,1.7-1.3,1.4-1C1.1-0.8,1-0.7,0.9-0.6C0.8-0.6,0.8-0.5,0.7-0.4H2.4"/>
<path d="M0.2-0.9L0.6-1c0.1,0.2,0.1,0.4,0.2,0.5C1-0.3,1.1-0.3,1.3-0.3c0.2,0,0.3-0.1,0.5-0.2C1.9-0.6,2-0.8,2-1
	c0-0.2-0.1-0.4-0.2-0.5C1.7-1.6,1.5-1.6,1.3-1.6c-0.1,0-0.2,0-0.3,0l0-0.4c0,0,0.1,0,0.1,0c0.2,0,0.3,0,0.5-0.1
	c0.1-0.1,0.2-0.2,0.2-0.4c0-0.2-0.1-0.3-0.2-0.4C1.6-3,1.4-3,1.3-3C1.1-3,1-3,0.9-2.9C0.8-2.8,0.7-2.6,0.7-2.4L0.2-2.5
	C0.3-2.8,0.4-3,0.6-3.2C0.8-3.3,1-3.4,1.2-3.4c0.2,0,0.4,0,0.5,0.1C1.9-3.2,2-3.1,2.1-3c0.1,0.1,0.1,0.3,0.1,0.4
	c0,0.1,0,0.3-0.1,0.4C2.1-2,1.9-1.9,1.8-1.8c0.2,0,0.3,0.1,0.5,0.3C2.3-1.4,2.4-1.2,2.4-1c0,0.3-0.1,0.5-0.3,0.8
	C1.9,0,1.6,0.1,1.3,0.1C1,0.1,0.7,0,0.5-0.2C0.3-0.4,0.2-0.6,0.2-0.9"/>
<path d="M0.2-1.7c0-0.4,0-0.7,0.1-1c0.1-0.2,0.2-0.4,0.4-0.6C0.8-3.3,1-3.4,1.3-3.4c0.2,0,0.3,0,0.5,0.1C1.9-3.2,2-3.1,2.1-3
	c0.1,0.1,0.2,0.3,0.2,0.5C2.4-2.3,2.4-2,2.4-1.7c0,0.4,0,0.7-0.1,1C2.2-0.5,2.1-0.3,1.9-0.1C1.8,0,1.5,0.1,1.3,0.1
	C1,0.1,0.7-0.1,0.5-0.3C0.3-0.6,0.2-1,0.2-1.7 M0.6-1.7c0,0.6,0.1,0.9,0.2,1.1c0.1,0.2,0.3,0.3,0.5,0.3s0.3-0.1,0.5-0.3
	C1.9-0.8,2-1.1,2-1.7c0-0.6-0.1-0.9-0.2-1.1C1.6-3,1.5-3,1.3-3C1.1-3,0.9-3,0.8-2.8C0.7-2.6,0.6-2.2,0.6-1.7"/>
<path d="M1.8,0H1.3v-2.6C1.2-2.5,1.1-2.5,0.9-2.4C0.8-2.3,0.6-2.2,0.5-2.1v-0.4c0.2-0.1,0.4-0.2,0.6-0.4c0.2-0.2,0.3-0.3,0.4-0.5
	h0.3V0"/>
<path d="M0.3-0.8l0.4,0c0,0.2,0.1,0.3,0.2,0.4c0.1,0.1,0.2,0.1,0.4,0.1c0.1,0,0.2,0,0.3-0.1c0.1-0.1,0.2-0.1,0.2-0.2
	C1.8-0.7,1.9-0.8,1.9-1C2-1.2,2-1.3,2-1.5c0,0,0-0.1,0-0.1C1.9-1.5,1.8-1.3,1.7-1.3C1.5-1.2,1.4-1.1,1.2-1.1c-0.3,0-0.5-0.1-0.7-0.3
	C0.3-1.6,0.2-1.9,0.2-2.2c0-0.3,0.1-0.6,0.3-0.8C0.7-3.3,1-3.4,1.3-3.4c0.2,0,0.4,0.1,0.6,0.2C2-3.1,2.2-2.9,2.3-2.7
	s0.1,0.5,0.1,0.9c0,0.4,0,0.8-0.1,1C2.2-0.5,2-0.3,1.9-0.1C1.7,0,1.5,0.1,1.2,0.1C0.9,0.1,0.7,0,0.6-0.2C0.4-0.3,0.3-0.5,0.3-0.8
	 M2-2.3c0-0.2-0.1-0.4-0.2-0.6C1.6-3,1.5-3,1.3-3C1.1-3,1-3,0.8-2.8C0.7-2.7,0.6-2.5,0.6-2.2c0,0.2,0.1,0.4,0.2,0.5
	c0.1,0.1,0.3,0.2,0.5,0.2s0.3-0.1,0.5-0.2C1.9-1.9,2-2,2-2.3"/>
<path d="M0.3-2.2L0.2-2.8v-0.5h0.5v0.5L0.6-2.2H0.3 M1.1-2.2L1-2.8v-0.5h0.5v0.5L1.3-2.2H1.1"/>
<path d="M2.5-2H0.3v-0.4h2.2V-2 M2.5-1H0.3v-0.4h2.2V-1"/>
<path d="M0.3-2.2L0.2-2.8v-0.6h0.5v0.6L0.6-2.2H0.3"/>
<path d="M0.2-1v-0.4h1.3V-1H0.2"/>
<path d="M0,0v-8.2h6.6V0H0 M0.2-0.2h6.2V-8H0.2V-0.2"/>
<path d="M1-9.5h4.3c0.9,0,1.5,0.1,2.1,0.4c0.5,0.2,1,0.6,1.3,1c0.3,0.4,0.6,0.9,0.8,1.5C9.6-6,9.7-5.4,9.7-4.8c0,1-0.1,1.8-0.3,2.3
	c-0.2,0.6-0.6,1-1,1.4C8-0.6,7.5-0.4,7.1-0.3C6.4-0.1,5.9,0,5.3,0H1V-9.5 M3.9-7.3v5.2h0.7c0.6,0,1-0.1,1.3-0.2
	C6.2-2.5,6.4-2.7,6.5-3c0.1-0.3,0.2-0.9,0.2-1.7c0-1-0.2-1.7-0.5-2C6-7.1,5.4-7.3,4.7-7.3H3.9"/>
<path d="M8.4-2.8H3.1c0,0.4,0.1,0.7,0.3,0.9c0.3,0.3,0.6,0.4,1,0.4c0.3,0,0.5-0.1,0.7-0.2C5.3-1.7,5.5-1.8,5.7-2l2.6,0.2
	C7.9-1.1,7.4-0.6,6.8-0.3C6.2,0,5.4,0.2,4.4,0.2C3.5,0.2,2.8,0,2.3-0.2C1.7-0.5,1.3-0.9,1-1.4C0.6-2,0.5-2.7,0.5-3.4
	c0-1.1,0.3-1.9,1-2.6c0.7-0.7,1.6-1,2.8-1c1,0,1.8,0.2,2.3,0.5c0.6,0.3,1,0.7,1.3,1.3C8.2-4.7,8.4-4,8.4-3.1V-2.8 M5.7-4
	C5.7-4.5,5.5-4.9,5.3-5.1S4.8-5.5,4.4-5.5C4-5.5,3.7-5.3,3.4-5C3.3-4.7,3.2-4.4,3.1-4H5.7"/>
<path d="M0.8,2.6v-9.5h2.5v1c0.3-0.4,0.6-0.7,0.9-0.9C4.6-6.9,5-7,5.5-7c0.9,0,1.6,0.4,2.1,1c0.5,0.7,0.8,1.6,0.8,2.6
	c0,1.1-0.3,2-0.8,2.6C7-0.1,6.3,0.2,5.5,0.2C5,0.2,4.7,0.1,4.3,0C4-0.2,3.7-0.4,3.5-0.7v3.3H0.8 M3.4-3.4c0,0.5,0.1,0.9,0.3,1.2
	C4-1.9,4.3-1.8,4.6-1.8c0.3,0,0.6-0.1,0.8-0.4c0.2-0.2,0.3-0.7,0.3-1.3c0-0.6-0.1-1-0.3-1.2C5.2-4.9,4.9-5.1,4.6-5.1
	C4.3-5.1,4-4.9,3.8-4.7C3.5-4.4,3.4-4,3.4-3.4"/>
<path d="M3.2-4.6L0.7-4.9c0.1-0.4,0.2-0.8,0.4-1c0.2-0.3,0.4-0.5,0.8-0.7c0.2-0.1,0.6-0.2,1-0.3C3.3-7,3.7-7,4.2-7
	C5-7,5.6-7,6.1-6.9C6.6-6.8,7-6.6,7.3-6.3c0.2,0.2,0.4,0.5,0.5,0.8C8-5.1,8-4.8,8-4.5v3c0,0.3,0,0.6,0.1,0.8c0,0.2,0.1,0.4,0.3,0.7
	H5.9C5.8-0.2,5.7-0.3,5.7-0.4S5.6-0.6,5.6-0.8c-0.3,0.3-0.7,0.6-1,0.7C4.1,0.1,3.6,0.2,3,0.2C2.1,0.2,1.5,0,1.1-0.4
	C0.7-0.8,0.5-1.3,0.5-1.8c0-0.5,0.1-0.9,0.5-1.3c0.3-0.3,0.9-0.6,1.7-0.8c1-0.2,1.6-0.3,1.9-0.4c0.3-0.1,0.6-0.2,0.9-0.3
	c0-0.3-0.1-0.5-0.2-0.7C5.1-5.4,4.9-5.4,4.6-5.4c-0.4,0-0.8,0.1-1,0.2C3.4-5.1,3.3-4.9,3.2-4.6 M5.5-3.2C5.1-3.1,4.7-3,4.3-2.9
	c-0.5,0.1-0.9,0.3-1,0.4C3.2-2.3,3.1-2.2,3.1-2c0,0.2,0.1,0.4,0.2,0.5C3.5-1.4,3.7-1.3,4-1.3c0.3,0,0.6-0.1,0.8-0.2
	C5-1.7,5.2-1.8,5.3-2c0.1-0.2,0.2-0.5,0.2-0.8V-3.2"/>
<path d="M0.8-6.8h2.5v1.1c0.2-0.5,0.5-0.8,0.7-1C4.3-6.9,4.6-7,4.9-7c0.4,0,0.8,0.1,1.3,0.4L5.4-4.8C5.1-4.9,4.8-5,4.7-5
	C4.3-5,4-4.8,3.9-4.5C3.6-4.1,3.5-3.4,3.5-2.3V0H0.8V-6.8"/>
<path d="M4-9.5v2.6h1.5v1.9H4v2.4C4-2.2,4-2,4-1.9c0.1,0.1,0.2,0.2,0.5,0.2c0.2,0,0.5-0.1,0.8-0.2l0.2,1.8C4.9,0.1,4.2,0.2,3.7,0.2
	C3,0.2,2.5,0.1,2.2-0.1C1.9-0.3,1.7-0.5,1.5-0.9C1.4-1.2,1.3-1.8,1.3-2.5v-2.4h-1v-1.9h1v-1.3L4-9.5"/>
<path d="M0.8-6.8h2.5v1C3.6-6.3,4-6.6,4.3-6.7C4.7-6.9,5.1-7,5.6-7c0.6,0,1,0.1,1.3,0.3c0.3,0.2,0.6,0.5,0.8,0.9
	c0.4-0.4,0.8-0.8,1.1-0.9C9.2-6.9,9.6-7,10.1-7c0.7,0,1.3,0.2,1.7,0.7c0.4,0.4,0.6,1.1,0.6,2V0H9.8v-3.9c0-0.3-0.1-0.5-0.2-0.7
	C9.4-4.8,9.2-4.9,9-4.9c-0.3,0-0.6,0.1-0.8,0.3C8-4.4,7.9-4,7.9-3.5V0H5.3v-3.8c0-0.3,0-0.5,0-0.6C5.2-4.6,5.1-4.7,5-4.8
	C4.8-4.9,4.7-5,4.5-5C4.2-5,3.9-4.8,3.7-4.6C3.5-4.4,3.4-4,3.4-3.5V0H0.8V-6.8"/>
<path d="M0.8-6.8h2.4v1.1c0.4-0.5,0.7-0.8,1.1-1C4.7-6.9,5.2-7,5.7-7C6.4-7,7-6.8,7.4-6.3C7.8-5.9,8-5.3,8-4.4V0H5.4v-3.8
	c0-0.4-0.1-0.7-0.2-0.9C5-4.8,4.8-4.9,4.5-4.9c-0.3,0-0.6,0.1-0.8,0.4C3.5-4.3,3.4-3.9,3.4-3.3V0H0.8V-6.8"/>
<path d="M0.5-3.4c0-1,0.3-1.9,1-2.6c0.7-0.7,1.7-1,2.9-1c1.4,0,2.4,0.4,3.1,1.2C8-5.2,8.3-4.4,8.3-3.4c0,1.1-0.4,1.9-1,2.6
	c-0.7,0.7-1.7,1-2.9,1c-1.1,0-2-0.3-2.7-0.8C0.9-1.4,0.5-2.3,0.5-3.4 M3.1-3.4c0,0.6,0.1,1.1,0.4,1.3C3.7-1.8,4-1.6,4.4-1.6
	S5.1-1.8,5.3-2c0.2-0.3,0.4-0.8,0.4-1.4c0-0.6-0.1-1-0.4-1.3C5.1-5.1,4.8-5.2,4.4-5.2c-0.4,0-0.7,0.2-1,0.5C3.2-4.5,3.1-4,3.1-3.4"
	/>
<path d="M3.7-6.8H5v1.9H3.7V0H1.1v-4.9h-1v-1.9h1v-0.3c0-0.3,0-0.6,0.1-0.9c0.1-0.3,0.2-0.6,0.3-0.8c0.2-0.2,0.4-0.4,0.7-0.5
	c0.3-0.1,0.7-0.2,1.3-0.2c0.5,0,1.1,0.1,2,0.2L5.2-7.9C4.9-7.9,4.7-7.9,4.5-7.9c-0.2,0-0.4,0-0.5,0.1C3.9-7.7,3.8-7.6,3.8-7.5
	C3.7-7.3,3.7-7.1,3.7-6.8"/>
<path d="M0.9,0v-3h3.5v3H0.9 M1-0.1h3.3v-2.8H1V-0.1"/>
<path d="M0.3-2.9v-0.4h3.3V-3C3.3-2.8,3-2.5,2.7-2.1C2.3-1.7,2.1-1.3,1.9-0.9C1.8-0.6,1.7-0.3,1.7,0H1c0-0.3,0.1-0.6,0.2-1
	C1.4-1.3,1.6-1.7,1.9-2c0.3-0.4,0.6-0.6,0.9-0.9H0.3"/>
<path d="M0.5,0v-3.4h1L2.7-1C2.8-0.8,2.9-0.6,3-0.5C3-0.6,3.1-0.8,3.2-1l1.2-2.3h0.9V0H4.7v-2.8L3.2,0H2.6L1.2-2.9V0H0.5"/>
<path d="M2.9-0.3C2.6-0.2,2.4-0.1,2.2,0C2,0,1.8,0.1,1.5,0.1C1.1,0.1,0.8,0,0.6-0.1C0.4-0.3,0.2-0.4,0.2-0.6c0-0.1,0-0.2,0.1-0.3
	c0.1-0.1,0.2-0.2,0.3-0.2C0.8-1.3,1-1.3,1.1-1.3c0.1,0,0.3,0,0.6-0.1c0.5,0,0.9-0.1,1.1-0.1c0-0.1,0-0.1,0-0.1C2.8-1.8,2.8-2,2.6-2
	C2.5-2.1,2.2-2.2,1.9-2.2c-0.3,0-0.5,0-0.6,0.1C1.1-2,1-1.9,1-1.7L0.4-1.8c0.1-0.2,0.2-0.3,0.3-0.4c0.1-0.1,0.3-0.2,0.5-0.2
	C1.4-2.5,1.7-2.5,2-2.5s0.6,0,0.8,0.1c0.2,0,0.3,0.1,0.4,0.2C3.3-2.2,3.4-2.1,3.4-2c0,0.1,0,0.2,0,0.4V-1c0,0.4,0,0.6,0,0.7
	c0,0.1,0.1,0.2,0.2,0.3H3C2.9-0.1,2.9-0.2,2.9-0.3 M2.8-1.2c-0.2,0.1-0.6,0.1-1,0.2C1.5-1,1.4-1,1.2-1C1.1-1,1.1-0.9,1-0.8
	C0.9-0.8,0.9-0.7,0.9-0.7c0,0.1,0.1,0.2,0.2,0.3c0.1,0.1,0.3,0.1,0.5,0.1c0.2,0,0.5,0,0.6-0.1c0.2-0.1,0.3-0.2,0.4-0.3
	c0.1-0.1,0.1-0.2,0.1-0.4V-1.2"/>
<path d="M0.2-0.7l0.6-0.1c0,0.2,0.1,0.3,0.3,0.4c0.2,0.1,0.4,0.1,0.7,0.1c0.3,0,0.5,0,0.6-0.1c0.1-0.1,0.2-0.2,0.2-0.3
	c0-0.1-0.1-0.2-0.2-0.2C2.4-0.9,2.1-1,1.8-1C1.4-1.1,1-1.2,0.9-1.2C0.7-1.3,0.5-1.4,0.5-1.5C0.4-1.6,0.3-1.7,0.3-1.8
	c0-0.1,0-0.2,0.1-0.3c0.1-0.1,0.2-0.2,0.3-0.2C0.8-2.4,1-2.4,1.1-2.5c0.2,0,0.3,0,0.5,0c0.3,0,0.5,0,0.8,0.1
	c0.2,0.1,0.4,0.1,0.5,0.2C3-2.1,3.1-2,3.1-1.8l-0.6,0C2.5-1.9,2.4-2,2.3-2C2.1-2.1,2-2.2,1.7-2.2c-0.3,0-0.5,0-0.6,0.1
	S0.9-1.9,0.9-1.8c0,0.1,0,0.1,0.1,0.1c0.1,0,0.1,0.1,0.2,0.1c0.1,0,0.2,0.1,0.5,0.1c0.4,0.1,0.8,0.2,0.9,0.2c0.2,0,0.3,0.1,0.4,0.2
	C3.2-1,3.3-0.9,3.3-0.7c0,0.1-0.1,0.3-0.2,0.4C3-0.2,2.8-0.1,2.6,0C2.3,0,2.1,0.1,1.8,0.1C1.3,0.1,1,0,0.7-0.1
	C0.5-0.3,0.3-0.5,0.2-0.7"/>
<path d="M2.9-0.9l0.6,0C3.4-0.6,3.2-0.3,3-0.2C2.7,0,2.3,0.1,2,0.1C1.4,0.1,1,0,0.7-0.3c-0.3-0.2-0.5-0.5-0.5-1
	c0-0.3,0.1-0.5,0.2-0.7c0.1-0.2,0.3-0.3,0.6-0.4C1.3-2.4,1.6-2.5,2-2.5c0.4,0,0.7,0.1,1,0.2C3.2-2.2,3.3-2,3.4-1.7L2.8-1.7
	C2.8-1.8,2.6-1.9,2.5-2C2.4-2.1,2.2-2.2,2-2.2c-0.3,0-0.6,0.1-0.8,0.2C1-1.8,0.9-1.6,0.9-1.2c0,0.3,0.1,0.6,0.3,0.7
	c0.2,0.1,0.4,0.2,0.7,0.2c0.2,0,0.5,0,0.6-0.1C2.7-0.5,2.8-0.7,2.9-0.9"/>
<path d="M0.5,0v-3.4h0.6v1.2c0.3-0.2,0.7-0.3,1.1-0.3c0.3,0,0.5,0,0.7,0.1c0.2,0.1,0.4,0.2,0.4,0.3C3.4-2,3.5-1.8,3.5-1.5V0H2.8
	v-1.5c0-0.2-0.1-0.4-0.2-0.5C2.5-2.1,2.3-2.1,2.1-2.1c-0.2,0-0.4,0-0.5,0.1C1.4-2,1.3-1.9,1.2-1.8C1.1-1.7,1.1-1.5,1.1-1.3V0H0.5"/>
<path d="M2.9,0v-0.4C2.6-0.1,2.2,0.1,1.7,0.1C1.5,0.1,1.3,0,1.1,0C0.9-0.1,0.8-0.1,0.7-0.2C0.6-0.3,0.5-0.4,0.5-0.5
	c0-0.1,0-0.2,0-0.4v-1.5h0.6v1.4c0,0.2,0,0.4,0,0.4c0,0.1,0.1,0.2,0.2,0.3s0.3,0.1,0.5,0.1s0.4,0,0.5-0.1c0.2-0.1,0.3-0.2,0.3-0.3
	c0.1-0.1,0.1-0.3,0.1-0.5v-1.3h0.6V0H2.9"/>
<path d="M3-0.8l0.6,0C3.5-0.5,3.3-0.3,3-0.1C2.8,0,2.4,0.1,2,0.1C1.5,0.1,1,0,0.7-0.3C0.4-0.5,0.3-0.8,0.3-1.2c0-0.4,0.2-0.7,0.5-1
	C1.1-2.4,1.5-2.5,2-2.5c0.5,0,0.9,0.1,1.2,0.3c0.3,0.2,0.5,0.5,0.5,0.9c0,0,0,0.1,0,0.1H0.9c0,0.3,0.1,0.5,0.3,0.6
	C1.4-0.4,1.7-0.3,2-0.3c0.2,0,0.4,0,0.6-0.1C2.8-0.5,2.9-0.6,3-0.8 M0.9-1.5h2c0-0.2-0.1-0.4-0.2-0.5C2.6-2.1,2.3-2.2,2-2.2
	C1.7-2.2,1.4-2.1,1.2-2C1.1-1.8,1-1.7,0.9-1.5"/>
<path d="M1.8-0.4L1.9,0C1.7,0,1.6,0,1.4,0C1.2,0,1,0,0.9,0C0.8-0.1,0.7-0.1,0.7-0.2C0.6-0.3,0.6-0.5,0.6-0.7v-1.4H0.1v-0.3h0.5V-3
	l0.6-0.2v0.8h0.6v0.3H1.2v1.4c0,0.1,0,0.2,0,0.2c0,0,0.1,0.1,0.1,0.1c0.1,0,0.1,0,0.2,0C1.6-0.4,1.7-0.4,1.8-0.4"/>
<path d="M0,0l2-3.4h0.7L4.7,0H4L3.4-1H1.3L0.7,0H0 M1.5-1.4h1.7L2.6-2.3C2.5-2.6,2.4-2.8,2.3-3C2.2-2.8,2.1-2.6,2-2.4L1.5-1.4"/>
<path d="M1.5,0L0.1-2.5h0.7L1.5-1c0.1,0.2,0.2,0.3,0.2,0.5C1.8-0.6,1.9-0.8,2-1l0.8-1.5h0.6L2.1,0H1.5"/>
<path d="M0.5,0v-2.5H1v0.4c0.3-0.3,0.7-0.4,1.2-0.4c0.2,0,0.4,0,0.6,0.1C3-2.4,3.1-2.3,3.2-2.2C3.3-2.1,3.4-2,3.4-1.9
	c0,0.1,0,0.2,0,0.4V0H2.8v-1.5c0-0.2,0-0.3-0.1-0.4C2.7-2,2.6-2,2.5-2.1C2.4-2.1,2.2-2.1,2.1-2.1C1.8-2.1,1.6-2.1,1.4-2
	C1.2-1.9,1.1-1.7,1.1-1.3V0H0.5"/>
<path d="M0.6,0v-0.5h0.7V0c0,0.2,0,0.3-0.1,0.4C1.1,0.5,1,0.6,0.8,0.7L0.6,0.5c0.1,0,0.2-0.1,0.3-0.2C0.9,0.2,1,0.1,1,0H0.6"/>
<path d="M4.2-1.2l0.7,0.1C4.7-0.7,4.4-0.4,4.1-0.2C3.7,0,3.3,0.1,2.7,0.1c-0.5,0-1-0.1-1.3-0.2C1.1-0.3,0.8-0.5,0.6-0.8
	C0.4-1.1,0.4-1.4,0.4-1.7c0-0.3,0.1-0.6,0.3-0.9c0.2-0.3,0.5-0.5,0.9-0.6c0.4-0.1,0.8-0.2,1.2-0.2c0.5,0,0.9,0.1,1.3,0.3
	C4.4-3,4.6-2.8,4.8-2.5L4.1-2.3C4-2.6,3.8-2.8,3.6-2.9C3.3-3,3.1-3,2.7-3C2.3-3,2-3,1.8-2.9C1.5-2.7,1.3-2.6,1.2-2.4
	C1.1-2.1,1-1.9,1-1.7C1-1.4,1.1-1.2,1.2-1c0.1,0.2,0.3,0.4,0.6,0.5c0.3,0.1,0.6,0.2,0.9,0.2c0.4,0,0.7-0.1,1-0.2
	C3.9-0.7,4.1-0.9,4.2-1.2"/>
<path d="M0.5,0v-2.5H1v0.3c0.1-0.1,0.3-0.2,0.5-0.3c0.2-0.1,0.4-0.1,0.7-0.1c0.3,0,0.5,0,0.7,0.1C3-2.3,3.1-2.2,3.2-2.1
	c0.3-0.3,0.7-0.4,1.1-0.4c0.4,0,0.6,0.1,0.8,0.2C5.3-2.2,5.4-2,5.4-1.7V0H4.8v-1.5c0-0.2,0-0.3-0.1-0.4C4.7-2,4.6-2,4.5-2.1
	c-0.1,0-0.2-0.1-0.4-0.1C3.9-2.1,3.7-2.1,3.5-2C3.3-1.9,3.3-1.7,3.3-1.4V0H2.6v-1.6c0-0.2-0.1-0.3-0.2-0.4C2.4-2.1,2.2-2.1,2-2.1
	c-0.2,0-0.3,0-0.5,0.1C1.4-2,1.3-1.9,1.2-1.8C1.1-1.7,1.1-1.5,1.1-1.3V0H0.5"/>
<path d="M1,0H0.5v-3.4h0.6v1.2c0.3-0.2,0.6-0.3,1-0.3c0.2,0,0.4,0,0.6,0.1c0.2,0.1,0.4,0.2,0.5,0.3C3.4-2,3.5-1.9,3.5-1.8
	c0.1,0.1,0.1,0.3,0.1,0.5c0,0.4-0.2,0.8-0.5,1C2.9-0.1,2.5,0.1,2.1,0.1S1.3-0.1,1-0.3V0 M1-1.2c0,0.3,0.1,0.5,0.2,0.6
	C1.4-0.4,1.7-0.3,2-0.3c0.3,0,0.5-0.1,0.7-0.2C2.9-0.7,3-0.9,3-1.2c0-0.3-0.1-0.6-0.3-0.7C2.5-2.1,2.3-2.2,2-2.2
	c-0.3,0-0.5,0.1-0.7,0.2C1.1-1.8,1-1.5,1-1.2"/>
<path d="M0.5,0v-2.5H1v0.4c0.1-0.2,0.3-0.3,0.4-0.3c0.1-0.1,0.3-0.1,0.4-0.1c0.2,0,0.4,0,0.6,0.1L2.2-2C2.1-2,1.9-2.1,1.8-2.1
	C1.6-2.1,1.5-2,1.4-2C1.3-1.9,1.2-1.9,1.2-1.8C1.1-1.6,1.1-1.5,1.1-1.3V0H0.5"/>
<path d="M0.5-2.9v-0.5h0.6v0.5H0.5 M0.5,0v-2.5h0.6V0H0.5"/>
<path d="M2.8,0v-0.3c-0.2,0.2-0.6,0.4-1,0.4C1.5,0.1,1.2,0,1-0.1C0.8-0.2,0.6-0.4,0.4-0.5C0.3-0.7,0.2-1,0.2-1.2s0.1-0.5,0.2-0.7
	C0.5-2.1,0.7-2.2,1-2.3c0.2-0.1,0.5-0.2,0.8-0.2c0.2,0,0.4,0,0.6,0.1c0.2,0.1,0.3,0.1,0.4,0.2v-1.2h0.6V0H2.8 M0.9-1.2
	c0,0.3,0.1,0.5,0.3,0.7c0.2,0.2,0.4,0.2,0.7,0.2c0.3,0,0.5-0.1,0.7-0.2c0.2-0.2,0.3-0.4,0.3-0.7c0-0.3-0.1-0.6-0.3-0.7
	C2.4-2.1,2.1-2.2,1.9-2.2S1.3-2.1,1.2-1.9C1-1.8,0.9-1.5,0.9-1.2"/>
<path d="M0.4,0.2L1,0.3c0,0.1,0.1,0.2,0.2,0.3c0.2,0.1,0.4,0.1,0.6,0.1c0.3,0,0.5,0,0.7-0.1c0.2-0.1,0.3-0.2,0.3-0.3
	c0-0.1,0-0.3,0-0.5C2.6-0.1,2.2,0,1.8,0C1.3,0,0.9-0.1,0.6-0.4C0.4-0.6,0.2-0.9,0.2-1.2c0-0.2,0.1-0.5,0.2-0.6
	C0.5-2.1,0.7-2.2,1-2.3c0.2-0.1,0.5-0.2,0.8-0.2c0.4,0,0.8,0.1,1.1,0.3v-0.3h0.6v2.1c0,0.4-0.1,0.6-0.2,0.8C3.2,0.6,3,0.8,2.7,0.9
	S2.2,1,1.8,1C1.4,1,1,0.9,0.7,0.8C0.5,0.7,0.3,0.5,0.4,0.2 M0.9-1.3c0,0.3,0.1,0.6,0.3,0.7c0.2,0.1,0.4,0.2,0.7,0.2
	c0.3,0,0.5-0.1,0.7-0.2c0.2-0.1,0.3-0.4,0.3-0.7c0-0.3-0.1-0.5-0.3-0.7C2.4-2.1,2.1-2.2,1.9-2.2c-0.3,0-0.5,0.1-0.7,0.2
	C1-1.8,0.9-1.6,0.9-1.3"/>
<path d="M0.3-1.7c0-0.4,0.1-0.7,0.2-1C0.6-2.9,0.8-3.1,1-3.2C1.3-3.3,1.6-3.4,2-3.4c0.3,0,0.5,0,0.7,0.1C2.9-3.2,3-3.1,3.2-3
	c0.1,0.1,0.2,0.3,0.3,0.5C3.6-2.3,3.6-2,3.6-1.7c0,0.4-0.1,0.7-0.2,1C3.3-0.5,3.1-0.3,2.9-0.1C2.6,0,2.3,0.1,2,0.1
	c-0.5,0-0.9-0.1-1.2-0.4C0.5-0.6,0.3-1,0.3-1.7 M0.9-1.7c0,0.6,0.1,0.9,0.3,1.1C1.4-0.4,1.7-0.3,2-0.3c0.3,0,0.5-0.1,0.7-0.3
	C2.9-0.8,3-1.1,3-1.7c0-0.6-0.1-0.9-0.3-1.1C2.5-3,2.2-3,1.9-3C1.7-3,1.4-3,1.2-2.8C1-2.6,0.9-2.2,0.9-1.7"/>
<path d="M3.6-0.4V0H0.2c0-0.1,0-0.2,0.1-0.3c0.1-0.2,0.2-0.3,0.4-0.5c0.2-0.1,0.5-0.3,0.8-0.5C2.1-1.6,2.4-1.8,2.6-2
	c0.2-0.2,0.3-0.3,0.3-0.5S2.8-2.8,2.7-2.9C2.5-3,2.2-3,2-3C1.7-3,1.4-3,1.2-2.9C1.1-2.7,1-2.6,1-2.4l-0.6,0c0-0.3,0.2-0.6,0.5-0.7
	C1.1-3.3,1.5-3.4,2-3.4c0.5,0,0.9,0.1,1.1,0.3c0.3,0.2,0.4,0.4,0.4,0.7c0,0.1,0,0.3-0.1,0.4C3.4-1.9,3.2-1.8,3-1.6
	C2.8-1.5,2.5-1.3,2.1-1C1.7-0.8,1.4-0.7,1.3-0.6C1.2-0.6,1.1-0.5,1.1-0.4H3.6"/>
<path d="M2.6,0H2v-2.6C1.9-2.5,1.7-2.5,1.4-2.4C1.2-2.3,1-2.2,0.8-2.1v-0.4c0.4-0.1,0.7-0.2,0.9-0.4c0.3-0.2,0.4-0.3,0.5-0.5h0.4V0"
	/>
<path d="M0.3-0.9L0.9-1C1-0.7,1.1-0.5,1.3-0.4c0.2,0.1,0.4,0.2,0.6,0.2c0.3,0,0.5-0.1,0.7-0.2C2.8-0.6,3-0.8,3-1
	c0-0.2-0.1-0.4-0.3-0.5C2.5-1.6,2.2-1.6,2-1.6c-0.1,0-0.3,0-0.4,0L1.6-2c0,0,0.1,0,0.1,0C2-2,2.2-2,2.4-2.1c0.2-0.1,0.3-0.2,0.3-0.4
	c0-0.2-0.1-0.3-0.2-0.4C2.3-3,2.1-3,1.9-3C1.6-3,1.4-3,1.3-2.9C1.1-2.8,1-2.6,1-2.4L0.4-2.5C0.4-2.8,0.6-3,0.9-3.2
	c0.3-0.2,0.6-0.2,1-0.2c0.3,0,0.5,0,0.8,0.1C2.9-3.2,3.1-3.1,3.2-3c0.1,0.1,0.2,0.3,0.2,0.4c0,0.1-0.1,0.3-0.2,0.4
	C3.1-2,2.9-1.9,2.7-1.8c0.3,0,0.5,0.1,0.7,0.3C3.5-1.4,3.6-1.2,3.6-1c0,0.3-0.2,0.5-0.5,0.8C2.8,0,2.4,0.1,1.9,0.1
	C1.5,0.1,1.1,0,0.8-0.2C0.5-0.4,0.3-0.6,0.3-0.9"/>
<path d="M0.4-0.8l0.6,0C1-0.6,1.1-0.5,1.3-0.4c0.1,0.1,0.3,0.1,0.6,0.1c0.2,0,0.4,0,0.5-0.1c0.1-0.1,0.3-0.1,0.3-0.2
	C2.8-0.7,2.8-0.8,2.9-1C3-1.2,3-1.3,3-1.5c0,0,0-0.1,0-0.1C2.9-1.5,2.7-1.3,2.5-1.3C2.3-1.2,2-1.1,1.8-1.1C1.4-1.1,1-1.2,0.7-1.4
	C0.4-1.6,0.3-1.9,0.3-2.2c0-0.3,0.1-0.6,0.5-0.8c0.3-0.2,0.7-0.3,1.1-0.3c0.3,0,0.6,0.1,0.9,0.2c0.3,0.1,0.5,0.3,0.6,0.5
	c0.1,0.2,0.2,0.5,0.2,0.9c0,0.4-0.1,0.8-0.2,1C3.3-0.5,3.1-0.3,2.8-0.1C2.5,0,2.2,0.1,1.8,0.1c-0.4,0-0.7-0.1-1-0.2
	C0.6-0.3,0.4-0.5,0.4-0.8 M2.9-2.3c0-0.2-0.1-0.4-0.3-0.6C2.5-3,2.2-3,2-3C1.7-3,1.4-3,1.2-2.8C1-2.7,0.9-2.5,0.9-2.2
	C0.9-2,1-1.9,1.2-1.7C1.4-1.6,1.7-1.5,2-1.5c0.3,0,0.5-0.1,0.7-0.2C2.8-1.9,2.9-2,2.9-2.3"/>
<path d="M0,0v-11.8h8.5V0H0 M0.3-0.3h8v-11.2h-8V-0.3"/>
<path d="M1.3-13.5h9.3v2.9H5v2.4h4.7v2.7H5V0H1.3V-13.5"/>
<path d="M8.7-2.2H4.4L3.9,0H0l4.6-13.5h4.1L13.2,0H9.3L8.7-2.2 M7.9-5.1L6.6-10L5.2-5.1H7.9"/>
<path d="M9.3-5.5l3.3,1.1c-0.2,1-0.6,1.9-1.1,2.6c-0.5,0.7-1.1,1.2-1.8,1.6C9.1,0.1,8.2,0.2,7.1,0.2C5.8,0.2,4.7,0,3.9-0.4
	C3-0.8,2.3-1.6,1.7-2.7C1.1-3.7,0.8-5.1,0.8-6.8c0-2.2,0.5-3.9,1.6-5.1c1.1-1.2,2.6-1.8,4.5-1.8c1.5,0,2.7,0.3,3.6,1s1.5,1.7,2,3.2
	L9.2-8.7C9.1-9.1,9-9.4,8.8-9.6C8.6-9.9,8.4-10.2,8-10.3c-0.3-0.2-0.6-0.3-1-0.3c-0.8,0-1.5,0.4-2,1.1C4.7-8.9,4.6-8,4.6-6.8
	c0,1.5,0.2,2.5,0.6,3.1c0.4,0.6,1,0.8,1.7,0.8c0.7,0,1.3-0.2,1.6-0.7C8.9-4,9.2-4.7,9.3-5.5"/>
<path d="M1.4-13.5h3.8V0H1.4V-13.5"/>
<path d="M1.2-13.5H5v10.2h5.9V0H1.2V-13.5"/>
<path d="M0.4-13.5h11.4v3.3H8V0H4.2v-10.2H0.4V-13.5"/>
<path d="M1.2-13.5h10.1v2.9H5v2.2h5.8v2.8H5v2.7h6.5V0H1.2V-13.5"/>
<path d="M0.6-4.5l3.6-0.2c0.1,0.6,0.2,1.1,0.5,1.5C5-2.7,5.6-2.4,6.3-2.4c0.5,0,1-0.1,1.2-0.4C7.8-3.1,8-3.4,8-3.8
	c0-0.4-0.1-0.7-0.4-0.9C7.3-5,6.6-5.3,5.6-5.5C4-5.9,2.8-6.5,2.1-7.2C1.4-7.9,1-8.7,1-9.8c0-0.7,0.2-1.3,0.5-2
	c0.4-0.6,0.9-1.1,1.6-1.5c0.7-0.4,1.7-0.5,3-0.5c1.6,0,2.7,0.3,3.5,1c0.8,0.6,1.3,1.7,1.5,3.1L7.7-9.5c-0.1-0.6-0.3-1.1-0.6-1.3
	c-0.3-0.3-0.7-0.4-1.2-0.4c-0.4,0-0.8,0.1-1,0.3c-0.2,0.2-0.3,0.5-0.3,0.8c0,0.2,0.1,0.4,0.3,0.6C5-9.4,5.4-9.2,6-9.1
	c1.6,0.4,2.8,0.8,3.5,1.2c0.7,0.4,1.2,0.9,1.5,1.5c0.3,0.6,0.5,1.3,0.5,2c0,0.9-0.2,1.7-0.7,2.4c-0.4,0.7-1,1.3-1.8,1.7
	C8.4,0,7.4,0.2,6.2,0.2c-2.1,0-3.5-0.4-4.3-1.3C1.1-2,0.7-3.1,0.6-4.5"/>
<path d="M3.5,0v-23.6h14.1V0H3.5 M4-0.6h13.2V-23H4V-0.6"/>
<path d="M2,0v-27h6.1l3.7,18.4L15.4-27h6.1V0h-3.8v-21.2L13.7,0H9.8l-4-21.2V0H2"/>
<path d="M1.9,0v-27H6V0H1.9"/>
<path d="M6.6,0v-22.4h-6V-27h16.1v4.6h-6V0H6.6"/>
<path d="M1.2,0v-5.9h4.7V0H1.2 M1.3-0.1h4.4v-5.6H1.3V-0.1"/>
<path d="M0.7,0v-6.8h2.5c0.5,0,0.9,0.1,1.2,0.2C4.8-6.4,5-6.2,5.2-5.9C5.4-5.6,5.5-5.3,5.5-5c0,0.3-0.1,0.6-0.2,0.8
	C5.1-4,4.8-3.8,4.5-3.6C4.9-3.5,5.2-3.3,5.5-3c0.2,0.3,0.3,0.6,0.3,1c0,0.3-0.1,0.6-0.2,0.9C5.4-0.8,5.3-0.6,5.1-0.4
	C4.9-0.3,4.6-0.2,4.3-0.1C4.1,0,3.7,0,3.3,0H0.7 M1.6-3.9H3c0.4,0,0.7,0,0.8-0.1c0.2-0.1,0.4-0.2,0.5-0.3c0.1-0.2,0.2-0.3,0.2-0.6
	c0-0.2-0.1-0.4-0.2-0.6C4.3-5.7,4.1-5.8,4-5.9C3.8-5.9,3.4-6,2.9-6H1.6V-3.9 M1.6-0.8h1.7c0.3,0,0.5,0,0.6,0c0.2,0,0.4-0.1,0.5-0.2
	c0.1-0.1,0.3-0.2,0.3-0.4C4.8-1.6,4.9-1.7,4.9-2c0-0.2-0.1-0.5-0.2-0.7C4.5-2.8,4.4-2.9,4.1-3c-0.2-0.1-0.6-0.1-1-0.1H1.6V-0.8"/>
<path d="M5.2-6.8H6v3.9C6-2.2,6-1.6,5.8-1.2C5.7-0.8,5.4-0.5,5-0.3C4.6,0,4.1,0.1,3.4,0.1C2.8,0.1,2.3,0,1.9-0.2
	C1.5-0.4,1.2-0.7,1-1.2c-0.2-0.4-0.2-1-0.2-1.7v-3.9h0.9v3.9c0,0.6,0.1,1,0.2,1.3c0.1,0.3,0.3,0.5,0.5,0.6c0.3,0.1,0.6,0.2,1,0.2
	c0.7,0,1.1-0.1,1.4-0.4C5-1.4,5.2-2,5.2-2.9V-6.8"/>
<path d="M0.9,0v-6.8h0.9V0H0.9"/>
<path d="M0.7,0v-6.8h0.9v6h3.3V0H0.7"/>
<path d="M0.7,0v-6.8H3c0.5,0,0.9,0,1.2,0.1c0.4,0.1,0.7,0.2,1,0.5C5.6-5.9,5.9-5.5,6-5c0.2,0.5,0.3,1,0.3,1.6c0,0.5-0.1,1-0.2,1.4
	C6-1.6,5.8-1.3,5.7-1.1C5.5-0.8,5.3-0.6,5-0.5C4.8-0.3,4.6-0.2,4.2-0.1C3.9,0,3.6,0,3.2,0H0.7 M1.6-0.8h1.4c0.4,0,0.8,0,1-0.1
	C4.4-1,4.6-1.1,4.7-1.3c0.2-0.2,0.4-0.5,0.5-0.9c0.1-0.4,0.2-0.8,0.2-1.3C5.4-4.1,5.3-4.7,5-5C4.8-5.4,4.5-5.7,4.2-5.8
	C3.9-5.9,3.6-6,3-6H1.6V-0.8"/>
<path d="M0.7,0v-6.8h0.9l3.5,5.3v-5.3H6V0H5.1L1.6-5.3V0H0.7"/>
<path d="M3.9-2.6v-0.8h2.8v2.5C6.3-0.6,5.8-0.3,5.4-0.1C4.9,0,4.4,0.1,4,0.1C3.3,0.1,2.7,0,2.1-0.3C1.6-0.6,1.2-1,0.9-1.5
	C0.6-2.1,0.5-2.7,0.5-3.3c0-0.7,0.1-1.3,0.4-1.8c0.3-0.6,0.7-1,1.2-1.3c0.5-0.3,1.1-0.4,1.8-0.4c0.5,0,0.9,0.1,1.3,0.2
	C5.6-6.5,5.9-6.2,6.1-6c0.2,0.3,0.4,0.6,0.5,1.1L5.8-4.6C5.7-5,5.6-5.2,5.5-5.4C5.3-5.6,5.1-5.8,4.8-5.9C4.5-6,4.2-6.1,3.9-6.1
	C3.5-6.1,3.1-6,2.8-5.9C2.5-5.8,2.3-5.6,2.1-5.4C1.9-5.2,1.8-5,1.7-4.8C1.5-4.3,1.4-3.9,1.4-3.4c0,0.6,0.1,1.1,0.3,1.5
	C1.9-1.5,2.2-1.2,2.6-1C3-0.8,3.5-0.7,3.9-0.7c0.4,0,0.8-0.1,1.1-0.2c0.4-0.2,0.7-0.3,0.8-0.5v-1.2H3.9"/>
<path d="M0.4-1.8l0.8-0.1c0.1,0.5,0.3,0.8,0.5,1c0.2,0.2,0.5,0.3,0.8,0.3c0.4,0,0.7-0.1,1-0.4c0.3-0.3,0.4-0.6,0.4-1
	c0-0.4-0.1-0.7-0.4-0.9C3.3-3.2,3-3.3,2.6-3.3c-0.2,0-0.4,0-0.6,0.1l0.1-0.7c0.1,0,0.1,0,0.1,0c0.4,0,0.7-0.1,1-0.3S3.6-4.7,3.6-5
	c0-0.3-0.1-0.6-0.3-0.8C3.1-6,2.9-6.1,2.5-6.1C2.2-6.1,1.9-6,1.7-5.8C1.5-5.6,1.4-5.3,1.3-4.9L0.5-5c0.1-0.6,0.3-1,0.7-1.3
	C1.5-6.6,2-6.8,2.5-6.8c0.4,0,0.7,0.1,1,0.2c0.3,0.2,0.6,0.4,0.7,0.6C4.4-5.6,4.5-5.3,4.5-5c0,0.3-0.1,0.6-0.2,0.8
	C4.1-4,3.9-3.8,3.5-3.7C4-3.6,4.3-3.4,4.5-3.1C4.7-2.8,4.8-2.4,4.8-2c0,0.6-0.2,1.1-0.6,1.5c-0.4,0.4-1,0.6-1.6,0.6
	C2,0.1,1.5-0.1,1.1-0.4C0.7-0.8,0.5-1.2,0.4-1.8"/>
<path d="M3.5,0H2.7v-5.3C2.5-5.1,2.2-4.9,1.9-4.7C1.6-4.5,1.3-4.4,1-4.3v-0.8c0.5-0.2,0.9-0.5,1.2-0.8C2.6-6.2,2.8-6.5,3-6.8h0.5V0"
	/>
<path d="M0.3-2v-0.8h2.5V-2H0.3"/>
<path d="M0.8,0v-6.8h4.6V-6H1.7v2.1h3.2v0.8H1.7V0H0.8"/>
<path d="M0.5-3.3c0-1.1,0.3-2,0.9-2.6c0.6-0.6,1.4-1,2.3-1c0.6,0,1.2,0.2,1.7,0.5c0.5,0.3,0.9,0.7,1.1,1.2C6.8-4.6,6.9-4,6.9-3.4
	c0,0.7-0.1,1.3-0.4,1.8C6.2-1,5.8-0.6,5.3-0.3C4.8,0,4.3,0.1,3.7,0.1C3.1,0.1,2.5,0,2-0.3C1.5-0.7,1.1-1.1,0.8-1.6
	C0.6-2.1,0.5-2.7,0.5-3.3 M1.4-3.3c0,0.8,0.2,1.5,0.7,1.9c0.4,0.5,1,0.7,1.6,0.7c0.7,0,1.2-0.2,1.7-0.7C5.8-1.8,6-2.5,6-3.4
	c0-0.5-0.1-1-0.3-1.4c-0.2-0.4-0.5-0.7-0.8-1C4.5-6,4.1-6.1,3.7-6.1C3.1-6.1,2.5-5.9,2-5.4C1.6-5,1.4-4.3,1.4-3.3"/>
<path d="M0.7,0v-6.8h3c0.6,0,1,0.1,1.4,0.2c0.3,0.1,0.6,0.3,0.8,0.7c0.2,0.3,0.3,0.6,0.3,1C6.1-4.4,6-4,5.7-3.7
	C5.4-3.4,4.9-3.2,4.2-3.1c0.2,0.1,0.4,0.2,0.5,0.3C5-2.5,5.3-2.2,5.5-1.8L6.7,0H5.6L4.7-1.4C4.4-1.8,4.2-2.1,4-2.3
	C3.8-2.5,3.7-2.7,3.6-2.8C3.4-2.9,3.3-2.9,3.2-3C3.1-3,2.9-3,2.7-3h-1v3H0.7 M1.6-3.8h1.9c0.4,0,0.7,0,1-0.1C4.7-4,4.9-4.1,5-4.3
	c0.1-0.2,0.2-0.4,0.2-0.6c0-0.3-0.1-0.6-0.4-0.8C4.6-5.9,4.3-6,3.8-6H1.6V-3.8"/>
<path d="M2.4,0v-6H0.2v-0.8h5.3V-6H3.3v6H2.4"/>
<path d="M0.8,0v-6.8h0.9V-4h3.5v-2.8H6V0H5.2v-3.2H1.6V0H0.8"/>
<path d="M0.4-2.2l0.8-0.1c0,0.3,0.1,0.6,0.3,0.8C1.7-1.2,1.9-1,2.2-0.9c0.3,0.1,0.7,0.2,1,0.2c0.3,0,0.6,0,0.9-0.1
	c0.3-0.1,0.5-0.2,0.6-0.4c0.1-0.2,0.2-0.4,0.2-0.6c0-0.2-0.1-0.4-0.2-0.6S4.4-2.7,4.1-2.8C4-2.9,3.6-3,2.9-3.1
	c-0.6-0.1-1-0.3-1.3-0.4C1.3-3.7,1.1-3.9,0.9-4.2S0.7-4.7,0.7-5c0-0.3,0.1-0.7,0.3-1c0.2-0.3,0.5-0.5,0.8-0.7
	c0.4-0.2,0.8-0.2,1.2-0.2c0.5,0,0.9,0.1,1.3,0.2c0.4,0.2,0.7,0.4,0.9,0.7c0.2,0.3,0.3,0.7,0.3,1.1L4.7-4.8c0-0.4-0.2-0.8-0.5-1
	C4-6,3.6-6.1,3.1-6.1C2.6-6.1,2.2-6,1.9-5.8C1.7-5.6,1.5-5.3,1.5-5.1c0,0.2,0.1,0.4,0.2,0.6C2-4.3,2.4-4.1,3.1-4
	c0.7,0.2,1.2,0.3,1.5,0.4C5-3.4,5.3-3.1,5.5-2.9c0.2,0.3,0.3,0.6,0.3,1c0,0.4-0.1,0.7-0.3,1C5.3-0.6,5-0.3,4.6-0.1
	C4.2,0,3.8,0.1,3.3,0.1C2.7,0.1,2.2,0,1.8-0.2C1.3-0.3,1-0.6,0.8-1C0.6-1.3,0.4-1.7,0.4-2.2"/>
<path d="M0,0l2.6-6.8h1L6.3,0h-1L4.5-2H1.7L0.9,0H0 M1.9-2.8h2.3L3.5-4.6C3.3-5.2,3.1-5.7,3-6C2.9-5.6,2.8-5.2,2.7-4.8L1.9-2.8"/>
<path d="M0.8,0v-6.8h4.9V-6h-4v2.1h3.7v0.8H1.6v2.3h4.1V0H0.8"/>
<path d="M0.7,0v-6.8h2.5c0.4,0,0.8,0,1,0.1c0.3,0.1,0.6,0.2,0.8,0.3C5.4-6.2,5.5-6,5.7-5.7c0.1,0.3,0.2,0.6,0.2,0.9
	c0,0.6-0.2,1.1-0.5,1.5c-0.4,0.4-1,0.6-2,0.6H1.6V0H0.7 M1.6-3.5h1.7c0.6,0,1-0.1,1.2-0.3C4.8-4.1,5-4.4,5-4.8C5-5,4.9-5.3,4.7-5.5
	C4.6-5.7,4.4-5.8,4.2-5.9C4-5.9,3.8-6,3.3-6H1.6V-3.5"/>
<path d="M5.5-2.4l0.9,0.2c-0.2,0.7-0.5,1.3-1,1.7C4.9-0.1,4.3,0.1,3.6,0.1C2.9,0.1,2.3,0,1.9-0.3C1.4-0.6,1.1-1,0.8-1.6
	C0.6-2.2,0.5-2.8,0.5-3.4c0-0.7,0.1-1.3,0.4-1.8C1.1-5.8,1.5-6.2,2-6.5c0.5-0.3,1-0.4,1.6-0.4c0.7,0,1.2,0.2,1.7,0.5
	c0.5,0.3,0.8,0.8,1,1.5L5.4-4.7C5.3-5.2,5.1-5.5,4.8-5.8C4.5-6,4.1-6.1,3.6-6.1c-0.5,0-1,0.1-1.3,0.4C2-5.5,1.7-5.1,1.6-4.7
	C1.5-4.3,1.4-3.9,1.4-3.4c0,0.6,0.1,1.1,0.2,1.5c0.2,0.4,0.4,0.7,0.8,1c0.4,0.2,0.7,0.3,1.1,0.3c0.5,0,0.9-0.1,1.3-0.4
	C5.2-1.4,5.4-1.8,5.5-2.4"/>
<path d="M0.5-8.2h5.2V0H0.5V-8.2 M0.7-7.9v7.7h4.7v-7.7H0.7"/>
<path d="M3.4-5.3c0.4,0,0.7-0.1,0.9-0.3c0.3-0.2,0.4-0.5,0.4-0.9c0-0.3-0.1-0.6-0.3-0.8C4.2-7.6,3.9-7.7,3.5-7.7
	c-0.2,0-0.4,0-0.6,0.1C2.8-7.5,2.6-7.4,2.5-7.3C2.5-7.2,2.4-7.1,2.3-6.9C2.2-6.7,2.1-6.5,2.1-6.4C2-6.3,2-6.2,1.9-6.2
	c-0.1,0-0.2,0.1-0.4,0.1C1.3-6.1,1.2-6.2,1-6.3C0.9-6.4,0.9-6.6,0.9-6.8C0.9-7,0.9-7.3,1-7.5c0.1-0.2,0.3-0.4,0.5-0.6
	c0.2-0.2,0.5-0.4,0.9-0.5c0.4-0.1,0.8-0.2,1.2-0.2c0.4,0,0.7,0.1,1,0.2c0.3,0.1,0.6,0.3,0.8,0.5C5.8-8,6-7.8,6.1-7.5
	C6.2-7.2,6.3-7,6.3-6.7c0,0.4-0.1,0.7-0.3,1C5.9-5.3,5.6-5.1,5.3-4.8c0.3,0.2,0.6,0.4,0.8,0.6C6.3-4,6.5-3.8,6.6-3.5
	C6.7-3.2,6.7-3,6.7-2.7c0,0.4-0.1,0.7-0.2,1.1C6.4-1.3,6.1-1,5.9-0.7c-0.3,0.3-0.6,0.5-1,0.6C4.5,0.1,4,0.2,3.6,0.2
	c-0.5,0-0.9-0.1-1.3-0.2C1.9-0.3,1.6-0.5,1.3-0.8C1.1-1,0.9-1.3,0.8-1.5C0.7-1.8,0.6-2.1,0.6-2.2c0-0.2,0.1-0.4,0.2-0.5
	C1-2.9,1.2-3,1.4-3c0.1,0,0.2,0,0.3,0.1c0.1,0.1,0.2,0.1,0.2,0.2c0.2,0.6,0.4,1,0.7,1.2C2.8-1.2,3.1-1,3.6-1c0.2,0,0.5-0.1,0.7-0.2
	c0.2-0.1,0.4-0.3,0.6-0.5C5-2,5.1-2.3,5.1-2.6c0-0.5-0.1-0.8-0.4-1.1C4.5-3.9,4.1-4.1,3.6-4.1c-0.1,0-0.2,0-0.4,0C3.1-4,3-4,3-4
	C2.7-4,2.6-4.1,2.4-4.2C2.3-4.3,2.3-4.5,2.3-4.7c0-0.2,0.1-0.4,0.2-0.5c0.1-0.1,0.4-0.2,0.6-0.2H3.4"/>
<path d="M3.5-0.8v-5.4c-1,0.8-1.7,1.2-2.1,1.2C1.2-5.1,1.1-5.2,1-5.3C0.8-5.4,0.8-5.6,0.8-5.8C0.8-6,0.8-6.1,1-6.2
	c0.1-0.1,0.4-0.2,0.7-0.4C2.1-6.8,2.5-7,2.8-7.3c0.3-0.3,0.5-0.5,0.8-0.9C3.8-8.5,3.9-8.7,4-8.7c0.1-0.1,0.2-0.1,0.4-0.1
	c0.2,0,0.4,0.1,0.5,0.2C5-8.4,5.1-8.2,5.1-7.9V-1c0,0.8-0.3,1.2-0.8,1.2C4,0.2,3.8,0.1,3.7-0.1C3.5-0.3,3.5-0.5,3.5-0.8"/>
<path d="M1.9,0.2c-0.2,0-0.5-0.1-0.6-0.2C1.1-0.2,1-0.5,1-0.8C1-1,1.1-1.2,1.3-1.4c0.2-0.2,0.4-0.3,0.6-0.3s0.5,0.1,0.6,0.3
	C2.7-1.2,2.8-1,2.8-0.8c0,0.3-0.1,0.5-0.3,0.7C2.4,0.1,2.2,0.2,1.9,0.2"/>
<path d="M4.3-0.8v-1.1h-3C0.9-1.9,0.6-2,0.4-2.1C0.2-2.3,0.2-2.5,0.2-2.8c0-0.1,0-0.2,0-0.2c0-0.1,0.1-0.2,0.1-0.2
	c0.1-0.1,0.1-0.2,0.2-0.2c0.1-0.1,0.1-0.2,0.2-0.3l3.2-4.2c0.2-0.3,0.4-0.5,0.5-0.6c0.1-0.1,0.3-0.2,0.5-0.2c0.6,0,0.9,0.3,0.9,1
	v4.6H6c0.3,0,0.6,0,0.7,0.1C7-3,7.1-2.8,7.1-2.5C7.1-2.3,7-2.1,6.8-2C6.7-1.9,6.5-1.9,6.2-1.9H5.8v1.1c0,0.3-0.1,0.5-0.2,0.7
	C5.5,0.1,5.3,0.2,5,0.2c-0.2,0-0.4-0.1-0.5-0.2C4.4-0.2,4.3-0.5,4.3-0.8 M1.7-3.2h2.6v-3.5L1.7-3.2"/>
<path d="M0.8,0v-3.9h3.1V0H0.8 M0.9-0.1h2.9v-3.7H0.9V-0.1"/>
<path d="M0.5,0v-4.5h0.6L3.5-1v-3.5H4V0H3.4L1-3.5V0H0.5"/>
<path d="M0.3-2.2c0-0.8,0.2-1.3,0.6-1.8c0.4-0.4,0.9-0.6,1.6-0.6c0.4,0,0.8,0.1,1.1,0.3c0.3,0.2,0.6,0.5,0.8,0.8
	c0.2,0.4,0.3,0.8,0.3,1.2c0,0.4-0.1,0.9-0.3,1.2C4.1-0.7,3.9-0.4,3.5-0.2C3.2,0,2.8,0.1,2.5,0.1C2,0.1,1.6,0,1.3-0.2
	C1-0.4,0.7-0.7,0.5-1.1C0.4-1.4,0.3-1.8,0.3-2.2 M0.9-2.2c0,0.5,0.1,1,0.4,1.3C1.6-0.6,2-0.4,2.5-0.4c0.4,0,0.8-0.2,1.1-0.5
	C3.8-1.2,4-1.7,4-2.2c0-0.4-0.1-0.7-0.2-1C3.7-3.5,3.5-3.7,3.3-3.8C3-4,2.8-4.1,2.5-4.1C2-4.1,1.7-3.9,1.4-3.6
	C1.1-3.3,0.9-2.9,0.9-2.2"/>
<path d="M0.5,0v-4.5h2c0.4,0,0.7,0,0.9,0.1c0.2,0.1,0.4,0.2,0.5,0.4C4-3.7,4.1-3.5,4.1-3.3C4.1-3,4-2.7,3.8-2.5
	C3.6-2.2,3.3-2.1,2.8-2C3-2,3.1-1.9,3.2-1.8c0.2,0.2,0.3,0.4,0.5,0.6L4.5,0H3.7L3.1-0.9C2.9-1.2,2.8-1.4,2.7-1.5
	C2.6-1.7,2.5-1.8,2.4-1.8C2.3-1.9,2.2-1.9,2.1-2C2-2,1.9-2,1.8-2H1.1v2H0.5 M1.1-2.5h1.3c0.3,0,0.5,0,0.6-0.1
	c0.2-0.1,0.3-0.1,0.3-0.3C3.4-3,3.5-3.1,3.5-3.3c0-0.2-0.1-0.4-0.2-0.5C3.1-3.9,2.8-4,2.5-4H1.1V-2.5"/>
<path d="M1.6,0v-4H0.1v-0.5h3.6V-4H2.2v4H1.6"/>
<path d="M0.5,0v-4.5h0.6v1.8h2.3v-1.8H4V0H3.4v-2.1H1.1V0H0.5"/>
<path d="M0.1,0v-3.9h1.2V0H0.1 M0.3-0.2h0.9v-3.6H0.3V-0.2"/>
<path d="M0.2-2.2c0-0.8,0.1-1.3,0.3-1.7C0.7-4.3,1-4.5,1.4-4.5C1.8-4.5,2-4.4,2.2-4c0.2,0.4,0.4,1,0.4,1.8c0,0.8-0.1,1.3-0.3,1.7
	C2.1-0.1,1.8,0.1,1.4,0.1c-0.4,0-0.6-0.2-0.9-0.5C0.3-0.8,0.2-1.4,0.2-2.2 M0.7-2.2c0,0.7,0.1,1.2,0.2,1.5C1-0.5,1.2-0.4,1.4-0.4
	c0.2,0,0.4-0.1,0.5-0.4C2.1-1,2.1-1.5,2.1-2.2c0-0.7-0.1-1.2-0.2-1.5C1.8-3.9,1.6-4.1,1.4-4.1C1.2-4.1,1-3.9,0.9-3.7
	C0.7-3.4,0.7-2.9,0.7-2.2"/>
<path d="M1.9,0H1.5v-3.5C1.3-3.4,1.2-3.3,1-3.1C0.9-3,0.7-2.9,0.5-2.9v-0.5C0.8-3.5,1-3.7,1.2-3.9c0.2-0.2,0.3-0.4,0.4-0.6h0.3V0"/>
<path d="M2.6-3.4l-0.5,0c0-0.2-0.1-0.4-0.2-0.5C1.8-4,1.6-4.1,1.5-4.1C1.2-4.1,1-3.9,0.8-3.6C0.7-3.3,0.6-2.9,0.6-2.3
	C0.7-2.5,0.9-2.7,1-2.8c0.2-0.1,0.3-0.2,0.5-0.2c0.3,0,0.5,0.1,0.8,0.4c0.2,0.3,0.3,0.6,0.3,1.1c0,0.3-0.1,0.6-0.2,0.8
	C2.3-0.4,2.2-0.2,2-0.1C1.9,0,1.7,0.1,1.5,0.1c-0.4,0-0.7-0.2-0.9-0.5C0.3-0.8,0.2-1.3,0.2-2.1C0.2-3,0.3-3.6,0.5-4
	c0.2-0.4,0.6-0.6,1-0.6c0.3,0,0.5,0.1,0.7,0.3C2.4-4,2.5-3.8,2.6-3.4 M0.7-1.5c0,0.3,0.1,0.6,0.2,0.8c0.2,0.2,0.3,0.3,0.5,0.3
	c0.2,0,0.3-0.1,0.5-0.3c0.1-0.2,0.2-0.4,0.2-0.8c0-0.3-0.1-0.6-0.2-0.7C1.8-2.3,1.6-2.4,1.4-2.4c-0.2,0-0.4,0.1-0.5,0.3
	C0.8-2,0.7-1.8,0.7-1.5"/>
<path d="M0.2-1.2l0.5-0.1C0.8-0.7,1-0.4,1.4-0.4c0.2,0,0.4-0.1,0.5-0.3C2.1-0.8,2.1-1,2.1-1.3c0-0.3-0.1-0.5-0.2-0.6
	C1.8-2.1,1.6-2.2,1.4-2.2c-0.1,0-0.2,0-0.3,0.1l0.1-0.5h0.1c0.2,0,0.4-0.1,0.5-0.2C1.9-2.9,2-3.1,2-3.4c0-0.2-0.1-0.4-0.2-0.5
	C1.7-4,1.5-4.1,1.4-4.1C1.2-4.1,1-4,0.9-3.9C0.8-3.7,0.7-3.5,0.7-3.2L0.2-3.3C0.3-3.7,0.4-4,0.6-4.2c0.2-0.2,0.4-0.3,0.7-0.3
	c0.3,0,0.5,0.1,0.8,0.3C2.3-4,2.4-3.7,2.4-3.3c0,0.2,0,0.4-0.1,0.5C2.2-2.6,2.1-2.5,1.9-2.4c0.1,0,0.3,0.1,0.4,0.2S2.5-2,2.5-1.9
	s0.1,0.3,0.1,0.5c0,0.4-0.1,0.8-0.4,1C2-0.1,1.7,0.1,1.4,0.1C1.1,0.1,0.8,0,0.6-0.3C0.4-0.5,0.2-0.8,0.2-1.2"/>
<path d="M2.6-0.5V0H0.2c0-0.2,0.1-0.5,0.2-0.7C0.5-1,0.7-1.3,1.1-1.7c0.4-0.4,0.7-0.8,0.8-1c0.1-0.2,0.2-0.4,0.2-0.6
	c0-0.2-0.1-0.4-0.2-0.6C1.8-4,1.6-4.1,1.4-4.1C1.2-4.1,1-4,0.9-3.8C0.8-3.7,0.7-3.4,0.7-3.2L0.2-3.2c0-0.4,0.1-0.8,0.4-1
	c0.2-0.2,0.5-0.3,0.8-0.3c0.4,0,0.7,0.1,0.8,0.4c0.2,0.2,0.3,0.5,0.3,0.9c0,0.3-0.1,0.6-0.2,0.8c-0.1,0.3-0.4,0.6-0.8,1
	C1.2-1.1,1.1-0.9,1-0.8C0.9-0.7,0.8-0.6,0.8-0.5H2.6"/>
<path d="M1.7,0v-1.1H0.1v-0.5l1.7-2.9h0.4v2.9h0.5v0.5H2.1V0H1.7 M1.7-1.6v-2l-1.2,2H1.7"/>
<path d="M0.9-2.4C0.7-2.5,0.6-2.6,0.5-2.8C0.4-2.9,0.3-3.1,0.3-3.4c0-0.3,0.1-0.6,0.3-0.8c0.2-0.2,0.5-0.3,0.8-0.3
	c0.3,0,0.6,0.1,0.8,0.3C2.4-4,2.5-3.7,2.5-3.3c0,0.2,0,0.4-0.1,0.6C2.3-2.6,2.1-2.5,1.9-2.4C2.2-2.4,2.3-2.2,2.4-2
	c0.1,0.2,0.2,0.4,0.2,0.7c0,0.4-0.1,0.7-0.3,1C2.1,0,1.8,0.1,1.4,0.1S0.8,0,0.5-0.3c-0.2-0.3-0.3-0.6-0.3-1c0-0.3,0.1-0.5,0.2-0.7
	C0.5-2.2,0.7-2.4,0.9-2.4 M0.8-3.4C0.8-3.2,0.9-3,1-2.8c0.1,0.1,0.3,0.2,0.4,0.2c0.2,0,0.3-0.1,0.4-0.2C2-3,2-3.1,2-3.3
	C2-3.6,2-3.7,1.8-3.9C1.7-4,1.6-4.1,1.4-4.1C1.2-4.1,1.1-4,1-3.9C0.9-3.7,0.8-3.6,0.8-3.4 M0.7-1.3c0,0.3,0.1,0.5,0.2,0.7
	C1-0.5,1.2-0.4,1.4-0.4c0.2,0,0.4-0.1,0.5-0.2C2.1-0.8,2.2-1,2.2-1.3c0-0.3-0.1-0.5-0.2-0.7C1.8-2.1,1.6-2.2,1.4-2.2
	C1.2-2.2,1-2.1,0.9-2C0.7-1.8,0.7-1.6,0.7-1.3"/>
<path d="M2.1-1.8v-0.5h1.6v1.7C3.5-0.4,3.2-0.2,3-0.1C2.7,0,2.4,0.1,2.2,0.1c-0.4,0-0.7-0.1-1-0.3C0.9-0.4,0.7-0.6,0.5-1
	C0.4-1.3,0.3-1.7,0.3-2.2c0-0.5,0.1-0.9,0.2-1.3c0.2-0.4,0.4-0.6,0.6-0.8c0.3-0.2,0.6-0.3,1-0.3c0.3,0,0.5,0.1,0.7,0.2
	C3-4.3,3.2-4.2,3.3-4c0.1,0.2,0.2,0.4,0.3,0.8L3.2-3.1C3.1-3.3,3.1-3.5,3-3.7C2.9-3.8,2.8-3.9,2.6-4C2.5-4,2.3-4.1,2.1-4.1
	C1.9-4.1,1.6-4,1.4-3.9C1.2-3.7,1.1-3.5,1-3.3C0.8-3,0.8-2.7,0.8-2.3c0,0.6,0.1,1.1,0.4,1.4c0.3,0.3,0.6,0.5,1,0.5
	c0.2,0,0.4,0,0.6-0.1c0.2-0.1,0.4-0.2,0.5-0.3v-0.8H2.1"/>
<path d="M0.4,0v-4.5H2c0.3,0,0.6,0,0.8,0.1C2.9-4.3,3.1-4.1,3.2-4c0.1,0.2,0.2,0.4,0.2,0.7c0,0.3-0.1,0.6-0.3,0.8
	C2.9-2.2,2.6-2.1,2.3-2C2.4-2,2.6-1.9,2.6-1.8C2.8-1.6,2.9-1.4,3-1.2L3.6,0H3L2.5-0.9C2.3-1.3,2.2-1.5,2.1-1.7S1.9-1.9,1.8-1.9
	C1.7-2,1.6-2,1.5-2H0.9v2H0.4 M0.9-2.5h1c0.2,0,0.4,0,0.5-0.1c0.1-0.1,0.2-0.1,0.3-0.2C2.8-3,2.8-3.1,2.8-3.3c0-0.2-0.1-0.4-0.2-0.5
	C2.5-3.9,2.3-4,2-4H0.9V-2.5"/>
<path d="M0,0l1.4-4.5h0.5L3.4,0H2.9L2.5-1.4H0.9L0.5,0H0 M1.1-1.8h1.2L1.9-3.1C1.8-3.5,1.7-3.8,1.7-4c0,0.3-0.1,0.6-0.2,0.9L1.1-1.8
	"/>
<path d="M0.4,0v-4.5h1.4c0.3,0,0.6,0,0.7,0.1C2.7-4.3,2.9-4.2,3-4c0.1,0.2,0.2,0.5,0.2,0.8c0,0.4-0.1,0.7-0.3,1
	C2.7-2,2.3-1.8,1.8-1.8H0.9V0H0.4 M0.9-2.4h1c0.3,0,0.5-0.1,0.7-0.2c0.1-0.1,0.2-0.3,0.2-0.6c0-0.2,0-0.3-0.1-0.5
	C2.5-3.8,2.5-3.8,2.4-3.9C2.3-3.9,2.1-4,1.8-4H0.9V-2.4"/>
<path d="M0.4,0v-4.5h0.5v1.8h1.9v-1.8h0.5V0H2.8v-2.1H0.9V0H0.4"/>
<path d="M0.5,0v-4.5H1V0H0.5"/>
<path d="M3-1.6l0.5,0.2C3.4-0.9,3.2-0.5,2.9-0.3C2.7,0,2.3,0.1,2,0.1C1.6,0.1,1.3,0,1.1-0.2C0.8-0.3,0.6-0.6,0.5-1
	C0.3-1.3,0.2-1.8,0.2-2.3c0-0.5,0.1-0.9,0.2-1.2c0.2-0.3,0.4-0.6,0.6-0.8C1.4-4.5,1.7-4.6,2-4.6c0.4,0,0.7,0.1,0.9,0.3
	c0.3,0.2,0.4,0.5,0.5,1L3-3.1C2.8-3.8,2.5-4.1,2-4.1C1.7-4.1,1.5-4,1.3-3.9C1.2-3.8,1-3.6,0.9-3.3C0.8-3,0.8-2.7,0.8-2.3
	c0,0.6,0.1,1.1,0.3,1.4c0.2,0.3,0.5,0.5,0.9,0.5c0.3,0,0.5-0.1,0.7-0.3C2.8-0.9,3-1.2,3-1.6"/>
<path d="M0.2-1.4l0.5-0.1c0,0.2,0.1,0.4,0.2,0.6c0.1,0.1,0.2,0.2,0.4,0.3c0.2,0.1,0.4,0.1,0.6,0.1c0.3,0,0.5-0.1,0.7-0.2
	C2.6-0.8,2.7-1,2.7-1.2c0-0.1,0-0.2-0.1-0.3C2.5-1.7,2.5-1.8,2.3-1.8C2.2-1.9,2-2,1.6-2.1C1.2-2.2,1-2.3,0.8-2.4
	C0.7-2.5,0.6-2.6,0.5-2.8C0.4-2.9,0.4-3.1,0.4-3.3c0-0.4,0.1-0.7,0.3-0.9c0.2-0.2,0.6-0.4,1-0.4c0.3,0,0.5,0.1,0.7,0.2
	c0.2,0.1,0.4,0.3,0.5,0.5C3-3.7,3.1-3.5,3.1-3.2l-0.5,0c0-0.3-0.1-0.5-0.3-0.6C2.2-4,2-4,1.7-4C1.4-4,1.2-4,1.1-3.9
	C0.9-3.7,0.8-3.6,0.8-3.4S0.9-3.1,1-3c0.1,0.1,0.3,0.2,0.7,0.3c0.4,0.1,0.6,0.2,0.8,0.3C2.7-2.3,2.9-2.1,3-1.9
	c0.1,0.2,0.2,0.4,0.2,0.7C3.2-1,3.1-0.8,3-0.6C2.9-0.4,2.7-0.2,2.5-0.1C2.3,0,2,0.1,1.8,0.1c-0.5,0-0.8-0.1-1.1-0.4
	C0.4-0.6,0.2-1,0.2-1.4"/>
<path d="M0.4,0v-4.5h0.5v4h1.8V0H0.4"/>
<path d="M0.4,0v-4.5h2.7V-4H0.9v1.4h2v0.5h-2v1.5h2.3V0H0.4"/>
<path d="M0.4,0v-4.5h2.5V-4h-2v1.4h1.7V-2H0.9v2H0.4"/>
<path d="M1.3,0v-4H0.1v-0.5H3V-4H1.8v4H1.3"/>
<path d="M0.6,0v-3.1h2.5V0H0.6 M0.7-0.1h2.4v-3H0.7V-0.1"/>
<path d="M3-1.3l0.5,0.1C3.3-0.8,3.1-0.5,2.9-0.2C2.6,0,2.3,0.1,1.9,0.1C1.6,0.1,1.2,0,1-0.2C0.7-0.3,0.6-0.6,0.4-0.9
	c-0.1-0.3-0.2-0.6-0.2-1c0-0.4,0.1-0.7,0.2-1c0.1-0.3,0.3-0.5,0.6-0.6C1.3-3.6,1.6-3.7,2-3.7c0.4,0,0.7,0.1,0.9,0.3
	c0.2,0.2,0.4,0.4,0.5,0.8L2.9-2.5C2.8-2.8,2.7-2.9,2.5-3.1C2.4-3.2,2.2-3.2,1.9-3.2C1.7-3.2,1.4-3.2,1.2-3C1.1-2.9,0.9-2.7,0.8-2.5
	C0.8-2.3,0.7-2.1,0.7-1.8c0,0.3,0,0.6,0.1,0.8C1-0.8,1.1-0.6,1.3-0.5c0.2,0.1,0.4,0.2,0.6,0.2c0.3,0,0.5-0.1,0.7-0.2S2.9-1,3-1.3"/>
<path d="M0.2-1.3c0-0.5,0.1-0.8,0.4-1.1c0.2-0.2,0.5-0.3,0.8-0.3c0.4,0,0.6,0.1,0.9,0.4c0.2,0.2,0.3,0.6,0.3,1
	c0,0.3-0.1,0.6-0.2,0.8C2.4-0.4,2.2-0.2,2-0.1C1.8,0,1.6,0.1,1.4,0.1C1,0.1,0.7-0.1,0.5-0.3C0.3-0.5,0.2-0.9,0.2-1.3 M0.6-1.3
	c0,0.3,0.1,0.6,0.2,0.8C1-0.4,1.2-0.3,1.4-0.3s0.4-0.1,0.5-0.2C2.1-0.7,2.2-1,2.2-1.3c0-0.3-0.1-0.6-0.2-0.7
	C1.8-2.2,1.6-2.3,1.4-2.3S1-2.2,0.8-2C0.7-1.9,0.6-1.6,0.6-1.3"/>
<path d="M0.3,1v-3.6h0.4v0.3C0.8-2.4,0.9-2.5,1-2.6c0.1-0.1,0.3-0.1,0.4-0.1c0.2,0,0.4,0.1,0.6,0.2C2.3-2.4,2.4-2.2,2.5-2
	c0.1,0.2,0.1,0.4,0.1,0.7c0,0.3,0,0.5-0.1,0.7C2.4-0.4,2.2-0.2,2-0.1C1.9,0,1.7,0.1,1.5,0.1C1.3,0.1,1.2,0,1.1,0
	C0.9-0.1,0.9-0.2,0.8-0.3V1H0.3 M0.7-1.3c0,0.3,0.1,0.6,0.2,0.8c0.1,0.2,0.3,0.2,0.5,0.2c0.2,0,0.3-0.1,0.5-0.2
	C2.1-0.7,2.1-1,2.1-1.3c0-0.3-0.1-0.6-0.2-0.8C1.8-2.2,1.6-2.3,1.5-2.3S1.1-2.2,1-2.1C0.8-1.9,0.7-1.6,0.7-1.3"/>
<path d="M0.3,1l0-0.4c0.1,0,0.2,0,0.2,0c0.1,0,0.2,0,0.2,0s0.1-0.1,0.1-0.1c0,0,0.1-0.2,0.1-0.3c0,0,0-0.1,0-0.1l-1-2.6h0.5l0.5,1.5
	c0.1,0.2,0.1,0.4,0.2,0.6c0-0.2,0.1-0.4,0.2-0.6L2-2.6h0.4L1.5,0C1.4,0.3,1.3,0.5,1.2,0.6C1.1,0.8,1.1,0.9,1,1
	C0.9,1,0.7,1.1,0.6,1.1C0.5,1.1,0.4,1,0.3,1"/>
<path d="M0.3,0v-2.6h0.4v0.4C0.8-2.4,0.9-2.5,1-2.6c0.1-0.1,0.2-0.1,0.3-0.1c0.1,0,0.3,0,0.5,0.1L1.6-2.1C1.5-2.2,1.4-2.2,1.3-2.2
	c-0.1,0-0.2,0-0.3,0.1C0.9-2.1,0.9-2,0.8-1.9C0.8-1.7,0.8-1.5,0.8-1.4V0H0.3"/>
<path d="M0.3-3.1v-0.5h0.5v0.5H0.3 M0.3,0v-2.6h0.5V0H0.3"/>
<path d="M0.2,0.2l0.4,0.1c0,0.1,0.1,0.2,0.1,0.3c0.1,0.1,0.3,0.1,0.5,0.1c0.2,0,0.4,0,0.5-0.1C1.9,0.5,1.9,0.4,2,0.2
	c0-0.1,0-0.3,0-0.6C1.8-0.1,1.6,0,1.3,0C0.9,0,0.6-0.1,0.5-0.4C0.3-0.6,0.2-1,0.2-1.3c0-0.2,0-0.5,0.1-0.7c0.1-0.2,0.2-0.4,0.4-0.5
	c0.2-0.1,0.4-0.2,0.6-0.2c0.3,0,0.6,0.1,0.8,0.4v-0.3h0.4v2.2c0,0.4,0,0.7-0.1,0.9C2.3,0.7,2.1,0.8,1.9,0.9C1.8,1,1.5,1.1,1.3,1.1
	C1,1.1,0.7,1,0.5,0.8C0.3,0.7,0.2,0.5,0.2,0.2 M0.6-1.3c0,0.3,0.1,0.6,0.2,0.8C1-0.4,1.1-0.4,1.3-0.4c0.2,0,0.4-0.1,0.5-0.2
	C2-0.8,2-1,2-1.3C2-1.7,2-1.9,1.8-2C1.7-2.2,1.5-2.3,1.3-2.3C1.1-2.3,1-2.2,0.8-2.1C0.7-1.9,0.6-1.7,0.6-1.3"/>
<path d="M0.3,0v-3.6h0.5v1.3C1-2.6,1.2-2.7,1.6-2.7c0.2,0,0.3,0,0.5,0.1c0.1,0.1,0.2,0.2,0.3,0.3c0.1,0.1,0.1,0.3,0.1,0.6V0H2v-1.7
	C2-1.9,2-2,1.9-2.1C1.8-2.2,1.6-2.3,1.5-2.3c-0.1,0-0.3,0-0.4,0.1C1-2.1,0.9-2,0.8-1.9c0,0.1-0.1,0.3-0.1,0.5V0H0.3"/>
<path d="M1.3-0.4L1.4,0C1.2,0,1.1,0,1,0C0.9,0,0.7,0,0.6,0C0.6-0.1,0.5-0.2,0.5-0.2c0-0.1,0-0.3,0-0.5v-1.5H0.1v-0.3h0.3v-0.6
	l0.5-0.3v0.9h0.4v0.3H0.9v1.5c0,0.1,0,0.2,0,0.2c0,0,0,0.1,0.1,0.1c0,0,0.1,0,0.2,0C1.1-0.4,1.2-0.4,1.3-0.4"/>
<path d="M2.5-0.4V0H0.2c0-0.1,0-0.2,0-0.3c0.1-0.2,0.2-0.3,0.3-0.5c0.1-0.2,0.3-0.3,0.6-0.5c0.4-0.3,0.6-0.6,0.8-0.8
	C2-2.3,2.1-2.5,2.1-2.6c0-0.2-0.1-0.3-0.2-0.4C1.8-3.2,1.6-3.2,1.4-3.2C1.2-3.2,1-3.2,0.9-3C0.8-2.9,0.7-2.8,0.7-2.5l-0.5,0
	c0-0.3,0.1-0.6,0.3-0.8c0.2-0.2,0.5-0.3,0.8-0.3S2-3.5,2.2-3.3c0.2,0.2,0.3,0.4,0.3,0.7c0,0.1,0,0.3-0.1,0.4
	C2.4-2.1,2.3-1.9,2.1-1.8C2-1.6,1.8-1.4,1.5-1.1C1.2-0.9,1-0.7,1-0.7C0.9-0.6,0.8-0.5,0.8-0.4H2.5"/>
<path d="M0.2-1.8c0-0.4,0-0.8,0.1-1c0.1-0.3,0.2-0.5,0.4-0.6c0.2-0.1,0.4-0.2,0.7-0.2c0.2,0,0.4,0,0.5,0.1C2-3.4,2.2-3.3,2.2-3.2
	C2.3-3,2.4-2.8,2.5-2.6c0.1,0.2,0.1,0.5,0.1,0.8c0,0.4,0,0.8-0.1,1C2.3-0.5,2.2-0.3,2-0.1C1.9,0,1.6,0.1,1.4,0.1
	C1,0.1,0.8-0.1,0.6-0.3C0.3-0.6,0.2-1.1,0.2-1.8 M0.7-1.8c0,0.6,0.1,1,0.2,1.2C1-0.4,1.2-0.3,1.4-0.3c0.2,0,0.4-0.1,0.5-0.3
	C2-0.8,2.1-1.2,2.1-1.8S2-2.8,1.9-3C1.8-3.1,1.6-3.2,1.4-3.2C1.2-3.2,1-3.2,0.9-3C0.7-2.8,0.7-2.4,0.7-1.8"/>
<path d="M0.2-1.1v-0.5h1.4v0.5H0.2"/>
<path d="M1.9,0H1.4v-2.8C1.3-2.7,1.2-2.6,1-2.5C0.8-2.4,0.7-2.3,0.5-2.3v-0.4C0.8-2.8,1-3,1.2-3.1c0.2-0.2,0.3-0.3,0.4-0.5h0.3V0"/>
<path d="M0.4,0v-3.6h0.7L1.9-1C2-0.8,2.1-0.6,2.1-0.5c0-0.1,0.1-0.3,0.2-0.6l0.9-2.5h0.6V0H3.3v-3l-1,3H1.9l-1-3.1V0H0.4"/>
<path d="M2-0.3C1.9-0.2,1.7-0.1,1.5,0C1.4,0,1.2,0.1,1.1,0.1C0.8,0.1,0.6,0,0.4-0.1C0.3-0.3,0.2-0.5,0.2-0.7c0-0.1,0-0.2,0.1-0.3
	c0.1-0.1,0.1-0.2,0.2-0.3s0.2-0.1,0.3-0.1c0.1,0,0.2,0,0.4-0.1c0.4,0,0.6-0.1,0.8-0.2c0-0.1,0-0.1,0-0.1C2-2,2-2.1,1.9-2.2
	C1.8-2.2,1.6-2.3,1.4-2.3c-0.2,0-0.4,0-0.5,0.1C0.8-2.1,0.7-2,0.7-1.8l-0.4,0c0-0.2,0.1-0.3,0.2-0.5c0.1-0.1,0.2-0.2,0.4-0.3
	C1-2.6,1.2-2.7,1.4-2.7c0.2,0,0.4,0,0.5,0.1c0.1,0.1,0.2,0.1,0.3,0.2c0.1,0.1,0.1,0.2,0.1,0.3c0,0.1,0,0.2,0,0.4v0.6
	c0,0.4,0,0.7,0,0.8c0,0.1,0.1,0.2,0.1,0.3H2.1C2.1-0.1,2-0.2,2-0.3 M2-1.3C1.8-1.2,1.6-1.2,1.3-1.1C1.1-1.1,1-1.1,0.9-1
	C0.8-1,0.8-1,0.7-0.9c0,0.1-0.1,0.1-0.1,0.2c0,0.1,0,0.2,0.1,0.3C0.9-0.3,1-0.3,1.2-0.3c0.2,0,0.3,0,0.5-0.1
	c0.1-0.1,0.2-0.2,0.3-0.3C2-0.8,2-1,2-1.1V-1.3"/>
<path d="M0.2-0.8l0.4-0.1c0,0.2,0.1,0.3,0.2,0.4c0.1,0.1,0.3,0.1,0.5,0.1c0.2,0,0.4,0,0.5-0.1c0.1-0.1,0.1-0.2,0.1-0.3
	c0-0.1,0-0.2-0.1-0.2C1.7-1,1.5-1,1.3-1.1C1-1.2,0.7-1.3,0.6-1.3C0.5-1.4,0.4-1.5,0.3-1.6C0.3-1.7,0.2-1.8,0.2-1.9
	c0-0.1,0-0.2,0.1-0.3c0.1-0.1,0.1-0.2,0.2-0.2c0.1-0.1,0.1-0.1,0.3-0.1c0.1,0,0.3-0.1,0.4-0.1c0.2,0,0.4,0,0.5,0.1
	C1.9-2.5,2-2.4,2.1-2.3c0.1,0.1,0.1,0.2,0.2,0.4L1.8-1.9c0-0.1-0.1-0.2-0.2-0.3C1.5-2.3,1.4-2.3,1.2-2.3c-0.2,0-0.3,0-0.4,0.1
	C0.7-2.1,0.7-2.1,0.7-2c0,0.1,0,0.1,0,0.2c0,0.1,0.1,0.1,0.2,0.1c0.1,0,0.2,0,0.4,0.1c0.3,0.1,0.5,0.2,0.7,0.2
	C2-1.3,2.1-1.2,2.2-1.1C2.3-1,2.3-0.9,2.3-0.8c0,0.1,0,0.3-0.1,0.4C2.1-0.2,2-0.1,1.8,0C1.7,0,1.5,0.1,1.3,0.1
	C0.9,0.1,0.7,0,0.5-0.1C0.3-0.3,0.2-0.5,0.2-0.8"/>
<path d="M2-1l0.4,0C2.4-0.6,2.3-0.4,2.1-0.2C1.9,0,1.7,0.1,1.4,0.1C1,0.1,0.7-0.1,0.5-0.3c-0.2-0.2-0.3-0.6-0.3-1
	c0-0.3,0-0.5,0.1-0.7c0.1-0.2,0.2-0.4,0.4-0.5C1-2.6,1.2-2.7,1.4-2.7c0.3,0,0.5,0.1,0.7,0.2c0.2,0.1,0.3,0.4,0.3,0.6L2-1.8
	c0-0.2-0.1-0.3-0.2-0.4C1.7-2.2,1.6-2.3,1.4-2.3C1.2-2.3,1-2.2,0.9-2.1C0.7-1.9,0.7-1.7,0.7-1.3c0,0.4,0.1,0.6,0.2,0.8
	C1-0.4,1.2-0.3,1.4-0.3c0.2,0,0.3-0.1,0.4-0.2C1.9-0.6,2-0.7,2-1"/>
<path d="M2,0v-0.4C1.8-0.1,1.6,0.1,1.2,0.1C1.1,0.1,0.9,0,0.8,0C0.6-0.1,0.5-0.2,0.5-0.2C0.4-0.3,0.4-0.5,0.3-0.6c0-0.1,0-0.2,0-0.4
	v-1.6h0.4v1.5c0,0.2,0,0.4,0,0.5c0,0.1,0.1,0.2,0.2,0.3s0.2,0.1,0.3,0.1c0.1,0,0.3,0,0.4-0.1c0.1-0.1,0.2-0.2,0.2-0.3
	C2-0.8,2-1,2-1.2v-1.4h0.4V0H2"/>
<path d="M2.1-0.8l0.5,0.1C2.5-0.5,2.4-0.3,2.2-0.2C2,0,1.7,0.1,1.4,0.1C1,0.1,0.7-0.1,0.5-0.3c-0.2-0.2-0.3-0.6-0.3-1
	c0-0.4,0.1-0.8,0.3-1C0.7-2.5,1-2.7,1.4-2.7c0.3,0,0.6,0.1,0.8,0.4c0.2,0.2,0.3,0.6,0.3,1c0,0,0,0.1,0,0.1h-2c0,0.3,0.1,0.5,0.2,0.7
	C1-0.4,1.2-0.3,1.4-0.3c0.2,0,0.3,0,0.4-0.1C2-0.5,2.1-0.7,2.1-0.8 M0.7-1.6h1.5C2.1-1.8,2-1.9,2-2C1.8-2.2,1.6-2.3,1.4-2.3
	C1.2-2.3,1-2.2,0.9-2.1C0.8-2,0.7-1.8,0.7-1.6"/>
<path d="M0.5,0v-3.6H1V0H0.5"/>
<path d="M0.3,0v-2.6h0.4v0.4c0.2-0.3,0.5-0.4,0.8-0.4c0.2,0,0.3,0,0.4,0.1c0.1,0.1,0.2,0.1,0.3,0.2C2.4-2.3,2.4-2.2,2.4-2
	c0,0.1,0,0.2,0,0.4V0H2v-1.6C2-1.8,2-1.9,2-2c0-0.1-0.1-0.2-0.2-0.2C1.7-2.3,1.6-2.3,1.5-2.3C1.3-2.3,1.1-2.2,1-2.1
	C0.8-2,0.8-1.8,0.8-1.4V0H0.3"/>
<path d="M0.4,0v-2.3H0v-0.3h0.4v-0.3c0-0.2,0-0.3,0-0.4c0-0.1,0.1-0.2,0.2-0.3C0.8-3.6,1-3.7,1.2-3.7c0.1,0,0.3,0,0.4,0L1.5-3.2
	c-0.1,0-0.2,0-0.2,0C1.1-3.2,1-3.2,1-3.2C0.9-3.1,0.9-3,0.9-2.8v0.2h0.5v0.3H0.9V0H0.4"/>
<path d="M1.3,0v-3.2H0.1v-0.4H3v0.4H1.8V0H1.3"/>
<path d="M0.3,0v-3.6h0.4V0H0.3"/>
<path d="M0.5,0v-0.5H1V0H0.5"/>
<path d="M0,0l1.4-3.6h0.5L3.4,0H2.8L2.4-1.1H0.9L0.5,0H0 M1-1.5h1.2l-0.4-1C1.8-2.8,1.7-3,1.6-3.2C1.6-3,1.5-2.8,1.4-2.5L1-1.5"/>
<path d="M1.1,0l-1-2.6h0.5L1.1-1c0.1,0.2,0.1,0.3,0.2,0.5c0-0.1,0.1-0.3,0.2-0.5L2-2.6h0.5L1.5,0H1.1"/>
<path d="M2,0v-0.3C1.9-0.1,1.6,0.1,1.3,0.1C1.1,0.1,0.9,0,0.7-0.1C0.5-0.2,0.4-0.4,0.3-0.6C0.2-0.8,0.2-1,0.2-1.3
	c0-0.3,0-0.5,0.1-0.7c0.1-0.2,0.2-0.4,0.4-0.5c0.2-0.1,0.4-0.2,0.6-0.2c0.2,0,0.3,0,0.4,0.1C1.8-2.5,1.9-2.4,2-2.3v-1.3h0.4V0H2
	 M0.6-1.3c0,0.3,0.1,0.6,0.2,0.8C1-0.4,1.1-0.3,1.3-0.3c0.2,0,0.3-0.1,0.5-0.2C2-0.7,2-0.9,2-1.3C2-1.6,2-1.9,1.8-2
	C1.7-2.2,1.5-2.3,1.3-2.3c-0.2,0-0.4,0.1-0.5,0.2C0.7-1.9,0.6-1.6,0.6-1.3"/>
<path d="M0.4,0v-3.6h1.4c0.2,0,0.4,0,0.5,0c0.2,0,0.3,0.1,0.4,0.2C2.9-3.3,3-3.2,3-3c0.1,0.1,0.1,0.3,0.1,0.5C3.1-2.2,3-2,2.8-1.8
	C2.6-1.6,2.3-1.5,1.8-1.5H0.9V0H0.4 M0.9-1.9h0.9c0.3,0,0.5-0.1,0.6-0.2c0.1-0.1,0.2-0.3,0.2-0.5c0-0.1,0-0.3-0.1-0.4
	C2.5-3,2.4-3.1,2.2-3.1c-0.1,0-0.2,0-0.5,0H0.9V-1.9"/>
<path class="st0" d="M745.6,422.4h23.5v7.5h-23.5V422.4"/>
<path class="st0" d="M726.9,542h66.7v-82.9h18.2V184.7h-85v246.9"/>
<path class="st0" d="M415.8,320h-0.8V184.7h130.5V320h-0.9"/>
<path class="st0" d="M726.9,186.2H545.6"/>
<path class="st0" d="M415.8,315.5v226.6h128.9V315.5H415.8"/>
<path class="st0" d="M733.6,364.1h-4.3"/>
<path class="st0" d="M733.6,362.6h-6.7"/>
<path class="st0" d="M760.2,364.1h-19.1"/>
<path class="st0" d="M760.2,362.6h-19.1"/>
<path class="st0" d="M779.4,364.1h-1.1"/>
<path class="st0" d="M781.8,362.6h-3.5"/>
<path class="st1" d="M741.1,363.3v0.8"/>
<path class="st1" d="M733.6,363.3v0.8"/>
<path class="st1" d="M741.1,363.3v-0.7"/>
<path class="st1" d="M733.6,363.3v-0.7"/>
<path class="st0" d="M733.6,362.6v1.1"/>
<path class="st0" d="M741.1,362.6v1.1"/>
<path class="st0" d="M734,362.6v1.1h-0.4v-1.1H734"/>
<path class="st0" d="M741.1,362.6v1.1h-0.4v-1.1H741.1"/>
<path class="st0" d="M733.6,363.7h0.4v-1.1"/>
<path class="st0" d="M740.7,362.6v1.1"/>
<path class="st0" d="M740.7,362.6c0-1.2-0.3-2.3-0.9-3.4"/>
<path class="st0" d="M739.8,359.2l0.1,0.2l-5.8,3.4l-0.1-0.2L739.8,359.2"/>
<path class="st0" d="M729.3,364.1v66"/>
<path class="st0" d="M726.9,362.6v69"/>
<path class="st0" d="M729.3,430.1h4.7"/>
<path class="st0" d="M741.1,430.1h38.3"/>
<path class="st0" d="M726.9,431.6h7.7"/>
<path class="st0" d="M740.7,431.6h41v-69"/>
<path class="st0" d="M726.9,542v-1.5"/>
<path class="st0" d="M726.9,230.7v-44.5H567.5v44.5h92.8V229h45v1.7H726.9"/>
<path class="st0" d="M660.3,230.7h45v43.8h-45V230.7"/>
<path class="st0" d="M590.6,230.7h1.5"/>
<path class="st0" d="M660.3,227.7h45v46.8h-45V227.7"/>
<path class="st0" d="M629.3,186.2v93.6h76.4v-35h21.2v-58.6H629.3"/>
<path class="st0" d="M683.7,188.5h43.2V187h-97.6"/>
<path class="st0" d="M637.7,188.5h44.5"/>
<path class="st0" d="M629.3,187v1.5h6.9"/>
<path class="st0" d="M629.3,227.7v1.5h97.6v-1.5H629.3"/>
<path class="st0" d="M629.3,272.7v1.5h97.6v-1.5H629.3"/>
<path class="st0" d="M636.2,227.7h1.5v-39.2h-1.5V227.7"/>
<path class="st0" d="M636.2,272.7h1.5v-43.5h-1.5V272.7"/>
<path class="st0" d="M682.2,227.7h1.5v-39.2h-1.5V227.7"/>
<path class="st0" d="M415,318.3h128.5V186.4H415V318.3"/>
<path class="st0" d="M447.9,257.6v-43.4"/>
<path class="st0" d="M452.4,209.6h39.8"/>
<path class="st0" d="M492.2,211.9h-39.8"/>
<path class="st0" d="M450.1,214.1v43.4"/>
<path class="st0" d="M447.8,257.5c0,0.6,0.5,1.1,1.1,1.1s1.1-0.5,1.1-1.1"/>
<path class="st0" d="M446.7,205.3c0-1.3-1.1-2.4-2.4-2.4s-2.4,1.1-2.4,2.4"/>
<path class="st0" d="M446.7,205.4v52.1"/>
<path class="st0" d="M441.8,257.4c0,1.3,1.1,2.4,2.4,2.4s2.4-1.1,2.4-2.4"/>
<path class="st0" d="M441.9,257.4v-52.1"/>
<path class="st0" d="M431.6,215.2l49.9-28.8"/>
<path class="st0" d="M544.7,411.3h182.2v129.1H544.7V411.3"/>
<path class="st0" d="M733.8,202.9v159.7"/>
<path class="st0" d="M733.5,202.6v160"/>
<path class="st0" d="M513.8,467H534v31.5h-20.3V467"/>
<path class="st0" d="M439.2,455.4h7v11.4h-7V455.4"/>
<path class="st0" d="M439.7,455.7h6.2v10.7h-6.2V455.7"/>
<path class="st0" d="M446.2,455.4l-7,5.7l7,5.7"/>
<path class="st0" d="M723.7,244.8h-4.5H723.7"/>
<path class="st0" d="M502.2,322.8h0.5v7.5h-0.5V322.8"/>
<path class="st0" d="M501.9,330.3h1.1v1.1h-1.1V330.3"/>
<path class="st0" d="M501.9,321.7h1.1v1.1h-1.1V321.7"/>
<path class="st0" d="M479.7,322.8h0.5v7.5h-0.5V322.8"/>
<path class="st0" d="M479.4,330.3h1.1v1.1h-1.1V330.3"/>
<path class="st0" d="M479.4,321.7h1.1v1.1h-1.1V321.7"/>
<path class="st0" d="M478.1,349.5h0.5v11h-0.5V349.5"/>
<path class="st0" d="M477.8,360.5h1.1v1.1h-1.1V360.5"/>
<path class="st0" d="M477.8,348.3h1.1v1.1h-1.1V348.3"/>
<path class="st0" d="M500.6,349.5h0.5v11h-0.5V349.5"/>
<path class="st0" d="M500.3,360.5h1.1v1.1h-1.1V360.5"/>
<path class="st0" d="M500.3,348.3h1.1v1.1h-1.1V348.3"/>
<path class="st0" d="M523.1,349.5h0.5v11h-0.5V349.5"/>
<path class="st0" d="M522.8,360.5h1.1v1.1h-1.1V360.5"/>
<path class="st0" d="M522.8,348.3h1.1v1.1h-1.1V348.3"/>
<path class="st0" d="M527,344.8v-0.5h13.1v0.5H527"/>
<path class="st0" d="M540.1,345.1V344h1.1v1.1H540.1"/>
<path class="st0" d="M525.8,345.1V344h1.1v1.1H525.8"/>
<path class="st0" d="M527,322.3v-0.5h13.1v0.5H527"/>
<path class="st0" d="M540.1,322.6v-1.1h1.1v1.1H540.1"/>
<path class="st0" d="M525.8,322.6v-1.1h1.1v1.1H525.8"/>
<path class="st0" d="M519.1,316.7v-0.5h21v0.5H519.1"/>
<path class="st0" d="M540.1,317v-1.1h1.1v1.1H540.1"/>
<path class="st0" d="M518,317v-1.1h1.1v1.1H518"/>
<path class="st0" d="M519.1,299.8v-0.5h21v0.5H519.1"/>
<path class="st0" d="M540.1,300.1V299h1.1v1.1H540.1"/>
<path class="st0" d="M518,300.1V299h1.1v1.1H518"/>
<path class="st0" d="M540.9,278.6h0.5v18.1h-0.5V278.6"/>
<path class="st0" d="M540.6,296.7h1.1v1.1h-1.1V296.7"/>
<path class="st0" d="M540.6,277.5h1.1v1.1h-1.1V277.5"/>
<path class="st0" d="M760.8,317v-0.5h16.9v0.5H760.8"/>
<path class="st0" d="M777.7,317.3v-1.1h1.1v1.1H777.7"/>
<path class="st0" d="M759.6,317.3v-1.1h1.1v1.1H759.6"/>
<path class="st0" d="M760.8,339.5V339h16.9v0.5H760.8"/>
<path class="st0" d="M777.7,339.8v-1.1h1.1v1.1H777.7"/>
<path class="st0" d="M759.6,339.8v-1.1h1.1v1.1H759.6"/>
<path class="st0" d="M760.8,362v-0.5h16.9v0.5H760.8"/>
<path class="st0" d="M777.7,362.3v-1.1h1.1v1.1H777.7"/>
<path class="st0" d="M759.6,362.3v-1.1h1.1v1.1H759.6"/>
<path class="st0" d="M751.4,297.5h0.5v16.6h-0.5V297.5"/>
<path class="st0" d="M751.1,314.1h1.1v1.1h-1.1V314.1"/>
<path class="st0" d="M751.1,296.3h1.1v1.1h-1.1V296.3"/>
<path class="st0" d="M728.9,297.5h0.5v16.6h-0.5V297.5"/>
<path class="st0" d="M728.6,314.1h1.1v1.1h-1.1V314.1"/>
<path class="st0" d="M728.6,296.3h1.1v1.1h-1.1V296.3"/>
<path class="st0" d="M785,474.3l-15.8,43.2"/>
<path class="st0" d="M811.8,397.1h-30.1"/>
<path class="st0" d="M726.9,184.7l42.5,42.5l42.5-42.5"/>
<path class="st0" d="M811.8,397.1l-42.5-48.8L728,363.3"/>
<path class="st0" d="M777.5,257.5l-8.1-30.3l-8.1,30.3l8.1,30.2L777.5,257.5"/>
<path class="st0" d="M777.5,318l-8.1-30.2l-8.1,30.2l8.1,30.3L777.5,318"/>
<path class="st0" d="M761.3,257.5h16.2"/>
<path class="st0" d="M761.3,318h16.2"/>
<path class="st0" d="M770.1,227.2c0-0.4-0.3-0.8-0.8-0.8c-0.4,0-0.8,0.3-0.8,0.8c0,0.4,0.3,0.8,0.8,0.8
	C769.7,227.9,770.1,227.6,770.1,227.2"/>
<path class="st0" d="M770.3,226.2V225h0.5l0.2,0.1l0.1,0.1l0.1,0.1v0.1l-0.1,0.1l-0.1,0.1l-0.2,0.1h-0.5"/>
<path class="st0" d="M770.7,225.6l0.4,0.7"/>
<path class="st0" d="M771.6,226.2V225h0.4l0.2,0.1l0.1,0.1l0.1,0.1l0.1,0.2v0.3l-0.1,0.2l-0.1,0.1l-0.1,0.1l-0.2,0.1H771.6"/>
<path class="st0" d="M459.2,391.6l-10.5,39.2l-10.5-39.2l10.5-40.4L459.2,391.6"/>
<path class="st0" d="M459.2,470.1l-10.5,39.2l-10.5-39.2"/>
<path class="st0" d="M448.7,430.8l-6.5,24.5"/>
<path class="st0" d="M439.2,465.9l-1.1,4.1"/>
<path class="st0" d="M448.7,430.8l10.5,39.2"/>
<path class="st0" d="M544.7,318.3L513.1,350l-31.6-31.6l-32.8,32.8l-32.8-32.8"/>
<path class="st0" d="M726.9,185.1H610.6V200h-43.1v29.2"/>
<path class="st0" d="M717.2,244.8h9.7v-59.6"/>
<path class="st0" d="M513.8,498.5h18.2v21.1h-18.2V498.5"/>
<path class="st0" d="M545.6,406.7V387"/>
<path class="st0" d="M726.9,431.6V542"/>
<path class="st0" d="M754.1,453.3h18.2v21h-18.2V453.3"/>
<path class="st0" d="M449.4,351.1c0-0.4-0.3-0.8-0.8-0.8s-0.8,0.3-0.8,0.8s0.3,0.8,0.8,0.8S449.4,351.5,449.4,351.1"/>
<path class="st0" d="M449.4,430.8c0-0.4-0.3-0.8-0.8-0.8s-0.8,0.3-0.8,0.8s0.3,0.8,0.8,0.8S449.4,431.2,449.4,430.8"/>
<path class="st0" d="M547.3,276.1c0-0.4-0.3-0.8-0.8-0.8s-0.8,0.3-0.8,0.8s0.3,0.8,0.8,0.8S547.3,276.5,547.3,276.1"/>
<path class="st0" d="M547.3,221.5c0-0.4-0.3-0.8-0.8-0.8s-0.8,0.3-0.8,0.8s0.3,0.8,0.8,0.8S547.3,221.9,547.3,221.5"/>
<path class="st0" d="M770.1,348.2c0-0.4-0.3-0.8-0.8-0.8c-0.4,0-0.8,0.3-0.8,0.8s0.3,0.8,0.8,0.8C769.7,349,770.1,348.7,770.1,348.2
	"/>
<path class="st0" d="M770.1,287.7c0-0.4-0.3-0.8-0.8-0.8c-0.4,0-0.8,0.3-0.8,0.8s0.3,0.8,0.8,0.8
	C769.7,288.5,770.1,288.1,770.1,287.7"/>
<path class="st0" d="M544.7,315.7h182.2"/>
<path class="st0" d="M544.7,317.6h182.2"/>
<path class="st0" d="M544.7,409.1h182.2"/>
<path class="st0" d="M816,196h2"/>
<path class="st0" d="M821,196h3"/>
<path class="st0" d="M826.1,215.1h1.7"/>
<path class="st0" d="M816,225.2h2.7"/>
<path class="st0" d="M821.7,225.2h3"/>
<path class="st0" d="M827.7,225.2h3"/>
<path class="st0" d="M833.7,225.2h3"/>
<path class="st0" d="M826.1,215.1V213"/>
<path class="st0" d="M826.1,210v-3"/>
<path class="st0" d="M826.1,204v-3"/>
<path class="st0" d="M826.1,198v-2"/>
<path class="st0" d="M816,225.2v-2.6"/>
<path class="st0" d="M816,219.6v-3"/>
<path class="st0" d="M816,213.6v-3"/>
<path class="st0" d="M816,207.6v-3"/>
<path class="st0" d="M816,201.6v-3"/>
<path class="st0" d="M829.4,213.2h2"/>
<path class="st0" d="M834.5,213.2h3"/>
<path class="st0" d="M829.4,211.3h2"/>
<path class="st0" d="M834.5,211.3h3"/>
<path class="st0" d="M829.4,209.4h2"/>
<path class="st0" d="M834.5,209.4h3"/>
<path class="st0" d="M834.9,207.5h2.3"/>
<path class="st0" d="M816,213.2h2"/>
<path class="st0" d="M821,213.2h3"/>
<path class="st0" d="M816,211.3h2"/>
<path class="st0" d="M821,211.3h3"/>
<path class="st0" d="M816,209.4h2"/>
<path class="st0" d="M821,209.4h3"/>
<path class="st0" d="M816,207.5h2"/>
<path class="st0" d="M821,207.5h3"/>
<path class="st0" d="M816,205.5h2"/>
<path class="st0" d="M821,205.5h3"/>
<path class="st0" d="M816,203.6h2"/>
<path class="st0" d="M821,203.6h3"/>
<path class="st0" d="M816,201.7h2"/>
<path class="st0" d="M821,201.7h3"/>
<path class="st0" d="M816,199.8h2"/>
<path class="st0" d="M821,199.8h3"/>
<path class="st0" d="M816,197.9h2"/>
<path class="st0" d="M821,197.9h3"/>
<path class="st0" d="M816,215.1h2"/>
<path class="st0" d="M821,215.1h3"/>
<path class="st0" d="M829.4,215.1h2"/>
<path class="st0" d="M834.5,215.1h3"/>
<path class="st0" d="M829.4,209.4l2.3-0.8"/>
<path class="st0" d="M833.9,207.6l0.1-0.6l1,0.8l0.1-0.6l2.2-0.8"/>
<path class="st0" d="M833.9,207.5h0.5"/>
<path class="st0" d="M829.4,209.4v2.9"/>
<path class="st0" d="M839.4,205.5v2.3"/>
<path class="st0" d="M839.4,210.9v3"/>
<path class="st0" d="M839.4,216.9v3"/>
<path class="st0" d="M839.4,222.9v2.3"/>
<path class="st0" d="M467.7,234.6H482v23.3h-14.2V234.6"/>
<path class="st0" d="M482,234.6l-14.2,23.3"/>
<path class="st0" d="M467.7,234.6l14.2,23.3"/>
<path class="st0" d="M468.1,235.1h13.5v22.5h-13.5V235.1"/>
<path class="st0" d="M481.6,235.1l-13.5,22.5"/>
<path class="st0" d="M468.1,235.1l13.5,22.5"/>
<path class="st0" d="M492.2,205.5h22.9"/>
<path class="st0" d="M515.1,271.2v29.5h-22.9v-29.5"/>
<path class="st0" d="M511.1,251.4v2.3"/>
<path class="st0" d="M511.3,251.7v1.9"/>
<path class="st0" d="M513.3,253.7v-2.3"/>
<path class="st0" d="M513.2,253.5v-1.9"/>
<path class="st0" d="M511.1,253.7h2.2"/>
<path class="st0" d="M511.3,253.5h1.9"/>
<path class="st0" d="M513.3,251.4h-2.2"/>
<path class="st0" d="M513.2,251.7h-1.9"/>
<path class="st0" d="M514.7,270.6v-23.5"/>
<path class="st0" d="M514.7,240.3V206"/>
<path class="st0" d="M492.5,270.6v-23.5"/>
<path class="st0" d="M492.5,240.3V206"/>
<path class="st0" d="M514.7,270.6h-22.1"/>
<path class="st0" d="M514.7,206h-22.1"/>
<path class="st0" d="M515.1,271.2h-22.9"/>
<path class="st0" d="M515.1,252.6V247"/>
<path class="st0" d="M515.1,240.3v-3.5h6.8"/>
<path class="st0" d="M521.9,252.6h-6.8"/>
<path class="st0" d="M485.5,239.1h6.7v1.2"/>
<path class="st0" d="M492.2,247.1v3.2"/>
<path class="st0" d="M521.9,236.8h-4.5"/>
<path class="st0" d="M521.9,252.6h-6.8"/>
<path class="st0" d="M517.4,236.8h-2.2v0.3h2.5"/>
<path class="st0" d="M431.6,165.3v21.1"/>
<path class="st0" d="M416.7,165.3v21.1"/>
<path class="st0" d="M544.7,540.5V411.3h182.2V542"/>
<path class="st0" d="M544.7,315.7H728"/>
<path class="st0" d="M481.5,186.4v355.7"/>
<path class="st0" d="M415,318.3l16.6-28.8"/>
<path class="st0" d="M415,186.4l16.6,28.8v74.3"/>
<path class="st0" d="M481.5,186.4l62,35.2"/>
<path class="st0" d="M431.6,289.5l49.9,28.8l28.7-17.7"/>
<path class="st0" d="M515.1,297.6l28.3-17.5"/>
<path class="st0" d="M432.3,289.5c0-0.4-0.3-0.8-0.8-0.8s-0.8,0.3-0.8,0.8s0.3,0.8,0.8,0.8S432.3,289.9,432.3,289.5"/>
<path class="st0" d="M432.3,215.2c0-0.4-0.3-0.8-0.8-0.8s-0.8,0.3-0.8,0.8c0,0.4,0.3,0.8,0.8,0.8S432.3,215.6,432.3,215.2"/>
<path class="st0" d="M745.6,422h23.9"/>
<path class="st0" d="M745.6,422v0.2h23.6"/>
<path class="st0" d="M769.2,422.2v7.9h0.3V422"/>
<path class="st0" d="M745.6,428.4v-4.5h7.7v4.5H745.6"/>
<path class="st0" d="M752.7,428.4v-4.5"/>
<path class="st0" d="M752.1,428.4v-4.5"/>
<path class="st0" d="M751.6,428.4v-4.5"/>
<path class="st0" d="M751,428.4v-4.5"/>
<path class="st0" d="M750.4,428.4v-4.5"/>
<path class="st0" d="M749.9,428.4v-4.5"/>
<path class="st0" d="M749.3,428.4v-4.5"/>
<path class="st0" d="M748.7,428.4v-4.5"/>
<path class="st0" d="M748.1,428.4v-4.5"/>
<path class="st0" d="M747.5,428.4v-4.5"/>
<path class="st0" d="M746.9,428.4v-4.5"/>
<path class="st0" d="M746.3,428.4v-4.5"/>
<path class="st0" d="M481.5,542.1l-32.8-32.8l-32.8,32.8"/>
<path class="st0" d="M449.4,509.3c0-0.4-0.3-0.8-0.8-0.8s-0.8,0.3-0.8,0.8s0.3,0.8,0.8,0.8S449.4,509.7,449.4,509.3"/>
<path class="st0" d="M481.5,542.1l31.6-31.6l31.6,31.6"/>
<path class="st0" d="M523.6,390.4l-10.5,40.5l-10.5-40.5l10.5-40.4L523.6,390.4"/>
<path class="st0" d="M523.6,468.9l-10.5,41.6l-10.5-41.6l10.5-38L523.6,468.9"/>
<path class="st0" d="M438.2,470.1h21"/>
<path class="st0" d="M502.6,468.9h21"/>
<path class="st0" d="M502.6,390.4h21"/>
<path class="st0" d="M438.2,391.6h21"/>
<path class="st0" d="M726.9,431.6l42.5,12.9"/>
<path class="st0" d="M811.8,397.1l-20.7,35.8"/>
<path class="st0" d="M745,453.3l24.4-8.8"/>
<path class="st0" d="M793.6,542l-24.4-24.4L726.9,542"/>
<path class="st0" d="M769.2,517.5L745,453.3"/>
<path class="st0" d="M769.9,517.5c0-0.4-0.3-0.8-0.8-0.8s-0.8,0.3-0.8,0.8s0.3,0.8,0.8,0.8S769.9,517.9,769.9,517.5"/>
<path class="st0" d="M793.6,459.1l-24.2-14.6l21.8-11.6"/>
<path class="st0" d="M769.4,444.5l15.7,29.8"/>
<path class="st0" d="M770.1,444.5c0-0.4-0.3-0.8-0.8-0.8c-0.4,0-0.8,0.3-0.8,0.8s0.3,0.8,0.8,0.8
	C769.7,445.2,770.1,444.9,770.1,444.5"/>
<path class="st0" d="M513.8,349.9c0-0.4-0.3-0.8-0.8-0.8s-0.8,0.3-0.8,0.8s0.3,0.8,0.8,0.8S513.8,350.3,513.8,349.9"/>
<path class="st0" d="M513.8,430.8c0-0.4-0.3-0.8-0.8-0.8s-0.8,0.3-0.8,0.8s0.3,0.8,0.8,0.8S513.8,431.2,513.8,430.8"/>
<path class="st0" d="M513.8,510.5c0-0.4-0.3-0.8-0.8-0.8s-0.8,0.3-0.8,0.8s0.3,0.8,0.8,0.8S513.8,510.9,513.8,510.5"/>
<path class="st0" d="M540.3,520.9H438.2"/>
<path class="st0" d="M540.1,520.6H438.5V200.1"/>
<path class="st0" d="M438.2,199.8v321.1"/>
<path class="st0" d="M540.3,363.3v157.6"/>
<path class="st0" d="M540.3,363.3h-0.2v157.3"/>
<path class="st0" d="M540.1,200.1H438.5"/>
<path class="st0" d="M540.3,199.8H438.2"/>
<path class="st0" d="M540.1,200.1v73.3h0.2v-73.6"/>
<path class="st0" d="M733.8,431.6v94.4"/>
<path class="st0" d="M733.8,431.6h-0.3v94.7"/>
<path class="st0" d="M733.8,526.1h44"/>
<path class="st0" d="M733.5,526.4H778v-73.9"/>
<path class="st0" d="M804.9,452.2h-27.2v73.9"/>
<path class="st0" d="M778,452.4h27.2V273.2"/>
<path class="st0" d="M804.9,273.5v178.7"/>
<path class="st0" d="M780.5,273.2h24.7"/>
<path class="st0" d="M780.2,273.5h24.8"/>
<path class="st0" d="M780.5,202.6v70.6"/>
<path class="st0" d="M780.2,202.9v70.6"/>
<path class="st0" d="M733.5,202.6h47"/>
<path class="st0" d="M733.8,202.9h46.4"/>
<path class="st0" d="M545.9,411.3v-94.5h181v46.5"/>
<path class="st0" d="M728,315.7v47.6"/>
<path class="st0" d="M545.9,340.7l45.4-23.9l45.8,24"/>
<path class="st0" d="M637.1,340.8l45.7-24l44.1,23.1"/>
<path class="st0" d="M760.2,362.6v1.5h18v-1.5H760.2"/>
<path class="st0" d="M733.6,362.6h-6.7v69h6.7"/>
<path class="st0" d="M741.1,431.6h40.7v-69h-40.7v1.5h38.3v66h-38.3"/>
<path class="st0" d="M733.6,430.1h-4.3v-66h4.3v-1.5"/>
<path class="st2" d="M752.9,394.6v-1.9L752,394h1.3"/>
<path class="st2" d="M754.2,392.7l-0.2,0.1l-0.1,0.2v0.2l0.1,0.2l0.2,0.1l0.3,0.1l0.3,0.1l0.2,0.2l0.1,0.2v0.2l-0.1,0.2l-0.1,0.1
	l-0.2,0.1h-0.4l-0.2-0.1l-0.1-0.1l-0.1-0.2V394l0.1-0.2l0.2-0.2l0.3-0.1l0.3-0.1l0.2-0.1l0.1-0.2V393l-0.1-0.2l-0.2-0.1H754.2"/>
<path class="st2" d="M756,392.7l-0.2,0.1l-0.2,0.3l-0.1,0.4v0.3l0.1,0.4l0.2,0.3l0.2,0.1h0.2l0.3-0.1l0.2-0.3l0.1-0.4v-0.3l-0.1-0.4
	l-0.2-0.3l-0.3-0.1H756"/>
<path class="st2" d="M751.7,396.2v1.3l0.1,0.3l0.2,0.2l0.2,0.1h0.2l0.3-0.1l0.2-0.2l0.1-0.3v-1.3"/>
<path class="st2" d="M755.1,395.9l-1.6,2.9"/>
<path class="st2" d="M755.6,398.1v-1.9l0.7,1.9l0.7-1.9v1.9"/>
<path class="st2" d="M751.8,401.2v-1.9h0.7l0.2,0.1l0.2,0.2l0.1,0.1l0.1,0.3v0.4l-0.1,0.3l-0.1,0.2l-0.2,0.2l-0.2,0.1H751.8"/>
<path class="st2" d="M754.2,399.3l-0.2,0.1l-0.2,0.2l-0.1,0.1l-0.1,0.3v0.4l0.1,0.3l0.1,0.2l0.2,0.2l0.2,0.1h0.4l0.2-0.1l0.2-0.2
	l0.1-0.2l0.1-0.3v-0.4l-0.1-0.3l-0.1-0.1l-0.2-0.2l-0.2-0.1H754.2"/>
<path class="st2" d="M755.7,401.2v-1.9h1.2"/>
<path class="st2" d="M755.7,400.2h0.7"/>
<path class="st0" d="M734,431.6v-1.5h-0.4v1.5H734"/>
<path class="st0" d="M741.1,431.6v-1.5h-0.4v1.5H741.1"/>
<path class="st0" d="M734,431.6v-1.1"/>
<path class="st0" d="M740.7,431.6v-1.1"/>
<path class="st0" d="M739.8,435c0.6-1,0.9-2.2,0.9-3.4"/>
<path class="st0" d="M739.8,435l0.1-0.2l-5.8-3.4l-0.1,0.2L739.8,435"/>
<path class="st0" d="M745.6,426.2h6.5l-1-0.8"/>
<path class="st0" d="M752.1,426.2l-1,0.8"/>
<path class="st0" d="M743.1,426.8v-1.3h0.4l0.2,0.1l0.1,0.1l0.1,0.1l0.1,0.2v0.3l-0.1,0.2l-0.1,0.1l-0.1,0.1l-0.2,0.1H743.1"/>
<path class="st0" d="M744.4,426.8v-1.3l0.8,1.3v-1.3"/>
<path class="st0" d="M621,290.1v1.3h0.7"/>
<path class="st0" d="M622.4,290.1l-0.1,0.1l-0.1,0.1l-0.1,0.1l-0.1,0.2v0.3l0.1,0.2l0.1,0.1l0.1,0.1l0.1,0.1h0.2l0.1-0.1l0.1-0.1
	l0.1-0.1l0.1-0.2v-0.3l-0.1-0.2l-0.1-0.1l-0.1-0.1l-0.1-0.1H622.4"/>
<path class="st0" d="M623.3,290.1l0.3,1.3l0.3-1.3l0.3,1.3l0.3-1.3"/>
<path class="st0" d="M624.8,291.4v-1.3h0.8"/>
<path class="st0" d="M624.8,291.4h0.8"/>
<path class="st0" d="M625.9,291.4v-1.3h0.5l0.2,0.1l0.1,0.1l0.1,0.1v0.1l-0.1,0.1l-0.1,0.1l-0.2,0.1h-0.5"/>
<path class="st0" d="M626.3,290.7l0.4,0.7"/>
<path class="st0" d="M628.3,291.4v-1.3h0.5l0.2,0.1l0.1,0.1l0.1,0.1v0.1l-0.1,0.1l-0.1,0.1l-0.2,0.1h-0.5"/>
<path class="st0" d="M628.7,290.7l0.4,0.7"/>
<path class="st0" d="M629.9,290.1l-0.1,0.1l-0.1,0.1l-0.1,0.1l-0.1,0.2v0.3l0.1,0.2l0.1,0.1l0.1,0.1l0.1,0.1h0.2l0.1-0.1l0.1-0.1
	l0.1-0.1l0.1-0.2v-0.3l-0.1-0.2l-0.1-0.1l-0.1-0.1l-0.1-0.1H629.9"/>
<path class="st0" d="M631.2,290.1l-0.1,0.1l-0.1,0.1l-0.1,0.1l-0.1,0.2v0.3l0.1,0.2l0.1,0.1l0.1,0.1l0.1,0.1h0.2l0.1-0.1l0.1-0.1
	l0.1-0.1l0.1-0.2v-0.3l-0.1-0.2l-0.1-0.1l-0.1-0.1l-0.1-0.1H631.2"/>
<path class="st0" d="M632.2,291.4v-1.3h0.8"/>
<path class="st0" d="M625.6,478.8v1.3h0.7"/>
<path class="st0" d="M627,478.8l-0.1,0.1l-0.1,0.1l-0.1,0.1l-0.1,0.2v0.3l0.1,0.2l0.1,0.1l0.1,0.1l0.1,0.1h0.2l0.1-0.1l0.1-0.1
	l0.1-0.1l0.1-0.2v-0.3l-0.1-0.2l-0.1-0.1l-0.1-0.1l-0.1-0.1H627"/>
<path class="st0" d="M627.9,478.8l0.3,1.3l0.3-1.3l0.3,1.3l0.3-1.3"/>
<path class="st0" d="M629.4,480v-1.3h0.8"/>
<path class="st0" d="M629.4,480h0.8"/>
<path class="st0" d="M630.5,480v-1.3h0.5l0.2,0.1v0.1l0.1,0.1v0.1l-0.1,0.1v0.1l-0.2,0.1h-0.5"/>
<path class="st0" d="M630.9,479.4l0.4,0.7"/>
<path class="st0" d="M632.9,480v-1.3h0.5l0.2,0.1l0.1,0.1l0.1,0.1v0.1l-0.1,0.1l-0.1,0.1l-0.2,0.1h-0.5"/>
<path class="st0" d="M633.3,479.4l0.4,0.7"/>
<path class="st0" d="M634.5,478.8l-0.1,0.1l-0.1,0.1l-0.1,0.1l-0.1,0.2v0.3l0.1,0.2l0.1,0.1l0.1,0.1l0.1,0.1h0.2l0.1-0.1l0.1-0.1
	l0.1-0.1l0.1-0.2v-0.3l-0.1-0.2L635,479l-0.1-0.1l-0.1-0.1H634.5"/>
<path class="st0" d="M635.8,478.8l-0.1,0.1l-0.1,0.1l-0.1,0.1l-0.1,0.2v0.3l0.1,0.2l0.1,0.1l0.1,0.1l0.1,0.1h0.2l0.1-0.1l0.1-0.1
	l0.1-0.1l0.1-0.2v-0.3l-0.1-0.2l-0.1-0.1l-0.1-0.1l-0.1-0.1H635.8"/>
<path class="st0" d="M636.8,480v-1.3h0.8"/>
<path class="st0" d="M624.8,366.2v1.3h0.7"/>
<path class="st0" d="M626.1,366.2l-0.1,0.1l-0.1,0.1l-0.1,0.1l-0.1,0.2v0.3l0.1,0.2l0.1,0.1l0.1,0.1l0.1,0.1h0.2l0.1-0.1l0.1-0.1
	l0.1-0.1l0.1-0.2v-0.3l-0.1-0.2l-0.1-0.1l-0.1-0.1l-0.1-0.1H626.1"/>
<path class="st0" d="M627.1,366.2l0.3,1.3l0.3-1.3l0.3,1.3l0.3-1.3"/>
<path class="st0" d="M628.5,367.4v-1.3h0.8"/>
<path class="st0" d="M628.5,367.4h0.8"/>
<path class="st0" d="M629.7,367.4v-1.3h0.5l0.2,0.1l0.1,0.1l0.1,0.1v0.1l-0.1,0.1l-0.1,0.1l-0.2,0.1h-0.5"/>
<path class="st0" d="M630.1,366.8l0.4,0.7"/>
<path class="st0" d="M632.1,367.4v-1.3h0.5l0.2,0.1l0.1,0.1l0.1,0.1v0.1l-0.1,0.1l-0.1,0.1l-0.2,0.1h-0.5"/>
<path class="st0" d="M632.5,366.8l0.4,0.7"/>
<path class="st0" d="M633.7,366.2l-0.1,0.1l-0.1,0.1l-0.1,0.1l-0.1,0.2v0.3l0.1,0.2l0.1,0.1l0.1,0.1l0.1,0.1h0.2l0.1-0.1l0.1-0.1
	l0.1-0.1l0.1-0.2v-0.3l-0.1-0.2l-0.1-0.1l-0.1-0.1l-0.1-0.1H633.7"/>
<path class="st0" d="M635,366.2l-0.1,0.1l-0.1,0.1l-0.1,0.1l-0.1,0.2v0.3l0.1,0.2l0.1,0.1l0.1,0.1l0.1,0.1h0.2l0.1-0.1l0.1-0.1
	l0.1-0.1l0.1-0.2v-0.3l-0.1-0.2l-0.1-0.1l-0.1-0.1l-0.1-0.1H635"/>
<path class="st0" d="M636,367.4v-1.3h0.8"/>
<path class="st0" d="M492.2,239.1h-6.7"/>
<path class="st0" d="M490.1,252.8h-4.5H490.1v-2.5h-4.5v2.5"/>
<path class="st0" d="M485.6,252.3h4.5"/>
<path class="st0" d="M485.6,251.7h4.5"/>
<path class="st0" d="M485.6,251.1h4.5"/>
<path class="st0" d="M492.2,239.3h-6.4v13.5h-0.3v-13.7h6.7"/>
<path class="st0" d="M492.2,250.3h-2.2v2.5h-0.3v-2.8h2.5"/>
<path class="st0" d="M515.1,252.6h6.8"/>
<path class="st0" d="M521.9,236.8h-6.8"/>
<path class="st0" d="M517.4,255.1h4.5v-2.5h-4.5V255.1h4.5"/>
<path class="st0" d="M521.9,254.5h-4.5"/>
<path class="st0" d="M521.9,253.9h-4.5"/>
<path class="st0" d="M521.9,253.4h-4.5"/>
<path class="st0" d="M521.9,255.1v-18.3"/>
<path class="st0" d="M521.9,255.1h-0.3v-18"/>
<path class="st0" d="M521.9,236.8h-6.8"/>
<path class="st0" d="M521.6,237.1h-6.5"/>
<path class="st0" d="M517.7,255.1v-2.8"/>
<path class="st0" d="M517.7,255.1h-0.3v-2.5"/>
<path class="st0" d="M517.7,252.3h-2.5"/>
<path class="st0" d="M517.4,252.6h-2.2"/>
<path class="st0" d="M438.6,454.9l0.5-1.3l0.5,1.3"/>
<path class="st0" d="M438.8,454.5h0.6"/>
<path class="st0" d="M440.8,453.9l-0.1-0.1l-0.1-0.1l-0.1-0.1h-0.2l-0.1,0.1l-0.1,0.1l-0.1,0.1l-0.1,0.2v0.3l0.1,0.2l0.1,0.1
	l0.1,0.1l0.1,0.1h0.2l0.1-0.1l0.1-0.1l0.1-0.1"/>
<path class="st0" d="M442.1,453.9l-0.1-0.1l-0.1-0.1l-0.1-0.1h-0.2l-0.1,0.1l-0.1,0.1l-0.1,0.1l-0.1,0.2v0.3l0.1,0.2l0.1,0.1
	l0.1,0.1l0.1,0.1h0.2l0.1-0.1l0.1-0.1l0.1-0.1"/>
<path class="st0" d="M442.4,454.9v-1.3h0.8"/>
<path class="st0" d="M442.4,454.9h0.8"/>
<path class="st0" d="M444.4,453.8l-0.1-0.1l-0.2-0.1h-0.2l-0.2,0.1l-0.1,0.1v0.1l0.1,0.1l0.1,0.1l0.1,0.1l0.4,0.1l0.1,0.1l0.1,0.1
	l0.1,0.1v0.2l-0.1,0.1l-0.2,0.1h-0.2l-0.2-0.1l-0.1-0.1"/>
<path class="st0" d="M445.6,453.8l-0.1-0.1l-0.2-0.1h-0.2l-0.2,0.1l-0.1,0.1v0.1l0.1,0.1l0.1,0.1l0.1,0.1l0.4,0.1l0.1,0.1l0.1,0.1
	l0.1,0.1v0.2l-0.1,0.1l-0.2,0.1h-0.2l-0.2-0.1l-0.1-0.1"/>
<path class="st0" d="M447.1,454.9v-1.3h0.4l0.2,0.1l0.1,0.1l0.1,0.1l0.1,0.2v0.3l-0.1,0.2l-0.1,0.1l-0.1,0.1l-0.2,0.1H447.1"/>
<path class="st0" d="M448.4,454.9v-1.3l0.8,1.3v-1.3"/>
<path class="st0" d="M515.1,271.2V247"/>
<path class="st0" d="M515.1,240.3v-34.8"/>
<path class="st0" d="M492.2,205.5v34.8"/>
<path class="st0" d="M492.2,247.1v24.1"/>
<path class="st0" d="M485.5,240.3h7"/>
<path class="st0" d="M521.7,240.3h-7"/>
<path class="st2" d="M502.1,235.9V234l-0.9,1.3h1.4"/>
<path class="st2" d="M503.1,234.5L503.1,234.5l0.1-0.2l0.1-0.1l0.2-0.1h0.4l0.1,0.1l0.1,0.1l0.1,0.2v0.2l-0.1,0.2l-0.2,0.2l-0.9,0.9
	h1.3"/>
<path class="st2" d="M505.3,234l-0.3,0.1l-0.2,0.3l-0.1,0.4v0.3l0.1,0.4l0.2,0.3l0.3,0.1h0.2l0.2-0.1l0.2-0.3l0.1-0.4v-0.3l-0.1-0.4
	l-0.2-0.3l-0.2-0.1H505.3"/>
<path class="st2" d="M500.9,237.5v1.3l0.1,0.3l0.2,0.2l0.3,0.1h0.2l0.2-0.1l0.2-0.2l0.1-0.3v-1.3"/>
<path class="st2" d="M504.3,237.2l-1.6,2.8"/>
<path class="st2" d="M504.8,239.4v-1.9l0.7,1.9l0.7-1.9v1.9"/>
<path class="st2" d="M501.1,242.5v-1.9h0.6l0.3,0.1l0.2,0.2l0.1,0.2l0.1,0.3v0.4l-0.1,0.3l-0.1,0.2l-0.2,0.2l-0.3,0.1H501.1"/>
<path class="st2" d="M503.4,240.6l-0.2,0.1l-0.2,0.2l-0.1,0.2l-0.1,0.3v0.4l0.1,0.3l0.1,0.2l0.2,0.2l0.2,0.1h0.4l0.1-0.1l0.2-0.2
	l0.1-0.2l0.1-0.3v-0.4l-0.1-0.3l-0.1-0.2l-0.2-0.2l-0.1-0.1H503.4"/>
<path class="st2" d="M504.9,242.5v-1.9h1.1"/>
<path class="st2" d="M504.9,241.5h0.7"/>
<path class="st2" d="M31.1,757.2v1.1"/>
<path class="st2" d="M31.3,757.2v1.1"/>
<path class="st2" d="M31.2,758.3v-1.1"/>
<path class="st2" d="M31.2,757.2v1.1"/>
<path class="st2" d="M31.5,757h-0.6"/>
<path class="st2" d="M29.7,756.5v2.4"/>
<path class="st2" d="M29.7,756.5v2.3"/>
<path class="st2" d="M29.8,758.3h3"/>
<path class="st2" d="M32.8,758.4h-3"/>
<path class="st2" d="M29.8,758.4h3"/>
<path class="st2" d="M32.8,758.5h-3"/>
<path class="st2" d="M29.8,758.6h3"/>
<path class="st2" d="M32.8,758.6h-3"/>
<path class="st2" d="M29.8,758.7h3h-0.1"/>
<path class="st2" d="M29.8,758.4h3"/>
<path class="st2" d="M32.9,758v0.9"/>
<path class="st2" d="M32.9,758.1v0.7"/>
<path class="st2" d="M31.3,758.3h1.3l0.1-0.1h0.1l0.1-0.1v-0.3"/>
<path class="st2" d="M29.6,759.2L29.6,759.2l0.1-0.2l0.1-0.1l0.1-0.1h0.1l0.1-0.1"/>
<path class="st2" d="M32.9,758.9L32.9,758.9l-0.1-0.1l-0.1-0.1H30"/>
<path class="st2" d="M32.9,759.2L32.9,759.2l0.1-1.3"/>
<path class="st2" d="M29.6,756.5v2.7"/>
<path class="st2" d="M31.1,757.1L31.1,757.1l-0.1-0.1h-0.4v-0.1h1.3"/>
<path class="st2" d="M31.1,757.4v0.9"/>
<path class="st2" d="M31.8,756.9L31.8,756.9l-0.4,0.1v0.1h-0.1l-0.1,0.1l-0.1,0.2v0.9"/>
<path class="st2" d="M29.8,758.3h1.3"/>
<path class="st2" d="M29.6,756.5h0.8v0.1h-0.2l-0.1,0.1l-0.1,0.1l-0.1,0.1l-0.1,0.1v1.4"/>
<path class="st2" d="M30,755.4h2.6"/>
<path class="st2" d="M30,755.4l-0.1-0.1h-0.1l-0.1-0.1l-0.1-0.1V755"/>
<path class="st2" d="M29.7,756.3L29.7,756.3l-0.1-1.3"/>
<path class="st2" d="M32.9,755v1.3h-0.1"/>
<path class="st2" d="M30,755.9h2.6"/>
<path class="st2" d="M32.6,755.9l0.1,0.1h0.1l0.1,0.1v0.3"/>
<path class="st2" d="M29.7,755.3v0.7"/>
<path class="st2" d="M29.7,755.3v0.9"/>
<path class="st2" d="M29.7,755.5h3.1"/>
<path class="st2" d="M32.8,755.6h-3.1"/>
<path class="st2" d="M29.7,755.7h3.1H29.7"/>
<path class="st2" d="M29.7,755.7h3.1"/>
<path class="st2" d="M32.8,755.8h-3.1"/>
<path class="st2" d="M29.7,755.9h3.1h-0.1"/>
<path class="st2" d="M29.7,755.6h3.1"/>
<path class="st2" d="M32.9,755.3v0.9"/>
<path class="st2" d="M32.9,755.3v0.7"/>
<path class="st2" d="M32.5,753.9h0.1l0.1-0.1l0.1-0.1V753l-0.1-0.2l-0.1-0.2l-0.3-0.3l-0.2-0.1v-0.1l0.8,0.3"/>
<path class="st2" d="M29.6,753.5v1.4"/>
<path class="st2" d="M32.9,752.4v2.5h-0.1"/>
<path class="st2" d="M30,754.5h2.6"/>
<path class="st2" d="M32.6,754.5h0.1l0.1,0.1l0.1,0.1v0.3"/>
<path class="st2" d="M30,754.5h-0.1l-0.2,0.2v0.2h-0.1"/>
<path class="st2" d="M29.6,753.5L29.6,753.5l0.1,0.3l0.1,0.1h0.1l0.1,0.1h2.6"/>
<path class="st2" d="M29.9,754.4l-0.1,0.1v-0.5l0.1,0.1"/>
<path class="st2" d="M29.7,753.9v0.7"/>
<path class="st2" d="M29.7,753.8v1"/>
<path class="st2" d="M29.8,754.4h2.9"/>
<path class="st2" d="M29.8,754.4h2.9"/>
<path class="st2" d="M29.8,754.3h2.9"/>
<path class="st2" d="M29.8,754.2h2.9"/>
<path class="st2" d="M29.8,754.2h2.9"/>
<path class="st2" d="M29.8,754.1h2.9"/>
<path class="st2" d="M29.8,754.1h2.9"/>
<path class="st2" d="M29.8,754h2.9"/>
<path class="st2" d="M32.7,753.9v0.6"/>
<path class="st2" d="M32.8,752.4v2"/>
<path class="st2" d="M32.9,754.7v-2.2v2.1"/>
<path class="st2" d="M31.5,749.9h-0.6"/>
<path class="st2" d="M32.8,751.7v-0.6"/>
<path class="st2" d="M32.9,751.8v-2.2v2.3"/>
<path class="st2" d="M29.8,751.7h2.8"/>
<path class="st2" d="M32.6,751.6h-2.8"/>
<path class="st2" d="M29.8,751.5h2.8"/>
<path class="st2" d="M32.6,751.5h-2.8"/>
<path class="st2" d="M29.8,751.4h2.8"/>
<path class="st2" d="M32.6,751.4h-2.8"/>
<path class="st2" d="M29.8,751.3h2.8"/>
<path class="st2" d="M29.8,751.2h2.8"/>
<path class="st2" d="M29.7,749.6v2.2"/>
<path class="st2" d="M29.7,749.6v2.2"/>
<path class="st2" d="M31.2,750.2v1"/>
<path class="st2" d="M31.2,751.2v-1"/>
<path class="st2" d="M31.3,750.2v1"/>
<path class="st2" d="M31.1,750.2v1"/>
<path class="st2" d="M31.1,751.2h-1.3V750l0.1-0.2l0.1-0.1l0.1-0.1l0.1-0.1l0.2-0.1v-0.1l-0.8,0.1"/>
<path class="st2" d="M31.8,749.9L31.8,749.9l-0.4,0.1v0.1l-0.1,0.1l-0.1,0.1l-0.1,0.1v0.9"/>
<path class="st2" d="M32.6,751.2h0.1l0.1-0.1l0.1-0.1v-0.8l-0.1-0.2l-0.1-0.2l-0.1-0.2l-0.2-0.1"/>
<path class="st2" d="M31.1,750.3v0.9"/>
<path class="st2" d="M32.9,749.6l-0.8-0.3v0.1l0.2,0.1"/>
<path class="st2" d="M31.8,749.9h-1.3v0.1h0.4l0.1,0.1"/>
<path class="st2" d="M29.6,749.6v2.5"/>
<path class="st2" d="M32.9,749.6v2.5h-0.1"/>
<path class="st2" d="M30,751.7h2.6"/>
<path class="st2" d="M32.6,751.7l0.1,0.1h0.1l0.1,0.1v0.3"/>
<path class="st2" d="M30,751.7l-0.1,0.1h-0.1l-0.1,0.1v0.2h-0.1"/>
<path class="st2" d="M31.3,751.2h1.3"/>
<path class="st2" d="M33.2,749.1v-2.2V749.1H33v-2.2"/>
<path class="st2" d="M33.2,746.9v2.2"/>
<path class="st2" d="M33.1,749.1v-2.2"/>
<path class="st2" d="M33,746.9v2.2"/>
<path class="st2" d="M30,745.7h2.6"/>
<path class="st2" d="M30,745.7l-0.1-0.1h-0.1l-0.1-0.1l-0.1-0.1v-0.2"/>
<path class="st2" d="M29.7,746.6L29.7,746.6l-0.1-1.3"/>
<path class="st2" d="M32.9,745.3v1.3h-0.1"/>
<path class="st2" d="M30,746.2h2.6"/>
<path class="st2" d="M32.6,746.2l0.1,0.1h0.1l0.1,0.1v0.3"/>
<path class="st2" d="M29.7,745.6v0.7"/>
<path class="st2" d="M29.7,745.5v0.9"/>
<path class="st2" d="M29.7,745.8h3.1"/>
<path class="st2" d="M32.8,745.8h-3.1"/>
<path class="st2" d="M29.7,745.9h3.1"/>
<path class="st2" d="M32.8,746h-3.1"/>
<path class="st2" d="M29.7,746h3.1"/>
<path class="st2" d="M32.8,746.1h-3.1"/>
<path class="st2" d="M29.7,746.1h3.1h-0.1"/>
<path class="st2" d="M29.7,745.8h3.1"/>
<path class="st2" d="M32.9,745.5v0.9"/>
<path class="st2" d="M32.9,745.6v0.7"/>
<path class="st2" d="M32.5,742.4H32"/>
<path class="st2" d="M31.8,742.4h0.7"/>
<path class="st2" d="M30.8,742.4h-0.6"/>
<path class="st2" d="M31.7,741.8h-0.8"/>
<path class="st2" d="M30.8,741.9H32"/>
<path class="st2" d="M32,741.9h-1.4"/>
<path class="st2" d="M30.5,742h1.7"/>
<path class="st2" d="M32.2,742.1h-1.8"/>
<path class="st2" d="M30.3,742.1h2"/>
<path class="st2" d="M32.4,742.2h-2.2"/>
<path class="st2" d="M30.2,742.2h2.3"/>
<path class="st2" d="M32.5,742.2h-2.3"/>
<path class="st2" d="M32.5,742.3h-2.3"/>
<path class="st2" d="M32.7,744.7h-2.8"/>
<path class="st2" d="M29.9,744.6h2.8"/>
<path class="st2" d="M29.9,744.6h2.8"/>
<path class="st2" d="M29.9,744.5h2.8"/>
<path class="st2" d="M29.9,744.5h2.8"/>
<path class="st2" d="M29.9,744.4h2.8"/>
<path class="st2" d="M29.9,744.3h2.8"/>
<path class="st2" d="M29.9,744.3h2.8"/>
<path class="st2" d="M29.8,742.8v1.9"/>
<path class="st2" d="M29.7,743v1.8"/>
<path class="st2" d="M29.7,743.2v1.7"/>
<path class="st2" d="M29.9,742.7v0.7"/>
<path class="st2" d="M29.9,744.8v-0.6"/>
<path class="st2" d="M29.9,742.6v0.6"/>
<path class="st2" d="M30,742.5v0.6"/>
<path class="st2" d="M30,742.4v0.5"/>
<path class="st2" d="M30.1,742.3v0.6"/>
<path class="st2" d="M32.6,742.3v0.6"/>
<path class="st2" d="M32.6,743v-0.6"/>
<path class="st2" d="M32.7,743.1v-0.7"/>
<path class="st2" d="M32.7,743.2v-0.7"/>
<path class="st2" d="M32.8,743.4v-0.8"/>
<path class="st2" d="M32.9,744.8v-2"/>
<path class="st2" d="M32.9,744.9V743"/>
<path class="st2" d="M32.8,744.8V744"/>
<path class="st2" d="M32.7,744.8v-0.5"/>
<path class="st2" d="M32.7,744.2l0.1-0.2l0.1-0.1v-0.4l-0.1-0.2"/>
<path class="st2" d="M32.9,743.3v-0.2l-0.1-0.1v-0.2"/>
<path class="st2" d="M32.7,743.3l-0.1-0.2l-0.1-0.1l-0.1-0.1l-0.1-0.1l-0.1-0.2l-0.2-0.1l-0.1-0.1l-0.1-0.1"/>
<path class="st2" d="M32.9,742.8l-0.2-0.4l-0.2-0.2l-0.2-0.2l-0.1-0.1"/>
<path class="st2" d="M32,741.9l-0.4-0.1H31"/>
<path class="st2" d="M32,742.4l-0.2-0.1h-0.7"/>
<path class="st2" d="M31.1,742.4h-0.2l-0.2,0.1l-0.2,0.1"/>
<path class="st2" d="M30,742.4l-0.1,0.1l-0.1,0.2l-0.1,0.1l-0.1,0.1l-0.1,0.2"/>
<path class="st2" d="M29.9,743.2l-0.1,0.2l-0.1,0.2v0.4l0.1,0.2v0.1"/>
<path class="st2" d="M29.7,743v0.3l-0.1,0.3v0.2l0.1,0.4"/>
<path class="st2" d="M29.9,744.2h2.8"/>
<path class="st2" d="M29.6,745.2L29.6,745.2l0.1-0.3h0.1l0.1-0.1l0.1-0.1H30"/>
<path class="st2" d="M32.9,744.9L32.9,744.9l-0.1-0.1H30"/>
<path class="st2" d="M29.7,744.2v0.3l-0.1,0.7"/>
<path class="st2" d="M32.9,745.2L32.9,745.2l0.1-1.9"/>
<path class="st2" d="M32,738.6c0-0.1-0.1-0.3-0.3-0.3c-0.2,0-0.3,0.1-0.3,0.3"/>
<path class="st2" d="M31.4,738.6c0,0.1,0.1,0.3,0.3,0.3c0.1,0,0.3-0.1,0.3-0.3"/>
<path class="st2" d="M30.7,738.6c0-0.1-0.1-0.3-0.3-0.3c-0.1,0-0.3,0.1-0.3,0.3"/>
<path class="st2" d="M30.2,738.6c0,0.1,0.1,0.3,0.3,0.3c0.1,0,0.3-0.1,0.3-0.3"/>
<path class="st2" d="M30.7,738.6h-0.5H30.7"/>
<path class="st2" d="M32,738.6h-0.5H32"/>
<path class="st2" d="M27.3,703h1169.9V23.5H27.3V703"/>
<path d="M339.2,761.7l-0.5-0.5L27,761.7H339.2 M338.7,761.2L27,761.7l0.6-0.5H338.7 M27,761.7l0.6-0.5l-0.6-54V761.7 M27.6,761.2
	l-0.6-54l0.6,0.5V761.2 M27,707.2l0.6,0.5l311.6-0.5H27 M27.6,707.7l311.6-0.5l-0.5,0.5H27.6 M339.2,707.2l-0.5,0.5l0.5,54V707.2
	 M338.7,707.7l0.5,54l-0.5-0.5V707.7"/>
<path class="st3" d="M339.2,761.7l-0.5-0.5L27,761.7H339.2 M338.7,761.2L27,761.7l0.6-0.5H338.7 M27,761.7l0.6-0.5l-0.6-54V761.7
	 M27.6,761.2l-0.6-54l0.6,0.5V761.2 M27,707.2l0.6,0.5l311.6-0.5H27 M27.6,707.7l311.6-0.5l-0.5,0.5H27.6 M339.2,707.2l-0.5,0.5
	l0.5,54V707.2 M338.7,707.7l0.5,54l-0.5-0.5V707.7"/>
<path class="st4" d="M1139.1,761.7l-0.6-0.5l-215.9,0.5H1139.1 M1138.5,761.2l-215.9,0.5l0.5-0.5H1138.5 M922.5,761.7l0.5-0.5
	l-0.5-54V761.7 M923.1,761.2l-0.5-54l0.5,0.5V761.2 M922.5,707.2l0.5,0.5l216-0.5H922.5 M923.1,707.7l216-0.5l-0.6,0.5H923.1
	 M1139.1,707.2l-0.6,0.5l0.6,54V707.2 M1138.5,707.7l0.6,54l-0.6-0.5V707.7"/>
<path d="M1143.6,761.2l-0.6,0.5l54-0.5H1143.6 M1143,761.7l54-0.5l0.6,0.5H1143 M1197,761.2l0.6,0.5l-0.6-54V761.2 M1197.6,761.7
	l-0.6-54l0.6-0.5V761.7 M1197,707.7l0.6-0.5l-54,0.5H1197 M1197.6,707.2l-54,0.5l-0.6-0.5H1197.6 M1143.6,707.7l-0.6-0.5l0.6,54
	V707.7 M1143,707.2l0.6,54l-0.6,0.5V707.2"/>
<path class="st3" d="M1143.6,761.2l-0.6,0.5l54-0.5H1143.6 M1143,761.7l54-0.5l0.6,0.5H1143 M1197,761.2l0.6,0.5l-0.6-54V761.2
	 M1197.6,761.7l-0.6-54l0.6-0.5V761.7 M1197,707.7l0.6-0.5l-54,0.5H1197 M1197.6,707.2l-54,0.5l-0.6-0.5H1197.6 M1143.6,707.7
	l-0.6-0.5l0.6,54V707.7 M1143,707.2l0.6,54l-0.6,0.5V707.2"/>
<path class="st5" d="M752.1,761.2l-0.5,0.5l108-0.5H752.1 M751.5,761.7l108-0.5l0.5,0.5H751.5 M859.5,761.2l0.5,0.5l-0.5-54V761.2
	 M860.1,761.7l-0.5-54l0.5-0.5V761.7 M859.5,707.7l0.5-0.5l-108,0.5H859.5 M860.1,707.2l-108,0.5l-0.5-0.5H860.1 M752.1,707.7
	l-0.5-0.5l0.5,54V707.7 M751.5,707.2l0.5,54l-0.5,0.5V707.2"/>
<path class="st2" d="M720.3,714.2v47.3"/>
<path class="st2" d="M634.3,714.2v47.3"/>
<path class="st4" d="M564.2,761.2l-0.5,0.5l54-0.5H564.2 M563.7,761.7l54-0.5l0.5,0.5H563.7 M617.7,761.2l0.5,0.5l-0.5-54V761.2
	 M618.2,761.7l-0.5-54l0.5-0.5V761.7 M617.7,707.7l0.5-0.5l-54,0.5H617.7 M618.2,707.2l-54,0.5l-0.5-0.5H618.2 M564.2,707.7
	l-0.5-0.5l0.5,54V707.7 M563.7,707.2l0.5,54l-0.5,0.5V707.2"/>
<path class="st2" d="M622.8,714.2h124.5"/>
<path class="st2" d="M622.8,721h124.5"/>
<path class="st2" d="M622.8,727.7h124.5"/>
<path class="st2" d="M622.8,734.5h124.5"/>
<path class="st2" d="M622.8,741.2h124.5"/>
<path class="st2" d="M622.8,748h124.5"/>
<path class="st2" d="M622.8,754.7h124.5"/>
<path class="st4" d="M622.7,761.2l-0.5,0.5l124.9-0.5H622.7 M622.2,761.7l124.9-0.5l0.5,0.5H622.2 M747,761.2l0.5,0.5l-0.5-54V761.2
	 M747.6,761.7l-0.5-54l0.5-0.5V761.7 M747,707.7l0.5-0.5l-124.9,0.5H747 M747.6,707.2l-124.9,0.5l-0.5-0.5H747.6 M622.7,707.7
	l-0.5-0.5l0.5,54V707.7 M622.2,707.2l0.5,54l-0.5,0.5V707.2"/>
<path class="st4" d="M864.6,761.2l-0.5,0.5l54-0.5H864.6 M864,761.7l54-0.5l0.5,0.5H864 M918,761.2l0.5,0.5l-0.5-54V761.2
	 M918.6,761.7l-0.5-54l0.5-0.5V761.7 M918,707.7l0.5-0.5l-54,0.5H918 M918.6,707.2l-54,0.5l-0.5-0.5H918.6 M864.6,707.7l-0.5-0.5
	l0.5,54V707.7 M864,707.2l0.5,54l-0.5,0.5V707.2"/>
<path class="st5" d="M559.7,761.7l-0.5-0.5l-216,0.5H559.7 M559.2,761.2l-216,0.5l0.5-0.5H559.2 M343.2,761.7l0.5-0.5l-0.5-54V761.7
	 M343.7,761.2l-0.5-54l0.5,0.5V761.2 M343.2,707.2l0.5,0.5l216-0.5H343.2 M343.7,707.7l216-0.5l-0.5,0.5H343.7 M559.7,707.2
	l-0.5,0.5l0.5,54V707.2 M559.2,707.7l0.5,54l-0.5-0.5V707.7"/>
<path class="st2" d="M27.3,703h1169.9V23.5H27.3V703"/>
<path class="st4" d="M890.6,729.6l1.5,0.7l4.1-13L890.6,729.6 M892.1,730.3l4.1-13l1.5,0.7L892.1,730.3"/>
<path class="st2" d="M903.5,735.6c3.1-6.8,0.1-14.8-6.7-17.8c-6.8-3.1-14.8-0.1-17.8,6.7s-0.1,14.8,6.7,17.8
	S900.4,742.3,903.5,735.6"/>
<path class="st2" d="M896.9,717.7l-11.2,24.5"/>
<path class="st2" d="M879,724.4l24.5,11.2"/>
<path class="st2" d="M398.6,739h108v-9h-108V739"/>
<path class="st2" d="M398.6,734.5h108"/>
<path class="st4" d="M506.6,734.5h-36l36,4.5V734.5 M470.6,734.5l36,4.5h-36V734.5"/>
<path class="st4" d="M470.6,730h-36l36,4.5V730 M434.6,730l36,4.5h-36V730"/>
<path class="st4" d="M434.6,734.5h-18l18,4.5V734.5 M416.6,734.5l18,4.5h-18V734.5"/>
<path class="st4" d="M416.6,730h-18l18,4.5V730 M398.6,730l18,4.5h-18V730"/>
<path class="st2" d="M398.6,739v2.2"/>
<path class="st2" d="M416.6,739v-9"/>
<path class="st2" d="M434.6,741.2V730"/>
<path class="st2" d="M470.6,741.2V730"/>
<path class="st2" d="M506.6,739v2.2"/>
</svg>
