<?xml version="1.0" encoding="utf-8"?>
<!-- Generator: Adobe Illustrator 26.4.1, SVG Export Plug-In . SVG Version: 6.00 Build 0)  -->
<svg version="1.1" id="Layer_1" xmlns:ev="http://www.w3.org/2001/xml-events"
	 xmlns="http://www.w3.org/2000/svg" xmlns:xlink="http://www.w3.org/1999/xlink" width="1224pt" height="792pt" viewBox="0 0 1224 792"
	 style="enable-background:new 0 0 1224 792;" xml:space="preserve">
<style type="text/css">
	.st0{fill:none;stroke:#000000;stroke-width:6.000000e-02;stroke-linecap:round;stroke-linejoin:round;stroke-miterlimit:10;}
	.st1{fill:none;stroke:#000000;stroke-width:0.24;stroke-linecap:round;stroke-linejoin:round;stroke-miterlimit:10;}
	.st2{stroke:#000000;stroke-width:0.12;stroke-linecap:round;stroke-miterlimit:10;}
	.st3{stroke:#000000;stroke-width:0.12;stroke-miterlimit:10;}
</style>
<path d="M0.6,0v-3H3v3H0.6 M0.7-0.1h2.2v-2.8H0.7V-0.1"/>
<path d="M0.4-2v-0.5h0.5V-2H0.4 M0.4,0v-0.5h0.5V0H0.4"/>
<path d="M0.4,0v-3.4h1.2c0.3,0,0.5,0,0.6,0c0.2,0,0.4,0.1,0.5,0.2C2.8-2.9,2.9-2.7,3-2.5S3.2-2,3.2-1.7c0,0.2,0,0.5-0.1,0.7
	C3-0.8,2.9-0.7,2.8-0.5c0,0.1-0.2,0.2-0.3,0.3S2.3-0.1,2.1,0C2,0,1.8,0,1.6,0H0.4 M0.8-0.4h0.7c0.2,0,0.4,0,0.5,0
	c0.1,0,0.2-0.1,0.3-0.2S2.5-0.8,2.5-1c0.1-0.2,0.1-0.4,0.1-0.7c0-0.4-0.1-0.6-0.2-0.8c0-0.2-0.1-0.3-0.3-0.4C2-3,1.8-3,1.5-3H0.8
	V-0.4"/>
<path d="M0,0l1.3-3.4h0.5L3.2,0H2.6L2.2-1H0.8L0.5,0H0 M1-1.4h1.1L1.8-2.3C1.6-2.6,1.6-2.8,1.5-3c0,0.2-0.1,0.4-0.2,0.6L1-1.4"/>
<path d="M1.2,0v-3H0.1v-0.4h2.7V-3H1.7v3H1.2"/>
<path d="M0.4,0v-3.4h2.4V-3h-2v1h1.9v0.4H0.8v1.1h2.1V0H0.4"/>
<path d="M0.4,0v-3.4h1.5c0.3,0,0.5,0,0.7,0.1C2.7-3.2,2.8-3.1,2.9-3S3-2.7,3-2.5C3.1-2.2,3-2,2.8-1.8C2.7-1.7,2.4-1.6,2.1-1.5
	c0.1,0.1,0.2,0.1,0.3,0.2S2.6-1,2.8-0.8L3.3,0H2.8L2.3-0.7C2.2-0.9,2.1-1.1,2-1.2C1.9-1.3,1.9-1.3,1.8-1.4c-0.1,0-0.1-0.1-0.2-0.1
	c0,0-0.1,0-0.2,0H0.8V0H0.4 M0.8-1.9h1c0.2,0,0.4,0,0.5-0.1c0.1,0,0.2-0.1,0.3-0.2c0.1-0.1,0.1-0.2,0.1-0.3c0-0.2-0.1-0.3-0.2-0.4
	C2.3-2.9,2.1-3,1.9-3H0.8V-1.9"/>
<path d="M1,0L0.1-3.4h0.5L1-1.2C1.1-1,1.1-0.7,1.1-0.5C1.3-0.8,1.3-1,1.3-1.1L2-3.4h0.5L3-1.7c0.1,0.4,0.2,0.8,0.3,1.2
	c0-0.2,0.1-0.5,0.2-0.7L4-3.4h0.5L3.5,0H3L2.3-2.6c0-0.2-0.1-0.3-0.1-0.4c0,0.2-0.1,0.3-0.1,0.4L1.4,0H1"/>
<path d="M0.4,0v-3.4h0.5l1.8,2.7v-2.7H3V0H2.6L0.8-2.7V0H0.4"/>
<path d="M0.4,0v-3.4h1.3c0.2,0,0.4,0,0.5,0c0.2,0,0.3,0.1,0.4,0.2S2.8-3,2.8-2.9c0.1,0.1,0.1,0.3,0.1,0.5c0,0.3-0.1,0.5-0.3,0.7
	s-0.5,0.3-1,0.3H0.8V0H0.4 M0.8-1.8h0.9C2-1.8,2.2-1.9,2.3-2c0.1,0,0.2-0.2,0.2-0.4c0-0.1,0-0.3-0.1-0.4C2.3-2.9,2.2-2.9,2.1-3
	C2-3,1.9-3,1.7-3H0.8V-1.8"/>
<path d="M0.2-1.6c0-0.6,0.1-1,0.4-1.3C1-3.3,1.4-3.4,1.8-3.4c0.3,0,0.6,0.1,0.8,0.2C2.8-3.1,3-2.8,3.2-2.6C3.4-2.3,3.5-2,3.5-1.7
	S3.4-1,3.3-0.8C3.1-0.5,2.9-0.3,2.7-0.1C2.4,0,2.1,0.1,1.8,0.1S1.2,0,1-0.2S0.5-0.5,0.4-0.8S0.2-1.3,0.2-1.6 M0.7-1.6
	c0,0.4,0.1,0.7,0.3,1c0.2,0.2,0.5,0.3,0.8,0.3s0.6-0.1,0.8-0.3C2.9-0.9,3-1.2,3-1.7C3-2,3-2.2,2.9-2.4C2.8-2.6,2.6-2.8,2.5-2.9
	C2.3-3,2.1-3,1.8-3S1.3-2.9,1-2.7C0.8-2.5,0.7-2.1,0.7-1.6"/>
<path d="M0.1-1h0.4c0,0.3,0.1,0.4,0.1,0.5C0.8-0.4,0.9-0.3,1-0.3s0.2,0,0.3-0.1c0.1-0.1,0.1-0.1,0.2-0.2c0-0.1,0-0.2,0-0.4v-2.3H2
	V-1c0,0.3,0,0.5-0.1,0.7c-0.1,0-0.2,0.2-0.3,0.2C1.4,0,1.2,0.1,1,0.1C0.7,0.1,0.5,0,0.4-0.2C0.2-0.4,0.1-0.6,0.1-1"/>
<path d="M2.8-1.2l0.4,0.1C3.1-0.7,3-0.4,2.7-0.2C2.5,0,2.2,0.1,1.8,0.1C1.5,0.1,1.2,0,0.9-0.2C0.7-0.3,0.5-0.5,0.4-0.8
	S0.2-1.4,0.2-1.7s0.1-0.6,0.2-0.9C0.6-2.9,0.8-3.1,1-3.2c0.2-0.1,0.5-0.2,0.8-0.2s0.6,0.1,0.9,0.3C2.9-3,3.1-2.8,3.2-2.5L2.7-2.3
	C2.6-2.6,2.5-2.8,2.4-2.9C2.2-3,2-3,1.8-3S1.3-3,1.2-2.9C1-2.7,0.9-2.6,0.8-2.4C0.7-2.1,0.7-1.9,0.7-1.7c0,0.3,0,0.5,0.1,0.8
	C0.9-0.7,1-0.6,1.2-0.5s0.4,0.2,0.6,0.2s0.5-0.1,0.6-0.2C2.6-0.7,2.7-0.9,2.8-1.2"/>
<path d="M0.2-1.2c0-0.5,0.1-0.8,0.4-1C0.7-2.4,1-2.5,1.3-2.5s0.6,0.1,0.8,0.3s0.4,0.6,0.4,0.9s0,0.6-0.1,0.8
	C2.2-0.3,2.1-0.2,1.9-0.1S1.5,0.1,1.3,0.1C1,0.1,0.7,0,0.5-0.3C0.3-0.5,0.2-0.8,0.2-1.2 M0.6-1.2c0,0.3,0.1,0.5,0.2,0.7
	s0.3,0.2,0.5,0.2s0.4-0.1,0.5-0.2C1.9-0.7,2-0.9,2-1.2S1.9-1.7,1.8-1.9C1.7-2.1,1.5-2.2,1.3-2.2S0.9-2.1,0.8-2
	C0.6-1.8,0.6-1.5,0.6-1.2"/>
<path d="M0.4,0v-0.5h0.5V0H0.4"/>
<path d="M0.2-1.1h0.4c0,0.2,0.1,0.3,0.1,0.4C0.8-0.6,1-0.5,1.1-0.4c0.2,0.1,0.3,0.1,0.5,0.1s0.3,0,0.5-0.1c0.1-0.1,0.2-0.1,0.3-0.2
	s0.1-0.2,0.1-0.3s0-0.2-0.1-0.3C2.3-1.3,2.2-1.3,2.1-1.4C2-1.4,1.8-1.5,1.5-1.6c-0.3,0-0.6-0.1-0.7-0.2C0.7-1.8,0.5-2,0.5-2.1
	C0.4-2.2,0.3-2.3,0.3-2.5s0-0.3,0.1-0.5c0.1-0.1,0.2-0.3,0.4-0.3C1-3.4,1.2-3.4,1.4-3.4s0.5,0,0.7,0.1C2.4-3.2,2.5-3.1,2.6-3
	c0.1,0.2,0.2,0.3,0.2,0.5H2.4c0-0.2-0.1-0.4-0.2-0.5C2-3,1.8-3,1.5-3C1.3-3,1.1-3,1-2.9C0.8-2.8,0.8-2.7,0.8-2.5
	c0,0.1,0,0.2,0.1,0.3C1-2.2,1.2-2.1,1.6-2C2-1.9,2.2-1.8,2.4-1.8c0.2,0.1,0.3,0.2,0.4,0.4C2.9-1.3,2.9-1.1,2.9-1
	c0,0.2-0.1,0.4-0.2,0.5C2.6-0.3,2.5-0.2,2.3-0.1S1.9,0.1,1.7,0.1c-0.3,0-0.6,0-0.8-0.1C0.7-0.2,0.5-0.3,0.4-0.5S0.2-0.9,0.2-1.1"/>
<path d="M0.4,0v-3.4h0.5V0H0.4"/>
<path d="M1.3,0L0-3.4h0.5l0.9,2.5c0.1,0.2,0.1,0.4,0.2,0.5c0.1-0.2,0.1-0.4,0.2-0.5l0.9-2.5h0.5L1.8,0H1.3"/>
<path d="M0.3,0v-3.4h0.5v3h1.7V0H0.3"/>
<path d="M0.4,0v-3.4h0.5V-2h1.8v-1.4H3V0H2.6v-1.6H0.8V0H0.4"/>
<path d="M0.3,0v-3.4h0.5v1.7l1.7-1.7h0.6L1.7-2l1.5,2H2.5L1.3-1.7L0.8-1.2V0H0.3"/>
<path d="M1.5,0v-0.8H0.1v-0.4l1.5-2.2h0.3v2.2h0.5v0.4H1.9V0H1.5 M1.5-1.2v-1.5l-1,1.5H1.5"/>
<path d="M0,0.1l1-3.5h0.3l-1,3.5L0,0.1"/>
<path d="M0.2-0.9h0.4c0,0.2,0.1,0.4,0.2,0.5C1-0.3,1.1-0.3,1.3-0.3s0.4-0.1,0.5-0.2C1.9-0.7,2-0.9,2-1.1S1.9-1.5,1.8-1.7
	C1.7-1.8,1.5-1.9,1.3-1.9c-0.1,0-0.3,0-0.4,0.1C0.8-1.7,0.7-1.6,0.7-1.5H0.3l0.3-1.7h1.7v0.4H0.9L0.8-2C1-2.1,1.2-2.2,1.4-2.2
	c0.3,0,0.5,0.1,0.7,0.3s0.3,0.5,0.3,0.8S2.3-0.5,2.1-0.3C2-0.1,1.7,0.1,1.3,0.1C1,0.1,0.7,0,0.5-0.2S0.2-0.6,0.2-0.9"/>
<path d="M2.4-0.4V0H0.1c0-0.1,0-0.2,0-0.3c0.1-0.2,0.2-0.3,0.3-0.5C0.6-0.9,0.8-1.1,1-1.2C1.4-1.6,1.6-1.8,1.8-2
	C1.9-2.2,2-2.3,2-2.5S1.9-2.8,1.8-2.9C1.6-3,1.5-3,1.3-3S1-3,0.8-2.9C0.7-2.7,0.6-2.6,0.6-2.4H0.2c0-0.3,0.1-0.6,0.3-0.7
	C0.7-3.3,1-3.4,1.3-3.4s0.6,0.1,0.8,0.3s0.3,0.4,0.3,0.7c0,0.1,0,0.3-0.1,0.4C2.2-1.9,2.1-1.8,2-1.6C1.9-1.5,1.7-1.3,1.4-1
	C1.1-0.8,1-0.7,0.9-0.6c-0.1,0-0.1,0.1-0.2,0.2H2.4"/>
<path d="M0.2-1.7c0-0.4,0-0.7,0.1-1c0.1-0.2,0.2-0.4,0.4-0.6c0.1,0,0.3-0.1,0.6-0.1c0.2,0,0.3,0,0.5,0.1C1.9-3.2,2-3.1,2.1-3
	s0.2,0.3,0.2,0.5C2.4-2.3,2.4-2,2.4-1.7c0,0.4,0,0.7-0.1,1C2.2-0.5,2.1-0.3,1.9-0.1C1.8,0,1.5,0.1,1.3,0.1C1,0.1,0.7-0.1,0.5-0.3
	C0.3-0.6,0.2-1,0.2-1.7 M0.6-1.7c0,0.6,0.1,0.9,0.2,1.1s0.3,0.3,0.5,0.3s0.3-0.1,0.5-0.3C1.9-0.8,2-1.1,2-1.7S1.9-2.6,1.8-2.8
	C1.6-3,1.5-3,1.3-3S0.9-3,0.8-2.8S0.6-2.2,0.6-1.7"/>
<path d="M1.8,0H1.3v-2.6C1.2-2.5,1.1-2.5,0.9-2.4C0.8-2.3,0.6-2.2,0.5-2.1v-0.4c0.2-0.1,0.4-0.2,0.6-0.4s0.3-0.3,0.4-0.5h0.3V0"/>
<path d="M0.3-0.8h0.4c0,0.2,0.1,0.3,0.2,0.4s0.2,0.1,0.4,0.1c0.1,0,0.2,0,0.3-0.1s0.2-0.1,0.2-0.2c0-0.1,0.1-0.2,0.1-0.4
	C2-1.2,2-1.3,2-1.5v-0.1C1.9-1.5,1.8-1.3,1.7-1.3C1.5-1.2,1.4-1.1,1.2-1.1c-0.3,0-0.5-0.1-0.7-0.3S0.2-1.9,0.2-2.2S0.3-2.8,0.5-3
	C0.7-3.3,1-3.4,1.3-3.4c0.2,0,0.4,0.1,0.6,0.2C2-3.1,2.2-2.9,2.3-2.7s0.1,0.5,0.1,0.9s0,0.8-0.1,1C2.2-0.5,2-0.3,1.9-0.1
	C1.7,0,1.5,0.1,1.2,0.1S0.7,0,0.6-0.2C0.4-0.3,0.3-0.5,0.3-0.8 M2-2.3c0-0.2-0.1-0.4-0.2-0.6C1.6-3,1.5-3,1.3-3S1-3,0.8-2.8
	C0.7-2.7,0.6-2.5,0.6-2.2c0,0.2,0.1,0.4,0.2,0.5s0.3,0.2,0.5,0.2s0.3-0.1,0.5-0.2C1.9-1.9,2-2,2-2.3"/>
<path d="M2.3-2.5H1.9c0-0.2-0.1-0.3-0.2-0.4C1.7-3,1.5-3,1.4-3C1.2-3,1.1-3,1-2.9C0.9-2.8,0.8-2.7,0.7-2.5S0.6-2.1,0.6-1.7
	C0.7-1.9,0.8-2,1-2.1c0.1-0.1,0.3-0.1,0.5-0.1c0.3,0,0.5,0.1,0.7,0.3s0.3,0.5,0.3,0.8c0,0.2,0,0.4-0.1,0.6C2.2-0.3,2.1-0.2,1.9-0.1
	S1.6,0.1,1.3,0.1S0.7-0.1,0.5-0.3C0.3-0.6,0.2-1,0.2-1.6c0-0.7,0.1-1.1,0.4-1.4C0.8-3.3,1-3.4,1.4-3.4c0.3,0,0.5,0.1,0.6,0.2
	C2.2-3,2.3-2.8,2.3-2.5 M0.7-1.1c0,0.1,0,0.3,0.1,0.4c0,0.2,0.1,0.3,0.2,0.3c0.1,0.1,0.2,0.1,0.3,0.1c0.2,0,0.3-0.1,0.5-0.2
	C1.9-0.6,2-0.8,2-1.1c0-0.2-0.1-0.4-0.2-0.5C1.7-1.8,1.5-1.8,1.3-1.8S1-1.8,0.8-1.6C0.7-1.5,0.7-1.3,0.7-1.1"/>
<path d="M0.3-2.2L0.2-2.8v-0.5h0.5v0.5L0.6-2.2H0.3 M1.1-2.2L1-2.8v-0.5h0.5v0.5L1.3-2.2H1.1"/>
<path d="M2.5-2H0.3v-0.4h2.2V-2 M2.5-1H0.3v-0.4h2.2V-1"/>
<path d="M0.3-2.2L0.2-2.8v-0.6h0.5v0.6L0.6-2.2H0.3"/>
<path d="M0.2-1v-0.4h1.3V-1H0.2"/>
<path d="M0,0v-8.2h6.6V0H0 M0.2-0.2h6.2V-8H0.2V-0.2"/>
<path d="M1-9.5h4.3c0.9,0,1.5,0.1,2.1,0.4c0.5,0.2,1,0.6,1.3,1C9-7.7,9.3-7.2,9.5-6.6C9.6-6,9.7-5.4,9.7-4.8c0,1-0.1,1.8-0.3,2.3
	c-0.2,0.6-0.6,1-1,1.4C8-0.6,7.5-0.4,7.1-0.3C6.4-0.1,5.9,0,5.3,0H1V-9.5 M3.9-7.3v5.2h0.7c0.6,0,1-0.1,1.3-0.2
	C6.2-2.5,6.4-2.7,6.5-3s0.2-0.9,0.2-1.7c0-1-0.2-1.7-0.5-2C6-7.1,5.4-7.3,4.7-7.3H3.9"/>
<path d="M8.4-2.8H3.1c0,0.4,0.1,0.7,0.3,0.9c0.3,0.3,0.6,0.4,1,0.4c0.3,0,0.5-0.1,0.7-0.2c0.2,0,0.4-0.1,0.6-0.3l2.6,0.2
	C7.9-1.1,7.4-0.6,6.8-0.3S5.4,0.2,4.4,0.2C3.5,0.2,2.8,0,2.3-0.2C1.7-0.5,1.3-0.9,1-1.4C0.6-2,0.5-2.7,0.5-3.4c0-1.1,0.3-1.9,1-2.6
	s1.6-1,2.8-1c1,0,1.8,0.2,2.3,0.5c0.6,0.3,1,0.7,1.3,1.3C8.2-4.7,8.4-4,8.4-3.1V-2.8 M5.7-4c0-0.5-0.2-0.9-0.4-1.1S4.8-5.5,4.4-5.5
	S3.7-5.3,3.4-5C3.3-4.7,3.2-4.4,3.1-4H5.7"/>
<path d="M0.8,2.6v-9.5h2.5v1c0.3-0.4,0.6-0.7,0.9-0.9C4.6-6.9,5-7,5.5-7c0.9,0,1.6,0.4,2.1,1c0.5,0.7,0.8,1.6,0.8,2.6
	c0,1.1-0.3,2-0.8,2.6c-0.6,0.7-1.3,1-2.1,1C5,0.2,4.7,0.1,4.3,0C4-0.2,3.7-0.4,3.5-0.7v3.3H0.8 M3.4-3.4c0,0.5,0.1,0.9,0.3,1.2
	C4-1.9,4.3-1.8,4.6-1.8c0.3,0,0.6-0.1,0.8-0.4c0.2-0.2,0.3-0.7,0.3-1.3s-0.1-1-0.3-1.2C5.2-4.9,4.9-5.1,4.6-5.1
	C4.3-5.1,4-4.9,3.8-4.7C3.5-4.4,3.4-4,3.4-3.4"/>
<path d="M3.2-4.6L0.7-4.9c0.1-0.4,0.2-0.8,0.4-1c0.2-0.3,0.4-0.5,0.8-0.7c0.2-0.1,0.6-0.2,1-0.3C3.3-7,3.7-7,4.2-7
	C5-7,5.6-7,6.1-6.9S7-6.6,7.3-6.3c0.2,0.2,0.4,0.5,0.5,0.8C8-5.1,8-4.8,8-4.5v3c0,0.3,0,0.6,0.1,0.8c0,0.2,0.1,0.4,0.3,0.7H5.9
	C5.8-0.2,5.7-0.3,5.7-0.4S5.6-0.6,5.6-0.8c-0.3,0.3-0.7,0.6-1,0.7C4.1,0.1,3.6,0.2,3,0.2C2.1,0.2,1.5,0,1.1-0.4S0.5-1.3,0.5-1.8
	S0.6-2.7,1-3.1c0.3-0.3,0.9-0.6,1.7-0.8c1-0.2,1.6-0.3,1.9-0.4c0.3-0.1,0.6-0.2,0.9-0.3c0-0.3-0.1-0.5-0.2-0.7
	C5.1-5.4,4.9-5.4,4.6-5.4c-0.4,0-0.8,0.1-1,0.2C3.4-5.1,3.3-4.9,3.2-4.6 M5.5-3.2C5.1-3.1,4.7-3,4.3-2.9c-0.5,0.1-0.9,0.3-1,0.4
	C3.2-2.3,3.1-2.2,3.1-2s0.1,0.4,0.2,0.5C3.5-1.4,3.7-1.3,4-1.3s0.6-0.1,0.8-0.2C5-1.7,5.2-1.8,5.3-2c0.1-0.2,0.2-0.5,0.2-0.8V-3.2"
	/>
<path d="M0.8-6.8h2.5v1.1c0.2-0.5,0.5-0.8,0.7-1C4.3-6.9,4.6-7,4.9-7c0.4,0,0.8,0.1,1.3,0.4L5.4-4.8C5.1-4.9,4.8-5,4.7-5
	C4.3-5,4-4.8,3.9-4.5C3.6-4.1,3.5-3.4,3.5-2.3V0H0.8V-6.8"/>
<path d="M4-9.5v2.6h1.5V-5H4v2.4C4-2.2,4-2,4-1.9c0.1,0.1,0.2,0.2,0.5,0.2c0.2,0,0.5-0.1,0.8-0.2l0.2,1.8C4.9,0.1,4.2,0.2,3.7,0.2
	C3,0.2,2.5,0.1,2.2-0.1S1.7-0.5,1.5-0.9C1.4-1.2,1.3-1.8,1.3-2.5v-2.4h-1v-1.9h1v-1.3L4-9.5"/>
<path d="M0.8-6.8h2.5v1c0.3-0.5,0.7-0.8,1-0.9C4.7-6.9,5.1-7,5.6-7c0.6,0,1,0.1,1.3,0.3c0.3,0.2,0.6,0.5,0.8,0.9
	c0.4-0.4,0.8-0.8,1.1-0.9C9.2-6.9,9.6-7,10.1-7c0.7,0,1.3,0.2,1.7,0.7c0.4,0.4,0.6,1.1,0.6,2V0H9.8v-3.9c0-0.3-0.1-0.5-0.2-0.7
	C9.4-4.8,9.2-4.9,9-4.9c-0.3,0-0.6,0.1-0.8,0.3C8-4.4,7.9-4,7.9-3.5V0H5.3v-3.8c0-0.3,0-0.5,0-0.6C5.2-4.6,5.1-4.7,5-4.8
	C4.8-4.9,4.7-5,4.5-5C4.2-5,3.9-4.8,3.7-4.6C3.5-4.4,3.4-4,3.4-3.5V0H0.8V-6.8"/>
<path d="M0.8-6.8h2.4v1.1c0.4-0.5,0.7-0.8,1.1-1C4.7-6.9,5.2-7,5.7-7C6.4-7,7-6.8,7.4-6.3C7.8-5.9,8-5.3,8-4.4V0H5.4v-3.8
	c0-0.4-0.1-0.7-0.2-0.9C5-4.8,4.8-4.9,4.5-4.9S3.9-4.8,3.7-4.5C3.5-4.3,3.4-3.9,3.4-3.3V0H0.8V-6.8"/>
<path d="M0.5-3.4c0-1,0.3-1.9,1-2.6s1.7-1,2.9-1c1.4,0,2.4,0.4,3.1,1.2C8-5.2,8.3-4.4,8.3-3.4c0,1.1-0.4,1.9-1,2.6
	c-0.7,0.7-1.7,1-2.9,1c-1.1,0-2-0.3-2.7-0.8C0.9-1.4,0.5-2.3,0.5-3.4 M3.1-3.4c0,0.6,0.1,1.1,0.4,1.3C3.7-1.8,4-1.6,4.4-1.6
	S5.1-1.8,5.3-2c0.2-0.3,0.4-0.8,0.4-1.4s-0.1-1-0.4-1.3C5.1-5.1,4.8-5.2,4.4-5.2S3.7-5,3.4-4.7C3.2-4.5,3.1-4,3.1-3.4"/>
<path d="M3.7-6.8H5v1.9H3.7V0H1.1v-4.9h-1v-1.9h1v-0.3c0-0.3,0-0.6,0.1-0.9c0.1-0.3,0.2-0.6,0.3-0.8C1.7-9,1.9-9.2,2.2-9.3
	s0.7-0.2,1.3-0.2c0.5,0,1.1,0.1,2,0.2L5.2-7.9c-0.3,0-0.5,0-0.7,0S4.1-7.9,4-7.8C3.9-7.7,3.8-7.6,3.8-7.5C3.7-7.3,3.7-7.1,3.7-6.8"
	/>
<path d="M0.9,0v-3h3.5v3H0.9 M1-0.1h3.3v-2.8H1V-0.1"/>
<path d="M0.3-2.9v-0.4h3.3V-3C3.3-2.8,3-2.5,2.7-2.1C2.3-1.7,2.1-1.3,1.9-0.9C1.8-0.6,1.7-0.3,1.7,0H1c0-0.3,0.1-0.6,0.2-1
	c0.2-0.3,0.4-0.7,0.7-1c0.3-0.4,0.6-0.6,0.9-0.9H0.3"/>
<path d="M0.5,0v-3.4h1L2.7-1C2.8-0.8,2.9-0.6,3-0.5C3-0.6,3.1-0.8,3.2-1l1.2-2.3h0.9V0H4.7v-2.8L3.2,0H2.6L1.2-2.9V0H0.5"/>
<path d="M2.9-0.3C2.6-0.2,2.4-0.1,2.2,0C2,0,1.8,0.1,1.5,0.1C1.1,0.1,0.8,0,0.6-0.1C0.4-0.3,0.2-0.4,0.2-0.6c0-0.1,0-0.2,0.1-0.3
	s0.2-0.2,0.3-0.2C0.8-1.3,1-1.3,1.1-1.3s0.3,0,0.6-0.1c0.5,0,0.9-0.1,1.1-0.1c0-0.1,0-0.1,0-0.1c0-0.2,0-0.4-0.2-0.4
	C2.5-2.1,2.2-2.2,1.9-2.2s-0.5,0-0.6,0.1C1.1-2,1-1.9,1-1.7L0.4-1.8C0.5-2,0.6-2.1,0.7-2.2C0.8-2.3,1-2.4,1.2-2.4
	C1.4-2.5,1.7-2.5,2-2.5s0.6,0,0.8,0.1c0.2,0,0.3,0.1,0.4,0.2c0.1,0,0.2,0.1,0.2,0.2c0,0.1,0,0.2,0,0.4V-1c0,0.4,0,0.6,0,0.7
	S3.5-0.1,3.6,0H3C2.9-0.1,2.9-0.2,2.9-0.3 M2.8-1.2C2.6-1.1,2.2-1.1,1.8-1C1.5-1,1.4-1,1.2-1C1.1-1,1.1-0.9,1-0.8
	c-0.1,0-0.1,0.1-0.1,0.1c0,0.1,0.1,0.2,0.2,0.3s0.3,0.1,0.5,0.1s0.5,0,0.6-0.1c0.2-0.1,0.3-0.2,0.4-0.3c0.1-0.1,0.1-0.2,0.1-0.4
	L2.8-1.2"/>
<path d="M0.2-0.7l0.6-0.1c0,0.2,0.1,0.3,0.3,0.4s0.4,0.1,0.7,0.1s0.5,0,0.6-0.1c0.1-0.1,0.2-0.2,0.2-0.3S2.5-0.9,2.4-0.9
	c0,0-0.3-0.1-0.6-0.1C1.4-1.1,1-1.2,0.9-1.2C0.7-1.3,0.5-1.4,0.5-1.5C0.4-1.6,0.3-1.7,0.3-1.8c0-0.1,0-0.2,0.1-0.3s0.2-0.2,0.3-0.2
	C0.8-2.4,1-2.4,1.1-2.5c0.2,0,0.3,0,0.5,0c0.3,0,0.5,0,0.8,0.1c0.2,0.1,0.4,0.1,0.5,0.2S3.1-2,3.1-1.8H2.5C2.5-1.9,2.4-2,2.3-2
	C2.1-2.1,2-2.2,1.7-2.2s-0.5,0-0.6,0.1S0.9-1.9,0.9-1.8s0,0.1,0.1,0.1s0.1,0.1,0.2,0.1s0.2,0.1,0.5,0.1c0.4,0.1,0.8,0.2,0.9,0.2
	c0.2,0,0.3,0.1,0.4,0.2C3.2-1,3.3-0.9,3.3-0.7c0,0.1-0.1,0.3-0.2,0.4C3-0.2,2.8-0.1,2.6,0C2.3,0,2.1,0.1,1.8,0.1
	C1.3,0.1,1,0,0.7-0.1C0.5-0.3,0.3-0.5,0.2-0.7"/>
<path d="M2.9-0.9h0.6C3.4-0.6,3.2-0.3,3-0.2C2.7,0,2.3,0.1,2,0.1C1.4,0.1,1,0,0.7-0.3c-0.3-0.2-0.5-0.5-0.5-1c0-0.3,0.1-0.5,0.2-0.7
	S0.7-2.3,1-2.4c0.3,0,0.6-0.1,1-0.1s0.7,0.1,1,0.2C3.2-2.2,3.3-2,3.4-1.7H2.8c0-0.1-0.2-0.2-0.3-0.3C2.4-2.1,2.2-2.2,2-2.2
	C1.7-2.2,1.4-2.1,1.2-2C1-1.8,0.9-1.6,0.9-1.2c0,0.3,0.1,0.6,0.3,0.7s0.4,0.2,0.7,0.2c0.2,0,0.5,0,0.6-0.1C2.7-0.5,2.8-0.7,2.9-0.9"
	/>
<path d="M0.5,0v-3.4h0.6v1.2c0.3-0.2,0.7-0.3,1.1-0.3c0.3,0,0.5,0,0.7,0.1s0.4,0.2,0.4,0.3C3.4-2,3.5-1.8,3.5-1.5V0H2.8v-1.5
	c0-0.2-0.1-0.4-0.2-0.5C2.5-2.1,2.3-2.1,2.1-2.1S1.7-2.1,1.6-2C1.4-2,1.3-1.9,1.2-1.8C1.1-1.7,1.1-1.5,1.1-1.3V0H0.5"/>
<path d="M2.9,0v-0.4C2.6-0.1,2.2,0.1,1.7,0.1C1.5,0.1,1.3,0,1.1,0C0.9-0.1,0.8-0.1,0.7-0.2S0.5-0.4,0.5-0.5s0-0.2,0-0.4v-1.5h0.6V-1
	c0,0.2,0,0.4,0,0.4c0,0.1,0.1,0.2,0.2,0.3s0.3,0.1,0.5,0.1s0.4,0,0.5-0.1c0.2-0.1,0.3-0.2,0.3-0.3c0.1-0.1,0.1-0.3,0.1-0.5v-1.3h0.6
	V0H2.9"/>
<path d="M3-0.8h0.6C3.5-0.5,3.3-0.3,3-0.1C2.8,0,2.4,0.1,2,0.1C1.5,0.1,1,0,0.7-0.3C0.4-0.5,0.3-0.8,0.3-1.2s0.2-0.7,0.5-1
	C1.1-2.4,1.5-2.5,2-2.5s0.9,0.1,1.2,0.3s0.5,0.5,0.5,0.9v0.1H0.9c0,0.3,0.1,0.5,0.3,0.6C1.4-0.4,1.7-0.3,2-0.3c0.2,0,0.4,0,0.6-0.1
	C2.8-0.5,2.9-0.6,3-0.8 M0.9-1.5h2c0-0.2-0.1-0.4-0.2-0.5C2.6-2.1,2.3-2.2,2-2.2S1.4-2.1,1.2-2C1.1-1.8,1-1.7,0.9-1.5"/>
<path d="M1.8-0.4L1.9,0C1.7,0,1.6,0,1.4,0S1,0,0.9,0C0.8-0.1,0.7-0.1,0.7-0.2C0.6-0.3,0.6-0.5,0.6-0.7v-1.4H0.1v-0.3h0.5V-3l0.6-0.2
	v0.8h0.6v0.3H1.2v1.4c0,0.1,0,0.2,0,0.2l0.1,0.1c0.1,0,0.1,0,0.2,0C1.6-0.4,1.7-0.4,1.8-0.4"/>
<path d="M0,0l2-3.4h0.7l2,3.4H4L3.4-1H1.3L0.7,0H0 M1.5-1.4h1.7L2.6-2.3C2.5-2.6,2.4-2.8,2.3-3C2.2-2.8,2.1-2.6,2-2.4L1.5-1.4"/>
<path d="M1.5,0L0.1-2.5h0.7L1.5-1c0.1,0.2,0.2,0.3,0.2,0.5C1.8-0.6,1.9-0.8,2-1l0.8-1.5h0.6L2.1,0H1.5"/>
<path d="M0.5,0v-2.5H1v0.4c0.3-0.3,0.7-0.4,1.2-0.4c0.2,0,0.4,0,0.6,0.1c0.2,0,0.3,0.1,0.4,0.2C3.3-2.1,3.4-2,3.4-1.9s0,0.2,0,0.4V0
	H2.8v-1.5c0-0.2,0-0.3-0.1-0.4C2.7-2,2.6-2,2.5-2.1c-0.1,0-0.3,0-0.4,0c-0.3,0-0.5,0-0.7,0.1C1.2-1.9,1.1-1.7,1.1-1.3V0H0.5"/>
<path d="M0.6,0v-0.5h0.7V0c0,0.2,0,0.3-0.1,0.4C1.1,0.5,1,0.6,0.8,0.7L0.6,0.5c0.1,0,0.2-0.1,0.3-0.2C0.9,0.2,1,0.1,1,0H0.6"/>
<path d="M4.2-1.2l0.7,0.1C4.7-0.7,4.4-0.4,4.1-0.2C3.7,0,3.3,0.1,2.7,0.1c-0.5,0-1-0.1-1.3-0.2C1.1-0.3,0.8-0.5,0.6-0.8
	S0.4-1.4,0.4-1.7s0.1-0.6,0.3-0.9s0.5-0.5,0.9-0.6s0.8-0.2,1.2-0.2c0.5,0,0.9,0.1,1.3,0.3C4.4-3,4.6-2.8,4.8-2.5L4.1-2.3
	C4-2.6,3.8-2.8,3.6-2.9C3.3-3,3.1-3,2.7-3S2-3,1.8-2.9C1.5-2.7,1.3-2.6,1.2-2.4C1.1-2.1,1-1.9,1-1.7C1-1.4,1.1-1.2,1.2-1
	s0.3,0.4,0.6,0.5s0.6,0.2,0.9,0.2c0.4,0,0.7-0.1,1-0.2C3.9-0.7,4.1-0.9,4.2-1.2"/>
<path d="M0.5,0v-2.5H1v0.3c0.1-0.1,0.3-0.2,0.5-0.3s0.4-0.1,0.7-0.1s0.5,0,0.7,0.1C3-2.3,3.1-2.2,3.2-2.1c0.3-0.3,0.7-0.4,1.1-0.4
	s0.6,0.1,0.8,0.2C5.3-2.2,5.4-2,5.4-1.7V0H4.8v-1.5c0-0.2,0-0.3-0.1-0.4C4.7-2,4.6-2,4.5-2.1c-0.1,0-0.2-0.1-0.4-0.1
	C3.9-2.1,3.7-2.1,3.5-2C3.3-1.9,3.3-1.7,3.3-1.4V0H2.6v-1.6c0-0.2-0.1-0.3-0.2-0.4c0-0.1-0.2-0.1-0.4-0.1S1.7-2.1,1.5-2
	C1.4-2,1.3-1.9,1.2-1.8C1.1-1.7,1.1-1.5,1.1-1.3V0H0.5"/>
<path d="M1,0H0.5v-3.4h0.6v1.2c0.3-0.2,0.6-0.3,1-0.3c0.2,0,0.4,0,0.6,0.1c0.2,0.1,0.4,0.2,0.5,0.3C3.4-2,3.5-1.9,3.5-1.8
	c0.1,0.1,0.1,0.3,0.1,0.5c0,0.4-0.2,0.8-0.5,1c-0.2,0.2-0.6,0.4-1,0.4S1.3-0.1,1-0.3V0 M1-1.2c0,0.3,0.1,0.5,0.2,0.6
	C1.4-0.4,1.7-0.3,2-0.3s0.5-0.1,0.7-0.2C2.9-0.7,3-0.9,3-1.2S2.9-1.8,2.7-1.9C2.5-2.1,2.3-2.2,2-2.2S1.5-2.1,1.3-2
	C1.1-1.8,1-1.5,1-1.2"/>
<path d="M0.5,0v-2.5H1v0.4c0.1-0.2,0.3-0.3,0.4-0.3c0.1-0.1,0.3-0.1,0.4-0.1c0.2,0,0.4,0,0.6,0.1L2.2-2C2.1-2,1.9-2.1,1.8-2.1
	C1.6-2.1,1.5-2,1.4-2C1.3-1.9,1.2-1.9,1.2-1.8C1.1-1.6,1.1-1.5,1.1-1.3V0H0.5"/>
<path d="M0.5-2.9v-0.5h0.6v0.5H0.5 M0.5,0v-2.5h0.6V0H0.5"/>
<path d="M2.8,0v-0.3c-0.2,0.2-0.6,0.4-1,0.4C1.5,0.1,1.2,0,1-0.1S0.6-0.4,0.4-0.5C0.3-0.7,0.2-1,0.2-1.2s0.1-0.5,0.2-0.7
	C0.5-2.1,0.7-2.2,1-2.3c0.2-0.1,0.5-0.2,0.8-0.2c0.2,0,0.4,0,0.6,0.1s0.3,0.1,0.4,0.2v-1.2h0.6V0H2.8 M0.9-1.2
	c0,0.3,0.1,0.5,0.3,0.7s0.4,0.2,0.7,0.2s0.5-0.1,0.7-0.2c0.2-0.2,0.3-0.4,0.3-0.7S2.8-1.8,2.6-1.9C2.4-2.1,2.1-2.2,1.9-2.2
	S1.3-2.1,1.2-1.9C1-1.8,0.9-1.5,0.9-1.2"/>
<path d="M0.4,0.2L1,0.3c0,0.1,0.1,0.2,0.2,0.3c0.2,0.1,0.4,0.1,0.6,0.1c0.3,0,0.5,0,0.7-0.1c0.2-0.1,0.3-0.2,0.3-0.3s0-0.3,0-0.5
	C2.6-0.1,2.2,0,1.8,0C1.3,0,0.9-0.1,0.6-0.4C0.4-0.6,0.2-0.9,0.2-1.2c0-0.2,0.1-0.5,0.2-0.6C0.5-2.1,0.7-2.2,1-2.3
	c0.2-0.1,0.5-0.2,0.8-0.2c0.4,0,0.8,0.1,1.1,0.3v-0.3h0.6v2.1c0,0.4-0.1,0.6-0.2,0.8C3.2,0.6,3,0.8,2.7,0.9S2.2,1,1.8,1
	S1,0.9,0.7,0.8C0.5,0.7,0.3,0.5,0.4,0.2 M0.9-1.3C0.9-1,1-0.7,1.2-0.6s0.4,0.2,0.7,0.2s0.5-0.1,0.7-0.2S2.9-1,2.9-1.3S2.8-1.8,2.6-2
	C2.4-2.1,2.1-2.2,1.9-2.2C1.6-2.2,1.4-2.1,1.2-2C1-1.8,0.9-1.6,0.9-1.3"/>
<path d="M0.3-1.7c0-0.4,0.1-0.7,0.2-1C0.6-2.9,0.8-3.1,1-3.2c0.3-0.1,0.6-0.2,1-0.2c0.3,0,0.5,0,0.7,0.1C2.9-3.2,3-3.1,3.2-3
	c0.1,0.1,0.2,0.3,0.3,0.5S3.6-2,3.6-1.7c0,0.4-0.1,0.7-0.2,1C3.3-0.5,3.1-0.3,2.9-0.1C2.6,0,2.3,0.1,2,0.1C1.5,0.1,1.1,0,0.8-0.3
	S0.3-1,0.3-1.7 M0.9-1.7c0,0.6,0.1,0.9,0.3,1.1S1.7-0.3,2-0.3s0.5-0.1,0.7-0.3S3-1.1,3-1.7S2.9-2.6,2.7-2.8C2.5-3,2.2-3,1.9-3
	C1.7-3,1.4-3,1.2-2.8S0.9-2.2,0.9-1.7"/>
<path d="M3.6-0.4V0H0.2c0-0.1,0-0.2,0.1-0.3c0.1-0.2,0.2-0.3,0.4-0.5c0.2-0.1,0.5-0.3,0.8-0.5C2.1-1.6,2.4-1.8,2.6-2
	c0.2-0.2,0.3-0.3,0.3-0.5S2.8-2.8,2.7-2.9C2.5-3,2.2-3,2-3C1.7-3,1.4-3,1.2-2.9C1.1-2.7,1-2.6,1-2.4H0.4c0-0.3,0.2-0.6,0.5-0.7
	C1.1-3.3,1.5-3.4,2-3.4s0.9,0.1,1.1,0.3c0.3,0.2,0.4,0.4,0.4,0.7c0,0.1,0,0.3-0.1,0.4c0,0.1-0.2,0.2-0.4,0.4C2.8-1.5,2.5-1.3,2.1-1
	C1.7-0.8,1.4-0.7,1.3-0.6c-0.1,0-0.2,0.1-0.2,0.2H3.6"/>
<path d="M2.6,0H2v-2.6C1.9-2.5,1.7-2.5,1.4-2.4C1.2-2.3,1-2.2,0.8-2.1v-0.4c0.4-0.1,0.7-0.2,0.9-0.4C2-3.1,2.1-3.2,2.2-3.4h0.4
	L2.6,0"/>
<path d="M0.3-0.9L0.9-1C1-0.7,1.1-0.5,1.3-0.4s0.4,0.2,0.6,0.2c0.3,0,0.5-0.1,0.7-0.2C2.8-0.6,3-0.8,3-1S2.9-1.4,2.7-1.5
	S2.2-1.6,2-1.6c-0.1,0-0.3,0-0.4,0V-2h0.1C2-2,2.2-2,2.4-2.1s0.3-0.2,0.3-0.4S2.6-2.8,2.5-2.9C2.3-3,2.1-3,1.9-3
	C1.6-3,1.4-3,1.3-2.9C1.1-2.8,1-2.6,1-2.4L0.4-2.5c0-0.3,0.2-0.5,0.5-0.7s0.6-0.2,1-0.2c0.3,0,0.5,0,0.8,0.1C2.9-3.2,3.1-3.1,3.2-3
	c0.1,0.1,0.2,0.3,0.2,0.4c0,0.1-0.1,0.3-0.2,0.4C3.1-2,2.9-1.9,2.7-1.8c0.3,0,0.5,0.1,0.7,0.3C3.5-1.4,3.6-1.2,3.6-1
	c0,0.3-0.2,0.5-0.5,0.8C2.8,0,2.4,0.1,1.9,0.1C1.5,0.1,1.1,0,0.8-0.2S0.3-0.6,0.3-0.9"/>
<path d="M0.4-0.8H1c0,0.2,0.1,0.3,0.3,0.4c0.1,0.1,0.3,0.1,0.6,0.1c0.2,0,0.4,0,0.5-0.1c0.1-0.1,0.3-0.1,0.3-0.2
	C2.8-0.7,2.8-0.8,2.9-1C3-1.2,3-1.3,3-1.5v-0.1C2.9-1.5,2.7-1.3,2.5-1.3C2.3-1.2,2-1.1,1.8-1.1C1.4-1.1,1-1.2,0.7-1.4
	S0.3-1.9,0.3-2.2S0.4-2.8,0.8-3c0.3-0.2,0.7-0.3,1.1-0.3c0.3,0,0.6,0.1,0.9,0.2C3.1-3,3.3-2.8,3.4-2.6s0.2,0.5,0.2,0.9
	s-0.1,0.8-0.2,1S3.1-0.3,2.8-0.1C2.5,0,2.2,0.1,1.8,0.1S1.1,0,0.8-0.1C0.6-0.3,0.4-0.5,0.4-0.8 M2.9-2.3c0-0.2-0.1-0.4-0.3-0.6
	C2.5-3,2.2-3,2-3C1.7-3,1.4-3,1.2-2.8C1-2.7,0.9-2.5,0.9-2.2C0.9-2,1-1.9,1.2-1.7C1.4-1.6,1.7-1.5,2-1.5s0.5-0.1,0.7-0.2
	C2.8-1.9,2.9-2,2.9-2.3"/>
<path d="M0,0v-11.8h8.5V0H0 M0.3-0.3h8v-11.2h-8L0.3-0.3"/>
<path d="M1.3-13.5h9.3v2.9H5v2.4h4.7v2.7H5V0H1.3V-13.5"/>
<path d="M8.7-2.2H4.4L3.9,0H0l4.6-13.5h4.1L13.2,0H9.3L8.7-2.2 M7.9-5.1L6.6-10L5.2-5.1H7.9"/>
<path d="M9.3-5.5l3.3,1.1c-0.2,1-0.6,1.9-1.1,2.6s-1.1,1.2-1.8,1.6C9.1,0.1,8.2,0.2,7.1,0.2C5.8,0.2,4.7,0,3.9-0.4
	C3-0.8,2.3-1.6,1.7-2.7c-0.6-1-0.9-2.4-0.9-4.1c0-2.2,0.5-3.9,1.6-5.1s2.6-1.8,4.5-1.8c1.5,0,2.7,0.3,3.6,1s1.5,1.7,2,3.2L9.2-8.7
	C9.1-9.1,9-9.4,8.8-9.6C8.6-9.9,8.4-10.2,8-10.3c-0.3-0.2-0.6-0.3-1-0.3c-0.8,0-1.5,0.4-2,1.1C4.7-8.9,4.6-8,4.6-6.8
	c0,1.5,0.2,2.5,0.6,3.1s1,0.8,1.7,0.8s1.3-0.2,1.6-0.7C8.9-4,9.2-4.7,9.3-5.5"/>
<path d="M1.4-13.5h3.8V0H1.4V-13.5"/>
<path d="M1.2-13.5H5v10.2h5.9V0H1.2V-13.5"/>
<path d="M0.4-13.5h11.4v3.3H8V0H4.2v-10.2H0.4V-13.5"/>
<path d="M1.2-13.5h10.1v2.9H5v2.2h5.8v2.8H5v2.7h6.5V0H1.2V-13.5"/>
<path d="M0.6-4.5l3.6-0.2c0.1,0.6,0.2,1.1,0.5,1.5C5-2.7,5.6-2.4,6.3-2.4c0.5,0,1-0.1,1.2-0.4C7.8-3.1,8-3.4,8-3.8S7.9-4.5,7.6-4.7
	c-0.3-0.3-1-0.6-2-0.8C4-5.9,2.8-6.5,2.1-7.2S1-8.7,1-9.8c0-0.7,0.2-1.3,0.5-2c0.4-0.6,0.9-1.1,1.6-1.5s1.7-0.5,3-0.5
	c1.6,0,2.7,0.3,3.5,1c0.8,0.6,1.3,1.7,1.5,3.1L7.7-9.5c-0.1-0.6-0.3-1.1-0.6-1.3c-0.3-0.3-0.7-0.4-1.2-0.4c-0.4,0-0.8,0.1-1,0.3
	s-0.3,0.5-0.3,0.8c0,0.2,0.1,0.4,0.3,0.6C5-9.4,5.4-9.2,6-9.1c1.6,0.4,2.8,0.8,3.5,1.2C10.2-7.5,10.7-7,11-6.4s0.5,1.3,0.5,2
	c0,0.9-0.2,1.7-0.7,2.4c-0.4,0.7-1,1.3-1.8,1.7C8.4,0,7.4,0.2,6.2,0.2c-2.1,0-3.5-0.4-4.3-1.3S0.7-3.1,0.6-4.5"/>
<path d="M3.5,0v-23.6h14.1V0H3.5 M4-0.6h13.2V-23H4V-0.6"/>
<path d="M2,0v-27h6.1l3.7,18.4L15.4-27h6.1V0h-3.8v-21.2L13.7,0H9.8l-4-21.2V0H2"/>
<path d="M1.9,0v-27H6V0H1.9"/>
<path d="M6.6,0v-22.4h-6V-27h16.1v4.6h-6V0H6.6"/>
<path d="M1.2,0v-5.9h4.7V0H1.2 M1.3-0.1h4.4v-5.6H1.3V-0.1"/>
<path d="M0.7,0v-6.8h2.5c0.5,0,0.9,0.1,1.2,0.2C4.8-6.4,5-6.2,5.2-5.9C5.4-5.6,5.5-5.3,5.5-5S5.4-4.4,5.3-4.2C5.1-4,4.8-3.8,4.5-3.6
	c0.4,0.1,0.7,0.3,1,0.6c0.2,0.3,0.3,0.6,0.3,1c0,0.3-0.1,0.6-0.2,0.9C5.4-0.8,5.3-0.6,5.1-0.4C4.9-0.3,4.6-0.2,4.3-0.1
	C4.1,0,3.7,0,3.3,0H0.7 M1.6-3.9H3c0.4,0,0.7,0,0.8-0.1C4-4.1,4.2-4.2,4.3-4.3c0.1-0.2,0.2-0.3,0.2-0.6c0-0.2-0.1-0.4-0.2-0.6
	c0-0.2-0.2-0.3-0.3-0.4C3.8-5.9,3.4-6,2.9-6H1.6V-3.9 M1.6-0.8h1.7c0.3,0,0.5,0,0.6,0c0.2,0,0.4-0.1,0.5-0.2s0.3-0.2,0.3-0.4
	C4.8-1.6,4.9-1.7,4.9-2c0-0.2-0.1-0.5-0.2-0.7C4.5-2.8,4.4-2.9,4.1-3c-0.2-0.1-0.6-0.1-1-0.1H1.6V-0.8"/>
<path d="M5.2-6.8H6v3.9c0,0.7,0,1.3-0.2,1.7C5.7-0.8,5.4-0.5,5-0.3C4.6,0,4.1,0.1,3.4,0.1C2.8,0.1,2.3,0,1.9-0.2S1.2-0.7,1-1.2
	c-0.2-0.4-0.2-1-0.2-1.7v-3.9h0.9v3.9c0,0.6,0.1,1,0.2,1.3C2-1.3,2.2-1.1,2.4-1c0.3,0.1,0.6,0.2,1,0.2c0.7,0,1.1-0.1,1.4-0.4
	C5-1.4,5.2-2,5.2-2.9V-6.8"/>
<path d="M0.9,0v-6.8h0.9V0H0.9"/>
<path d="M0.7,0v-6.8h0.9v6h3.3V0H0.7"/>
<path d="M0.7,0v-6.8H3c0.5,0,0.9,0,1.2,0.1c0.4,0.1,0.7,0.2,1,0.5C5.6-5.9,5.9-5.5,6-5c0.2,0.5,0.3,1,0.3,1.6c0,0.5-0.1,1-0.2,1.4
	C6-1.6,5.8-1.3,5.7-1.1C5.5-0.8,5.3-0.6,5-0.5C4.8-0.3,4.6-0.2,4.2-0.1C3.9,0,3.6,0,3.2,0H0.7 M1.6-0.8H3c0.4,0,0.8,0,1-0.1
	C4.4-1,4.6-1.1,4.7-1.3c0.2-0.2,0.4-0.5,0.5-0.9S5.4-3,5.4-3.5C5.4-4.1,5.3-4.7,5-5C4.8-5.4,4.5-5.7,4.2-5.8C3.9-5.9,3.6-6,3-6H1.6
	V-0.8"/>
<path d="M0.7,0v-6.8h0.9l3.5,5.3v-5.3H6V0H5.1L1.6-5.3V0H0.7"/>
<path d="M3.9-2.6v-0.8h2.8v2.5C6.3-0.6,5.8-0.3,5.4-0.1C4.9,0,4.4,0.1,4,0.1C3.3,0.1,2.7,0,2.1-0.3C1.6-0.6,1.2-1,0.9-1.5
	C0.6-2.1,0.5-2.7,0.5-3.3c0-0.7,0.1-1.3,0.4-1.8c0.3-0.6,0.7-1,1.2-1.3c0.5-0.3,1.1-0.4,1.8-0.4c0.5,0,0.9,0.1,1.3,0.2
	S5.9-6.2,6.1-6c0.2,0.3,0.4,0.6,0.5,1.1L5.8-4.6C5.7-5,5.6-5.2,5.5-5.4C5.3-5.6,5.1-5.8,4.8-5.9C4.5-6,4.2-6.1,3.9-6.1
	C3.5-6.1,3.1-6,2.8-5.9S2.3-5.6,2.1-5.4C1.9-5.2,1.8-5,1.7-4.8C1.5-4.3,1.4-3.9,1.4-3.4c0,0.6,0.1,1.1,0.3,1.5S2.2-1.2,2.6-1
	s0.9,0.3,1.3,0.3S4.7-0.8,5-0.9c0.4-0.2,0.7-0.3,0.8-0.5v-1.2H3.9"/>
<path d="M0.4-1.8l0.8-0.1c0.1,0.5,0.3,0.8,0.5,1s0.5,0.3,0.8,0.3c0.4,0,0.7-0.1,1-0.4s0.4-0.6,0.4-1S3.8-2.7,3.5-2.9
	C3.3-3.2,3-3.3,2.6-3.3c-0.2,0-0.4,0-0.6,0.1l0.1-0.7c0.1,0,0.1,0,0.1,0c0.4,0,0.7-0.1,1-0.3S3.6-4.7,3.6-5S3.5-5.6,3.3-5.8
	C3.1-6,2.9-6.1,2.5-6.1C2.2-6.1,1.9-6,1.7-5.8C1.5-5.6,1.4-5.3,1.3-4.9L0.5-5c0.1-0.6,0.3-1,0.7-1.3C1.5-6.6,2-6.8,2.5-6.8
	c0.4,0,0.7,0.1,1,0.2C3.8-6.4,4.1-6.2,4.2-6c0.2,0.4,0.3,0.7,0.3,1S4.4-4.4,4.3-4.2C4.1-4,3.9-3.8,3.5-3.7c0.5,0.1,0.8,0.3,1,0.6
	S4.8-2.4,4.8-2c0,0.6-0.2,1.1-0.6,1.5s-1,0.6-1.6,0.6C2,0.1,1.5-0.1,1.1-0.4C0.7-0.8,0.5-1.2,0.4-1.8"/>
<path d="M3,0v-1.6H0.1v-0.8l3.1-4.4h0.7v4.4h0.9v0.8H3.9V0H3 M3-2.4v-3l-2.1,3H3"/>
<path d="M0.3-2v-0.8h2.5V-2H0.3"/>
<path d="M3.5,0H2.7v-5.3C2.5-5.1,2.2-4.9,1.9-4.7C1.6-4.5,1.3-4.4,1-4.3v-0.8c0.5-0.2,0.9-0.5,1.2-0.8C2.6-6.2,2.8-6.5,3-6.8h0.5V0"
	/>
<path d="M0.4-2.2l0.8-0.1c0,0.3,0.1,0.6,0.3,0.8C1.7-1.2,1.9-1,2.2-0.9s0.7,0.2,1,0.2s0.6,0,0.9-0.1C4.4-0.9,4.6-1,4.7-1.2
	s0.2-0.4,0.2-0.6S4.8-2.2,4.7-2.4S4.4-2.7,4.1-2.8C4-2.9,3.6-3,2.9-3.1c-0.6-0.1-1-0.3-1.3-0.4C1.3-3.7,1.1-3.9,0.9-4.2
	S0.7-4.7,0.7-5S0.8-5.7,1-6s0.5-0.5,0.8-0.7C2.2-6.9,2.6-6.9,3-6.9c0.5,0,0.9,0.1,1.3,0.2C4.7-6.5,5-6.3,5.2-6
	c0.2,0.3,0.3,0.7,0.3,1.1L4.7-4.8c0-0.4-0.2-0.8-0.5-1C4-6,3.6-6.1,3.1-6.1S2.2-6,1.9-5.8C1.7-5.6,1.5-5.3,1.5-5.1
	c0,0.2,0.1,0.4,0.2,0.6C2-4.3,2.4-4.1,3.1-4c0.7,0.2,1.2,0.3,1.5,0.4C5-3.4,5.3-3.1,5.5-2.9c0.2,0.3,0.3,0.6,0.3,1s-0.1,0.7-0.3,1
	C5.3-0.6,5-0.3,4.6-0.1C4.2,0,3.8,0.1,3.3,0.1C2.7,0.1,2.2,0,1.8-0.2C1.3-0.3,1-0.6,0.8-1C0.6-1.3,0.4-1.7,0.4-2.2"/>
<path d="M2.4,0v-6H0.2v-0.8h5.3V-6H3.3v6H2.4"/>
<path d="M0.8,0v-6.8h4.6V-6H1.7v2.1h3.2v0.8H1.7V0H0.8"/>
<path d="M0.5-3.3c0-1.1,0.3-2,0.9-2.6s1.4-1,2.3-1c0.6,0,1.2,0.2,1.7,0.5s0.9,0.7,1.1,1.2C6.8-4.6,6.9-4,6.9-3.4
	c0,0.7-0.1,1.3-0.4,1.8C6.2-1,5.8-0.6,5.3-0.3s-1,0.4-1.6,0.4S2.5,0,2-0.3C1.5-0.7,1.1-1.1,0.8-1.6C0.6-2.1,0.5-2.7,0.5-3.3
	 M1.4-3.3c0,0.8,0.2,1.5,0.7,1.9c0.4,0.5,1,0.7,1.6,0.7c0.7,0,1.2-0.2,1.7-0.7C5.8-1.8,6-2.5,6-3.4c0-0.5-0.1-1-0.3-1.4
	c-0.2-0.4-0.5-0.7-0.8-1C4.5-6,4.1-6.1,3.7-6.1C3.1-6.1,2.5-5.9,2-5.4C1.6-5,1.4-4.3,1.4-3.3"/>
<path d="M0.7,0v-6.8h3c0.6,0,1,0.1,1.4,0.2c0.3,0.1,0.6,0.3,0.8,0.7c0.2,0.3,0.3,0.6,0.3,1C6.1-4.4,6-4,5.7-3.7
	C5.4-3.4,4.9-3.2,4.2-3.1C4.4-3,4.6-2.9,4.7-2.8c0.3,0.3,0.6,0.6,0.8,1L6.7,0H5.6L4.7-1.4C4.4-1.8,4.2-2.1,4-2.3
	C3.8-2.5,3.7-2.7,3.6-2.8C3.4-2.9,3.3-2.9,3.2-3C3.1-3,2.9-3,2.7-3h-1v3H0.7 M1.6-3.8h1.9c0.4,0,0.7,0,1-0.1C4.7-4,4.9-4.1,5-4.3
	c0.1-0.2,0.2-0.4,0.2-0.6c0-0.3-0.1-0.6-0.4-0.8C4.6-5.9,4.3-6,3.8-6H1.6V-3.8"/>
<path d="M0.8,0v-6.8h4.9V-6h-4v2.1h3.7v0.8H1.6v2.3h4.1V0H0.8"/>
<path d="M4.5-0.8C4.2-0.5,3.9-0.3,3.6-0.1C3.3,0,2.9,0.1,2.5,0.1c-0.7,0-1.2-0.2-1.7-0.7C0.6-1,0.4-1.4,0.4-1.9
	c0-0.4,0.1-0.8,0.4-1.1S1.5-3.6,2-3.9C1.7-4.2,1.5-4.5,1.4-4.7C1.3-4.9,1.2-5.1,1.2-5.4c0-0.4,0.2-0.8,0.5-1C2-6.7,2.4-6.9,2.9-6.9
	S3.7-6.8,4-6.5s0.5,0.6,0.5,1c0,0.6-0.4,1.2-1.3,1.6l1.2,1.5C4.5-2.7,4.6-3,4.7-3.3L5.6-3C5.5-2.4,5.3-1.9,5-1.5
	c0.3,0.4,0.7,0.8,1,1L5.5,0.2C5.2-0.1,4.8-0.4,4.5-0.8 M2.8-4.3c0.4-0.2,0.6-0.4,0.7-0.5C3.6-5,3.6-5.2,3.6-5.4
	c0-0.2-0.1-0.4-0.2-0.6C3.3-6.1,3.1-6.2,2.9-6.2C2.7-6.2,2.5-6.1,2.3-6C2.2-5.8,2.1-5.6,2.1-5.4c0,0.1,0,0.2,0.1,0.3
	c0,0.1,0.1,0.2,0.2,0.4L2.8-4.3 M4-1.5L2.4-3.3C2-3.1,1.7-2.8,1.5-2.6C1.4-2.4,1.3-2.1,1.3-1.9c0,0.3,0.1,0.6,0.3,0.9
	s0.5,0.4,0.9,0.4c0.2,0,0.5-0.1,0.8-0.2C3.6-1,3.8-1.2,4-1.5"/>
<path d="M5.5-2.4l0.9,0.2c-0.2,0.7-0.5,1.3-1,1.7S4.3,0.1,3.6,0.1S2.3,0,1.9-0.3C1.4-0.6,1.1-1,0.8-1.6C0.6-2.2,0.5-2.8,0.5-3.4
	c0-0.7,0.1-1.3,0.4-1.8c0.2-0.6,0.6-1,1.1-1.3s1-0.4,1.6-0.4c0.7,0,1.2,0.2,1.7,0.5s0.8,0.8,1,1.5L5.4-4.7C5.3-5.2,5.1-5.5,4.8-5.8
	C4.5-6,4.1-6.1,3.6-6.1S2.6-6,2.3-5.7C2-5.5,1.7-5.1,1.6-4.7C1.5-4.3,1.4-3.9,1.4-3.4c0,0.6,0.1,1.1,0.2,1.5c0.2,0.4,0.4,0.7,0.8,1
	c0.4,0.2,0.7,0.3,1.1,0.3C4-0.6,4.4-0.7,4.8-1C5.2-1.4,5.4-1.8,5.5-2.4"/>
<path d="M0,0l2.6-6.8h1L6.3,0h-1L4.5-2H1.7L0.9,0H0 M1.9-2.8h2.3L3.5-4.6C3.3-5.2,3.1-5.7,3-6C2.9-5.6,2.8-5.2,2.7-4.8L1.9-2.8"/>
<path d="M0.7,0v-6.8h2.5c0.4,0,0.8,0,1,0.1C4.5-6.6,4.8-6.5,5-6.4C5.4-6.2,5.5-6,5.7-5.7c0.1,0.3,0.2,0.6,0.2,0.9
	c0,0.6-0.2,1.1-0.5,1.5c-0.4,0.4-1,0.6-2,0.6H1.6V0H0.7 M1.6-3.5h1.7c0.6,0,1-0.1,1.2-0.3C4.8-4.1,5-4.4,5-4.8C5-5,4.9-5.3,4.7-5.5
	C4.6-5.7,4.4-5.8,4.2-5.9C4-5.9,3.8-6,3.3-6H1.6V-3.5"/>
<path d="M0.5-8.2h5.2V0H0.5V-8.2 M0.7-7.9v7.7h4.7v-7.7H0.7"/>
<path d="M3.4-5.3c0.4,0,0.7-0.1,0.9-0.3c0.3-0.2,0.4-0.5,0.4-0.9c0-0.3-0.1-0.6-0.3-0.8C4.2-7.6,3.9-7.7,3.5-7.7
	c-0.2,0-0.4,0-0.6,0.1C2.8-7.5,2.6-7.4,2.5-7.3c0,0.1-0.1,0.2-0.2,0.4C2.2-6.7,2.1-6.5,2.1-6.4C2-6.3,2-6.2,1.9-6.2S1.7-6.1,1.5-6.1
	S1.2-6.2,1-6.3C0.9-6.4,0.9-6.6,0.9-6.8c0-0.2,0-0.5,0.1-0.7s0.3-0.4,0.5-0.6C1.7-8.3,2-8.5,2.4-8.6s0.8-0.2,1.2-0.2s0.7,0.1,1,0.2
	c0.3,0.1,0.6,0.3,0.8,0.5C5.8-8,6-7.8,6.1-7.5S6.3-7,6.3-6.7c0,0.4-0.1,0.7-0.3,1C5.9-5.3,5.6-5.1,5.3-4.8c0.3,0.2,0.6,0.4,0.8,0.6
	C6.3-4,6.5-3.8,6.6-3.5S6.7-3,6.7-2.7c0,0.4-0.1,0.7-0.2,1.1C6.4-1.3,6.1-1,5.9-0.7c-0.3,0.3-0.6,0.5-1,0.6C4.5,0.1,4,0.2,3.6,0.2
	C3.1,0.2,2.7,0.1,2.3,0c-0.4-0.3-0.7-0.5-1-0.8C1.1-1,0.9-1.3,0.8-1.5C0.7-1.8,0.6-2.1,0.6-2.2c0-0.2,0.1-0.4,0.2-0.5
	C1-2.9,1.2-3,1.4-3c0.1,0,0.2,0,0.3,0.1s0.2,0.1,0.2,0.2c0.2,0.6,0.4,1,0.7,1.2C2.8-1.2,3.1-1,3.6-1c0.2,0,0.5-0.1,0.7-0.2
	s0.4-0.3,0.6-0.5C5-2,5.1-2.3,5.1-2.6c0-0.5-0.1-0.8-0.4-1.1C4.5-3.9,4.1-4.1,3.6-4.1c-0.1,0-0.2,0-0.4,0C3.1-4,3-4,3-4
	C2.7-4,2.6-4.1,2.4-4.2C2.3-4.3,2.3-4.5,2.3-4.7s0.1-0.4,0.2-0.5c0.1-0.1,0.4-0.2,0.6-0.2L3.4-5.3"/>
<path d="M4.3-0.8v-1.1h-3C0.9-1.9,0.6-2,0.4-2.1C0.2-2.3,0.2-2.5,0.2-2.8c0-0.1,0-0.2,0-0.2c0-0.1,0.1-0.2,0.1-0.2
	c0.1-0.1,0.1-0.2,0.2-0.2c0.1-0.1,0.1-0.2,0.2-0.3l3.2-4.2c0.2-0.3,0.4-0.5,0.5-0.6s0.3-0.2,0.5-0.2c0.6,0,0.9,0.3,0.9,1v4.6H6
	c0.3,0,0.6,0,0.7,0.1C7-3,7.1-2.8,7.1-2.5C7.1-2.3,7-2.1,6.8-2C6.7-1.9,6.5-1.9,6.2-1.9H5.8v1.1c0,0.3-0.1,0.5-0.2,0.7
	C5.5,0.1,5.3,0.2,5,0.2C4.8,0.2,4.6,0.1,4.5,0C4.4-0.2,4.3-0.5,4.3-0.8 M1.7-3.2h2.6v-3.5L1.7-3.2"/>
<path d="M1.9,0.2C1.7,0.2,1.4,0.1,1.3,0C1.1-0.2,1-0.5,1-0.8C1-1,1.1-1.2,1.3-1.4s0.4-0.3,0.6-0.3s0.5,0.1,0.6,0.3
	C2.7-1.2,2.8-1,2.8-0.8c0,0.3-0.1,0.5-0.3,0.7C2.4,0.1,2.2,0.2,1.9,0.2"/>
<path d="M3.5-0.8v-5.4C2.5-5.4,1.8-5,1.4-5C1.2-5.1,1.1-5.2,1-5.3C0.8-5.4,0.8-5.6,0.8-5.8c0-0.2,0-0.3,0.2-0.4
	c0.1-0.1,0.4-0.2,0.7-0.4C2.1-6.8,2.5-7,2.8-7.3s0.5-0.5,0.8-0.9C3.8-8.5,3.9-8.7,4-8.7c0.1-0.1,0.2-0.1,0.4-0.1
	c0.2,0,0.4,0.1,0.5,0.2C5-8.4,5.1-8.2,5.1-7.9V-1c0,0.8-0.3,1.2-0.8,1.2C4,0.2,3.8,0.1,3.7-0.1C3.5-0.3,3.5-0.5,3.5-0.8"/>
<path d="M0.8,0v-3.9h3.1V0H0.8 M0.9-0.1h2.9v-3.7H0.9V-0.1"/>
<path d="M0.5,0v-4.5h0.6L3.5-1v-3.5H4V0H3.4L1-3.5V0H0.5"/>
<path d="M0.3-2.2C0.3-3,0.5-3.5,0.9-4c0.4-0.4,0.9-0.6,1.6-0.6c0.4,0,0.8,0.1,1.1,0.3c0.3,0.2,0.6,0.5,0.8,0.8
	c0.2,0.4,0.3,0.8,0.3,1.2S4.6-1.4,4.4-1.1C4.1-0.7,3.9-0.4,3.5-0.2C3.2,0,2.8,0.1,2.5,0.1C2,0.1,1.6,0,1.3-0.2S0.7-0.7,0.5-1.1
	C0.4-1.4,0.3-1.8,0.3-2.2 M0.9-2.2c0,0.5,0.1,1,0.4,1.3S2-0.4,2.5-0.4c0.4,0,0.8-0.2,1.1-0.5C3.8-1.2,4-1.7,4-2.2
	c0-0.4-0.1-0.7-0.2-1C3.7-3.5,3.5-3.7,3.3-3.8C3-4,2.8-4.1,2.5-4.1C2-4.1,1.7-3.9,1.4-3.6S0.9-2.9,0.9-2.2"/>
<path d="M0.5,0v-4.5h2c0.4,0,0.7,0,0.9,0.1S3.8-4.2,3.9-4C4-3.7,4.1-3.5,4.1-3.3C4.1-3,4-2.7,3.8-2.5C3.6-2.2,3.3-2.1,2.8-2
	C3-2,3.1-1.9,3.2-1.8c0.2,0.2,0.3,0.4,0.5,0.6L4.5,0H3.7L3.1-0.9C2.9-1.2,2.8-1.4,2.7-1.5C2.6-1.7,2.5-1.8,2.4-1.8
	C2.3-1.9,2.2-1.9,2.1-2C2-2,1.9-2,1.8-2H1.1v2H0.5 M1.1-2.5h1.3c0.3,0,0.5,0,0.6-0.1c0.2-0.1,0.3-0.1,0.3-0.3C3.4-3,3.5-3.1,3.5-3.3
	S3.4-3.7,3.3-3.8C3.1-3.9,2.8-4,2.5-4H1.1V-2.5"/>
<path d="M1.6,0v-4H0.1v-0.5h3.6V-4H2.2v4H1.6"/>
<path d="M0.5,0v-4.5h0.6v1.8h2.3v-1.8H4V0H3.4v-2.1H1.1V0H0.5"/>
<path d="M0.1,0v-3.9h1.2V0H0.1 M0.3-0.2h0.9v-3.6H0.3V-0.2"/>
<path d="M0.2-2.2c0-0.8,0.1-1.3,0.3-1.7S1-4.5,1.4-4.5S2-4.4,2.2-4s0.4,1,0.4,1.8S2.5-0.9,2.3-0.5C2.1-0.1,1.8,0.1,1.4,0.1
	S0.8-0.1,0.5-0.4C0.3-0.8,0.2-1.4,0.2-2.2 M0.7-2.2c0,0.7,0.1,1.2,0.2,1.5C1-0.5,1.2-0.4,1.4-0.4s0.4-0.1,0.5-0.4
	C2.1-1,2.1-1.5,2.1-2.2S2-3.4,1.9-3.7C1.8-3.9,1.6-4.1,1.4-4.1S1-3.9,0.9-3.7C0.7-3.4,0.7-2.9,0.7-2.2"/>
<path d="M0.9-2.4C0.7-2.5,0.6-2.6,0.5-2.8C0.4-2.9,0.3-3.1,0.3-3.4S0.4-4,0.6-4.2c0.2-0.2,0.5-0.3,0.8-0.3S2-4.4,2.2-4.2
	s0.3,0.5,0.3,0.9c0,0.2,0,0.4-0.1,0.6C2.3-2.6,2.1-2.5,1.9-2.4c0.3,0,0.4,0.2,0.5,0.4c0.1,0.2,0.2,0.4,0.2,0.7c0,0.4-0.1,0.7-0.3,1
	C2.1,0,1.8,0.1,1.4,0.1S0.8,0,0.5-0.3c-0.2-0.3-0.3-0.6-0.3-1c0-0.3,0.1-0.5,0.2-0.7S0.7-2.4,0.9-2.4 M0.8-3.4C0.8-3.2,0.9-3,1-2.8
	c0.1,0.1,0.3,0.2,0.4,0.2c0.2,0,0.3-0.1,0.4-0.2C2-3,2-3.1,2-3.3c0-0.3,0-0.4-0.2-0.6C1.7-4,1.6-4.1,1.4-4.1S1.1-4,1-3.9
	C0.9-3.7,0.8-3.6,0.8-3.4 M0.7-1.3c0,0.3,0.1,0.5,0.2,0.7C1-0.5,1.2-0.4,1.4-0.4s0.4-0.1,0.5-0.2C2.1-0.8,2.2-1,2.2-1.3S2.1-1.8,2-2
	C1.8-2.1,1.6-2.2,1.4-2.2S1-2.1,0.9-2C0.7-1.8,0.7-1.6,0.7-1.3"/>
<path d="M1.9,0H1.5v-3.5C1.3-3.4,1.2-3.3,1-3.1C0.9-3,0.7-2.9,0.5-2.9v-0.5C0.8-3.5,1-3.7,1.2-3.9c0.2-0.2,0.3-0.4,0.4-0.6h0.3
	L1.9,0"/>
<path d="M2.6-3.4H2.1c0-0.2-0.1-0.4-0.2-0.5C1.8-4,1.6-4.1,1.5-4.1C1.2-4.1,1-3.9,0.8-3.6C0.7-3.3,0.6-2.9,0.6-2.3
	C0.7-2.5,0.9-2.7,1-2.8C1.2-2.9,1.3-3,1.5-3C1.8-3,2-2.9,2.3-2.6C2.5-2.3,2.6-2,2.6-1.5c0,0.3-0.1,0.6-0.2,0.8
	C2.3-0.4,2.2-0.2,2-0.1C1.9,0,1.7,0.1,1.5,0.1c-0.4,0-0.7-0.2-0.9-0.5C0.3-0.8,0.2-1.3,0.2-2.1C0.2-3,0.3-3.6,0.5-4s0.6-0.6,1-0.6
	c0.3,0,0.5,0.1,0.7,0.3C2.4-4,2.5-3.8,2.6-3.4 M0.7-1.5c0,0.3,0.1,0.6,0.2,0.8c0.2,0.2,0.3,0.3,0.5,0.3s0.3-0.1,0.5-0.3
	C2-0.9,2.1-1.1,2.1-1.5c0-0.3-0.1-0.6-0.2-0.7C1.8-2.3,1.6-2.4,1.4-2.4S1-2.3,0.9-2.1C0.8-2,0.7-1.8,0.7-1.5"/>
<path d="M2.6-0.5V0H0.2c0-0.2,0.1-0.5,0.2-0.7c0.1-0.3,0.3-0.6,0.7-1s0.7-0.8,0.8-1C2-2.9,2.1-3.1,2.1-3.3S2-3.7,1.9-3.9
	C1.8-4,1.6-4.1,1.4-4.1S1-4,0.9-3.8C0.8-3.7,0.7-3.4,0.7-3.2H0.2c0-0.4,0.1-0.8,0.4-1c0.2-0.2,0.5-0.3,0.8-0.3
	c0.4,0,0.7,0.1,0.8,0.4c0.2,0.2,0.3,0.5,0.3,0.9c0,0.3-0.1,0.6-0.2,0.8c-0.1,0.3-0.4,0.6-0.8,1C1.2-1.1,1.1-0.9,1-0.8
	S0.8-0.6,0.8-0.5H2.6"/>
<path d="M1.7,0v-1.1H0.1v-0.5l1.7-2.9h0.4v2.9h0.5v0.5H2.1V0H1.7 M1.7-1.6v-2l-1.2,2L1.7-1.6"/>
<path d="M2.1-1.8v-0.5h1.6v1.7C3.5-0.4,3.2-0.2,3-0.1C2.7,0,2.4,0.1,2.2,0.1c-0.4,0-0.7-0.1-1-0.3S0.7-0.6,0.5-1
	C0.4-1.3,0.3-1.7,0.3-2.2s0.1-0.9,0.2-1.3c0.2-0.4,0.4-0.6,0.6-0.8c0.3-0.2,0.6-0.3,1-0.3c0.3,0,0.5,0.1,0.7,0.2
	C3-4.3,3.2-4.2,3.3-4c0.1,0.2,0.2,0.4,0.3,0.8L3.2-3.1C3.1-3.3,3.1-3.5,3-3.7C2.9-3.8,2.8-3.9,2.6-4C2.5-4,2.3-4.1,2.1-4.1
	S1.6-4,1.4-3.9C1.2-3.7,1.1-3.5,1-3.3C0.8-3,0.8-2.7,0.8-2.3c0,0.6,0.1,1.1,0.4,1.4s0.6,0.5,1,0.5c0.2,0,0.4,0,0.6-0.1
	s0.4-0.2,0.5-0.3v-0.8H2.1"/>
<path d="M0.4,0v-4.5H2c0.3,0,0.6,0,0.8,0.1C2.9-4.3,3.1-4.1,3.2-4c0.1,0.2,0.2,0.4,0.2,0.7S3.3-2.7,3.1-2.5C2.9-2.2,2.6-2.1,2.3-2
	c0.1,0,0.3,0.1,0.3,0.2C2.8-1.6,2.9-1.4,3-1.2L3.6,0H3L2.5-0.9C2.3-1.3,2.2-1.5,2.1-1.7S1.9-1.9,1.8-1.9C1.7-2,1.6-2,1.5-2H0.9v2
	H0.4 M0.9-2.5h1c0.2,0,0.4,0,0.5-0.1c0.1-0.1,0.2-0.1,0.3-0.2C2.8-3,2.8-3.1,2.8-3.3S2.7-3.7,2.6-3.8C2.5-3.9,2.3-4,2-4H0.9V-2.5"/>
<path d="M0,0l1.4-4.5h0.5L3.4,0H2.9L2.5-1.4H0.9L0.5,0H0 M1.1-1.8h1.2L1.9-3.1C1.8-3.5,1.7-3.8,1.7-4c0,0.3-0.1,0.6-0.2,0.9L1.1-1.8
	"/>
<path d="M0.4,0v-4.5h1.4c0.3,0,0.6,0,0.7,0.1C2.7-4.3,2.9-4.2,3-4c0.1,0.2,0.2,0.5,0.2,0.8c0,0.4-0.1,0.7-0.3,1
	C2.7-2,2.3-1.8,1.8-1.8H0.9V0H0.4 M0.9-2.4h1c0.3,0,0.5-0.1,0.7-0.2c0.1-0.1,0.2-0.3,0.2-0.6c0-0.2,0-0.3-0.1-0.5
	C2.5-3.8,2.5-3.8,2.4-3.9C2.3-3.9,2.1-4,1.8-4H0.9V-2.4"/>
<path d="M0.4,0v-4.5h0.5v1.8h1.9v-1.8h0.5V0H2.8v-2.1H0.9V0H0.4"/>
<path d="M0.5,0v-4.5H1V0H0.5"/>
<path d="M3-1.6l0.5,0.2C3.4-0.9,3.2-0.5,2.9-0.3C2.7,0,2.3,0.1,2,0.1C1.6,0.1,1.3,0,1.1-0.2C0.8-0.3,0.6-0.6,0.5-1
	C0.3-1.3,0.2-1.8,0.2-2.3s0.1-0.9,0.2-1.2C0.6-3.8,0.8-4.1,1-4.3c0.4-0.2,0.7-0.3,1-0.3c0.4,0,0.7,0.1,0.9,0.3
	c0.3,0.2,0.4,0.5,0.5,1L3-3.1c-0.2-0.7-0.5-1-1-1C1.7-4.1,1.5-4,1.3-3.9C1.2-3.8,1-3.6,0.9-3.3s-0.1,0.6-0.1,1
	c0,0.6,0.1,1.1,0.3,1.4S1.6-0.4,2-0.4c0.3,0,0.5-0.1,0.7-0.3C2.8-0.9,3-1.2,3-1.6"/>
<path d="M0.2-1.4l0.5-0.1c0,0.2,0.1,0.4,0.2,0.6C1-0.8,1.1-0.7,1.3-0.6s0.4,0.1,0.6,0.1c0.3,0,0.5-0.1,0.7-0.2
	c0-0.1,0.1-0.3,0.1-0.5c0-0.1,0-0.2-0.1-0.3C2.5-1.7,2.5-1.8,2.3-1.8C2.2-1.9,2-2,1.6-2.1C1.2-2.2,1-2.3,0.8-2.4
	C0.7-2.5,0.6-2.6,0.5-2.8C0.4-2.9,0.4-3.1,0.4-3.3c0-0.4,0.1-0.7,0.3-0.9s0.6-0.4,1-0.4c0.3,0,0.5,0.1,0.7,0.2s0.4,0.3,0.5,0.5
	C3-3.7,3.1-3.5,3.1-3.2H2.6c0-0.3-0.1-0.5-0.3-0.6C2.2-4,2-4,1.7-4S1.2-4,1.1-3.9C0.9-3.7,0.8-3.6,0.8-3.4S0.9-3.1,1-3
	s0.3,0.2,0.7,0.3s0.6,0.2,0.8,0.3C2.7-2.3,2.9-2.1,3-1.9s0.2,0.4,0.2,0.7C3.2-1,3.1-0.8,3-0.6S2.7-0.2,2.5-0.1S2,0.1,1.8,0.1
	C1.3,0.1,1,0,0.7-0.3S0.2-1,0.2-1.4"/>
<path d="M0.4,0v-4.5h0.5v4h1.8V0H0.4"/>
<path d="M0.4,0v-4.5h2.7V-4H0.9v1.4h2v0.5h-2v1.5h2.3V0H0.4"/>
<path d="M0.4,0v-4.5h2.5V-4h-2v1.4h1.7V-2H0.9v2H0.4"/>
<path d="M1.3,0v-4H0.1v-0.5H3V-4H1.8v4H1.3"/>
<path d="M1206,18.3h0.3V19h-0.3V18.3"/>
<path d="M18.3,774H19v0.3h-0.7V774"/>
<path class="st0" d="M648.3,490.8l14.9-14.6"/>
<path class="st0" d="M774.7,277.7v183.8"/>
<path class="st0" d="M788.2,272.5v194.2"/>
<path class="st0" d="M801.7,267.2V472"/>
<path class="st0" d="M774.7,277.7l-63.4-64.9"/>
<path class="st0" d="M788.2,272.5l-67.5-69"/>
<path class="st0" d="M801.7,267.2l-71.5-73.3"/>
<path class="st0" d="M774.7,461.5l-59.5,61.7"/>
<path class="st0" d="M788.2,466.7l-63.8,66"/>
<path class="st0" d="M801.7,472l-67.9,70.4"/>
<path class="st0" d="M815.9,379.4v-27"/>
<path class="st0" d="M814.4,352.4v27"/>
<path class="st0" d="M655.9,249.3l13-13.4l-5.3,1.5"/>
<path class="st0" d="M655.8,483.4l10.4,10.9l-5.3-1.2"/>
<path class="st0" d="M661.7,515.2l33.8,34.1l2.2-3l-32.3-34.7"/>
<path class="st0" d="M700.7,185.4l-3.4-3.3L664.5,215"/>
<path class="st0" d="M683.2,489.6L660.3,466l-3.4,3.7"/>
<path class="st0" d="M681.5,237.8l-22.9,24.4l2.3,2.2l23-24.2"/>
<path class="st0" d="M650,482.2v-4.5h1.1l0.5,0.2l0.3,0.4l0.2,0.4l0.1,0.7v1.1l-0.1,0.7l-0.2,0.4l-0.3,0.4l-0.5,0.2L650,482.2"/>
<path class="st0" d="M653.3,482.2v-4.5l2.3,4.5v-4.5"/>
<path class="st0" d="M650,254.5V250h1.1l0.5,0.2l0.3,0.4l0.2,0.4l0.2,0.7v1l-0.2,0.7l-0.2,0.4l-0.3,0.4l-0.5,0.2H650"/>
<path class="st0" d="M653.4,254.5V250l2.3,4.5V250"/>
<path class="st0" d="M640.1,365.9v-7.5h3.5"/>
<path class="st0" d="M640.1,362h2.2"/>
<path class="st0" d="M640.1,365.9h3.5"/>
<path class="st0" d="M645.2,365.9v-7.5h1.9l0.8,0.4l0.5,0.7l0.3,0.7l0.2,1.1v1.7l-0.2,1.1l-0.3,0.7l-0.5,0.7l-0.8,0.4L645.2,365.9"
	/>
<path class="st0" d="M654.8,360.2l-0.3-0.7l-0.5-0.7l-0.5-0.4h-1.1l-0.5,0.4l-0.5,0.7l-0.3,0.7l-0.2,1.1v1.7l0.2,1.1l0.3,0.7
	l0.5,0.7l0.5,0.4h1.1l0.5-0.4l0.5-0.7l0.3-0.7V363h-1.4"/>
<path class="st0" d="M656.4,365.9v-7.5h3.5"/>
<path class="st0" d="M656.4,362h2.2"/>
<path class="st0" d="M656.4,365.9h3.5"/>
<path class="st0" d="M661.5,365.9v-7.5h2.4l0.8,0.4l0.2,0.4l0.3,0.7v0.7l-0.3,0.7l-0.2,0.4l-0.8,0.4h-2.4"/>
<path class="st0" d="M663.3,362l1.9,3.9"/>
<path class="st0" d="M669,358.4v7.5"/>
<path class="st0" d="M667.1,358.4h3.7"/>
<path class="st0" d="M673.5,358.4l-0.5,0.4l-0.5,0.7l-0.2,0.7l-0.3,1.1v1.7l0.3,1.1l0.2,0.7l0.5,0.7l0.5,0.4h1.1l0.5-0.4l0.5-0.7
	l0.2-0.7l0.3-1.1v-1.7l-0.3-1.1l-0.2-0.7l-0.5-0.7l-0.5-0.4H673.5"/>
<path class="st0" d="M677.9,365.9v-7.5l3.7,7.5v-7.5"/>
<path class="st0" d="M688.8,365.9v-7.5"/>
<path class="st0" d="M692.6,358.4v7.5"/>
<path class="st0" d="M688.8,362h3.7"/>
<path class="st0" d="M694.7,365.9l2.2-7.5l2.1,7.5"/>
<path class="st0" d="M695.5,363.3h2.7"/>
<path class="st0" d="M700.6,358.4v7.5h3.2"/>
<path class="st0" d="M705.2,358.4v7.5h3.2"/>
<path class="st0" d="M520.6,477.6v-19.9h0.2"/>
<path class="st0" d="M522.5,457.7v19.9"/>
<path class="st0" d="M522.9,254.1v20.6h-0.2"/>
<path class="st0" d="M521,274.7v-20.6"/>
<path class="st0" d="M701.9,222.2l59.3,60.8v165l-59.3,61.5"/>
<path class="st0" d="M814.4,386.5v105.1"/>
<path class="st0" d="M815.9,492.2V386.5"/>
<path class="st0" d="M665.5,471.3l9.1-8.7l3.8,3.8"/>
<path class="st0" d="M684.5,491l8.5-8.1l2.8,2.8"/>
<path class="st0" d="M698.9,505.7l9.4-8.2l2.6,1.9"/>
<path class="st0" d="M675.7,481.8l8.6-8.3l2.5,2.5"/>
<path class="st0" d="M728.2,417.2h-3.8v14.3l3.8,2.2"/>
<path class="st0" d="M716.2,411.2h-4.1v15l4.1,2.6"/>
<path class="st0" d="M814.4,491.6L798.3,508"/>
<path class="st0" d="M799.2,509.3l16.7-17.1"/>
<path class="st0" d="M761.2,430.4h-4.5v15.4l4.5,2.3"/>
<path class="st0" d="M595.4,382.5h39.8"/>
<path class="st0" d="M635.2,380.7h-39.8"/>
<path class="st0" d="M685.4,238.7l8.3,9l3-2.6"/>
<path class="st0" d="M675.9,248.7l8.8,8.8l3-3.4"/>
<path class="st0" d="M667.1,257.9l8.6,9.4l3.4-3.7"/>
<path class="st0" d="M728.9,313.4h-4.5V298l3.8-1.5"/>
<path class="st0" d="M716.2,318.2h-4.1v-15.4l4.1-1.5"/>
<path class="st0" d="M741.7,308.1h-4.5v-15l4.1-1.9"/>
<path class="st0" d="M698.9,225.2l8.6,8.6l2.9-2.9"/>
<path class="st0" d="M797.6,228.2l16.8,16.8"/>
<path class="st0" d="M815.9,345.6V244.4l-17.1-17.1"/>
<path class="st0" d="M814.4,245v100.6"/>
<path class="st0" d="M761.6,300.2h-4.1v-16.1l3.8-1.1"/>
<path class="st0" d="M848.2,350.1V247"/>
<path class="st0" d="M840.7,252.2v93.4"/>
<path class="st0" d="M705.4,559.8l33.8,35.4"/>
<path class="st0" d="M738.3,583.4l-24.4-25.5"/>
<path class="st0" d="M595.4,392.3v-11.6"/>
<path class="st0" d="M593.2,336.6v3.1"/>
<path class="st0" d="M808.8,525.9l39.4-39.4"/>
<path class="st0" d="M840.7,481.4l-34.9,34.9"/>
<path class="st0" d="M681.8,231.8L664.5,215"/>
<path class="st0" d="M666.7,223.4l17.2,16.9"/>
<path class="st0" d="M797.7,222l-34-34.3"/>
<path class="st0" d="M757.4,187.7l40.3,40.7"/>
<path class="st0" d="M739.7,138.9l-31.4,32"/>
<path class="st0" d="M716.6,173.1l22.1-22.5"/>
<path class="st0" d="M708.2,170.9l16.9,17.6"/>
<path class="st0" d="M733.4,190.7l-16.9-17.6"/>
<path class="st0" d="M523.1,503.1v-21"/>
<path class="st0" d="M520.8,482.1v21.4"/>
<path class="st0" d="M523.1,249.2v-18"/>
<path class="st0" d="M520.8,231.2v18"/>
<path class="st0" d="M776.4,175.2L739.7,139"/>
<path class="st0" d="M738.7,150.6l28.1,27.7"/>
<path class="st0" d="M569.6,232v0.7"/>
<path class="st0" d="M569.6,232.7h2.3"/>
<path class="st0" d="M571.8,232.7V232"/>
<path class="st0" d="M571.8,240.6v-0.8"/>
<path class="st0" d="M571.8,239.9h-2.3"/>
<path class="st0" d="M569.6,239.9v9"/>
<path class="st0" d="M636.2,243.2l-36.3,37"/>
<path class="st0" d="M603.3,287.5l38.2-39"/>
<path class="st0" d="M634.7,487.8l26.9,27.3"/>
<path class="st0" d="M664.1,506.9l-24-24.4"/>
<path class="st0" d="M763.8,187.8l12.6-12.6"/>
<path class="st0" d="M766.8,178.4l-9.4,9.4"/>
<path class="st0" d="M848.2,247l-37.7-37.7"/>
<path class="st0" d="M807.3,218.9l33.4,33.4"/>
<path class="st0" d="M661.7,515.1l19.1-17.2"/>
<path class="st0" d="M683.2,489.6l-19.1,17.2"/>
<path class="st0" d="M723.4,542.6l-18,17.2"/>
<path class="st0" d="M713.9,557.9l18-17.2"/>
<path class="st0" d="M769,544.7l29.1-30"/>
<path class="st0" d="M798.2,508.2l-35.5,36.5"/>
<path class="st0" d="M739.2,595.2l40.1-40.1"/>
<path class="st0" d="M769.8,551.9l-31.5,31.5"/>
<path class="st0" d="M779.4,555L769,544.7"/>
<path class="st0" d="M762.7,544.7l7.1,7.1"/>
<path class="st0" d="M814.4,345.6v4.5"/>
<path class="st0" d="M848.2,486.6V382"/>
<path class="st0" d="M840.7,386.5v94.9"/>
<path class="st0" d="M848.2,382h-29.3"/>
<path class="st0" d="M818.9,386.5h21.8"/>
<path class="st0" d="M598.4,281.8l-20.8,20.9"/>
<path class="st0" d="M584.3,306.5l19.1-19"/>
<path class="st0" d="M577.5,302.7l7.5,7.9l1.7-1.5l-2.5-2.6"/>
<path class="st0" d="M603.5,326.8l-1.3-1.4l-1.6,1.6l1.3,1.4"/>
<path class="st0" d="M593.2,381.6v11.6"/>
<path class="st0" d="M636,422.6l4.8,11.5"/>
<path class="st0" d="M643.4,434.5l-6-14.3"/>
<path class="st0" d="M593.2,339.7l10.2-9.7"/>
<path class="st0" d="M601.8,328.4l-8.6,8.3"/>
<path class="st0" d="M603.8,400.7l-8.4-8.3"/>
<path class="st0" d="M593.2,393.2l9,9"/>
<path class="st0" d="M640.8,434l-2.6,2.8"/>
<path class="st0" d="M638.2,440.1l5.2-5.6"/>
<path class="st0" d="M637.4,420.2v-1.9"/>
<path class="st0" d="M640.7,297.3l-5.5,9.9"/>
<path class="st0" d="M637.4,307.7l6-10.9"/>
<path class="st0" d="M638.6,295.2l2,2.1"/>
<path class="st0" d="M643.4,296.9l-4.9-4.9"/>
<path class="st0" d="M635.2,307.2v0.7"/>
<path class="st0" d="M637.4,313v-5.3"/>
<path class="st0" d="M637.4,418.4v-36.7"/>
<path class="st0" d="M635.2,307.8l-4.7-4.3"/>
<path class="st0" d="M629,305.1l6.2,5.8v109.4"/>
<path class="st0" d="M637.4,381.6V313"/>
<path class="st0" d="M638.2,436.8l-8.4-8.9"/>
<path class="st0" d="M626.6,427.7l11.6,12.4"/>
<path class="st0" d="M629.8,427.9l6.2-5.3"/>
<path class="st0" d="M635.2,420.3l-6.9,6"/>
<path class="st0" d="M597.8,450.4l37,37.4"/>
<path class="st0" d="M640.1,482.5l-38.6-39"/>
<path class="st0" d="M575.9,428.6l20.3,20.3"/>
<path class="st0" d="M601.4,443.5l-18.7-18.7"/>
<path class="st0" d="M568.8,476.5v12.4"/>
<path class="st0" d="M568.8,488.9h2.2"/>
<path class="st0" d="M571.1,488.9v-2.2"/>
<path class="st0" d="M571.1,503.1v-2.3"/>
<path class="st0" d="M571.1,500.9h-2.2"/>
<path class="st0" d="M568.8,500.9v2.3"/>
<path class="st0" d="M511.1,249.2h12"/>
<path class="st0" d="M485.2,249.2L439.8,307l0.8,0.6"/>
<path class="st0" d="M405.3,350.9l1,0.8"/>
<path class="st0" d="M487.1,482.1h24v-0.4"/>
<path class="st0" d="M523.1,231.2h9V229h-4.9"/>
<path class="st0" d="M563.9,229h-5.2v2.2h5.2"/>
<path class="st0" d="M569.6,248.9l0.4,0.4"/>
<path class="st0" d="M599.9,280.2l-2.6-3l-1.7,1.5l2.7,3.1"/>
<path class="st0" d="M596.1,448.8l-2.3,2.4l1.6,1.6l2.3-2.4"/>
<path class="st0" d="M571.1,477.4l5.3-5.4l-1.6-1.6l-6,6.1"/>
<path class="st0" d="M568.8,503.1h-11.3v2.2h5.3"/>
<path class="st0" d="M526.8,505.4h4.5v-2.2H523"/>
<path class="st0" d="M636.5,293.1l1.7-1.5l-1.2-1.3l-1.7,1.5L636.5,293.1"/>
<path class="st0" d="M620.3,275.6l1.7-1.6l-2.2-2.3l-1.7,1.6L620.3,275.6"/>
<path class="st0" d="M602.2,402.2l-3,3l1.6,1.6l3-3"/>
<path class="st0" d="M582.8,424.8l2.4-2.3l-1.6-1.6l-7.7,7.7"/>
<path class="st0" d="M617.1,458.8l1.6,1.6l1.6-1.6l-1.6-1.6L617.1,458.8"/>
<path class="st0" d="M634,441.2l1.6,1.6l2.2-2.3l-1.6-1.6L634,441.2"/>
<path class="st0" d="M683.9,240.2l4.9-4.9l-5.3-5.3l-1.7,1.7"/>
<path class="st0" d="M725.1,188.5l-32.3,32.3l5.3,5.3l35.3-35.3"/>
<path class="st0" d="M731.9,540.6l-35.6-37.3l-5.5,5.2l32.5,34"/>
<path class="st0" d="M680.7,497.9l1.6,1.7l5.4-5.2l-4.6-4.7"/>
<path class="st0" d="M630.5,303.5l8.1-8.3"/>
<path class="st0" d="M638.6,292l-11.2,11.6"/>
<path class="st0" d="M603.8,403.8l12.8,13.4l1.6-1.6l-14.3-15.1"/>
<path class="st0" d="M628.3,426.3l-1.6-1.6l-1.6,1.6l1.4,1.5"/>
<path class="st0" d="M405.3,380.5l-12-14.6"/>
<path class="st0" d="M627.3,303.6l-0.6,0.5l1.6,1.6l0.7-0.7"/>
<path class="st0" d="M603.4,330l15.2-14.8l-1.6-1.6l-13.6,13.2"/>
<path class="st0" d="M664.5,215l-28.3,28.3"/>
<path class="st0" d="M641.6,248.5l25.1-25.1"/>
<path class="st0" d="M393.3,365.9l12-15"/>
<path class="st0" d="M405.3,380.5l27.4,34"/>
<path class="st0" d="M488.1,479.9l-13.4-16.7"/>
<path class="st0" d="M511.1,482.1h12"/>
<path class="st0" d="M486.3,251.5h24.8v-2.3h-25.9"/>
<path class="st0" d="M810.5,209.3L797.7,222"/>
<path class="st0" d="M797.7,228.4l9.6-9.5"/>
<path class="st0" d="M814.4,382v4.5"/>
<path class="st0" d="M798.1,514.7l10.7,11.3"/>
<path class="st0" d="M805.8,516.2l-7.7-8"/>
<path class="st0" d="M818.9,345.6h-4.5"/>
<path class="st0" d="M840.7,386.5V382h7.5"/>
<path class="st0" d="M840.7,345.6v4.5h7.5"/>
<path class="st0" d="M814.4,386.5h4.5"/>
<path class="st0" d="M818.9,350.1h29.3"/>
<path class="st0" d="M840.7,345.6h-21.8"/>
<path class="st0" d="M818.9,382v-2.6h-4.5v2.6"/>
<path class="st0" d="M814.4,350.1v2.2h4.5v-2.2"/>
<path class="st0" d="M571.8,232.7v7.1"/>
<path class="st0" d="M570.7,232.7v7.1"/>
<path class="st0" d="M569.6,232.7v7.1"/>
<path class="st0" d="M585,310.6l-8.2,7.7"/>
<path class="st0" d="M600.5,327l-8.2,7.7"/>
<path class="st0" d="M571.1,488.9v12"/>
<path class="st0" d="M569.9,488.9v12"/>
<path class="st0" d="M568.8,488.9v12"/>
<path class="st0" d="M429.7,299.1c-4.4,5.5-3.4,13.6,2.1,17.9"/>
<path class="st0" d="M439.8,307l-10-7.9"/>
<path class="st0" d="M532.1,231.2v13.3"/>
<path class="st0" d="M558.7,231.2v13.3"/>
<path class="st0" d="M578.1,258.6l10-8.8"/>
<path class="st0" d="M595.7,278.7l10-8.8"/>
<path class="st0" d="M593.8,451.2l9.6,9.5"/>
<path class="st0" d="M574.8,470.4l9.6,9.5"/>
<path class="st0" d="M557.6,503.1V490"/>
<path class="st0" d="M531.3,503.1V490"/>
<path class="st0" d="M637,290.3l-8.1,7.5"/>
<path class="st0" d="M635.6,442.8l-8-7.7"/>
<path class="st0" d="M688.8,235.4l-9.3-9.3"/>
<path class="st0" d="M687.8,494.4l-8.9,8.6"/>
<path class="st0" d="M625.1,426.2l8.9-8.6"/>
<path class="st0" d="M434.1,416.3c-5.5,4.4-6.4,12.4-1.9,17.9"/>
<path class="st0" d="M442.1,426.2l-10,8"/>
<path class="st0" d="M818.9,379.4h13.5"/>
<path class="st0" d="M818.9,352.4h13.5"/>
<path class="st0" d="M384.3,352.4l9,13.5l-10.5,12"/>
<path class="st0" d="M814.4,352.4v27"/>
<path class="st0" d="M848.2,382v4.5"/>
<path class="st0" d="M848.2,350.1v-4.5"/>
<path class="st0" d="M661.4,504.2l14.9-14.5"/>
<path class="st0" d="M658.8,501.5l14.9-14.5"/>
<path class="st0" d="M656.2,498.8l14.9-14.5"/>
<path class="st0" d="M653.6,496.2l14.9-14.6"/>
<path class="st0" d="M650.9,493.5l14.9-14.6"/>
<path class="st0" d="M663.5,257l-15.2-15.2"/>
<path class="st0" d="M651,239.1l14.9,15.4"/>
<path class="st0" d="M653.6,236.4l14.9,15.2"/>
<path class="st0" d="M656.3,233.8L671,249"/>
<path class="st0" d="M658.9,231.1l14.7,15.1"/>
<path class="st0" d="M661.6,228.5l14.6,15"/>
<path class="st0" d="M664.2,225.8l14.5,14.9"/>
<path class="st0" d="M410.2,365.8c0-9.3-7.6-16.9-16.9-16.9s-16.9,7.6-16.9,16.9s7.6,16.9,16.9,16.9S410.2,375.2,410.2,365.8"/>
<path class="st0" d="M570.2,249.6l7.9,9l1.7-1.4l-6.6-7.6"/>
<path class="st0" d="M471.3,270.5l14.9-19"/>
<path class="st0" d="M456.7,289.1l14-17.8"/>
<path class="st0" d="M440.8,307.7l0.8,0.7l14.9-19"/>
<path class="st0" d="M425.9,328.2l7.8-9.8l-1.8-1.4l-26.6,33.8"/>
<path class="st0" d="M406.4,351.8l0.7,0.5l18.5-23.5"/>
<path class="st0" d="M406.2,379.7l-0.9,0.8"/>
<path class="st0" d="M433.1,415l1,1.3l1.8-1.4l-28.8-35.8l-0.7,0.5"/>
<path class="st0" d="M443.3,427.7l43.4,53.9"/>
<path class="st0" d="M459.5,444.2l-15.6-19.4l-1.7,1.4l1.1,1.4"/>
<path class="st0" d="M474.6,463l-14.9-18.5"/>
<path class="st0" d="M511.1,480.2v-0.4h-22.9"/>
<path class="st0" d="M470.2,502.7v9h9v-9H470.2"/>
<path class="st0" d="M458.2,444.2v1.5h1.5v-1.5H458.2"/>
<path class="st0" d="M425.9,404.5v1.5h1.5v-1.5H425.9"/>
<path class="st0" d="M432.7,413.5v1.5h1.5v-1.5H432.7"/>
<path class="st0" d="M443.2,426.2v1.5h1.5v-1.5H443.2"/>
<path class="st0" d="M473.2,463v1.5h1.5V463H473.2"/>
<path class="st0" d="M486.7,480.6v1.5h1.5v-1.5H486.7"/>
<path class="st0" d="M568.8,477.6v9h9v-9H568.8"/>
<path class="st0" d="M517.8,503.5v9h9v-9H517.8"/>
<path class="st0" d="M562.8,503.1v9h9v-9L562.8,503.1"/>
<path class="st0" d="M510.3,480.2v1.5h1.5v-1.5H510.3"/>
<path class="st0" d="M520.8,476.9v1.5h1.5v-1.5H520.8"/>
<path class="st0" d="M520.8,457v1.5h1.5V457H520.8"/>
<path class="st0" d="M581.2,423.2l-5.6-6l0.4,11.3L581.2,423.2"/>
<path class="st0" d="M412.1,387.2v1.5h1.5v-1.5H412.1"/>
<path class="st0" d="M404.9,378.2v1.5h1.5v-1.5H404.9"/>
<path class="st0" d="M404.9,351.6v1.5h1.5v-1.5H404.9"/>
<path class="st0" d="M409.4,345.6v1.5h1.5v-1.5H409.4"/>
<path class="st0" d="M430.4,319v1.5h1.5V319H430.4"/>
<path class="st0" d="M424.4,327.2v1.5h1.5v-1.5H424.4"/>
<path class="st0" d="M440.6,306.2v1.5h1.5v-1.5H440.6"/>
<path class="st0" d="M455.2,287.9v1.5h1.5v-1.5H455.2"/>
<path class="st0" d="M469.8,269.9v1.5h1.5v-1.5H469.8"/>
<path class="st0" d="M485.2,249.6v1.5h1.5v-1.5H485.2"/>
<path class="st0" d="M509.6,249.6v1.5h1.5v-1.5H509.6"/>
<path class="st0" d="M521.2,274v1.5h1.5V274H521.2"/>
<path class="st0" d="M521.2,253.4v1.5h1.5v-1.5H521.2"/>
<path class="st0" d="M582.7,308.1l-5.6-4.9l-0.7,11.6L582.7,308.1"/>
<path class="st0" d="M569.9,240.6v9h9v-9H569.9"/>
<path class="st0" d="M470.9,222.6v9h9v-9H470.9"/>
<path class="st0" d="M518.2,222.2v9h9v-9H518.2"/>
<path class="st0" d="M563.9,223v9h9v-9H563.9"/>
<path class="st0" d="M593.2,393.2l-18.9-18.9"/>
<path class="st0" d="M593.2,390l-16.7-16.6"/>
<path class="st0" d="M593.2,339.7l-16.7,16"/>
<path class="st0" d="M593.2,336.6l-18.9,18.1"/>
<path class="st0" d="M595.4,337.6h39.8"/>
<path class="st0" d="M597.8,335.3h37.4"/>
<path class="st0" d="M576.5,373.4V372"/>
<path class="st0" d="M576.5,358.5v-2.9"/>
<path class="st0" d="M574.3,374.3V372"/>
<path class="st0" d="M574.3,358.5v-3.8"/>
<path class="st0" d="M574.3,358.5h2.2"/>
<path class="st0" d="M574.3,372h2.2"/>
<path class="st0" d="M575.4,372H590"/>
<path class="st1" d="M489.9,359.7l0.4-0.2l0.5-0.5v3.7"/>
<path class="st1" d="M494,359l-0.5,0.2l-0.4,0.5l-0.2,0.9v0.5l0.2,0.9l0.4,0.5l0.5,0.2h0.4l0.5-0.2l0.4-0.5l0.2-0.9v-0.5l-0.2-0.9
	l-0.4-0.5l-0.5-0.2H494"/>
<path class="st1" d="M497.6,359l-0.5,0.2l-0.4,0.5l-0.2,0.9v0.5l0.2,0.9l0.4,0.5l0.5,0.2h0.4l0.5-0.2l0.4-0.5l0.2-0.9v-0.5l-0.2-0.9
	l-0.4-0.5L498,359H497.6"/>
<path class="st1" d="M500.3,359v3.7h2.2"/>
<path class="st1" d="M502.8,362.7l1.4-3.7l1.4,3.7"/>
<path class="st1" d="M503.3,361.4h1.8"/>
<path class="st1" d="M489.3,365.2v3.7h2.2"/>
<path class="st1" d="M493.3,365.2l-0.4,0.2l-0.4,0.4l-0.2,0.4l-0.2,0.5v0.9l0.2,0.5l0.2,0.3l0.4,0.4l0.4,0.2h0.7l0.4-0.2l0.4-0.4
	l0.2-0.3l0.2-0.5v-0.9l-0.2-0.5l-0.2-0.4l-0.4-0.4l-0.4-0.2H493.3"/>
<path class="st1" d="M497.9,367l0.5,0.2l0.2,0.2l0.2,0.4v0.5l-0.2,0.4l-0.2,0.2l-0.5,0.2h-1.6v-3.7h1.6l0.5,0.2l0.2,0.2l0.2,0.4v0.4
	l-0.2,0.4l-0.2,0.2L497.9,367h-1.6"/>
<path class="st1" d="M501.7,367l0.5,0.2l0.2,0.2l0.2,0.4v0.5l-0.2,0.4l-0.2,0.2l-0.5,0.2h-1.6v-3.7h1.6l0.5,0.2l0.2,0.2l0.2,0.4v0.4
	l-0.2,0.4l-0.2,0.2L501.7,367h-1.6"/>
<path class="st1" d="M503.3,365.2l1.4,1.8v1.9"/>
<path class="st1" d="M506.1,365.2l-1.4,1.8"/>
<path class="st1" d="M492.8,375.2v-3.8h1.3l0.5,0.2l0.4,0.4l0.2,0.4l0.2,0.5v0.9l-0.2,0.5l-0.2,0.4l-0.4,0.4l-0.5,0.2h-1.3"/>
<path class="st1" d="M497.4,371.4l-0.4,0.2l-0.4,0.4l-0.2,0.4l-0.2,0.5v0.9l0.2,0.5l0.2,0.4l0.4,0.4l0.4,0.2h0.7l0.4-0.2l0.4-0.4
	l0.2-0.4l0.2-0.5v-0.9l-0.2-0.5l-0.2-0.4l-0.4-0.4l-0.4-0.2H497.4"/>
<path class="st1" d="M500.4,375.2v-3.8h2.3"/>
<path class="st1" d="M500.4,373.2h1.4"/>
<path class="st0" d="M593.2,381.6l2.2-1"/>
<path class="st1" d="M616.5,317.6l0.4-0.2l0.5-0.5v3.7"/>
<path class="st1" d="M620.6,317l-0.5,0.1l-0.4,0.5l-0.2,0.9v0.5l0.2,0.9l0.4,0.5l0.5,0.2h0.4l0.5-0.2l0.4-0.5l0.2-0.9v-0.5l-0.2-0.9
	l-0.4-0.5L621,317H620.6"/>
<path class="st1" d="M623.7,317.6l0.4-0.2l0.5-0.5v3.7"/>
<path class="st1" d="M626.4,320.7l1.4-3.7l1.4,3.7"/>
<path class="st1" d="M626.9,319.4h1.7"/>
<path class="st1" d="M615.6,324.1l-0.2-0.4l-0.4-0.4l-0.4-0.2H614l-0.4,0.2l-0.4,0.4l-0.2,0.4l-0.2,0.5v0.9l0.2,0.5l0.2,0.4l0.4,0.4
	l0.4,0.2h0.7l0.4-0.2l0.4-0.4l0.2-0.4"/>
<path class="st1" d="M616.9,323.2v3.7h2.2"/>
<path class="st1" d="M619.4,326.9l1.4-3.7l1.4,3.7"/>
<path class="st1" d="M620,325.7h1.7"/>
<path class="st1" d="M629.2,323.7l-0.4-0.4l-0.5-0.2h-0.7l-0.5,0.2l-0.4,0.4v0.4l0.2,0.4l0.2,0.1l0.4,0.2l1,0.4l0.4,0.2l0.2,0.2
	l0.2,0.4v0.5l-0.4,0.4l-0.5,0.2h-0.7l-0.5-0.2l-0.4-0.4"/>
<path class="st1" d="M629.9,323.2l1.4,3.7l1.4-3.7"/>
<path class="st1" d="M614.1,333.2v-3.7h2.3"/>
<path class="st1" d="M614.1,331.2h1.4"/>
<path class="st1" d="M614.1,333.2h2.3"/>
<path class="st1" d="M617.5,333.2v-3.7h2.3"/>
<path class="st1" d="M617.5,331.2h1.4"/>
<path class="st1" d="M617.5,333.2h2.3"/>
<path class="st1" d="M624.3,331.1v-0.2l-0.2-0.2H624l-0.2,0.2l-0.2,0.4l-0.4,0.8l-0.4,0.5l-0.4,0.4l-0.4,0.2h-0.7l-0.4-0.2l-0.2-0.2
	l-0.2-0.4V332l0.2-0.3l0.2-0.2l1.3-0.7l0.2-0.2l0.2-0.4V330l-0.2-0.4l-0.4-0.2l-0.4,0.2l-0.2,0.4v0.4l0.2,0.5l0.4,0.5l0.9,1.2
	l0.4,0.4l0.4,0.2h0.3l0.2-0.2v-0.2"/>
<path class="st1" d="M628.1,330.3l-0.2-0.4l-0.4-0.4l-0.4-0.2h-0.7l-0.4,0.2l-0.4,0.4l-0.2,0.4l-0.2,0.5v0.9l0.2,0.5l0.2,0.4
	l0.4,0.4l0.4,0.2h0.7l0.4-0.2l0.4-0.4l0.2-0.4"/>
<path class="st1" d="M631.6,330l-0.3-0.4l-0.5-0.2H630l-0.5,0.2l-0.4,0.4v0.4l0.2,0.4l0.2,0.2l0.4,0.2l1.1,0.4l0.4,0.2l0.2,0.2
	l0.1,0.3v0.5l-0.3,0.4l-0.5,0.2H630l-0.5-0.2l-0.4-0.4"/>
<path class="st1" d="M603.8,352.9l0.4-0.2l0.5-0.5v3.8"/>
<path class="st1" d="M607.8,352.2l-0.5,0.2l-0.4,0.5l-0.2,0.9v0.5l0.2,0.9l0.4,0.5l0.5,0.2h0.4l0.5-0.2l0.4-0.5l0.2-0.9v-0.5
	l-0.2-0.9l-0.4-0.5l-0.5-0.2H607.8"/>
<path class="st1" d="M610.9,352.9l0.4-0.2l0.5-0.5v3.8"/>
<path class="st1" d="M615.7,354l0.5,0.2l0.2,0.2l0.2,0.4v0.5l-0.2,0.4l-0.2,0.2l-0.5,0.2h-1.6v-3.8h1.6l0.5,0.2l0.2,0.2l0.2,0.4v0.4
	l-0.2,0.4l-0.2,0.2L615.7,354h-1.6"/>
<path class="st1" d="M604.8,359.1v2.7l0.2,0.5l0.4,0.4l0.5,0.2h0.3l0.5-0.2l0.4-0.4l0.2-0.5v-2.7"/>
<path class="st1" d="M611.6,358.4l-3.2,5.8"/>
<path class="st1" d="M612.7,362.9v-3.8l1.4,3.8l1.4-3.8v3.8"/>
<path class="st1" d="M605.2,369.2v-3.8h1.2l0.5,0.2l0.4,0.4l0.2,0.4l0.2,0.5v0.9l-0.2,0.5l-0.2,0.4l-0.4,0.4l-0.5,0.2h-1.2"/>
<path class="st1" d="M609.8,365.4l-0.4,0.2L609,366l-0.2,0.4l-0.2,0.5v0.9l0.2,0.5l0.2,0.4l0.4,0.4l0.4,0.2h0.7l0.4-0.2l0.4-0.4
	l0.2-0.4l0.2-0.5v-0.9l-0.2-0.5l-0.2-0.4l-0.4-0.4l-0.4-0.2H609.8"/>
<path class="st1" d="M612.9,369.2v-3.8h2.3"/>
<path class="st1" d="M612.9,367.2h1.4"/>
<path class="st1" d="M622.1,501.3l0.4-0.2l0.5-0.5v3.7"/>
<path class="st1" d="M626.2,500.6l-0.5,0.2l-0.4,0.5l-0.2,0.9v0.5l0.2,0.9l0.4,0.5l0.5,0.2h0.4l0.5-0.2l0.4-0.5l0.2-0.9v-0.5
	l-0.2-0.9l-0.4-0.5l-0.5-0.2H626.2"/>
<path class="st1" d="M629.8,500.6l-0.5,0.2l-0.4,0.5l-0.2,0.9v0.5l0.2,0.9l0.4,0.5l0.5,0.2h0.4l0.5-0.2l0.4-0.5l0.2-0.9v-0.5
	l-0.2-0.9l-0.4-0.5l-0.5-0.2H629.8"/>
<path class="st1" d="M634.8,501.1l-0.4-0.4l-0.5-0.2h-0.7l-0.5,0.2l-0.4,0.4v0.4l0.2,0.4l0.2,0.2l0.4,0.2l1,0.4l0.4,0.2l0.2,0.2
	l0.2,0.4v0.5l-0.4,0.3l-0.5,0.2h-0.7l-0.5-0.2l-0.4-0.3"/>
<path class="st1" d="M635.5,504.3l1.4-3.7l1.4,3.7"/>
<path class="st1" d="M636,503.1h1.8"/>
<path class="st1" d="M625.9,507.3l-0.4-0.4l-0.5-0.2h-0.7l-0.5,0.2l-0.4,0.4v0.4l0.2,0.4l0.2,0.2l0.4,0.2l1.1,0.4l0.4,0.2l0.2,0.2
	l0.2,0.4v0.5l-0.4,0.4l-0.5,0.2h-0.7l-0.5-0.2l-0.4-0.4"/>
<path class="st1" d="M627.8,506.8v3.8"/>
<path class="st1" d="M626.6,506.8h2.5"/>
<path class="st1" d="M629.4,510.6l1.4-3.8l1.4,3.8"/>
<path class="st1" d="M630,509.3h1.8"/>
<path class="st1" d="M633.2,506.8v3.8"/>
<path class="st1" d="M634.6,510.6v-3.8h1.6l0.5,0.2l0.2,0.2l0.2,0.4v0.4l-0.2,0.4l-0.2,0.2l-0.5,0.2h-1.6"/>
<path class="st1" d="M635.9,508.6l1.3,2"/>
<path class="st1" d="M625.2,516.8V513h1.3l0.5,0.2l0.4,0.4l0.2,0.4l0.2,0.5v0.9l-0.2,0.5l-0.2,0.4l-0.4,0.4l-0.5,0.2h-1.3"/>
<path class="st1" d="M629.9,513l-0.3,0.2l-0.4,0.4L629,514l-0.2,0.5v0.9l0.2,0.5l0.2,0.4l0.4,0.4l0.3,0.2h0.7l0.4-0.2l0.4-0.4
	l0.2-0.4l0.2-0.5v-0.9l-0.2-0.5l-0.2-0.4l-0.4-0.4l-0.4-0.2H629.9"/>
<path class="st1" d="M632.9,516.8V513h2.3"/>
<path class="st1" d="M632.9,514.8h1.4"/>
<path class="st1" d="M658.1,233.9l0.4-0.2l0.5-0.5v3.7"/>
<path class="st1" d="M662.1,233.2l-0.5,0.2l-0.4,0.5l-0.2,0.8v0.5l0.2,0.9l0.4,0.5l0.5,0.2h0.4l0.5-0.2l0.4-0.5l0.2-0.9v-0.5
	l-0.2-0.8l-0.4-0.5l-0.5-0.2H662.1"/>
<path class="st1" d="M665.7,233.2l-0.5,0.2l-0.4,0.5l-0.2,0.8v0.5l0.2,0.9l0.4,0.5l0.5,0.2h0.4l0.5-0.2l0.4-0.5l0.2-0.9v-0.5
	l-0.2-0.8l-0.4-0.5l-0.5-0.2H665.7"/>
<path class="st1" d="M670.7,233.7l-0.4-0.4l-0.5-0.2h-0.7l-0.5,0.2l-0.4,0.4v0.4l0.2,0.4l0.2,0.2l0.4,0.1l1,0.4l0.4,0.2l0.2,0.2
	l0.2,0.4v0.5l-0.4,0.4l-0.5,0.2h-0.7l-0.5-0.2l-0.4-0.4"/>
<path class="st1" d="M673.6,234.9l0.5,0.2l0.2,0.2l0.2,0.4v0.5l-0.2,0.4l-0.2,0.2l-0.5,0.2H672v-3.7h1.6l0.5,0.2l0.2,0.2l0.2,0.4
	v0.4l-0.2,0.4l-0.2,0.1L673.6,234.9H672"/>
<path class="st1" d="M661.9,240l-0.4-0.4l-0.5-0.2h-0.7l-0.5,0.2l-0.4,0.4v0.4l0.2,0.4l0.2,0.2l0.4,0.2l1.1,0.4l0.4,0.2l0.2,0.2
	l0.2,0.4v0.5l-0.4,0.4l-0.5,0.2h-0.7l-0.5-0.2l-0.4-0.4"/>
<path class="st1" d="M663.9,239.4v3.7"/>
<path class="st1" d="M662.6,239.4h2.5"/>
<path class="st1" d="M665.5,243.2l1.4-3.7l1.4,3.7"/>
<path class="st1" d="M666,242h1.8"/>
<path class="st1" d="M669.2,239.4v3.7"/>
<path class="st1" d="M670.7,243.2v-3.7h1.6l0.5,0.2l0.2,0.2l0.2,0.4v0.4l-0.2,0.4l-0.2,0.2l-0.5,0.2h-1.6"/>
<path class="st1" d="M671.9,241.2l1.3,1.9"/>
<path class="st1" d="M661.3,249.5v-3.8h1.2l0.5,0.2l0.4,0.4l0.2,0.4l0.2,0.5v0.9l-0.2,0.5l-0.2,0.4l-0.4,0.4l-0.5,0.2L661.3,249.5"
	/>
<path class="st1" d="M665.9,245.7l-0.4,0.2l-0.4,0.4l-0.2,0.4l-0.2,0.5v0.9l0.2,0.5l0.2,0.4l0.4,0.4l0.4,0.2h0.7l0.4-0.2l0.4-0.4
	l0.2-0.4l0.2-0.5v-0.9l-0.2-0.5l-0.2-0.4l-0.4-0.4l-0.4-0.2H665.9"/>
<path class="st1" d="M669,249.5v-3.8h2.3"/>
<path class="st1" d="M669,247.5h1.4"/>
<path class="st1" d="M665.2,384.2l0.4-0.2l0.5-0.5v3.8"/>
<path class="st1" d="M669.3,383.5l-0.5,0.2l-0.4,0.5l-0.2,0.9v0.5l0.2,0.9l0.4,0.5l0.5,0.2h0.4l0.5-0.2l0.4-0.5l0.2-0.9v-0.5
	l-0.2-0.9l-0.4-0.5l-0.5-0.2H669.3"/>
<path class="st1" d="M672.3,384.2l0.4-0.2l0.5-0.5v3.8"/>
<path class="st1" d="M659.6,389.8v3.7h2.1"/>
<path class="st1" d="M662.6,393.5v-3.7h2.3"/>
<path class="st1" d="M662.6,391.5h1.4"/>
<path class="st1" d="M662.6,393.5h2.3"/>
<path class="st1" d="M668.5,390.7l-0.2-0.4L668,390l-0.4-0.2h-0.7l-0.4,0.2l-0.4,0.4l-0.2,0.4l-0.2,0.5v0.9l0.2,0.5l0.2,0.4l0.4,0.4
	l0.4,0.2h0.7l0.4-0.2l0.3-0.4l0.2-0.4"/>
<path class="st1" d="M670.5,389.8v3.7"/>
<path class="st1" d="M669.2,389.8h2.5"/>
<path class="st1" d="M676.4,389.8v3.7"/>
<path class="st1" d="M678.9,389.8v3.7"/>
<path class="st1" d="M676.4,391.5h2.5"/>
<path class="st1" d="M660.3,399.8V396h1.6l0.5,0.2l0.2,0.2l0.2,0.4v0.4l-0.2,0.4l-0.2,0.2l-0.5,0.2h-1.6"/>
<path class="st1" d="M661.5,397.8l1.3,1.9"/>
<path class="st1" d="M664.1,399.8V396h2.3"/>
<path class="st1" d="M664.1,397.8h1.4"/>
<path class="st1" d="M664.1,399.8h2.3"/>
<path class="st1" d="M669.9,396.9l-0.2-0.4l-0.4-0.4L669,396h-0.7l-0.3,0.2l-0.4,0.4l-0.2,0.4l-0.2,0.5v0.8l0.2,0.5l0.2,0.4l0.4,0.4
	l0.3,0.2h0.7l0.4-0.2l0.4-0.4l0.2-0.4v-0.5h-1"/>
<path class="st1" d="M671.2,396v3.7"/>
<path class="st1" d="M675,396.6l-0.4-0.4l-0.5-0.2h-0.7l-0.5,0.2l-0.4,0.4v0.4l0.2,0.4l0.2,0.2l0.4,0.2l1.1,0.4l0.4,0.2l0.2,0.1
	l0.2,0.4v0.5l-0.4,0.4l-0.5,0.2h-0.7l-0.5-0.2l-0.4-0.4"/>
<path class="st1" d="M676.9,396v3.7"/>
<path class="st1" d="M675.7,396h2.5"/>
<path class="st1" d="M609,397l0.4-0.2l0.5-0.5v3.8"/>
<path class="st1" d="M613.1,396.3l-0.5,0.2l-0.3,0.5l-0.2,0.9v0.5l0.2,0.9l0.3,0.5l0.5,0.2h0.4l0.5-0.2l0.4-0.5l0.2-0.9v-0.5
	l-0.2-0.9l-0.4-0.5l-0.5-0.2H613.1"/>
<path class="st1" d="M616.1,397l0.4-0.2l0.5-0.5v3.8"/>
<path class="st1" d="M619.4,400.1v-3.8h2.3"/>
<path class="st1" d="M619.4,398.1h1.4"/>
<path class="st1" d="M619.4,400.1h2.3"/>
<path class="st1" d="M609.2,406.3v-3.8h2.3"/>
<path class="st1" d="M609.2,404.3h1.4"/>
<path class="st1" d="M609.2,406.3h2.3"/>
<path class="st1" d="M612.5,402.5v3.8h2.2"/>
<path class="st1" d="M615.6,406.3v-3.8h2.3"/>
<path class="st1" d="M615.6,404.3h1.4"/>
<path class="st1" d="M615.6,406.3h2.3"/>
<path class="st1" d="M621.5,403.4l-0.2-0.4l-0.4-0.4l-0.4-0.2h-0.7l-0.3,0.2l-0.4,0.4l-0.2,0.4l-0.2,0.5v0.9l0.2,0.5l0.2,0.4
	l0.4,0.4l0.3,0.2h0.7l0.4-0.2l0.4-0.4l0.2-0.4"/>
<path class="st1" d="M610.3,412.5v-3.8h1.3l0.5,0.2l0.4,0.4l0.2,0.4l0.2,0.5v0.9l-0.2,0.5l-0.2,0.4l-0.4,0.4l-0.5,0.2h-1.3"/>
<path class="st1" d="M615,408.8l-0.4,0.2l-0.4,0.4l-0.2,0.4l-0.2,0.5v0.9l0.2,0.5l0.2,0.4l0.4,0.4l0.4,0.2h0.7l0.4-0.2l0.3-0.4
	l0.2-0.4l0.2-0.5v-0.9l-0.2-0.5l-0.2-0.4l-0.3-0.4l-0.4-0.2H615"/>
<path class="st1" d="M618,412.5v-3.8h2.3"/>
<path class="st1" d="M618,410.6h1.4"/>
<path class="st0" d="M700.7,185.4l-32.8,32.8"/>
<path class="st0" d="M667.5,241.3l1.3-5.3"/>
<path class="st0" d="M756.7,205.7l-5.6,2.3"/>
<path class="st0" d="M630.5,303.5l10.1-6.2"/>
<path class="st0" d="M638.6,295.2l-3.9,12.1"/>
<path class="st0" d="M656.9,469.7l22.6,23.2"/>
<path class="st0" d="M666.3,494.3l-1.1-5.3"/>
<path class="st0" d="M731.9,540.6l1.9,1.8"/>
<path class="st0" d="M629.8,427.9l11,6.1"/>
<path class="st0" d="M636,422.6l2.2,14.3"/>
<path class="st1" d="M31.1,761v1"/>
<path class="st1" d="M31.3,761v1"/>
<path class="st1" d="M31.2,762v-1"/>
<path class="st1" d="M31.2,761v1"/>
<path class="st1" d="M31.5,760.8h-0.7"/>
<path class="st1" d="M29.7,760.3v2.5"/>
<path class="st1" d="M29.7,760.3v2.3"/>
<path class="st1" d="M29.8,762.1h3"/>
<path class="st1" d="M32.8,762.2h-3"/>
<path class="st1" d="M29.8,762.3h3"/>
<path class="st1" d="M32.8,762.3h-3"/>
<path class="st1" d="M29.8,762.4h3"/>
<path class="st1" d="M32.8,762.5h-3"/>
<path class="st1" d="M29.8,762.5h3h-0.1"/>
<path class="st1" d="M29.8,762.2h3"/>
<path class="st1" d="M32.9,761.9v0.9"/>
<path class="st1" d="M32.8,762v0.7"/>
<path class="st1" d="M31.3,762h1.4l0.1-0.1l0.1-0.1l0.1-0.1v-0.2"/>
<path class="st1" d="M29.6,763L29.6,763l0.1-0.3h0.1l0.1-0.1l0.1-0.1h0"/>
<path class="st1" d="M32.8,762.7L32.8,762.7L32.8,762.7l-2.8-0.1"/>
<path class="st1" d="M32.9,763L32.9,763l0.1-1.4"/>
<path class="st1" d="M29.6,760.3v2.7"/>
<path class="st1" d="M31,760.9L31,760.9l-0.1-0.1l-0.1-0.1h-0.2v-0.1h1.2"/>
<path class="st1" d="M31.1,761.2v0.8"/>
<path class="st1" d="M31.8,760.7L31.8,760.7l-0.1,0.1l-0.2,0.1h-0.1l-0.1,0.1l-0.1,0.1v1"/>
<path class="st1" d="M29.8,762h1.3"/>
<path class="st1" d="M29.6,760.3l0.8-0.1v0.1l-0.2,0.1l-0.1,0.1l-0.1,0.1l-0.1,0.1l-0.1,0.2v1.3"/>
<path class="st1" d="M30,759.2h2.6"/>
<path class="st1" d="M30,759.2h-0.1l-0.1-0.1l-0.1-0.1h-0.1v-0.3"/>
<path class="st1" d="M29.7,760.2L29.7,760.2l-0.1-1.4"/>
<path class="st1" d="M32.9,758.8v1.4h-0.1"/>
<path class="st1" d="M30,759.8h2.6"/>
<path class="st1" d="M32.6,759.8L32.6,759.8L32.6,759.8l0.2,0.2l0.1,0.1v0.2"/>
<path class="st1" d="M29.7,759.2v0.7"/>
<path class="st1" d="M29.7,759v0.9"/>
<path class="st1" d="M29.7,759.3h3.1"/>
<path class="st1" d="M32.8,759.4h-3.1"/>
<path class="st1" d="M29.7,759.5h3.1"/>
<path class="st1" d="M32.8,759.5h-3.1"/>
<path class="st1" d="M29.7,759.6h3.1"/>
<path class="st1" d="M32.8,759.6h-3.1"/>
<path class="st1" d="M29.7,759.7h3.1h-0.1"/>
<path class="st1" d="M29.7,759.3h3.1"/>
<path class="st1" d="M32.9,759v0.9"/>
<path class="st1" d="M32.8,759.2v0.7"/>
<path class="st1" d="M32.5,757.8L32.5,757.8l0.2-0.1v-1.1l-0.1-0.2l-0.1-0.1l-0.2-0.1l-0.2-0.1V756l0.8,0.3"/>
<path class="st1" d="M29.6,757.4v1.3"/>
<path class="st1" d="M32.9,756.3v2.4h-0.1"/>
<path class="st1" d="M30,758.3h2.6"/>
<path class="st1" d="M32.6,758.3L32.6,758.3L32.6,758.3l0.2,0.2l0.1,0.1v0.2"/>
<path class="st1" d="M30,758.3l-0.1,0.1h-0.1l-0.1,0.1l-0.1,0.1v0.2h-0.1"/>
<path class="st1" d="M29.6,757.4L29.6,757.4l0.1,0.2l0.1,0.1l0.1,0.1l0.1,0.1h2.6"/>
<path class="st1" d="M29.9,757.8h-0.1v0.5"/>
<path class="st1" d="M29.7,757.7v0.7"/>
<path class="st1" d="M29.7,757.5v1"/>
<path class="st1" d="M32.7,758.2h-2.9H32.7"/>
<path class="st1" d="M29.8,758.1h2.9"/>
<path class="st1" d="M29.8,758.1h2.9"/>
<path class="st1" d="M29.8,758h2.9"/>
<path class="st1" d="M29.8,758h2.9"/>
<path class="st1" d="M29.8,757.9h2.9"/>
<path class="st1" d="M29.8,757.8h2.9"/>
<path class="st1" d="M32.7,757.7v0.6"/>
<path class="st1" d="M32.7,756.2v2.1"/>
<path class="st1" d="M32.8,756.3v2"/>
<path class="st1" d="M32.9,756.3v2.2"/>
<path class="st1" d="M31.5,753.7h-0.7"/>
<path class="st1" d="M32.7,755v0.5V755"/>
<path class="st1" d="M32.7,755.5v-0.6"/>
<path class="st1" d="M32.9,753.3v2.3"/>
<path class="st1" d="M32.8,753.3v2.2"/>
<path class="st1" d="M32.7,753.5v-0.2V753.5"/>
<path class="st1" d="M29.8,755.4h2.8"/>
<path class="st1" d="M32.6,755.4h-2.8"/>
<path class="st1" d="M29.8,755.3h2.8"/>
<path class="st1" d="M32.6,755.3h-2.8"/>
<path class="st1" d="M29.8,755.2h2.8"/>
<path class="st1" d="M32.6,755.1h-2.8"/>
<path class="st1" d="M32.6,755.1h-2.8H32.6"/>
<path class="st1" d="M29.7,753.5v2.1"/>
<path class="st1" d="M29.7,753.5v2.2"/>
<path class="st1" d="M31.2,753.9v1.1"/>
<path class="st1" d="M31.2,755v-1.1"/>
<path class="st1" d="M31.3,753.9v1.1"/>
<path class="st1" d="M31.1,753.9v1.1"/>
<path class="st1" d="M31.1,755h-1.3v-1.2l0.1-0.1l0.1-0.1l0.1-0.1l0.1-0.1h0.2v-0.1h-0.8"/>
<path class="st1" d="M31.8,753.7h-0.1l-0.2,0.1h-0.1l-0.1,0.1l-0.1,0.1v1.1"/>
<path class="st1" d="M32.6,755L32.6,755l0.2-0.2v-1.2l-0.1-0.2l-0.1-0.1l-0.2-0.1"/>
<path class="st1" d="M31.1,754.1v0.9"/>
<path class="st1" d="M32.9,753.3l-0.8-0.2v0.1l0.2,0.1"/>
<path class="st1" d="M31.8,753.7h-1.2h0.2l0.1,0.1H31l0.1,0.1"/>
<path class="st1" d="M29.6,753.4v2.5"/>
<path class="st1" d="M32.9,753.3v2.6h-0.1"/>
<path class="st1" d="M30,755.5h2.6"/>
<path class="st1" d="M32.6,755.5L32.6,755.5l0.2,0.2v0.2"/>
<path class="st1" d="M30,755.5h-0.1l-0.2,0.2v0.2h-0.1"/>
<path class="st1" d="M31.3,755h1.3"/>
<path class="st1" d="M33.2,750.6v2.3H33v-2.3"/>
<path class="st1" d="M33.2,752.9v-2.2"/>
<path class="st1" d="M33.1,750.7v2.2V750.7"/>
<path class="st1" d="M33,750.7v2.2"/>
<path class="st1" d="M30,749.5h2.6"/>
<path class="st1" d="M30,749.5h-0.1l-0.2-0.2v-0.2"/>
<path class="st1" d="M29.7,750.5L29.7,750.5l-0.1-1.4"/>
<path class="st1" d="M32.9,749.1v1.4h-0.1"/>
<path class="st1" d="M30,750h2.6"/>
<path class="st1" d="M32.6,750L32.6,750L32.6,750l0.2,0.1l0.1,0.1v0.3"/>
<path class="st1" d="M29.7,749.4v0.7"/>
<path class="st1" d="M29.7,749.3v0.9"/>
<path class="st1" d="M29.7,749.6h3.1"/>
<path class="st1" d="M32.8,749.7h-3.1"/>
<path class="st1" d="M29.7,749.7h3.1"/>
<path class="st1" d="M32.8,749.8h-3.1"/>
<path class="st1" d="M29.7,749.9h3.1"/>
<path class="st1" d="M32.8,749.9h-3.1"/>
<path class="st1" d="M29.7,750h3.1h-0.1"/>
<path class="st1" d="M29.7,749.6h3.1"/>
<path class="st1" d="M32.9,749.3v0.9"/>
<path class="st1" d="M32.8,749.4v0.7"/>
<path class="st1" d="M32.5,746.3H32"/>
<path class="st1" d="M31.8,746.2h0.7"/>
<path class="st1" d="M30.1,746.3h0.5"/>
<path class="st1" d="M30.8,746.2h-0.7"/>
<path class="st1" d="M31.7,745.6h-0.8"/>
<path class="st1" d="M30.8,745.7h1.1"/>
<path class="st1" d="M32,745.7h-1.4"/>
<path class="st1" d="M30.5,745.8h1.7"/>
<path class="st1" d="M32.2,745.8h-1.8"/>
<path class="st1" d="M30.3,745.9h2"/>
<path class="st1" d="M32.4,746h-2.2"/>
<path class="st1" d="M30.2,746h2.3"/>
<path class="st1" d="M32.5,746.1h-2.4"/>
<path class="st1" d="M32.5,746.1h-2.4"/>
<path class="st1" d="M32.7,748.5h-2.8"/>
<path class="st1" d="M29.9,748.4h2.8"/>
<path class="st1" d="M29.9,748.4h2.8"/>
<path class="st1" d="M32.7,748.3h-2.8H32.7"/>
<path class="st1" d="M29.9,748.2h2.8"/>
<path class="st1" d="M29.9,748.2h2.8"/>
<path class="st1" d="M29.9,748.1h2.8"/>
<path class="st1" d="M29.8,746.6v2"/>
<path class="st1" d="M29.7,746.8v1.9"/>
<path class="st1" d="M29.7,747v1.7"/>
<path class="st1" d="M29.9,746.5v0.7"/>
<path class="st1" d="M29.9,748.5V748"/>
<path class="st1" d="M29.9,746.4v0.6"/>
<path class="st1" d="M30,746.3v0.5"/>
<path class="st1" d="M30,746.2v0.6"/>
<path class="st1" d="M30,746.1v0.5"/>
<path class="st1" d="M32.6,746.1v0.6"/>
<path class="st1" d="M32.6,746.8v-0.7"/>
<path class="st1" d="M32.7,746.9v-0.7"/>
<path class="st1" d="M32.7,747v-0.7"/>
<path class="st1" d="M32.7,747.3v-0.8"/>
<path class="st1" d="M32.8,748.7v-2"/>
<path class="st1" d="M32.9,748.7v-1.9"/>
<path class="st1" d="M32.7,748.6v-0.8"/>
<path class="st1" d="M32.7,748.5V748"/>
<path class="st1" d="M32.7,748.1l0.1-0.2v-0.7"/>
<path class="st1" d="M32.9,747.2V747l-0.1-0.2l-0.1-0.2"/>
<path class="st1" d="M32.7,747.2l-0.1-0.2l-0.1-0.1l-0.1-0.1l-0.1-0.1l-0.2-0.1l-0.1-0.1l-0.1-0.1l-0.2-0.1"/>
<path class="st1" d="M32.8,746.6l-0.1-0.2l-0.1-0.2l-0.2-0.1l-0.2-0.2l-0.1-0.1"/>
<path class="st1" d="M32,745.7l-0.2-0.1H31"/>
<path class="st1" d="M31.9,746.3l-0.1-0.1l-0.2-0.1h-0.4"/>
<path class="st1" d="M31.1,746.1l-0.2,0.1l-0.2,0.1l-0.2,0.1"/>
<path class="st1" d="M30,746.2l-0.1,0.1l-0.1,0.1l-0.1,0.1l-0.1,0.1l-0.1,0.2"/>
<path class="st1" d="M29.9,747l-0.1,0.2l-0.1,0.2v0.3l0.1,0.2v0.1"/>
<path class="st1" d="M29.7,746.9L29.7,746.9l-0.1,0.2v1"/>
<path class="st1" d="M29.9,748.1h2.8"/>
<path class="st1" d="M29.6,749L29.6,749l0.1-0.2l0.1-0.1l0.1-0.1H30l0.1-0.1"/>
<path class="st1" d="M32.8,748.7L32.8,748.7L32.8,748.7l-0.2-0.2H30"/>
<path class="st1" d="M29.6,748.1v0.9"/>
<path class="st1" d="M32.9,749L32.9,749l0.1-1.8"/>
<path class="st1" d="M32,742.4c0-0.1-0.1-0.3-0.3-0.3c-0.2,0-0.3,0.1-0.3,0.3"/>
<path class="st1" d="M31.4,742.4c0,0.1,0.1,0.3,0.3,0.3c0.1,0,0.3-0.1,0.3-0.3"/>
<path class="st1" d="M30.7,742.4c0-0.1-0.1-0.3-0.3-0.3c-0.1,0-0.3,0.1-0.3,0.3"/>
<path class="st1" d="M30.2,742.4c0,0.1,0.1,0.3,0.3,0.3c0.1,0,0.3-0.1,0.3-0.3"/>
<path class="st1" d="M27.3,706.8h1169.9V27.3H27.3V706.8"/>
<path class="st2" d="M339.2,765.6l-0.5-0.6L27,765.6H339.2 M338.7,765L27,765.6l0.6-0.6H338.7 M27,765.6l0.6-0.6L27,711V765.6
	 M27.6,765L27,711l0.6,0.6V765 M27,711l0.6,0.6l311.6-0.6H27 M27.6,711.6l311.6-0.6l-0.5,0.6H27.6 M339.2,711l-0.5,0.6l0.5,54V711
	 M338.7,711.6l0.5,54l-0.5-0.6V711.6"/>
<path class="st2" d="M1139.1,765.6l-0.5-0.6l-216,0.6H1139.1 M1138.5,765l-216,0.6l0.5-0.6H1138.5 M922.5,765.6l0.5-0.6l-0.5-54
	V765.6 M923.1,765l-0.5-54l0.5,0.6V765 M922.5,711l0.5,0.6l216-0.6H922.5 M923.1,711.6l216-0.6l-0.5,0.6H923.1 M1139.1,711l-0.5,0.6
	l0.5,54V711 M1138.5,711.6l0.5,54l-0.5-0.6V711.6"/>
<path class="st2" d="M1143.6,765l-0.5,0.6l54-0.6H1143.6 M1143,765.6l54-0.6l0.5,0.6H1143 M1197,765l0.5,0.6l-0.5-54V765
	 M1197.6,765.6l-0.5-54l0.5-0.6V765.6 M1197,711.6l0.5-0.6l-54,0.6H1197 M1197.6,711l-54,0.6l-0.5-0.6H1197.6 M1143.6,711.6
	l-0.5-0.6l0.5,54V711.6 M1143,711l0.5,54l-0.5,0.6V711"/>
<path class="st3" d="M752.1,765l-0.5,0.6l108-0.6H752.1 M751.5,765.6l108-0.6l0.5,0.6H751.5 M859.5,765l0.5,0.6l-0.5-54V765
	 M860.1,765.6l-0.5-54l0.5-0.6V765.6 M859.5,711.6l0.5-0.6l-108,0.6H859.5 M860.1,711l-108,0.6l-0.5-0.6H860.1 M752.1,711.6
	l-0.5-0.6l0.5,54V711.6 M751.5,711l0.5,54l-0.5,0.6V711"/>
<path class="st1" d="M720.3,718.1v47.2"/>
<path class="st1" d="M634.3,718.1v47.2"/>
<path class="st2" d="M564.2,765l-0.5,0.6l54-0.6H564.2 M563.7,765.6l54-0.6l0.5,0.6H563.7 M617.7,765l0.5,0.6l-0.5-54V765
	 M618.2,765.6l-0.5-54l0.5-0.6V765.6 M617.7,711.6l0.5-0.6l-54,0.6H617.7 M618.2,711l-54,0.6l-0.5-0.6H618.2 M564.2,711.6l-0.5-0.6
	l0.5,54V711.6 M563.7,711l0.5,54l-0.5,0.6V711"/>
<path class="st1" d="M622.8,718.1h124.6"/>
<path class="st1" d="M622.8,724.8h124.6"/>
<path class="st1" d="M622.8,731.6h124.6"/>
<path class="st1" d="M622.8,738.3h124.6"/>
<path class="st1" d="M622.8,745.1h124.6"/>
<path class="st1" d="M622.8,751.8h124.6"/>
<path class="st1" d="M622.8,758.6h124.6"/>
<path class="st2" d="M622.7,765l-0.5,0.6L747,765H622.7 M622.2,765.6L747,765l0.5,0.6H622.2 M747,765l0.5,0.6l-0.5-54V765
	 M747.6,765.6l-0.5-54l0.5-0.6V765.6 M747,711.6l0.5-0.6l-124.9,0.6H747 M747.6,711l-124.9,0.6l-0.5-0.6H747.6 M622.7,711.6
	l-0.5-0.6l0.5,54V711.6 M622.2,711l0.5,54l-0.5,0.6V711"/>
<path class="st2" d="M864.6,765l-0.5,0.6l54-0.6H864.6 M864,765.6l54-0.6l0.5,0.6H864 M918,765l0.5,0.6l-0.5-54V765 M918.6,765.6
	l-0.5-54l0.5-0.6V765.6 M918,711.6l0.5-0.6l-54,0.6H918 M918.6,711l-54,0.6L864,711H918.6 M864.6,711.6L864,711l0.5,54L864.6,711.6
	 M864,711l0.5,54l-0.5,0.6V711"/>
<path class="st3" d="M559.7,765.6l-0.5-0.6l-216,0.6H559.7 M559.2,765l-216,0.6l0.5-0.6H559.2 M343.2,765.6l0.5-0.6l-0.5-54V765.6
	 M343.7,765l-0.5-54l0.5,0.6V765 M343.2,711l0.5,0.6l216-0.6H343.2 M343.7,711.6l216-0.6l-0.5,0.6H343.7 M559.7,711l-0.5,0.6l0.5,54
	V711 M559.2,711.6l0.5,54l-0.5-0.6V711.6"/>
<path class="st1" d="M27.3,706.8h1169.9V27.3H27.3V706.8"/>
<path class="st2" d="M891,734.6l0.7-1.6l-13-4L891,734.6 M891.6,733l-13-4l0.7-1.6L891.6,733"/>
<path class="st1" d="M896.9,721.5c-6.8-3.1-14.8-0.1-17.8,6.7C876,735,879,743,885.8,746s14.8,0.1,17.8-6.7S903.7,724.6,896.9,721.5
	"/>
<path class="st1" d="M879,728.2l24.5,11.2"/>
<path class="st1" d="M885.7,746.1l11.2-24.6"/>
<path class="st1" d="M48.4,769.1l-0.1-0.3l-0.4-0.4l-0.4-0.2h-0.7l-0.4,0.2l-0.4,0.4l-0.2,0.3l-0.1,0.5v0.8L46,771l0.2,0.4l0.4,0.3
	l0.4,0.2h0.7l0.4-0.2l0.4-0.3l0.1-0.4"/>
<path class="st1" d="M50.3,769.4l-0.4,0.2l-0.4,0.4l-0.2,0.5v0.4l0.2,0.5l0.4,0.3l0.4,0.2h0.5l0.4-0.2l0.4-0.3l0.2-0.5v-0.4
	l-0.2-0.5l-0.4-0.4l-0.4-0.2H50.3"/>
<path class="st1" d="M52.9,769.4v3.6"/>
<path class="st1" d="M52.9,770l0.3-0.4l0.4-0.2h0.5l0.3,0.2l0.4,0.4l0.2,0.5v0.4l-0.2,0.5l-0.4,0.3l-0.3,0.2h-0.5l-0.4-0.2l-0.3-0.3
	"/>
<path class="st1" d="M55.8,769.4l1,2.4l1-2.4"/>
<path class="st1" d="M56.8,771.8l-0.3,0.7l-0.4,0.3l-0.4,0.2h-0.2"/>
<path class="st1" d="M58.9,769.4v2.4"/>
<path class="st1" d="M58.9,770.4L59,770l0.4-0.4l0.4-0.2h0.5"/>
<path class="st1" d="M60.9,768.4l0.2,0.2l0.2-0.2l-0.2-0.2L60.9,768.4"/>
<path class="st1" d="M61.1,769.6v2.2"/>
<path class="st1" d="M64.4,769.4v2.8l-0.2,0.5l-0.2,0.2l-0.3,0.2h-0.5l-0.4-0.2"/>
<path class="st1" d="M64.4,770l-0.4-0.4l-0.3-0.2h-0.5l-0.4,0.2l-0.3,0.4l-0.2,0.5v0.4l0.2,0.5l0.3,0.3l0.4,0.2h0.5l0.3-0.2l0.4-0.3
	"/>
<path class="st1" d="M65.7,768.2v3.6"/>
<path class="st1" d="M65.7,770.1l0.5-0.5l0.4-0.2h0.5l0.3,0.2l0.2,0.5v1.7"/>
<path class="st1" d="M69.2,768.2v2.9l0.2,0.5l0.4,0.2H70"/>
<path class="st1" d="M68.6,769.4h1.2"/>
<path class="st1" d="M74.6,769.1L74.6,769.1l0.2-0.5l0.2-0.2l0.4-0.2H76l0.4,0.2l0.2,0.2l0.2,0.4v0.3l-0.2,0.4l-0.4,0.5l-1.7,1.7
	h2.4"/>
<path class="st1" d="M78.9,768.2l-0.5,0.2l-0.3,0.5l-0.2,0.8v0.5l0.2,0.9l0.3,0.5l0.5,0.2h0.4l0.5-0.2l0.4-0.5l0.2-0.9v-0.5
	l-0.2-0.8l-0.4-0.5l-0.5-0.2H78.9"/>
<path class="st1" d="M82.4,768.2l-0.5,0.2l-0.3,0.5l-0.2,0.8v0.5l0.2,0.9l0.3,0.5l0.5,0.2h0.4l0.5-0.2l0.4-0.5l0.2-0.9v-0.5
	l-0.2-0.8l-0.4-0.5l-0.5-0.2H82.4"/>
<path class="st1" d="M85.8,768.2l-0.5,0.2l-0.4,0.5l-0.2,0.8v0.5l0.2,0.9l0.4,0.5l0.5,0.2h0.4l0.5-0.2l0.4-0.5l0.2-0.9v-0.5
	l-0.2-0.8l-0.4-0.5l-0.5-0.2H85.8"/>
<path class="st1" d="M88.4,770.3h3.1"/>
<path class="st1" d="M92.8,769.1L92.8,769.1l0.2-0.5l0.2-0.2l0.4-0.2h0.7l0.4,0.2l0.2,0.2l0.2,0.4v0.3l-0.2,0.4l-0.4,0.5l-1.7,1.7
	H95"/>
<path class="st1" d="M97.1,768.2l-0.5,0.2l-0.4,0.5l-0.1,0.8v0.5l0.1,0.9l0.4,0.5l0.5,0.2h0.3l0.5-0.2l0.4-0.5l0.2-0.9v-0.5
	l-0.2-0.8l-0.4-0.5l-0.5-0.2H97.1"/>
<path class="st1" d="M100,768.9l0.4-0.2l0.5-0.5v3.6"/>
<path class="st1" d="M103.4,768.9l0.4-0.2l0.5-0.5v3.6"/>
<path class="st1" d="M110.1,771.8v-3.6l1.4,3.6l1.4-3.6v3.6"/>
<path class="st1" d="M116.1,769.4v2.4"/>
<path class="st1" d="M116.1,770l-0.4-0.4l-0.4-0.2h-0.5l-0.4,0.2L114,770l-0.1,0.5v0.4l0.1,0.5l0.4,0.3l0.4,0.2h0.5l0.4-0.2l0.4-0.3
	"/>
<path class="st1" d="M119.2,770l-0.2-0.4l-0.5-0.2H118l-0.5,0.2l-0.2,0.4l0.2,0.3l0.3,0.2l0.9,0.2l0.3,0.2l0.2,0.4v0.2l-0.2,0.3
	l-0.5,0.2H118l-0.5-0.2l-0.2-0.3"/>
<path class="st1" d="M122.1,770l-0.2-0.4l-0.5-0.2h-0.5l-0.5,0.2l-0.2,0.4l0.2,0.3l0.4,0.2l0.8,0.2l0.4,0.2l0.2,0.4v0.2l-0.2,0.3
	l-0.5,0.2H121l-0.5-0.2l-0.2-0.3"/>
<path class="st1" d="M125.2,769.4v2.4"/>
<path class="st1" d="M125.2,770l-0.3-0.4l-0.4-0.2H124l-0.3,0.2l-0.4,0.4l-0.2,0.5v0.4l0.2,0.5l0.4,0.3l0.3,0.2h0.5l0.4-0.2l0.3-0.3
	"/>
<path class="st1" d="M128.5,770l-0.4-0.4l-0.4-0.2h-0.5l-0.4,0.2l-0.4,0.4l-0.2,0.5v0.4l0.2,0.5l0.4,0.3l0.4,0.2h0.5l0.4-0.2
	l0.4-0.3"/>
<path class="st1" d="M129.7,768.2v3.6"/>
<path class="st1" d="M129.7,770.1l0.5-0.5l0.4-0.2h0.5l0.4,0.2l0.2,0.5v1.7"/>
<path class="st1" d="M132.9,769.4v1.7l0.2,0.5l0.3,0.2h0.5l0.4-0.2l0.5-0.5"/>
<path class="st1" d="M134.8,769.4v2.4"/>
<path class="st1" d="M137.9,770l-0.2-0.4l-0.5-0.2h-0.5l-0.5,0.2L136,770l0.2,0.3l0.4,0.2l0.8,0.2l0.4,0.2l0.2,0.4v0.2l-0.2,0.3
	l-0.5,0.2h-0.5l-0.5-0.2l-0.2-0.3"/>
<path class="st1" d="M138.9,770.4h2v-0.3l-0.2-0.4l-0.2-0.2l-0.3-0.2h-0.5l-0.4,0.2l-0.3,0.4L138.9,770.4v0.4l0.2,0.5l0.3,0.3
	l0.4,0.2h0.5l0.3-0.2l0.4-0.3"/>
<path class="st1" d="M142.4,768.2v2.9l0.2,0.5l0.4,0.2h0.3"/>
<path class="st1" d="M141.8,769.4h1.2"/>
<path class="st1" d="M144.4,768.2v2.9l0.2,0.5l0.4,0.2h0.4"/>
<path class="st1" d="M143.9,769.4h1.2"/>
<path class="st1" d="M148,770l-0.2-0.4l-0.5-0.2h-0.5l-0.5,0.2l-0.2,0.4l0.2,0.3l0.3,0.2l0.9,0.2l0.3,0.2l0.2,0.4v0.2l-0.2,0.3
	l-0.5,0.2h-0.5l-0.5-0.2l-0.2-0.3"/>
<path class="st1" d="M152.8,768.2v3.6"/>
<path class="st1" d="M154.2,769.4v2.4"/>
<path class="st1" d="M154.2,770.1l0.5-0.5l0.3-0.2h0.5l0.4,0.2l0.2,0.5v1.7"/>
<path class="st1" d="M159.2,770l-0.2-0.4l-0.5-0.2H158l-0.5,0.2l-0.1,0.4l0.1,0.3l0.4,0.2l0.8,0.2l0.4,0.2l0.2,0.4v0.2l-0.2,0.3
	l-0.5,0.2H158l-0.5-0.2l-0.1-0.3"/>
<path class="st1" d="M160.5,768.2v2.9l0.2,0.5l0.3,0.2h0.4"/>
<path class="st1" d="M160,769.4h1.2"/>
<path class="st1" d="M162.2,768.4l0.2,0.2l0.2-0.2l-0.2-0.2L162.2,768.4"/>
<path class="st1" d="M162.4,769.6v2.2"/>
<path class="st1" d="M164,768.2v2.9l0.2,0.5l0.4,0.2h0.3"/>
<path class="st1" d="M163.4,769.4h1.2"/>
<path class="st1" d="M165.8,769.4v1.7l0.2,0.5l0.4,0.2h0.5l0.3-0.2l0.5-0.5"/>
<path class="st1" d="M167.7,769.4v2.4"/>
<path class="st1" d="M169.3,768.2v2.9l0.1,0.5l0.4,0.2h0.4"/>
<path class="st1" d="M168.8,769.4h1.2"/>
<path class="st1" d="M171,770.4h2v-0.3l-0.1-0.4l-0.2-0.2l-0.4-0.2h-0.5l-0.3,0.2l-0.4,0.4L171,770.4v0.4l0.2,0.5l0.4,0.3l0.3,0.2
	h0.5l0.4-0.2l0.3-0.3"/>
<path class="st1" d="M178.5,769.4l-0.4,0.2l-0.4,0.4l-0.1,0.5v0.4l0.1,0.5l0.4,0.3l0.4,0.2h0.5l0.4-0.2l0.4-0.3l0.2-0.5v-0.4
	l-0.2-0.5l-0.4-0.4l-0.4-0.2H178.5"/>
<path class="st1" d="M182.1,768.2h-0.4l-0.4,0.2l-0.1,0.5v2.9"/>
<path class="st1" d="M180.8,769.4h1.2"/>
<path class="st1" d="M187.4,768.2v3.6"/>
<path class="st1" d="M186.2,768.2h2.4"/>
<path class="st1" d="M189.3,770.4h2v-0.3l-0.2-0.4l-0.2-0.2l-0.3-0.2h-0.5l-0.4,0.2l-0.3,0.4L189.3,770.4v0.4l0.2,0.5l0.3,0.3
	l0.4,0.2h0.5l0.3-0.2l0.4-0.3"/>
<path class="st1" d="M194.5,770l-0.4-0.4l-0.4-0.2h-0.5l-0.4,0.2l-0.4,0.4l-0.2,0.5v0.4l0.2,0.5l0.4,0.3l0.4,0.2h0.5l0.4-0.2
	l0.4-0.3"/>
<path class="st1" d="M195.7,768.2v3.6"/>
<path class="st1" d="M195.7,770.1l0.5-0.5l0.4-0.2h0.5l0.4,0.2l0.2,0.5v1.7"/>
<path class="st1" d="M198.9,769.4v2.4"/>
<path class="st1" d="M198.9,770.1l0.5-0.5l0.4-0.2h0.5l0.3,0.2l0.2,0.5v1.7"/>
<path class="st1" d="M202.9,769.4l-0.4,0.2l-0.4,0.4l-0.2,0.5v0.4l0.2,0.5l0.4,0.3l0.4,0.2h0.5l0.4-0.2l0.4-0.3l0.1-0.5v-0.4
	l-0.1-0.5l-0.4-0.4l-0.4-0.2H202.9"/>
<path class="st1" d="M205.4,768.2v3.6"/>
<path class="st1" d="M207.5,769.4l-0.4,0.2l-0.4,0.4l-0.2,0.5v0.4l0.2,0.5l0.4,0.3l0.4,0.2h0.5l0.4-0.2l0.4-0.3l0.2-0.5v-0.4
	l-0.2-0.5l-0.4-0.4l-0.4-0.2H207.5"/>
<path class="st1" d="M212,769.4v2.8l-0.2,0.5l-0.2,0.2l-0.3,0.2h-0.5l-0.4-0.2"/>
<path class="st1" d="M212,770l-0.4-0.4l-0.3-0.2h-0.5l-0.4,0.2l-0.3,0.4l-0.2,0.5v0.4l0.2,0.5l0.3,0.3l0.4,0.2h0.5l0.3-0.2l0.4-0.3"
	/>
<path class="st1" d="M213,769.4l1,2.4l1-2.4"/>
<path class="st1" d="M214,771.8l-0.3,0.7l-0.4,0.3L213,773h-0.2"/>
<path class="st1" d="M216.2,771.5l-0.1,0.2l0.1,0.2l0.2-0.2L216.2,771.5"/>
<path class="st1" d="M224.5,771.8l1.3-3.6l1.4,3.6"/>
<path class="st1" d="M225,770.6h1.7"/>
<path class="st1" d="M228.1,768.2v3.6"/>
<path class="st1" d="M229.4,768.2v3.6"/>
<path class="st1" d="M234.4,769.4v2.4"/>
<path class="st1" d="M234.4,770.4l0.2-0.5l0.4-0.4l0.4-0.2h0.5"/>
<path class="st1" d="M236.5,768.4l0.1,0.2l0.2-0.2l-0.2-0.2L236.5,768.4"/>
<path class="st1" d="M236.6,769.6v2.2"/>
<path class="st1" d="M239.9,769.4v2.8l-0.2,0.5l-0.2,0.2l-0.4,0.2h-0.5l-0.4-0.2"/>
<path class="st1" d="M239.9,770l-0.4-0.4l-0.4-0.2h-0.5l-0.4,0.2L238,770l-0.2,0.5v0.4l0.2,0.5l0.4,0.3l0.4,0.2h0.5l0.4-0.2l0.4-0.3
	"/>
<path class="st1" d="M241.3,768.2v3.6"/>
<path class="st1" d="M241.3,770.1l0.5-0.5l0.4-0.2h0.5l0.4,0.2l0.2,0.5v1.7"/>
<path class="st1" d="M244.7,768.2v2.9l0.2,0.5l0.3,0.2h0.4"/>
<path class="st1" d="M244.2,769.4h1.2"/>
<path class="st1" d="M248.3,770l-0.2-0.4l-0.5-0.2h-0.5l-0.5,0.2l-0.2,0.4l0.2,0.3l0.4,0.2l0.8,0.2l0.4,0.2l0.2,0.4v0.2l-0.2,0.3
	l-0.5,0.2h-0.5l-0.5-0.2l-0.2-0.3"/>
<path class="st1" d="M253.1,769.4v2.4"/>
<path class="st1" d="M253.1,770.4l0.2-0.5l0.3-0.4l0.4-0.2h0.5"/>
<path class="st1" d="M255.2,770.4h2v-0.3l-0.2-0.4l-0.1-0.2l-0.4-0.2H256l-0.3,0.2l-0.4,0.4L255.2,770.4v0.4l0.2,0.5l0.4,0.3
	l0.3,0.2h0.5l0.4-0.2l0.3-0.3"/>
<path class="st1" d="M260.1,770l-0.2-0.4l-0.5-0.2h-0.5l-0.5,0.2l-0.2,0.4l0.2,0.3l0.4,0.2l0.8,0.2l0.4,0.2l0.2,0.4v0.2l-0.2,0.3
	l-0.5,0.2H259l-0.5-0.2l-0.2-0.3"/>
<path class="st1" d="M261.2,770.4h2v-0.3l-0.2-0.4l-0.1-0.2l-0.4-0.2H262l-0.3,0.2l-0.4,0.4L261.2,770.4v0.4l0.2,0.5l0.4,0.3
	l0.3,0.2h0.5l0.4-0.2l0.3-0.3"/>
<path class="st1" d="M264.4,769.4v2.4"/>
<path class="st1" d="M264.4,770.4l0.2-0.5l0.4-0.4l0.4-0.2h0.5"/>
<path class="st1" d="M266.3,769.4l1,2.4l1-2.4"/>
<path class="st1" d="M269.2,770.4h2.1v-0.3l-0.2-0.4l-0.2-0.2l-0.4-0.2H270l-0.4,0.2l-0.4,0.4V770.4v0.4l0.2,0.5l0.4,0.3l0.4,0.2
	h0.5l0.4-0.2l0.4-0.3"/>
<path class="st1" d="M274.4,768.2v3.6"/>
<path class="st1" d="M274.4,770l-0.4-0.4l-0.3-0.2h-0.5l-0.4,0.2l-0.3,0.4l-0.2,0.5v0.4l0.2,0.5l0.3,0.3l0.4,0.2h0.5l0.3-0.2
	l0.4-0.3"/>
<path class="st1" d="M275.9,771.5l-0.2,0.2l0.2,0.2l0.2-0.2L275.9,771.5"/>
<path class="st1" d="M284.6,771.8v-3.6h1.6l0.5,0.2l0.2,0.2l0.1,0.4v0.5l-0.1,0.4l-0.2,0.2l-0.5,0.2h-1.6"/>
<path class="st1" d="M288.2,768.2v3.6"/>
<path class="st1" d="M291.5,769.4v2.4"/>
<path class="st1" d="M291.5,770l-0.4-0.4l-0.4-0.2h-0.5l-0.4,0.2l-0.4,0.4l-0.2,0.5v0.4l0.2,0.5l0.4,0.3l0.4,0.2h0.5l0.4-0.2
	l0.4-0.3"/>
<path class="st1" d="M292.9,769.4v2.4"/>
<path class="st1" d="M292.9,770.1l0.5-0.5l0.4-0.2h0.5l0.4,0.2l0.2,0.5v1.7"/>
<path class="st1" d="M297.8,770l-0.1-0.4l-0.5-0.2h-0.5l-0.5,0.2L296,770l0.2,0.3l0.4,0.2l0.8,0.2l0.4,0.2l0.1,0.4v0.2l-0.1,0.3
	l-0.5,0.2h-0.5l-0.5-0.2l-0.2-0.3"/>
<path class="st1" d="M304.5,769.4v2.4"/>
<path class="st1" d="M304.5,770l-0.4-0.4l-0.4-0.2h-0.5l-0.4,0.2l-0.4,0.4l-0.1,0.5v0.4l0.1,0.5l0.4,0.3l0.4,0.2h0.5l0.4-0.2
	l0.4-0.3"/>
<path class="st1" d="M305.9,769.4v2.4"/>
<path class="st1" d="M305.9,770.4l0.2-0.5l0.3-0.4l0.4-0.2h0.5"/>
<path class="st1" d="M308,770.4h2v-0.3l-0.2-0.4l-0.1-0.2l-0.4-0.2h-0.5l-0.3,0.2l-0.4,0.4L308,770.4v0.4l0.2,0.5l0.4,0.3l0.3,0.2
	h0.5l0.4-0.2l0.3-0.3"/>
<path class="st1" d="M315.8,768.2h-0.3l-0.4,0.2l-0.2,0.5v2.9"/>
<path class="st1" d="M314.5,769.4h1.2"/>
<path class="st1" d="M317.6,769.4l-0.4,0.2l-0.3,0.4l-0.2,0.5v0.4l0.2,0.5l0.3,0.3l0.4,0.2h0.5l0.3-0.2l0.4-0.3l0.2-0.5v-0.4
	l-0.2-0.5l-0.4-0.4l-0.3-0.2H317.6"/>
<path class="st1" d="M320.1,769.4v2.4"/>
<path class="st1" d="M320.1,770.4l0.2-0.5l0.3-0.4l0.4-0.2h0.5"/>
<path class="st1" d="M326,771.8v-3.6l1.4,3.6l1.4-3.6v3.6"/>
<path class="st1" d="M330.1,768.2v3.6"/>
<path class="st1" d="M332.1,768.2v3.6"/>
<path class="st1" d="M330.9,768.2h2.4"/>
<path class="st1" d="M339.5,770l-0.2-0.4l-0.5-0.2h-0.5l-0.5,0.2l-0.2,0.4l0.2,0.3l0.4,0.2l0.8,0.2l0.4,0.2l0.2,0.4v0.2l-0.2,0.3
	l-0.5,0.2h-0.5l-0.5-0.2l-0.2-0.3"/>
<path class="st1" d="M340.7,769.4v3.6"/>
<path class="st1" d="M340.7,770l0.3-0.4l0.4-0.2h0.5l0.3,0.2l0.4,0.4l0.2,0.5v0.4l-0.2,0.5l-0.4,0.3l-0.3,0.2h-0.5l-0.4-0.2
	l-0.3-0.3"/>
<path class="st1" d="M345.8,769.4v2.4"/>
<path class="st1" d="M345.8,770l-0.3-0.4l-0.4-0.2h-0.5l-0.3,0.2L344,770l-0.2,0.5v0.4l0.2,0.5l0.4,0.3l0.3,0.2h0.5l0.4-0.2l0.3-0.3
	"/>
<path class="st1" d="M349.1,770l-0.4-0.4l-0.4-0.2h-0.5l-0.4,0.2L347,770l-0.2,0.5v0.4l0.2,0.5l0.4,0.3l0.4,0.2h0.5l0.4-0.2l0.4-0.3
	"/>
<path class="st1" d="M350.1,770.4h2v-0.3l-0.2-0.4l-0.2-0.2l-0.3-0.2H351l-0.4,0.2l-0.3,0.4L350.1,770.4v0.4l0.2,0.5l0.3,0.3
	l0.4,0.2h0.5l0.3-0.2l0.4-0.3"/>
<path class="st1" d="M358.9,769.4v2.4"/>
<path class="st1" d="M358.9,770l-0.4-0.4l-0.4-0.2h-0.5l-0.4,0.2L357,770l-0.2,0.5v0.4l0.2,0.5l0.4,0.3l0.4,0.2h0.5l0.4-0.2l0.4-0.3
	"/>
<path class="st1" d="M362.1,770l-0.4-0.4l-0.4-0.2h-0.5l-0.4,0.2L360,770l-0.1,0.5v0.4l0.1,0.5l0.4,0.3l0.4,0.2h0.5l0.4-0.2l0.4-0.3
	"/>
<path class="st1" d="M365.2,770l-0.3-0.4l-0.4-0.2H364l-0.3,0.2l-0.4,0.4l-0.2,0.5v0.4l0.2,0.5l0.4,0.3l0.3,0.2h0.5l0.4-0.2l0.3-0.3
	"/>
<path class="st1" d="M367.1,769.4l-0.4,0.2l-0.4,0.4l-0.2,0.5v0.4l0.2,0.5l0.4,0.3l0.4,0.2h0.5l0.4-0.2l0.4-0.3l0.2-0.5v-0.4
	l-0.2-0.5l-0.4-0.4l-0.4-0.2H367.1"/>
<path class="st1" d="M369.7,769.4v1.7l0.1,0.5l0.4,0.2h0.5l0.3-0.2l0.5-0.5"/>
<path class="st1" d="M371.6,769.4v2.4"/>
<path class="st1" d="M372.9,769.4v2.4"/>
<path class="st1" d="M372.9,770.1l0.5-0.5l0.4-0.2h0.5l0.3,0.2l0.2,0.5v1.7"/>
<path class="st1" d="M376.4,768.2v2.9l0.2,0.5l0.4,0.2h0.3"/>
<path class="st1" d="M375.8,769.4h1.2"/>
<path class="st1" d="M378.1,768.4l0.1,0.2l0.2-0.2l-0.2-0.2L378.1,768.4"/>
<path class="st1" d="M378.2,769.6v2.2"/>
<path class="st1" d="M379.6,769.4v2.4"/>
<path class="st1" d="M379.6,770.1l0.5-0.5l0.4-0.2h0.5l0.4,0.2l0.2,0.5v1.7"/>
<path class="st1" d="M384.8,769.4v2.8l-0.2,0.5l-0.2,0.2l-0.3,0.2h-0.5l-0.4-0.2"/>
<path class="st1" d="M384.8,770l-0.4-0.4l-0.3-0.2h-0.5l-0.4,0.2l-0.3,0.4l-0.2,0.5v0.4l0.2,0.5l0.3,0.3l0.4,0.2h0.5l0.3-0.2
	l0.4-0.3"/>
<path class="st1" d="M389.7,769.4v3.6"/>
<path class="st1" d="M389.7,770l0.4-0.4l0.3-0.2h0.5l0.4,0.2l0.3,0.4l0.2,0.5v0.4l-0.2,0.5l-0.3,0.3l-0.4,0.2h-0.5l-0.3-0.2
	l-0.4-0.3"/>
<path class="st1" d="M393,769.4v1.7l0.2,0.5l0.4,0.2h0.5l0.4-0.2l0.5-0.5"/>
<path class="st1" d="M394.9,769.4v2.4"/>
<path class="st1" d="M396.2,769.4v2.4"/>
<path class="st1" d="M396.2,770.4l0.2-0.5l0.4-0.4l0.4-0.2h0.5"/>
<path class="st1" d="M398.5,769.4v3.6"/>
<path class="st1" d="M398.5,770l0.3-0.4l0.4-0.2h0.5l0.3,0.2l0.4,0.4l0.2,0.5v0.4l-0.2,0.5l-0.4,0.3l-0.3,0.2h-0.5l-0.4-0.2
	l-0.3-0.3"/>
<path class="st1" d="M402.4,769.4l-0.3,0.2l-0.4,0.4l-0.2,0.5v0.4l0.2,0.5l0.4,0.3l0.3,0.2h0.5l0.4-0.2l0.3-0.3l0.2-0.5v-0.4
	l-0.2-0.5l-0.3-0.4l-0.4-0.2H402.4"/>
<path class="st1" d="M406.7,770l-0.2-0.4l-0.5-0.2h-0.5l-0.5,0.2l-0.2,0.4l0.2,0.3l0.4,0.2l0.8,0.2l0.4,0.2l0.2,0.4v0.2l-0.2,0.3
	l-0.5,0.2h-0.5l-0.5-0.2l-0.2-0.3"/>
<path class="st1" d="M407.7,770.4h2v-0.3l-0.2-0.4l-0.2-0.2l-0.3-0.2h-0.5l-0.4,0.2l-0.3,0.4L407.7,770.4v0.4l0.2,0.5l0.3,0.3
	l0.4,0.2h0.5l0.3-0.2l0.4-0.3"/>
<path class="st1" d="M412.7,770l-0.2-0.4l-0.5-0.2h-0.5l-0.5,0.2l-0.2,0.4l0.2,0.3l0.4,0.2l0.8,0.2l0.4,0.2l0.2,0.4v0.2l-0.2,0.3
	l-0.5,0.2h-0.5l-0.5-0.2l-0.2-0.3"/>
<path class="st1" d="M418.2,769.4l-0.4,0.2l-0.3,0.4l-0.2,0.5v0.4l0.2,0.5l0.3,0.3l0.4,0.2h0.5l0.3-0.2l0.4-0.3l0.2-0.5v-0.4
	l-0.2-0.5l-0.4-0.4l-0.3-0.2H418.2"/>
<path class="st1" d="M420.8,769.4v2.4"/>
<path class="st1" d="M420.8,770.1l0.5-0.5l0.4-0.2h0.5l0.3,0.2l0.2,0.5v1.7"/>
<path class="st1" d="M424,768.2v3.6"/>
<path class="st1" d="M425,769.4l1,2.4l1.1-2.4"/>
<path class="st1" d="M426,771.8l-0.3,0.7l-0.4,0.3L425,773h-0.2"/>
<path class="st1" d="M433.6,769.4v2.4"/>
<path class="st1" d="M433.6,770l-0.4-0.4l-0.3-0.2h-0.5l-0.4,0.2l-0.3,0.4l-0.2,0.5v0.4l0.2,0.5l0.3,0.3l0.4,0.2h0.5l0.3-0.2
	l0.4-0.3"/>
<path class="st1" d="M435,769.4v2.4"/>
<path class="st1" d="M435,770.1l0.5-0.5l0.3-0.2h0.5l0.4,0.2l0.1,0.5v1.7"/>
<path class="st1" d="M440.1,768.2v3.6"/>
<path class="st1" d="M440.1,770l-0.4-0.4l-0.4-0.2h-0.5l-0.4,0.2L438,770l-0.2,0.5v0.4l0.2,0.5l0.4,0.3l0.4,0.2h0.5l0.4-0.2l0.4-0.3
	"/>
<path class="st1" d="M447,769.4v2.4"/>
<path class="st1" d="M447,770l-0.4-0.4l-0.3-0.2h-0.5l-0.4,0.2l-0.3,0.4l-0.2,0.5v0.4l0.2,0.5l0.3,0.3l0.4,0.2h0.5l0.3-0.2l0.4-0.3"
	/>
<path class="st1" d="M448.4,769.4v2.4"/>
<path class="st1" d="M448.4,770.4l0.2-0.5l0.3-0.4l0.4-0.2h0.5"/>
<path class="st1" d="M450.4,770.4h2v-0.3l-0.1-0.4l-0.2-0.2l-0.4-0.2h-0.5l-0.3,0.2l-0.4,0.4L450.4,770.4v0.4l0.2,0.5l0.4,0.3
	l0.3,0.2h0.5l0.4-0.2l0.3-0.3"/>
<path class="st1" d="M457.2,769.4v2.4"/>
<path class="st1" d="M457.2,770.1l0.5-0.5l0.4-0.2h0.5l0.4,0.2l0.2,0.5v1.7"/>
<path class="st1" d="M461.2,769.4l-0.4,0.2l-0.3,0.4l-0.2,0.5v0.4l0.2,0.5l0.3,0.3l0.4,0.2h0.5l0.3-0.2l0.4-0.3l0.2-0.5v-0.4
	l-0.2-0.5l-0.4-0.4l-0.3-0.2H461.2"/>
<path class="st1" d="M464,768.2v2.9l0.2,0.5l0.3,0.2h0.4"/>
<path class="st1" d="M463.4,769.4h1.2"/>
<path class="st1" d="M470.4,768.2h-0.3l-0.4,0.2l-0.2,0.5v2.9"/>
<path class="st1" d="M469.1,769.4h1.2"/>
<path class="st1" d="M472.2,769.4l-0.4,0.2l-0.3,0.4l-0.2,0.5v0.4l0.2,0.5l0.3,0.3l0.4,0.2h0.5l0.3-0.2l0.4-0.3l0.2-0.5v-0.4
	l-0.2-0.5l-0.4-0.4l-0.3-0.2H472.2"/>
<path class="st1" d="M474.8,769.4v2.4"/>
<path class="st1" d="M474.8,770.4l0.2-0.5l0.3-0.4l0.4-0.2h0.5"/>
<path class="st1" d="M482.4,768.2v3.6"/>
<path class="st1" d="M482.4,770l-0.3-0.4l-0.4-0.2h-0.5l-0.3,0.2l-0.4,0.4l-0.2,0.5v0.4l0.2,0.5l0.4,0.3l0.3,0.2h0.5l0.4-0.2
	l0.3-0.3"/>
<path class="st1" d="M483.6,770.4h2.1v-0.3l-0.2-0.4l-0.2-0.2l-0.4-0.2h-0.5l-0.4,0.2l-0.4,0.4V770.4v0.4l0.2,0.5l0.4,0.3l0.4,0.2
	h0.5l0.4-0.2l0.4-0.3"/>
<path class="st1" d="M488.6,770l-0.2-0.4l-0.5-0.2h-0.5l-0.5,0.2l-0.2,0.4l0.2,0.3l0.3,0.2l0.9,0.2l0.3,0.2l0.2,0.4v0.2l-0.2,0.3
	l-0.5,0.2h-0.5l-0.5-0.2l-0.2-0.3"/>
<path class="st1" d="M489.6,768.4l0.2,0.2l0.2-0.2l-0.2-0.2L489.6,768.4"/>
<path class="st1" d="M489.8,769.6v2.2"/>
<path class="st1" d="M493.1,769.4v2.8l-0.2,0.5l-0.2,0.2l-0.4,0.2h-0.5l-0.4-0.2"/>
<path class="st1" d="M493.1,770l-0.4-0.4l-0.4-0.2h-0.5l-0.4,0.2L491,770l-0.2,0.5v0.4l0.2,0.5l0.4,0.3l0.4,0.2h0.5l0.4-0.2l0.4-0.3
	"/>
<path class="st1" d="M494.4,769.4v2.4"/>
<path class="st1" d="M494.4,770.1l0.5-0.5l0.4-0.2h0.5l0.4,0.2l0.2,0.5v1.7"/>
<path class="st1" d="M501.3,769.4v1.7l0.2,0.5l0.3,0.2h0.5l0.4-0.2l0.5-0.5"/>
<path class="st1" d="M503.2,769.4v2.4"/>
<path class="st1" d="M506.3,770l-0.2-0.4l-0.5-0.2h-0.5l-0.5,0.2l-0.2,0.4l0.2,0.3l0.4,0.2l0.8,0.2l0.4,0.2l0.2,0.4v0.2l-0.2,0.3
	l-0.5,0.2h-0.5l-0.5-0.2l-0.2-0.3"/>
<path class="st1" d="M507.3,770.4h2v-0.3l-0.2-0.4l-0.2-0.2l-0.3-0.2h-0.5l-0.4,0.2l-0.3,0.4L507.3,770.4v0.4l0.2,0.5l0.3,0.3
	l0.4,0.2h0.5l0.3-0.2l0.4-0.3"/>
<path class="st1" d="M510.8,771.5l-0.2,0.2l0.2,0.2l0.2-0.2L510.8,771.5"/>
<path class="st1" d="M398.6,742.8h108v-9h-108V742.8"/>
<path class="st1" d="M398.6,738.3h108"/>
<path class="st2" d="M506.6,738.3h-36l36,4.5V738.3 M470.6,738.3l36,4.5h-36V738.3"/>
<path class="st2" d="M470.6,733.8h-36l36,4.5V733.8 M434.6,733.8l36,4.5h-36V733.8"/>
<path class="st2" d="M434.6,738.3h-18l18,4.5V738.3 M416.6,738.3l18,4.5h-18V738.3"/>
<path class="st2" d="M416.6,733.8h-18l18,4.5V733.8 M398.6,733.8l18,4.5h-18V733.8"/>
<path class="st1" d="M398.6,742.8v2.3"/>
<path class="st1" d="M416.6,742.8v-9"/>
<path class="st1" d="M434.6,745.1v-11.3"/>
<path class="st1" d="M470.6,745.1v-11.3"/>
<path class="st1" d="M506.6,742.8v2.3"/>
</svg>
